<svg xmlns="http://www.w3.org/2000/svg" preserveAspectRatio="xMidYMid" width="90" height="3441" viewBox="0 0 90 3441"><defs><style>

      .cls-4 {
        fill: #ffffff;
      }

      .cls-5 {
        fill: #8b8b8b;
      }

      .cls-9 {
        fill: #ffffff;
        opacity: 0.55;
      }

      .cls-107 {
        fill: #ffffff;
        fill-opacity: 0.85;
      }

      .cls-109 {
        fill: #ffffff;
        opacity: 0;
      }
    </style></defs><circle class="cls-4" cx="58" cy="3375" r="11"/><circle class="cls-5" cx="32" cy="3375" r="11"/><path d="M63.818 3309C63.818 3309 61 3309 61 3309 61 3309 61 3307 61 3307 61 3307 63 3307 63 3307 65.209 3307 67 3305.209 67 3303 67 3303 67 3301 67 3301 67 3301 69 3301 69 3301 69 3301 69 3303.857 69 3303.857 69 3306.697 66.68 3309 63.818 3309ZM67 3295C67 3295 69 3295 69 3295 69 3295 69 3299 69 3299 69 3299 67 3299 67 3299 67 3299 67 3295 67 3295ZM67 3289C67 3289 69 3289 69 3289 69 3289 69 3293 69 3293 69 3293 67 3293 67 3293 67 3293 67 3289 67 3289ZM67 3283C67 3283 69 3283 69 3283 69 3283 69 3287 69 3287 69 3287 67 3287 67 3287 67 3287 67 3283 67 3283ZM67 3277C67 3277 69 3277 69 3277 69 3277 69 3281 69 3281 69 3281 67 3281 67 3281 67 3281 67 3277 67 3277ZM67 3271C67 3271 69 3271 69 3271 69 3271 69 3275 69 3275 69 3275 67 3275 67 3275 67 3275 67 3271 67 3271ZM67 3267C67 3264.791 65.209 3263 63 3263 63 3263 61 3263 61 3263 61 3263 61 3261 61 3261 61 3261 59 3261 59 3261 59 3261 59 3263 59 3263 59 3263 55 3263 55 3263 55 3263 55 3261 55 3261 55 3261 53 3261 53 3261 53 3261 53 3263 53 3263 53 3263 49 3263 49 3263 49 3263 49 3261 49 3261 49 3261 47 3261 47 3261 47 3261 47 3263 47 3263 47 3263 43 3263 43 3263 43 3263 43 3261 43 3261 43 3261 41 3261 41 3261 41 3261 41 3263 41 3263 41 3263 37 3263 37 3263 37 3263 37 3261 37 3261 37 3261 35 3261 35 3261 35 3261 35 3263 35 3263 35 3263 31 3263 31 3263 31 3263 31 3261 31 3261 31 3261 29 3261 29 3261 29 3261 29 3263 29 3263 29 3263 27 3263 27 3263 24.791 3263 23 3264.791 23 3267 23 3267 23 3269 23 3269 23 3269 21 3269 21 3269 21 3269 21 3271 21 3271 21 3271 23 3271 23 3271 23 3271 23 3275 23 3275 23 3275 21 3275 21 3275 21 3275 21 3277 21 3277 21 3277 23 3277 23 3277 23 3277 23 3281 23 3281 23 3281 21 3281 21 3281 21 3281 21 3283 21 3283 21 3283 23 3283 23 3283 23 3283 23 3287 23 3287 23 3287 21 3287 21 3287 21 3287 21 3289 21 3289 21 3289 23 3289 23 3289 23 3289 23 3293 23 3293 23 3293 21 3293 21 3293 21 3293 21 3295 21 3295 21 3295 23 3295 23 3295 23 3295 23 3299 23 3299 23 3299 21 3299 21 3299 21 3299 21 3301 21 3301 21 3301 23 3301 23 3301 23 3301 23 3303 23 3303 23 3305.209 24.791 3307 27 3307 27 3307 29 3307 29 3307 29 3307 29 3309 29 3309 29 3309 26.182 3309 26.182 3309 23.32 3309 21 3306.697 21 3303.857 21 3303.857 21 3266.143 21 3266.143 21 3263.302 23.32 3261 26.182 3261 26.182 3261 63.818 3261 63.818 3261 66.68 3261 69 3263.302 69 3266.143 69 3266.143 69 3269 69 3269 69 3269 67 3269 67 3269 67 3269 67 3267 67 3267ZM35 3309C35 3309 31 3309 31 3309 31 3309 31 3307 31 3307 31 3307 35 3307 35 3307 35 3307 35 3309 35 3309ZM41 3309C41 3309 37 3309 37 3309 37 3309 37 3307 37 3307 37 3307 41 3307 41 3307 41 3307 41 3309 41 3309ZM47 3309C47 3309 43 3309 43 3309 43 3309 43 3307 43 3307 43 3307 47 3307 47 3307 47 3307 47 3309 47 3309ZM53 3309C53 3309 49 3309 49 3309 49 3309 49 3307 49 3307 49 3307 53 3307 53 3307 53 3307 53 3309 53 3309ZM59 3309C59 3309 55 3309 55 3309 55 3309 55 3307 55 3307 55 3307 59 3307 59 3307 59 3307 59 3309 59 3309Z" class="cls-4" fill-rule="evenodd"/><path d="M56.25 3285.75C56.25 3285.75 56.25 3284.25 56.25 3284.25 56.25 3284.25 59.25 3284.25 59.25 3284.25 59.25 3284.25 59.25 3285.75 59.25 3285.75 59.25 3285.75 56.25 3285.75 56.25 3285.75ZM52.434 3293.477C52.434 3293.477 53.495 3292.415 53.495 3292.415 53.495 3292.415 55.617 3294.534 55.617 3294.534 55.617 3294.534 54.556 3295.597 54.556 3295.597 54.556 3295.597 52.434 3293.477 52.434 3293.477ZM52.42 3276.511C52.42 3276.511 54.54 3274.388 54.54 3274.388 54.54 3274.388 55.601 3275.448 55.601 3275.448 55.601 3275.448 53.481 3277.571 53.481 3277.571 53.481 3277.571 52.42 3276.511 52.42 3276.511ZM44.25 3296.25C44.25 3296.25 45.75 3296.25 45.75 3296.25 45.75 3296.25 45.75 3299.25 45.75 3299.25 45.75 3299.25 44.25 3299.25 44.25 3299.25 44.25 3299.25 44.25 3296.25 44.25 3296.25ZM44.25 3270.75C44.25 3270.75 45.75 3270.75 45.75 3270.75 45.75 3270.75 45.75 3273.75 45.75 3273.75 45.75 3273.75 44.25 3273.75 44.25 3273.75 44.25 3273.75 44.25 3270.75 44.25 3270.75ZM34.399 3294.552C34.399 3294.552 36.519 3292.429 36.519 3292.429 36.519 3292.429 37.58 3293.489 37.58 3293.489 37.58 3293.489 35.46 3295.612 35.46 3295.612 35.46 3295.612 34.399 3294.552 34.399 3294.552ZM34.383 3275.466C34.383 3275.466 35.444 3274.403 35.444 3274.403 35.444 3274.403 37.566 3276.523 37.566 3276.523 37.566 3276.523 36.505 3277.585 36.505 3277.585 36.505 3277.585 34.383 3275.466 34.383 3275.466ZM30.75 3284.25C30.75 3284.25 33.75 3284.25 33.75 3284.25 33.75 3284.25 33.75 3285.75 33.75 3285.75 33.75 3285.75 30.75 3285.75 30.75 3285.75 30.75 3285.75 30.75 3284.25 30.75 3284.25Z" class="cls-9" fill-rule="evenodd"/><path d="M45 3303C35.059 3303 27 3294.941 27 3285 27 3275.059 35.059 3267 45 3267 54.941 3267 63 3275.059 63 3285 63 3294.941 54.941 3303 45 3303ZM45 3270C36.716 3270 30 3276.716 30 3285 30 3293.284 36.716 3300 45 3300 53.284 3300 60 3293.284 60 3285 60 3276.716 53.284 3270 45 3270ZM47.889 3284.234C47.954 3284.48 48 3284.733 48 3285 48 3286.657 46.657 3288 45 3288 43.696 3288 42.597 3287.163 42.184 3286 42.184 3286 33 3286 33 3286 32.448 3286 32 3285.552 32 3285 32 3284.448 32.448 3284 33 3284 33 3284 42.184 3284 42.184 3284 42.597 3282.837 43.696 3282 45 3282 45.267 3282 45.522 3282.046 45.768 3282.112 45.768 3282.112 50.119 3277.756 50.119 3277.756 50.704 3277.17 51.654 3277.169 52.24 3277.755 52.826 3278.34 52.827 3279.29 52.241 3279.876 52.241 3279.876 47.889 3284.234 47.889 3284.234Z" class="cls-4" fill-rule="evenodd"/><path d="M67 3185C67 3182.791 65.209 3181 63 3181 63 3181 27 3181 27 3181 24.791 3181 23 3182.791 23 3185 23 3185 23 3213 23 3213 23 3215.209 24.791 3217 27 3217 27 3217 47.211 3217 47.211 3217 47.994 3217.766 48.871 3218.433 49.816 3219 49.816 3219 26 3219 26 3219 23.239 3219 21 3216.761 21 3214 21 3214 21 3176 21 3176 21 3173.239 23.239 3171 26 3171 26 3171 28 3171 28 3171 28 3171 28 3177 28 3177 28 3178.104 28.895 3179 30 3179 31.105 3179 32 3178.104 32 3177 32 3177 32 3171 32 3171 32 3171 38 3171 38 3171 38 3171 38 3177 38 3177 38 3178.104 38.895 3179 40 3179 41.105 3179 42 3178.104 42 3177 42 3177 42 3171 42 3171 42 3171 48 3171 48 3171 48 3171 48 3177 48 3177 48 3178.104 48.895 3179 50 3179 51.105 3179 52 3178.104 52 3177 52 3177 52 3171 52 3171 52 3171 58 3171 58 3171 58 3171 58 3177 58 3177 58 3178.104 58.895 3179 60 3179 61.105 3179 62 3178.104 62 3177 62 3177 62 3171 62 3171 62 3171 64 3171 64 3171 66.761 3171 69 3173.239 69 3176 69 3176 69 3199.816 69 3199.816 68.433 3198.871 67.766 3197.994 67 3197.211 67 3197.211 67 3185 67 3185ZM60 3178C59.448 3178 59 3177.552 59 3177 59 3177 59 3170 59 3170 59 3169.448 59.448 3169 60 3169 60.552 3169 61 3169.448 61 3170 61 3170 61 3177 61 3177 61 3177.552 60.552 3178 60 3178ZM50 3178C49.448 3178 49 3177.552 49 3177 49 3177 49 3170 49 3170 49 3169.448 49.448 3169 50 3169 50.552 3169 51 3169.448 51 3170 51 3170 51 3177 51 3177 51 3177.552 50.552 3178 50 3178ZM40 3178C39.448 3178 39 3177.552 39 3177 39 3177 39 3170 39 3170 39 3169.448 39.448 3169 40 3169 40.552 3169 41 3169.448 41 3170 41 3170 41 3177 41 3177 41 3177.552 40.552 3178 40 3178ZM30 3178C29.448 3178 29 3177.552 29 3177 29 3177 29 3170 29 3170 29 3169.448 29.448 3169 30 3169 30.552 3169 31 3169.448 31 3170 31 3170 31 3177 31 3177 31 3177.552 30.552 3178 30 3178Z" class="cls-4" fill-rule="evenodd"/><path d="M64 3193C64 3193 62 3193 62 3193 61.448 3193 61 3192.552 61 3192 61 3192 61 3191 61 3191 61 3190.448 61.448 3190 62 3190 62 3190 64 3190 64 3190 64.552 3190 65 3190.448 65 3191 65 3191 65 3192 65 3192 65 3192.552 64.552 3193 64 3193ZM64 3188C64 3188 62 3188 62 3188 61.448 3188 61 3187.552 61 3187 61 3187 61 3186 61 3186 61 3185.448 61.448 3185 62 3185 62 3185 64 3185 64 3185 64.552 3185 65 3185.448 65 3186 65 3186 65 3187 65 3187 65 3187.552 64.552 3188 64 3188ZM58 3193C58 3193 56 3193 56 3193 55.448 3193 55 3192.552 55 3192 55 3192 55 3191 55 3191 55 3190.448 55.448 3190 56 3190 56 3190 58 3190 58 3190 58.552 3190 59 3190.448 59 3191 59 3191 59 3192 59 3192 59 3192.552 58.552 3193 58 3193ZM52 3193C52 3193 50 3193 50 3193 49.448 3193 49 3192.552 49 3192 49 3192 49 3191 49 3191 49 3190.448 49.448 3190 50 3190 50 3190 52 3190 52 3190 52.552 3190 53 3190.448 53 3191 53 3191 53 3192 53 3192 53 3192.552 52.552 3193 52 3193ZM46.347 3197.93C46.238 3197.971 46.123 3198 46 3198 46 3198 44 3198 44 3198 43.448 3198 43 3197.552 43 3197 43 3197 43 3196 43 3196 43 3195.448 43.448 3195 44 3195 44 3195 46 3195 46 3195 46.552 3195 47 3195.448 47 3196 47 3196 47 3197 47 3197 47 3197.096 46.971 3197.183 46.945 3197.271 46.739 3197.485 46.539 3197.704 46.347 3197.93ZM46 3193C46 3193 44 3193 44 3193 43.448 3193 43 3192.552 43 3192 43 3192 43 3191 43 3191 43 3190.448 43.448 3190 44 3190 44 3190 46 3190 46 3190 46.552 3190 47 3190.448 47 3191 47 3191 47 3192 47 3192 47 3192.552 46.552 3193 46 3193ZM40 3208C40 3208 38 3208 38 3208 37.448 3208 37 3207.552 37 3207 37 3207 37 3206 37 3206 37 3205.448 37.448 3205 38 3205 38 3205 40 3205 40 3205 40.552 3205 41 3205.448 41 3206 41 3206 41 3207 41 3207 41 3207.552 40.552 3208 40 3208ZM40 3203C40 3203 38 3203 38 3203 37.448 3203 37 3202.552 37 3202 37 3202 37 3201 37 3201 37 3200.448 37.448 3200 38 3200 38 3200 40 3200 40 3200 40.552 3200 41 3200.448 41 3201 41 3201 41 3202 41 3202 41 3202.552 40.552 3203 40 3203ZM40 3198C40 3198 38 3198 38 3198 37.448 3198 37 3197.552 37 3197 37 3197 37 3196 37 3196 37 3195.448 37.448 3195 38 3195 38 3195 40 3195 40 3195 40.552 3195 41 3195.448 41 3196 41 3196 41 3197 41 3197 41 3197.552 40.552 3198 40 3198ZM40 3193C40 3193 38 3193 38 3193 37.448 3193 37 3192.552 37 3192 37 3192 37 3191 37 3191 37 3190.448 37.448 3190 38 3190 38 3190 40 3190 40 3190 40.552 3190 41 3190.448 41 3191 41 3191 41 3192 41 3192 41 3192.552 40.552 3193 40 3193ZM34 3213C34 3213 32 3213 32 3213 31.448 3213 31 3212.552 31 3212 31 3212 31 3211 31 3211 31 3210.448 31.448 3210 32 3210 32 3210 34 3210 34 3210 34.552 3210 35 3210.448 35 3211 35 3211 35 3212 35 3212 35 3212.552 34.552 3213 34 3213ZM34 3208C34 3208 32 3208 32 3208 31.448 3208 31 3207.552 31 3207 31 3207 31 3206 31 3206 31 3205.448 31.448 3205 32 3205 32 3205 34 3205 34 3205 34.552 3205 35 3205.448 35 3206 35 3206 35 3207 35 3207 35 3207.552 34.552 3208 34 3208ZM34 3203C34 3203 32 3203 32 3203 31.448 3203 31 3202.552 31 3202 31 3202 31 3201 31 3201 31 3200.448 31.448 3200 32 3200 32 3200 34 3200 34 3200 34.552 3200 35 3200.448 35 3201 35 3201 35 3202 35 3202 35 3202.552 34.552 3203 34 3203ZM34 3198C34 3198 32 3198 32 3198 31.448 3198 31 3197.552 31 3197 31 3197 31 3196 31 3196 31 3195.448 31.448 3195 32 3195 32 3195 34 3195 34 3195 34.552 3195 35 3195.448 35 3196 35 3196 35 3197 35 3197 35 3197.552 34.552 3198 34 3198ZM34 3193C34 3193 32 3193 32 3193 31.448 3193 31 3192.552 31 3192 31 3192 31 3191 31 3191 31 3190.448 31.448 3190 32 3190 32 3190 34 3190 34 3190 34.552 3190 35 3190.448 35 3191 35 3191 35 3192 35 3192 35 3192.552 34.552 3193 34 3193ZM28 3213C28 3213 26 3213 26 3213 25.448 3213 25 3212.552 25 3212 25 3212 25 3211 25 3211 25 3210.448 25.448 3210 26 3210 26 3210 28 3210 28 3210 28.552 3210 29 3210.448 29 3211 29 3211 29 3212 29 3212 29 3212.552 28.552 3213 28 3213ZM28 3208C28 3208 26 3208 26 3208 25.448 3208 25 3207.552 25 3207 25 3207 25 3206 25 3206 25 3205.448 25.448 3205 26 3205 26 3205 28 3205 28 3205 28.552 3205 29 3205.448 29 3206 29 3206 29 3207 29 3207 29 3207.552 28.552 3208 28 3208ZM28 3203C28 3203 26 3203 26 3203 25.448 3203 25 3202.552 25 3202 25 3202 25 3201 25 3201 25 3200.448 25.448 3200 26 3200 26 3200 28 3200 28 3200 28.552 3200 29 3200.448 29 3201 29 3201 29 3202 29 3202 29 3202.552 28.552 3203 28 3203ZM28 3198C28 3198 26 3198 26 3198 25.448 3198 25 3197.552 25 3197 25 3197 25 3196 25 3196 25 3195.448 25.448 3195 26 3195 26 3195 28 3195 28 3195 28.552 3195 29 3195.448 29 3196 29 3196 29 3197 29 3197 29 3197.552 28.552 3198 28 3198ZM28 3193C28 3193 26 3193 26 3193 25.448 3193 25 3192.552 25 3192 25 3192 25 3191 25 3191 25 3190.448 25.448 3190 26 3190 26 3190 28 3190 28 3190 28.552 3190 29 3190.448 29 3191 29 3191 29 3192 29 3192 29 3192.552 28.552 3193 28 3193ZM44 3200C44 3200 44.888 3200 44.888 3200 44.358 3200.915 43.922 3201.889 43.608 3202.92 43.251 3202.767 43 3202.413 43 3202 43 3202 43 3201 43 3201 43 3200.448 43.448 3200 44 3200ZM43 3207C43 3207 43 3206 43 3206 43 3205.882 43.03 3205.772 43.067 3205.666 43.026 3206.106 43 3206.55 43 3207ZM64.736 3195.335C64.586 3195.236 64.429 3195.149 64.275 3195.055 64.455 3195.108 64.613 3195.2 64.736 3195.335ZM49.725 3195.055C49.571 3195.149 49.414 3195.236 49.264 3195.335 49.387 3195.2 49.545 3195.108 49.725 3195.055Z" class="cls-4" fill-rule="evenodd"/><path d="M58 3188C58 3188 56 3188 56 3188 55.448 3188 55 3187.552 55 3187 55 3187 55 3186 55 3186 55 3185.448 55.448 3185 56 3185 56 3185 58 3185 58 3185 58.552 3185 59 3185.448 59 3186 59 3186 59 3187 59 3187 59 3187.552 58.552 3188 58 3188ZM52 3188C52 3188 50 3188 50 3188 49.448 3188 49 3187.552 49 3187 49 3187 49 3186 49 3186 49 3185.448 49.448 3185 50 3185 50 3185 52 3185 52 3185 52.552 3185 53 3185.448 53 3186 53 3186 53 3187 53 3187 53 3187.552 52.552 3188 52 3188ZM46 3188C46 3188 44 3188 44 3188 43.448 3188 43 3187.552 43 3187 43 3187 43 3186 43 3186 43 3185.448 43.448 3185 44 3185 44 3185 46 3185 46 3185 46.552 3185 47 3185.448 47 3186 47 3186 47 3187 47 3187 47 3187.552 46.552 3188 46 3188ZM40 3213C40 3213 38 3213 38 3213 37.448 3213 37 3212.552 37 3212 37 3212 37 3211 37 3211 37 3210.448 37.448 3210 38 3210 38 3210 40 3210 40 3210 40.552 3210 41 3210.448 41 3211 41 3211 41 3212 41 3212 41 3212.552 40.552 3213 40 3213ZM40 3188C40 3188 38 3188 38 3188 37.448 3188 37 3187.552 37 3187 37 3187 37 3186 37 3186 37 3185.448 37.448 3185 38 3185 38 3185 40 3185 40 3185 40.552 3185 41 3185.448 41 3186 41 3186 41 3187 41 3187 41 3187.552 40.552 3188 40 3188ZM34 3188C34 3188 32 3188 32 3188 31.448 3188 31 3187.552 31 3187 31 3187 31 3186 31 3186 31 3185.448 31.448 3185 32 3185 32 3185 34 3185 34 3185 34.552 3185 35 3185.448 35 3186 35 3186 35 3187 35 3187 35 3187.552 34.552 3188 34 3188ZM28 3188C28 3188 26 3188 26 3188 25.448 3188 25 3187.552 25 3187 25 3187 25 3186 25 3186 25 3185.448 25.448 3185 26 3185 26 3185 28 3185 28 3185 28.552 3185 29 3185.448 29 3186 29 3186 29 3187 29 3187 29 3187.552 28.552 3188 28 3188ZM43.389 3210.228C43.618 3211.196 43.947 3212.122 44.365 3213 44.365 3213 44 3213 44 3213 43.448 3213 43 3212.552 43 3212 43 3212 43 3211 43 3211 43 3210.682 43.158 3210.411 43.389 3210.228Z" class="cls-9" fill-rule="evenodd"/><path d="M64.5 3207.5C64.5 3207.5 64.5 3206.5 64.5 3206.5 64.5 3206.5 66.5 3206.5 66.5 3206.5 66.5 3206.5 66.5 3207.5 66.5 3207.5 66.5 3207.5 64.5 3207.5 64.5 3207.5ZM61.956 3212.651C61.956 3212.651 62.663 3211.943 62.663 3211.943 62.663 3211.943 64.078 3213.356 64.078 3213.356 64.078 3213.356 63.371 3214.065 63.371 3214.065 63.371 3214.065 61.956 3212.651 61.956 3212.651ZM61.947 3201.34C61.947 3201.34 63.36 3199.925 63.36 3199.925 63.36 3199.925 64.068 3200.632 64.068 3200.632 64.068 3200.632 62.654 3202.047 62.654 3202.047 62.654 3202.047 61.947 3201.34 61.947 3201.34ZM56.5 3214.5C56.5 3214.5 57.5 3214.5 57.5 3214.5 57.5 3214.5 57.5 3216.5 57.5 3216.5 57.5 3216.5 56.5 3216.5 56.5 3216.5 56.5 3216.5 56.5 3214.5 56.5 3214.5ZM56.5 3197.5C56.5 3197.5 57.5 3197.5 57.5 3197.5 57.5 3197.5 57.5 3199.5 57.5 3199.5 57.5 3199.5 56.5 3199.5 56.5 3199.5 56.5 3199.5 56.5 3197.5 56.5 3197.5ZM49.932 3213.368C49.932 3213.368 51.346 3211.953 51.346 3211.953 51.346 3211.953 52.053 3212.66 52.053 3212.66 52.053 3212.66 50.64 3214.075 50.64 3214.075 50.64 3214.075 49.932 3213.368 49.932 3213.368ZM49.922 3200.644C49.922 3200.644 50.629 3199.935 50.629 3199.935 50.629 3199.935 52.044 3201.349 52.044 3201.349 52.044 3201.349 51.337 3202.057 51.337 3202.057 51.337 3202.057 49.922 3200.644 49.922 3200.644ZM47.5 3206.5C47.5 3206.5 49.5 3206.5 49.5 3206.5 49.5 3206.5 49.5 3207.5 49.5 3207.5 49.5 3207.5 47.5 3207.5 47.5 3207.5 47.5 3207.5 47.5 3206.5 47.5 3206.5Z" class="cls-9" fill-rule="evenodd"/><path d="M57 3219C50.373 3219 45 3213.627 45 3207 45 3200.372 50.373 3195 57 3195 63.627 3195 69 3200.372 69 3207 69 3213.627 63.627 3219 57 3219ZM57 3197C51.477 3197 47 3201.477 47 3207 47 3212.523 51.477 3217 57 3217 62.523 3217 67 3212.523 67 3207 67 3201.477 62.523 3197 57 3197ZM58.926 3206.489C58.969 3206.653 59 3206.822 59 3207 59 3208.105 58.105 3209 57 3209 56.262 3209 55.624 3208.595 55.277 3208 55.277 3208 49.5 3208 49.5 3208 48.948 3208 48.5 3207.552 48.5 3207 48.5 3206.448 48.948 3206 49.5 3206 49.5 3206 55.277 3206 55.277 3206 55.624 3205.405 56.262 3205 57 3205 57.178 3205 57.348 3205.031 57.512 3205.074 57.512 3205.074 60.412 3202.171 60.412 3202.171 60.803 3201.78 61.436 3201.779 61.827 3202.17 62.217 3202.56 62.218 3203.193 61.828 3203.584 61.828 3203.584 58.926 3206.489 58.926 3206.489Z" class="cls-4" fill-rule="evenodd"/><path d="M60.001 3105.992C60.001 3105.992 60.001 3103.99 60.001 3103.99 60.001 3103.99 63.999 3103.99 63.999 3103.99 63.999 3103.99 63.999 3105.992 63.999 3105.992 63.999 3105.992 60.001 3105.992 60.001 3105.992ZM54.912 3116.303C54.912 3116.303 56.327 3114.886 56.327 3114.886 56.327 3114.886 59.156 3117.712 59.156 3117.712 59.156 3117.712 57.741 3119.129 57.741 3119.129 57.741 3119.129 54.912 3116.303 54.912 3116.303ZM54.893 3093.681C54.893 3093.681 57.72 3090.851 57.72 3090.851 57.72 3090.851 59.135 3092.264 59.135 3092.264 59.135 3092.264 56.308 3095.094 56.308 3095.094 56.308 3095.094 54.893 3093.681 54.893 3093.681ZM44 3120C44 3120 46 3120 46 3120 46 3120 46 3124 46 3124 46 3124 44 3124 44 3124 44 3124 44 3120 44 3120ZM44 3086C44 3086 46 3086 46 3086 46 3086 46 3090 46 3090 46 3090 44 3090 44 3090 44 3090 44 3086 44 3086ZM30.865 3117.736C30.865 3117.736 33.692 3114.906 33.692 3114.906 33.692 3114.906 35.107 3116.319 35.107 3116.319 35.107 3116.319 32.28 3119.149 32.28 3119.149 32.28 3119.149 30.865 3117.736 30.865 3117.736ZM30.844 3092.288C30.844 3092.288 32.259 3090.871 32.259 3090.871 32.259 3090.871 35.088 3093.697 35.088 3093.697 35.088 3093.697 33.673 3095.114 33.673 3095.114 33.673 3095.114 30.844 3092.288 30.844 3092.288ZM26.001 3104.008C26.001 3104.008 29.999 3104.008 29.999 3104.008 29.999 3104.008 29.999 3106.01 29.999 3106.01 29.999 3106.01 26.001 3106.01 26.001 3106.01 26.001 3106.01 26.001 3104.008 26.001 3104.008Z" class="cls-9" fill-rule="evenodd"/><path d="M45 3129C31.745 3129 21 3118.255 21 3105 21 3091.745 31.745 3081 45 3081 58.255 3081 69 3091.745 69 3105 69 3118.255 58.255 3129 45 3129ZM45 3085C33.954 3085 25 3093.954 25 3105 25 3116.046 33.954 3125 45 3125 56.046 3125 65 3116.046 65 3105 65 3093.954 56.046 3085 45 3085ZM48.852 3103.978C48.939 3104.306 49 3104.645 49 3105 49 3107.209 47.209 3109 45 3109 43.523 3109 42.248 3108.191 41.555 3107 41.555 3107 30 3107 30 3107 28.895 3107 28 3106.105 28 3105 28 3103.895 28.895 3103 30 3103 30 3103 41.555 3103 41.555 3103 42.248 3101.809 43.523 3101 45 3101 45.356 3101 45.696 3101.061 46.025 3101.149 46.025 3101.149 51.825 3095.341 51.825 3095.341 52.605 3094.56 53.872 3094.559 54.653 3095.34 55.435 3096.12 55.436 3097.386 54.655 3098.168 54.655 3098.168 48.852 3103.978 48.852 3103.978Z" class="cls-4" fill-rule="evenodd"/><path d="M80 3091C77.349 3091.529 72.976 3091.716 73 3095 73.027 3098.798 78.167 3097.25 79 3097 80.789 3096.463 82.623 3094.564 83.967 3092.879 83.711 3093.974 83.392 3095.022 83 3096 80.831 3101.407 74.689 3108.805 69.037 3114.902 70.296 3111.849 71 3108.508 71 3105 71 3090.641 59.359 3079 45 3079 44.526 3079 44.065 3079.046 43.597 3079.071 47.58 3077.553 51.275 3076.268 53 3076 56.217 3075.501 59.539 3075.546 62.501 3075.705 61.493 3076.253 60.298 3077.073 60 3078 59.124 3080.726 61.459 3081.45 64 3080 66.298 3078.689 66.491 3077.14 66.141 3075.944 68.222 3076.088 69.931 3076.185 71 3076 78.138 3074.763 83 3067 83 3067 83 3067 83.016 3067.074 83.039 3067.181 82.809 3070.461 82.01 3075.563 80 3079 77.167 3083.844 71 3086 71 3086 71 3086 78.106 3088.676 84 3080 84.314 3079.537 84.514 3078.957 84.633 3078.3 84.778 3080.133 84.873 3082.067 84.866 3084.023 84.553 3086.456 83.504 3090.301 80 3091Z" class="cls-4" fill-rule="evenodd"/><path d="M47.102 3038.908C33.898 3040.069 22.253 3030.306 21.092 3017.102 19.931 3003.898 29.694 2992.253 42.898 2991.092 56.102 2989.931 67.747 2999.694 68.908 3012.898 70.069 3026.102 60.306 3037.747 47.102 3038.908ZM52.939 2995.558C42.201 2991.174 29.943 2996.324 25.558 3007.061 21.174 3017.799 26.324 3030.057 37.061 3034.442 47.799 3038.826 60.057 3033.676 64.442 3022.939 68.826 3012.201 63.676 2999.943 52.939 2995.558Z" class="cls-4" fill-rule="evenodd"/><path d="M47.102 3038.908C33.898 3040.069 22.253 3030.306 21.092 3017.102 19.931 3003.898 29.694 2992.253 42.898 2991.092 56.102 2989.931 67.747 2999.694 68.908 3012.898 70.069 3026.102 60.306 3037.747 47.102 3038.908ZM52.522 2993.942C46.78 2990.633 32.358 2990.877 25.074 3003.513 17.775 3016.174 24.806 3028.752 30.547 3032.062 36.289 3035.372 45.863 3029.522 51.931 3018.995 57.999 3008.469 58.264 2997.252 52.522 2993.942Z" class="cls-4" fill-rule="evenodd"/><path d="M63.818 2949C63.818 2949 61 2949 61 2949 61 2949 61 2947 61 2947 61 2947 63 2947 63 2947 65.209 2947 67 2945.209 67 2943 67 2943 67 2941 67 2941 67 2941 69 2941 69 2941 69 2941 69 2943.857 69 2943.857 69 2946.697 66.68 2949 63.818 2949ZM67 2935C67 2935 69 2935 69 2935 69 2935 69 2939 69 2939 69 2939 67 2939 67 2939 67 2939 67 2935 67 2935ZM67 2929C67 2929 69 2929 69 2929 69 2929 69 2933 69 2933 69 2933 67 2933 67 2933 67 2933 67 2929 67 2929ZM67 2923C67 2923 69 2923 69 2923 69 2923 69 2927 69 2927 69 2927 67 2927 67 2927 67 2927 67 2923 67 2923ZM67 2917C67 2917 69 2917 69 2917 69 2917 69 2921 69 2921 69 2921 67 2921 67 2921 67 2921 67 2917 67 2917ZM67 2911C67 2911 69 2911 69 2911 69 2911 69 2915 69 2915 69 2915 67 2915 67 2915 67 2915 67 2911 67 2911ZM67 2907C67 2904.791 65.209 2903 63 2903 63 2903 61 2903 61 2903 61 2903 61 2901 61 2901 61 2901 59 2901 59 2901 59 2901 59 2903 59 2903 59 2903 55 2903 55 2903 55 2903 55 2901 55 2901 55 2901 53 2901 53 2901 53 2901 53 2903 53 2903 53 2903 49 2903 49 2903 49 2903 49 2901 49 2901 49 2901 47 2901 47 2901 47 2901 47 2903 47 2903 47 2903 43 2903 43 2903 43 2903 43 2901 43 2901 43 2901 41 2901 41 2901 41 2901 41 2903 41 2903 41 2903 37 2903 37 2903 37 2903 37 2901 37 2901 37 2901 35 2901 35 2901 35 2901 35 2903 35 2903 35 2903 31 2903 31 2903 31 2903 31 2901 31 2901 31 2901 29 2901 29 2901 29 2901 29 2903 29 2903 29 2903 27 2903 27 2903 24.791 2903 23 2904.791 23 2907 23 2907 23 2909 23 2909 23 2909 21 2909 21 2909 21 2909 21 2911 21 2911 21 2911 23 2911 23 2911 23 2911 23 2915 23 2915 23 2915 21 2915 21 2915 21 2915 21 2917 21 2917 21 2917 23 2917 23 2917 23 2917 23 2921 23 2921 23 2921 21 2921 21 2921 21 2921 21 2923 21 2923 21 2923 23 2923 23 2923 23 2923 23 2927 23 2927 23 2927 21 2927 21 2927 21 2927 21 2929 21 2929 21 2929 23 2929 23 2929 23 2929 23 2933 23 2933 23 2933 21 2933 21 2933 21 2933 21 2935 21 2935 21 2935 23 2935 23 2935 23 2935 23 2939 23 2939 23 2939 21 2939 21 2939 21 2939 21 2941 21 2941 21 2941 23 2941 23 2941 23 2941 23 2943 23 2943 23 2945.209 24.791 2947 27 2947 27 2947 29 2947 29 2947 29 2947 29 2949 29 2949 29 2949 26.182 2949 26.182 2949 23.32 2949 21 2946.697 21 2943.857 21 2943.857 21 2906.143 21 2906.143 21 2903.302 23.32 2901 26.182 2901 26.182 2901 63.818 2901 63.818 2901 66.68 2901 69 2903.302 69 2906.143 69 2906.143 69 2909 69 2909 69 2909 67 2909 67 2909 67 2909 67 2907 67 2907ZM35 2949C35 2949 31 2949 31 2949 31 2949 31 2947 31 2947 31 2947 35 2947 35 2947 35 2947 35 2949 35 2949ZM41 2949C41 2949 37 2949 37 2949 37 2949 37 2947 37 2947 37 2947 41 2947 41 2947 41 2947 41 2949 41 2949ZM47 2949C47 2949 43 2949 43 2949 43 2949 43 2947 43 2947 43 2947 47 2947 47 2947 47 2947 47 2949 47 2949ZM53 2949C53 2949 49 2949 49 2949 49 2949 49 2947 49 2947 49 2947 53 2947 53 2947 53 2947 53 2949 53 2949ZM59 2949C59 2949 55 2949 55 2949 55 2949 55 2947 55 2947 55 2947 59 2947 59 2947 59 2947 59 2949 59 2949Z" class="cls-4" fill-rule="evenodd"/><path d="M51 2941C51 2941 61 2931 61 2931 61 2931 61 2941 61 2941 61 2941 51 2941 51 2941ZM34.182 2941C31.32 2941 29 2938.698 29 2935.857 29 2935.857 29 2914.143 29 2914.143 29 2911.303 31.32 2909 34.182 2909 34.182 2909 55.818 2909 55.818 2909 58.68 2909 61 2911.303 61 2914.143 61 2914.143 61 2927 61 2927 61 2927 47 2941 47 2941 47 2941 34.182 2941 34.182 2941ZM59 2914C59 2912.343 57.657 2911 56 2911 56 2911 34 2911 34 2911 32.343 2911 31 2912.343 31 2914 31 2914 31 2936 31 2936 31 2937.657 32.343 2939 34 2939 34 2939 45 2939 45 2939 45 2939 59 2925 59 2925 59 2925 59 2914 59 2914Z" class="cls-4" fill-rule="evenodd"/><path d="M54 2859C54 2859 64 2849 64 2849 64 2849 64 2859 64 2859 64 2859 54 2859 54 2859ZM31.182 2859C28.32 2859 26 2856.698 26 2853.857 26 2853.857 26 2816.143 26 2816.143 26 2813.303 28.32 2811 31.182 2811 31.182 2811 58.818 2811 58.818 2811 61.68 2811 64 2813.303 64 2816.143 64 2816.143 64 2845 64 2845 64 2845 50 2859 50 2859 50 2859 31.182 2859 31.182 2859ZM62 2816C62 2814.343 60.657 2813 59 2813 59 2813 31 2813 31 2813 29.343 2813 28 2814.343 28 2816 28 2816 28 2854 28 2854 28 2855.657 29.343 2857 31 2857 31 2857 48 2857 48 2857 48 2857 62 2843 62 2843 62 2843 62 2816 62 2816Z" class="cls-4" fill-rule="evenodd"/><path d="M63.818 2769C63.818 2769 61 2769 61 2769 61 2769 61 2767 61 2767 61 2767 63 2767 63 2767 65.209 2767 67 2765.209 67 2763 67 2763 67 2761 67 2761 67 2761 69 2761 69 2761 69 2761 69 2763.857 69 2763.857 69 2766.697 66.68 2769 63.818 2769ZM67 2755C67 2755 69 2755 69 2755 69 2755 69 2759 69 2759 69 2759 67 2759 67 2759 67 2759 67 2755 67 2755ZM67 2749C67 2749 69 2749 69 2749 69 2749 69 2753 69 2753 69 2753 67 2753 67 2753 67 2753 67 2749 67 2749ZM67 2743C67 2743 69 2743 69 2743 69 2743 69 2747 69 2747 69 2747 67 2747 67 2747 67 2747 67 2743 67 2743ZM67 2737C67 2737 69 2737 69 2737 69 2737 69 2741 69 2741 69 2741 67 2741 67 2741 67 2741 67 2737 67 2737ZM67 2731C67 2731 69 2731 69 2731 69 2731 69 2735 69 2735 69 2735 67 2735 67 2735 67 2735 67 2731 67 2731ZM67 2727C67 2724.791 65.209 2723 63 2723 63 2723 61 2723 61 2723 61 2723 61 2721 61 2721 61 2721 59 2721 59 2721 59 2721 59 2723 59 2723 59 2723 55 2723 55 2723 55 2723 55 2721 55 2721 55 2721 53 2721 53 2721 53 2721 53 2723 53 2723 53 2723 49 2723 49 2723 49 2723 49 2721 49 2721 49 2721 47 2721 47 2721 47 2721 47 2723 47 2723 47 2723 43 2723 43 2723 43 2723 43 2721 43 2721 43 2721 41 2721 41 2721 41 2721 41 2723 41 2723 41 2723 37 2723 37 2723 37 2723 37 2721 37 2721 37 2721 35 2721 35 2721 35 2721 35 2723 35 2723 35 2723 31 2723 31 2723 31 2723 31 2721 31 2721 31 2721 29 2721 29 2721 29 2721 29 2723 29 2723 29 2723 27 2723 27 2723 24.791 2723 23 2724.791 23 2727 23 2727 23 2729 23 2729 23 2729 21 2729 21 2729 21 2729 21 2731 21 2731 21 2731 23 2731 23 2731 23 2731 23 2735 23 2735 23 2735 21 2735 21 2735 21 2735 21 2737 21 2737 21 2737 23 2737 23 2737 23 2737 23 2741 23 2741 23 2741 21 2741 21 2741 21 2741 21 2743 21 2743 21 2743 23 2743 23 2743 23 2743 23 2747 23 2747 23 2747 21 2747 21 2747 21 2747 21 2749 21 2749 21 2749 23 2749 23 2749 23 2749 23 2753 23 2753 23 2753 21 2753 21 2753 21 2753 21 2755 21 2755 21 2755 23 2755 23 2755 23 2755 23 2759 23 2759 23 2759 21 2759 21 2759 21 2759 21 2761 21 2761 21 2761 23 2761 23 2761 23 2761 23 2763 23 2763 23 2765.209 24.791 2767 27 2767 27 2767 29 2767 29 2767 29 2767 29 2769 29 2769 29 2769 26.182 2769 26.182 2769 23.32 2769 21 2766.697 21 2763.857 21 2763.857 21 2726.143 21 2726.143 21 2723.302 23.32 2721 26.182 2721 26.182 2721 63.818 2721 63.818 2721 66.68 2721 69 2723.302 69 2726.143 69 2726.143 69 2729 69 2729 69 2729 67 2729 67 2729 67 2729 67 2727 67 2727ZM35 2769C35 2769 31 2769 31 2769 31 2769 31 2767 31 2767 31 2767 35 2767 35 2767 35 2767 35 2769 35 2769ZM41 2769C41 2769 37 2769 37 2769 37 2769 37 2767 37 2767 37 2767 41 2767 41 2767 41 2767 41 2769 41 2769ZM47 2769C47 2769 43 2769 43 2769 43 2769 43 2767 43 2767 43 2767 47 2767 47 2767 47 2767 47 2769 47 2769ZM53 2769C53 2769 49 2769 49 2769 49 2769 49 2767 49 2767 49 2767 53 2767 53 2767 53 2767 53 2769 53 2769ZM59 2769C59 2769 55 2769 55 2769 55 2769 55 2767 55 2767 55 2767 59 2767 59 2767 59 2767 59 2769 59 2769Z" class="cls-4" fill-rule="evenodd"/><path d="M60 2763C60 2763 45 2763 45 2763 45 2763 30 2763 30 2763 30 2763 29.778 2748.284 32.25 2745 34.335 2742.231 35.991 2741.976 37.5 2742 39.039 2742.024 39.572 2743.468 41.25 2744.25 43.084 2745.105 45 2745 45 2745 45 2745 46.916 2745.105 48.75 2744.25 50.428 2743.468 50.961 2742.024 52.5 2742 54.009 2741.976 55.665 2742.231 57.75 2745 60.222 2748.284 60 2763 60 2763ZM45 2742.75C40.858 2742.75 37.5 2739.224 37.5 2734.875 37.5 2730.526 40.858 2727 45 2727 49.142 2727 52.5 2730.526 52.5 2734.875 52.5 2739.224 49.142 2742.75 45 2742.75Z" class="cls-4" fill-rule="evenodd"/><path d="M65 2679C65 2679 45 2679 45 2679 45 2679 25 2679 25 2679 25 2679 24.704 2659.378 28 2655 30.78 2651.308 32.988 2650.968 35 2651 37.052 2651.033 37.762 2652.957 40 2654 42.445 2655.139 45 2655 45 2655 45 2655 47.555 2655.139 50 2654 52.238 2652.957 52.948 2651.033 55 2651 57.012 2650.968 59.22 2651.308 62 2655 65.296 2659.378 65 2679 65 2679ZM45 2652C39.477 2652 35 2647.299 35 2641.5 35 2635.701 39.477 2631 45 2631 50.523 2631 55 2635.701 55 2641.5 55 2647.299 50.523 2652 45 2652Z" class="cls-4" fill-rule="evenodd"/><path d="M60 2589C60 2589 30 2589 30 2589 27.239 2589 25 2586.761 25 2584 25 2584 25 2564 25 2564 25 2561.239 27.239 2559 30 2559 30 2559 60 2559 60 2559 62.761 2559 65 2561.239 65 2564 65 2564 65 2584 65 2584 65 2586.761 62.761 2589 60 2589ZM45 2566C42.239 2566 40 2568.239 40 2571 40 2573.049 41.236 2574.806 43 2575.578 43 2575.578 43 2580 43 2580 43 2581.105 43.895 2582 45 2582 46.105 2582 47 2581.105 47 2580 47 2580 47 2575.578 47 2575.578 48.764 2574.806 50 2573.049 50 2571 50 2568.239 47.761 2566 45 2566ZM55.95 2557C55.979 2556.67 56 2556.338 56 2556 56 2549.925 51.075 2545 45 2545 38.925 2545 34 2549.925 34 2556 34 2556.338 34.021 2556.67 34.05 2557 34.05 2557 30.05 2557 30.05 2557 30.029 2556.668 30 2556.338 30 2556 30 2547.716 36.716 2541 45 2541 53.284 2541 60 2547.716 60 2556 60 2556.338 59.971 2556.668 59.95 2557 59.95 2557 55.95 2557 55.95 2557Z" class="cls-4" fill-rule="evenodd"/><path d="M58.818 2499C58.818 2499 31.182 2499 31.182 2499 28.32 2499 26 2496.697 26 2493.857 26 2493.857 26 2477 26 2477 26 2477 24 2477 24 2477 24 2477 24 2473 24 2473 24 2473 26 2473 26 2473 26 2473 26 2456.143 26 2456.143 26 2453.302 28.32 2451 31.182 2451 31.182 2451 58.818 2451 58.818 2451 61.68 2451 64 2453.302 64 2456.143 64 2456.143 64 2493.857 64 2493.857 64 2496.697 61.68 2499 58.818 2499ZM62 2456C62 2454.343 60.657 2453 59 2453 59 2453 31 2453 31 2453 29.343 2453 28 2454.343 28 2456 28 2456 28 2468 28 2468 28 2468 26 2468 26 2468 26 2468 26 2473 26 2473 26 2473 45 2473 45 2473 45 2473 35 2463 35 2463 35 2463 42 2463 42 2463 42 2463 54 2475 54 2475 54 2475 42 2487 42 2487 42 2487 35 2487 35 2487 35 2487 45 2477 45 2477 45 2477 26 2477 26 2477 26 2477 26 2482 26 2482 26 2482 28 2482 28 2482 28 2482 28 2494 28 2494 28 2495.657 29.343 2497 31 2497 31 2497 59 2497 59 2497 60.657 2497 62 2495.657 62 2494 62 2494 62 2456 62 2456Z" class="cls-4" fill-rule="evenodd"/><path d="M58 2383C51.925 2383 47 2378.075 47 2372 47 2365.925 51.925 2361 58 2361 64.075 2361 69 2365.925 69 2372 69 2378.075 64.075 2383 58 2383ZM64.613 2367.203C64.058 2367.521 63.444 2367.752 62.789 2367.877 62.265 2367.337 61.519 2367 60.693 2367 59.106 2367 57.82 2368.243 57.82 2369.777 57.82 2369.995 57.846 2370.206 57.895 2370.41 55.508 2370.294 53.391 2369.188 51.975 2367.508 51.727 2367.918 51.586 2368.395 51.586 2368.904 51.586 2369.868 52.093 2370.718 52.863 2371.216 52.393 2371.201 51.95 2371.076 51.562 2370.868 51.562 2370.88 51.562 2370.892 51.562 2370.903 51.562 2372.249 52.552 2373.371 53.866 2373.626 53.625 2373.69 53.371 2373.724 53.11 2373.724 52.924 2373.724 52.745 2373.706 52.569 2373.674 52.935 2374.777 53.995 2375.58 55.252 2375.602 54.269 2376.347 53.031 2376.791 51.685 2376.791 51.453 2376.791 51.225 2376.778 51 2376.752 52.271 2377.54 53.781 2378 55.403 2378 60.686 2378 63.575 2373.769 63.575 2370.099 63.575 2369.978 63.572 2369.859 63.567 2369.74 64.128 2369.348 64.615 2368.859 65 2368.302 64.485 2368.523 63.931 2368.672 63.35 2368.739 63.943 2368.396 64.399 2367.851 64.613 2367.203Z" class="cls-4" fill-rule="evenodd"/><path d="M45 2409C38.925 2409 34 2404.075 34 2398 34 2391.925 38.925 2387 45 2387 51.075 2387 56 2391.925 56 2398 56 2404.075 51.075 2409 45 2409ZM44.357 2391C43.86 2391 43.327 2391.057 42.758 2391.17 42.184 2391.302 41.63 2391.583 41.097 2392.013 40.322 2392.749 39.934 2393.568 39.934 2394.471 39.934 2395.218 40.207 2395.873 40.755 2396.435 41.278 2397.038 42.039 2397.346 43.036 2397.358 43.225 2397.358 43.425 2397.346 43.638 2397.322 43.603 2397.419 43.565 2397.524 43.524 2397.638 43.477 2397.746 43.453 2397.881 43.453 2398.044 43.453 2398.314 43.515 2398.546 43.638 2398.738 43.744 2398.937 43.864 2399.123 44 2399.297 43.562 2399.309 43.013 2399.363 42.351 2399.459 41.683 2399.572 41.046 2399.799 40.439 2400.139 39.898 2400.455 39.525 2400.822 39.318 2401.24 39.106 2401.658 39 2402.037 39 2402.377 39 2403.075 39.326 2403.675 39.98 2404.177 40.627 2404.714 41.607 2404.988 42.92 2405 44.488 2404.976 45.688 2404.609 46.52 2403.897 47.322 2403.209 47.722 2402.42 47.722 2401.529 47.711 2400.901 47.565 2400.393 47.284 2400.004 46.986 2399.622 46.64 2399.272 46.245 2398.955 46.245 2398.955 45.609 2398.444 45.609 2398.444 45.517 2398.354 45.423 2398.249 45.326 2398.13 45.211 2398.004 45.154 2397.846 45.154 2397.654 45.154 2397.457 45.21 2397.284 45.321 2397.134 45.416 2396.99 45.519 2396.862 45.631 2396.748 45.826 2396.581 46.011 2396.417 46.184 2396.255 46.34 2396.094 46.488 2395.917 46.628 2395.726 46.913 2395.331 47.061 2394.805 47.072 2394.147 47.072 2393.788 47.03 2393.475 46.948 2393.205 46.848 2392.936 46.733 2392.703 46.604 2392.506 46.469 2392.297 46.33 2392.12 46.189 2391.977 46.042 2391.839 45.909 2391.734 45.792 2391.663 45.792 2391.663 46.947 2391.663 46.947 2391.663 46.947 2391.663 48.105 2391 48.105 2391 48.105 2391 44.357 2391 44.357 2391ZM51.981 2396.732C51.981 2396.732 51.981 2394.758 51.981 2394.758 51.981 2394.758 50.827 2394.758 50.827 2394.758 50.827 2394.758 50.827 2396.732 50.827 2396.732 50.827 2396.732 48.856 2396.732 48.856 2396.732 48.856 2396.732 48.856 2397.859 48.856 2397.859 48.856 2397.859 50.827 2397.859 50.827 2397.859 50.827 2397.859 50.827 2399.785 50.827 2399.785 50.827 2399.785 51.981 2399.785 51.981 2399.785 51.981 2399.785 51.981 2397.859 51.981 2397.859 51.981 2397.859 54 2397.859 54 2397.859 54 2397.859 54 2396.732 54 2396.732 54 2396.732 51.981 2396.732 51.981 2396.732ZM45.136 2396.336C44.807 2396.666 44.396 2396.84 43.903 2396.858 43.512 2396.858 43.165 2396.741 42.861 2396.507 42.558 2396.274 42.31 2395.989 42.118 2395.653 41.721 2394.934 41.523 2394.242 41.523 2393.577 41.51 2393.074 41.646 2392.619 41.93 2392.211 42.267 2391.822 42.689 2391.621 43.197 2391.609 43.581 2391.621 43.921 2391.732 44.216 2391.941 44.505 2392.163 44.739 2392.451 44.916 2392.804 45.294 2393.541 45.483 2394.272 45.483 2394.997 45.483 2395.165 45.469 2395.372 45.442 2395.617 45.397 2395.863 45.295 2396.103 45.136 2396.336ZM44.511 2399.817C45.209 2400.295 45.722 2400.699 46.05 2401.028 46.361 2401.375 46.516 2401.781 46.516 2402.248 46.516 2402.822 46.289 2403.291 45.835 2403.656 45.37 2404.027 44.696 2404.219 43.813 2404.231 42.828 2404.219 42.052 2404.003 41.485 2403.585 40.889 2403.166 40.59 2402.634 40.59 2401.988 40.59 2401.659 40.659 2401.378 40.796 2401.144 40.916 2400.923 41.062 2400.738 41.235 2400.588 41.414 2400.445 41.59 2400.334 41.763 2400.256 41.936 2400.184 42.07 2400.131 42.166 2400.095 42.571 2399.975 42.968 2399.888 43.356 2399.835 43.75 2399.799 43.995 2399.787 44.09 2399.799 44.251 2399.799 44.391 2399.805 44.511 2399.817Z" class="cls-4" fill-rule="evenodd"/><path d="M32 2383C25.925 2383 21 2378.075 21 2372 21 2365.925 25.925 2361 32 2361 38.075 2361 43 2365.925 43 2372 43 2378.075 38.075 2383 32 2383ZM35 2365.099C34.749 2365.066 33.889 2365 32.889 2365 30.801 2365 29.372 2366.237 29.372 2368.52 29.372 2368.52 29.372 2370.489 29.372 2370.489 29.372 2370.489 27 2370.489 27 2370.489 27 2370.489 27 2373.147 27 2373.147 27 2373.147 29.371 2373.147 29.371 2373.147 29.371 2373.147 29.371 2380 29.371 2380 29.371 2380 32.203 2380 32.203 2380 32.203 2380 32.203 2373.147 32.203 2373.147 32.203 2373.147 34.552 2373.147 34.552 2373.147 34.552 2373.147 34.904 2370.489 34.904 2370.489 34.904 2370.489 32.203 2370.489 32.203 2370.489 32.203 2370.489 32.203 2368.784 32.203 2368.784 32.203 2368.012 32.416 2367.485 33.551 2367.485 33.551 2367.485 35 2367.486 35 2367.486 35 2367.486 35 2365.099 35 2365.099Z" class="cls-4" fill-rule="evenodd"/><path d="M69 2279.616C67.234 2280.399 65.336 2280.929 63.344 2281.167 65.377 2279.948 66.939 2278.019 67.674 2275.72 65.771 2276.848 63.664 2277.667 61.421 2278.109 59.624 2276.195 57.065 2275 54.232 2275 48.794 2275 44.384 2279.408 44.384 2284.845 44.384 2285.617 44.471 2286.368 44.639 2287.089 36.455 2286.678 29.198 2282.759 24.341 2276.802 23.494 2278.256 23.008 2279.947 23.008 2281.752 23.008 2285.167 24.747 2288.181 27.389 2289.947 25.775 2289.896 24.256 2289.453 22.928 2288.715 22.928 2288.756 22.928 2288.797 22.928 2288.839 22.928 2293.609 26.322 2297.589 30.827 2298.493 30.001 2298.718 29.131 2298.838 28.233 2298.838 27.598 2298.838 26.981 2298.777 26.38 2298.662 27.633 2302.573 31.27 2305.42 35.579 2305.499 32.209 2308.14 27.963 2309.714 23.349 2309.714 22.554 2309.714 21.77 2309.667 21 2309.577 25.358 2312.37 30.534 2314 36.096 2314 54.21 2314 64.115 2298.997 64.115 2285.987 64.115 2285.56 64.105 2285.135 64.086 2284.713 66.01 2283.325 67.68 2281.591 69 2279.616Z" class="cls-4" fill-rule="evenodd"/><path d="M61 2207C66.006 2206.909 69.146 2212.305 69 2215 68.833 2218.083 66 2223 61 2223 53.5 2223 45.821 2215.999 46 2207 46.25 2194.417 62 2187 62 2187 62 2187 49.042 2197.078 49 2207 48.964 2215.531 55.165 2207.105 61 2207ZM36 2223C28.5 2223 20.821 2215.999 21 2207 21.25 2194.417 37 2187 37 2187 37 2187 24.042 2197.078 24 2207 23.964 2215.531 30.165 2207.105 36 2207 41.006 2206.909 44.146 2212.305 44 2215 43.833 2218.083 41 2223 36 2223Z" class="cls-4" fill-rule="evenodd"/><path d="M63.818 2139C63.818 2139 61 2139 61 2139 61 2139 61 2137 61 2137 61 2137 63 2137 63 2137 65.209 2137 67 2135.209 67 2133 67 2133 67 2131 67 2131 67 2131 69 2131 69 2131 69 2131 69 2133.857 69 2133.857 69 2136.697 66.68 2139 63.818 2139ZM67 2125C67 2125 69 2125 69 2125 69 2125 69 2129 69 2129 69 2129 67 2129 67 2129 67 2129 67 2125 67 2125ZM67 2119C67 2119 69 2119 69 2119 69 2119 69 2123 69 2123 69 2123 67 2123 67 2123 67 2123 67 2119 67 2119ZM67 2113C67 2113 69 2113 69 2113 69 2113 69 2117 69 2117 69 2117 67 2117 67 2117 67 2117 67 2113 67 2113ZM67 2107C67 2107 69 2107 69 2107 69 2107 69 2111 69 2111 69 2111 67 2111 67 2111 67 2111 67 2107 67 2107ZM67 2101C67 2101 69 2101 69 2101 69 2101 69 2105 69 2105 69 2105 67 2105 67 2105 67 2105 67 2101 67 2101ZM67 2097C67 2094.791 65.209 2093 63 2093 63 2093 61 2093 61 2093 61 2093 61 2091 61 2091 61 2091 59 2091 59 2091 59 2091 59 2093 59 2093 59 2093 55 2093 55 2093 55 2093 55 2091 55 2091 55 2091 53 2091 53 2091 53 2091 53 2093 53 2093 53 2093 49 2093 49 2093 49 2093 49 2091 49 2091 49 2091 47 2091 47 2091 47 2091 47 2093 47 2093 47 2093 43 2093 43 2093 43 2093 43 2091 43 2091 43 2091 41 2091 41 2091 41 2091 41 2093 41 2093 41 2093 37 2093 37 2093 37 2093 37 2091 37 2091 37 2091 35 2091 35 2091 35 2091 35 2093 35 2093 35 2093 31 2093 31 2093 31 2093 31 2091 31 2091 31 2091 29 2091 29 2091 29 2091 29 2093 29 2093 29 2093 27 2093 27 2093 24.791 2093 23 2094.791 23 2097 23 2097 23 2099 23 2099 23 2099 21 2099 21 2099 21 2099 21 2101 21 2101 21 2101 23 2101 23 2101 23 2101 23 2105 23 2105 23 2105 21 2105 21 2105 21 2105 21 2107 21 2107 21 2107 23 2107 23 2107 23 2107 23 2111 23 2111 23 2111 21 2111 21 2111 21 2111 21 2113 21 2113 21 2113 23 2113 23 2113 23 2113 23 2117 23 2117 23 2117 21 2117 21 2117 21 2117 21 2119 21 2119 21 2119 23 2119 23 2119 23 2119 23 2123 23 2123 23 2123 21 2123 21 2123 21 2123 21 2125 21 2125 21 2125 23 2125 23 2125 23 2125 23 2129 23 2129 23 2129 21 2129 21 2129 21 2129 21 2131 21 2131 21 2131 23 2131 23 2131 23 2131 23 2133 23 2133 23 2135.209 24.791 2137 27 2137 27 2137 29 2137 29 2137 29 2137 29 2139 29 2139 29 2139 26.182 2139 26.182 2139 23.32 2139 21 2136.697 21 2133.857 21 2133.857 21 2096.143 21 2096.143 21 2093.302 23.32 2091 26.182 2091 26.182 2091 63.818 2091 63.818 2091 66.68 2091 69 2093.302 69 2096.143 69 2096.143 69 2099 69 2099 69 2099 67 2099 67 2099 67 2099 67 2097 67 2097ZM35 2139C35 2139 31 2139 31 2139 31 2139 31 2137 31 2137 31 2137 35 2137 35 2137 35 2137 35 2139 35 2139ZM41 2139C41 2139 37 2139 37 2139 37 2139 37 2137 37 2137 37 2137 41 2137 41 2137 41 2137 41 2139 41 2139ZM47 2139C47 2139 43 2139 43 2139 43 2139 43 2137 43 2137 43 2137 47 2137 47 2137 47 2137 47 2139 47 2139ZM53 2139C53 2139 49 2139 49 2139 49 2139 49 2137 49 2137 49 2137 53 2137 53 2137 53 2137 53 2139 53 2139ZM59 2139C59 2139 55 2139 55 2139 55 2139 55 2137 55 2137 55 2137 59 2137 59 2137 59 2137 59 2139 59 2139Z" class="cls-4" fill-rule="evenodd"/><path d="M60 2121C60 2121 60 2118.723 60 2118.723 60.595 2118.376 61 2117.738 61 2117 61 2117 61 2105 61 2105 61 2103.895 60.105 2103 59 2103 59 2103 35 2103 35 2103 34.262 2103 33.624 2103.405 33.277 2104 33.277 2104 31 2104 31 2104 31 2104 31 2105 31 2105 31 2105 56 2105 56 2105 57.657 2105 59 2106.343 59 2108 59 2108 59 2122 59 2122 59 2123.657 57.657 2125 56 2125 56 2125 53 2125 53 2125 53 2125 53 2130 53 2130 53 2130 48 2125 48 2125 48 2125 30 2125 30 2125 28.343 2125 27 2123.657 27 2122 27 2122 27 2108 27 2108 27 2106.343 28.343 2105 30 2105 30 2105 31 2105 31 2105 31 2105 31 2104 31 2104 31 2102.343 32.343 2101 34 2101 34 2101 60 2101 60 2101 61.657 2101 63 2102.343 63 2104 63 2104 63 2118 63 2118 63 2119.657 61.657 2121 60 2121Z" class="cls-4" fill-rule="evenodd"/><path d="M66 2032C66 2032 65 2032 65 2032 65 2032 65 2030 65 2030 66.105 2030 67 2029.105 67 2028 67 2028 67 2008 67 2008 67 2006.895 66.105 2006 65 2006 65 2006 31 2006 31 2006 29.895 2006 29 2006.895 29 2008 29 2008 27 2008 27 2008 27 2008 27 2010 27 2010 27 2010 60 2010 60 2010 61.657 2010 63 2011.343 63 2013 63 2013 63 2035 63 2035 63 2036.657 61.657 2038 60 2038 60 2038 57 2038 57 2038 57 2038 57 2046 57 2046 57 2046 50 2038 50 2038 50 2038 24 2038 24 2038 22.343 2038 21 2036.657 21 2035 21 2035 21 2013 21 2013 21 2011.343 22.343 2010 24 2010 24 2010 27 2010 27 2010 27 2010 27 2007 27 2007 27 2005.343 28.343 2004 30 2004 30 2004 66 2004 66 2004 67.657 2004 69 2005.343 69 2007 69 2007 69 2029 69 2029 69 2030.657 67.657 2032 66 2032Z" class="cls-4" fill-rule="evenodd"/><path d="M67 1951C67 1951 67 1913 67 1913 67 1913 29 1913 29 1913 29 1913 29 1911 29 1911 29 1911 69 1911 69 1911 69 1911 69 1913 69 1913 69 1913 69 1951 69 1951 69 1951 67 1951 67 1951ZM65 1917C65 1917 65 1955 65 1955 65 1955 63 1955 63 1955 63 1955 63 1917 63 1917 63 1917 25 1917 25 1917 25 1917 25 1915 25 1915 25 1915 65 1915 65 1915 65 1915 65 1917 65 1917ZM61 1959C61 1959 21 1959 21 1959 21 1959 21 1919 21 1919 21 1919 61 1919 61 1919 61 1919 61 1959 61 1959ZM59 1921C59 1921 23 1921 23 1921 23 1921 23 1957 23 1957 23 1957 59 1957 59 1957 59 1957 59 1921 59 1921ZM35 1947C35 1947 35 1931 35 1931 35 1931 47 1939 47 1939 47 1939 35 1947 35 1947Z" class="cls-4" fill-rule="evenodd"/><path d="M74 1853C74 1853 71 1853 71 1853 71 1853 78 1845 78 1845 78 1845 71 1837 71 1837 71 1837 74 1837 74 1837 74 1837 81 1845 81 1845 81 1845 74 1853 74 1853ZM25 1825C25 1825 65 1825 65 1825 65 1825 65 1865 65 1865 65 1865 25 1865 25 1865 25 1865 25 1825 25 1825ZM27 1863C27 1863 63 1863 63 1863 63 1863 63 1827 63 1827 63 1827 27 1827 27 1827 27 1827 27 1863 27 1863ZM40.063 1842.99C40.063 1842.99 50.618 1860.175 50.618 1860.175 50.618 1860.175 55.554 1852.136 55.554 1852.136 55.554 1852.136 61.002 1861.006 61.002 1861.006 61.002 1861.006 28.998 1861.006 28.998 1861.006 28.998 1861.006 40.063 1842.99 40.063 1842.99ZM55.008 1838.995C52.799 1838.995 51.008 1837.203 51.008 1834.992 51.008 1832.782 52.799 1830.99 55.008 1830.99 57.217 1830.99 59.008 1832.782 59.008 1834.992 59.008 1837.203 57.217 1838.995 55.008 1838.995ZM16 1853C16 1853 9 1845 9 1845 9 1845 16 1837 16 1837 16 1837 19 1837 19 1837 19 1837 12 1845 12 1845 12 1845 19 1853 19 1853 19 1853 16 1853 16 1853Z" class="cls-4" fill-rule="evenodd"/><path d="M67 1771C67 1771 67 1733 67 1733 67 1733 29 1733 29 1733 29 1733 29 1731 29 1731 29 1731 69 1731 69 1731 69 1731 69 1733 69 1733 69 1733 69 1771 69 1771 69 1771 67 1771 67 1771ZM65 1737C65 1737 65 1775 65 1775 65 1775 63 1775 63 1775 63 1775 63 1737 63 1737 63 1737 25 1737 25 1737 25 1737 25 1735 25 1735 25 1735 65 1735 65 1735 65 1735 65 1737 65 1737ZM61 1779C61 1779 21 1779 21 1779 21 1779 21 1739 21 1739 21 1739 61 1739 61 1739 61 1739 61 1779 61 1779ZM59 1741C59 1741 23 1741 23 1741 23 1741 23 1777 23 1777 23 1777 59 1777 59 1777 59 1777 59 1741 59 1741ZM46.618 1774.175C46.618 1774.175 51.554 1766.136 51.554 1766.136 51.554 1766.136 57.002 1775.006 57.002 1775.006 57.002 1775.006 24.998 1775.006 24.998 1775.006 24.998 1775.006 36.063 1756.99 36.063 1756.99 36.063 1756.99 46.618 1774.175 46.618 1774.175ZM51.008 1752.995C48.799 1752.995 47.008 1751.203 47.008 1748.992 47.008 1746.781 48.799 1744.99 51.008 1744.99 53.217 1744.99 55.008 1746.781 55.008 1748.992 55.008 1751.203 53.217 1752.995 51.008 1752.995Z" class="cls-4" fill-rule="evenodd"/><path d="M21 1689C21 1689 21 1641 21 1641 21 1641 69 1641 69 1641 69 1641 69 1689 69 1689 69 1689 21 1689 21 1689ZM67 1643C67 1643 23 1643 23 1643 23 1643 23 1687 23 1687 23 1687 67 1687 67 1687 67 1687 67 1643 67 1643ZM52.022 1683.991C52.022 1683.991 58.193 1674.167 58.193 1674.167 58.193 1674.167 65.002 1685.007 65.002 1685.007 65.002 1685.007 24.998 1685.007 24.998 1685.007 24.998 1685.007 38.829 1662.988 38.829 1662.988 38.829 1662.988 52.022 1683.991 52.022 1683.991ZM58.01 1656.994C55.249 1656.994 53.01 1654.754 53.01 1651.99 53.01 1649.227 55.249 1646.987 58.01 1646.987 60.772 1646.987 63.01 1649.227 63.01 1651.99 63.01 1654.754 60.772 1656.994 58.01 1656.994Z" class="cls-4" fill-rule="evenodd"/><path d="M67 1565.391C67 1565.391 67 1565 67 1565 67 1562.791 65.209 1561 63 1561 63 1561 27 1561 27 1561 24.791 1561 23 1562.791 23 1565 23 1565 23 1593 23 1593 23 1595.209 24.791 1597 27 1597 27 1597 63 1597 63 1597 65.209 1597 67 1595.209 67 1593 67 1593 67 1583.333 67 1583.333 67 1583.333 69 1582 69 1582 69 1582 69 1594 69 1594 69 1596.761 66.761 1599 64 1599 64 1599 26 1599 26 1599 23.239 1599 21 1596.761 21 1594 21 1594 21 1556 21 1556 21 1553.239 23.239 1551 26 1551 26 1551 28 1551 28 1551 28 1551 28 1557 28 1557 28 1558.105 28.895 1559 30 1559 31.105 1559 32 1558.105 32 1557 32 1557 32 1551 32 1551 32 1551 38 1551 38 1551 38 1551 38 1557 38 1557 38 1558.105 38.895 1559 40 1559 41.105 1559 42 1558.105 42 1557 42 1557 42 1551 42 1551 42 1551 48 1551 48 1551 48 1551 48 1557 48 1557 48 1558.105 48.895 1559 50 1559 51.105 1559 52 1558.105 52 1557 52 1557 52 1551 52 1551 52 1551 58 1551 58 1551 58 1551 58 1557 58 1557 58 1558.105 58.895 1559 60 1559 61.105 1559 62 1558.105 62 1557 62 1557 62 1551 62 1551 62 1551 64 1551 64 1551 66.761 1551 69 1553.239 69 1556 69 1556 69 1564 69 1564 69 1564 67 1565.391 67 1565.391ZM60 1558C59.448 1558 59 1557.552 59 1557 59 1557 59 1550 59 1550 59 1549.448 59.448 1549 60 1549 60.552 1549 61 1549.448 61 1550 61 1550 61 1557 61 1557 61 1557.552 60.552 1558 60 1558ZM50 1558C49.448 1558 49 1557.552 49 1557 49 1557 49 1550 49 1550 49 1549.448 49.448 1549 50 1549 50.552 1549 51 1549.448 51 1550 51 1550 51 1557 51 1557 51 1557.552 50.552 1558 50 1558ZM40 1558C39.448 1558 39 1557.552 39 1557 39 1557 39 1550 39 1550 39 1549.448 39.448 1549 40 1549 40.552 1549 41 1549.448 41 1550 41 1550 41 1557 41 1557 41 1557.552 40.552 1558 40 1558ZM30 1558C29.448 1558 29 1557.552 29 1557 29 1557 29 1550 29 1550 29 1549.448 29.448 1549 30 1549 30.552 1549 31 1549.448 31 1550 31 1550 31 1557 31 1557 31 1557.552 30.552 1558 30 1558Z" class="cls-4" fill-rule="evenodd"/><path d="M63.25 1568C63.25 1568 62 1568 62 1568 61.448 1568 61 1567.552 61 1567 61 1567 61 1566 61 1566 61 1565.448 61.448 1565 62 1565 62 1565 64 1565 64 1565 64.552 1565 65 1565.448 65 1566 65 1566 65 1566.783 65 1566.783 65 1566.783 63.25 1568 63.25 1568ZM56.062 1573C56.062 1573 56 1573 56 1573 55.448 1573 55 1572.552 55 1572 55 1572 55 1571 55 1571 55 1570.448 55.448 1570 56 1570 56 1570 58 1570 58 1570 58.539 1570 58.971 1570.428 58.992 1570.962 58.992 1570.962 56.062 1573 56.062 1573ZM52 1573C52 1573 50 1573 50 1573 49.448 1573 49 1572.552 49 1572 49 1572 49 1571 49 1571 49 1570.448 49.448 1570 50 1570 50 1570 52 1570 52 1570 52.552 1570 53 1570.448 53 1571 53 1571 53 1572 53 1572 53 1572.552 52.552 1573 52 1573ZM46 1578C46 1578 44 1578 44 1578 43.448 1578 43 1577.552 43 1577 43 1577 43 1576 43 1576 43 1575.448 43.448 1575 44 1575 44 1575 46 1575 46 1575 46.552 1575 47 1575.448 47 1576 47 1576 47 1577 47 1577 47 1577.552 46.552 1578 46 1578ZM46 1573C46 1573 44 1573 44 1573 43.448 1573 43 1572.552 43 1572 43 1572 43 1571 43 1571 43 1570.448 43.448 1570 44 1570 44 1570 46 1570 46 1570 46.552 1570 47 1570.448 47 1571 47 1571 47 1572 47 1572 47 1572.552 46.552 1573 46 1573ZM40 1588C40 1588 38 1588 38 1588 37.448 1588 37 1587.552 37 1587 37 1587 37 1586 37 1586 37 1585.448 37.448 1585 38 1585 38 1585 40 1585 40 1585 40.552 1585 41 1585.448 41 1586 41 1586 41 1587 41 1587 41 1587.552 40.552 1588 40 1588ZM40 1583C40 1583 38 1583 38 1583 37.448 1583 37 1582.552 37 1582 37 1582 37 1581 37 1581 37 1580.448 37.448 1580 38 1580 38 1580 40 1580 40 1580 40.552 1580 41 1580.448 41 1581 41 1581 41 1582 41 1582 41 1582.552 40.552 1583 40 1583ZM40 1578C40 1578 38 1578 38 1578 37.448 1578 37 1577.552 37 1577 37 1577 37 1576 37 1576 37 1575.448 37.448 1575 38 1575 38 1575 40 1575 40 1575 40.552 1575 41 1575.448 41 1576 41 1576 41 1577 41 1577 41 1577.552 40.552 1578 40 1578ZM40 1573C40 1573 38 1573 38 1573 37.448 1573 37 1572.552 37 1572 37 1572 37 1571 37 1571 37 1570.448 37.448 1570 38 1570 38 1570 40 1570 40 1570 40.552 1570 41 1570.448 41 1571 41 1571 41 1572 41 1572 41 1572.552 40.552 1573 40 1573ZM34 1593C34 1593 32 1593 32 1593 31.448 1593 31 1592.552 31 1592 31 1592 31 1591 31 1591 31 1590.448 31.448 1590 32 1590 32 1590 34 1590 34 1590 34.552 1590 35 1590.448 35 1591 35 1591 35 1592 35 1592 35 1592.552 34.552 1593 34 1593ZM34 1588C34 1588 32 1588 32 1588 31.448 1588 31 1587.552 31 1587 31 1587 31 1586 31 1586 31 1585.448 31.448 1585 32 1585 32 1585 34 1585 34 1585 34.552 1585 35 1585.448 35 1586 35 1586 35 1587 35 1587 35 1587.552 34.552 1588 34 1588ZM34 1583C34 1583 32 1583 32 1583 31.448 1583 31 1582.552 31 1582 31 1582 31 1581 31 1581 31 1580.448 31.448 1580 32 1580 32 1580 34 1580 34 1580 34.552 1580 35 1580.448 35 1581 35 1581 35 1582 35 1582 35 1582.552 34.552 1583 34 1583ZM34 1578C34 1578 32 1578 32 1578 31.448 1578 31 1577.552 31 1577 31 1577 31 1576 31 1576 31 1575.448 31.448 1575 32 1575 32 1575 34 1575 34 1575 34.552 1575 35 1575.448 35 1576 35 1576 35 1577 35 1577 35 1577.552 34.552 1578 34 1578ZM34 1573C34 1573 32 1573 32 1573 31.448 1573 31 1572.552 31 1572 31 1572 31 1571 31 1571 31 1570.448 31.448 1570 32 1570 32 1570 34 1570 34 1570 34.552 1570 35 1570.448 35 1571 35 1571 35 1572 35 1572 35 1572.552 34.552 1573 34 1573ZM28 1593C28 1593 26 1593 26 1593 25.448 1593 25 1592.552 25 1592 25 1592 25 1591 25 1591 25 1590.448 25.448 1590 26 1590 26 1590 28 1590 28 1590 28.552 1590 29 1590.448 29 1591 29 1591 29 1592 29 1592 29 1592.552 28.552 1593 28 1593ZM28 1588C28 1588 26 1588 26 1588 25.448 1588 25 1587.552 25 1587 25 1587 25 1586 25 1586 25 1585.448 25.448 1585 26 1585 26 1585 28 1585 28 1585 28.552 1585 29 1585.448 29 1586 29 1586 29 1587 29 1587 29 1587.552 28.552 1588 28 1588ZM28 1583C28 1583 26 1583 26 1583 25.448 1583 25 1582.552 25 1582 25 1582 25 1581 25 1581 25 1580.448 25.448 1580 26 1580 26 1580 28 1580 28 1580 28.552 1580 29 1580.448 29 1581 29 1581 29 1582 29 1582 29 1582.552 28.552 1583 28 1583ZM28 1578C28 1578 26 1578 26 1578 25.448 1578 25 1577.552 25 1577 25 1577 25 1576 25 1576 25 1575.448 25.448 1575 26 1575 26 1575 28 1575 28 1575 28.552 1575 29 1575.448 29 1576 29 1576 29 1577 29 1577 29 1577.552 28.552 1578 28 1578ZM28 1573C28 1573 26 1573 26 1573 25.448 1573 25 1572.552 25 1572 25 1572 25 1571 25 1571 25 1570.448 25.448 1570 26 1570 26 1570 28 1570 28 1570 28.552 1570 29 1570.448 29 1571 29 1571 29 1572 29 1572 29 1572.552 28.552 1573 28 1573ZM64.384 1585.077C64.745 1585.228 65 1585.584 65 1586 65 1586 65 1587 65 1587 65 1587.552 64.552 1588 64 1588 64 1588 62 1588 62 1588 61.552 1588 61.186 1587.7 61.059 1587.294 61.059 1587.294 64.384 1585.077 64.384 1585.077ZM50 1575C50 1575 52 1575 52 1575 52.288 1575 52.544 1575.126 52.726 1575.321 52.726 1575.321 49.295 1577.708 49.295 1577.708 49.113 1577.527 49 1577.277 49 1577 49 1577 49 1576 49 1576 49 1575.448 49.448 1575 50 1575ZM44 1580C44 1580 46 1580 46 1580 46 1580 46 1580 46 1580 46 1580 44 1583 44 1583 43.448 1583 43 1582.552 43 1582 43 1582 43 1581 43 1581 43 1580.448 43.448 1580 44 1580Z" class="cls-4" fill-rule="evenodd"/><path d="M58 1568C58 1568 56 1568 56 1568 55.448 1568 55 1567.552 55 1567 55 1567 55 1566 55 1566 55 1565.448 55.448 1565 56 1565 56 1565 58 1565 58 1565 58.552 1565 59 1565.448 59 1566 59 1566 59 1567 59 1567 59 1567.552 58.552 1568 58 1568ZM52 1568C52 1568 50 1568 50 1568 49.448 1568 49 1567.552 49 1567 49 1567 49 1566 49 1566 49 1565.448 49.448 1565 50 1565 50 1565 52 1565 52 1565 52.552 1565 53 1565.448 53 1566 53 1566 53 1567 53 1567 53 1567.552 52.552 1568 52 1568ZM46 1568C46 1568 44 1568 44 1568 43.448 1568 43 1567.552 43 1567 43 1567 43 1566 43 1566 43 1565.448 43.448 1565 44 1565 44 1565 46 1565 46 1565 46.552 1565 47 1565.448 47 1566 47 1566 47 1567 47 1567 47 1567.552 46.552 1568 46 1568ZM40 1568C40 1568 38 1568 38 1568 37.448 1568 37 1567.552 37 1567 37 1567 37 1566 37 1566 37 1565.448 37.448 1565 38 1565 38 1565 40 1565 40 1565 40.552 1565 41 1565.448 41 1566 41 1566 41 1567 41 1567 41 1567.552 40.552 1568 40 1568ZM34 1568C34 1568 32 1568 32 1568 31.448 1568 31 1567.552 31 1567 31 1567 31 1566 31 1566 31 1565.448 31.448 1565 32 1565 32 1565 34 1565 34 1565 34.552 1565 35 1565.448 35 1566 35 1566 35 1567 35 1567 35 1567.552 34.552 1568 34 1568ZM28 1568C28 1568 26 1568 26 1568 25.448 1568 25 1567.552 25 1567 25 1567 25 1566 25 1566 25 1565.448 25.448 1565 26 1565 26 1565 28 1565 28 1565 28.552 1565 29 1565.448 29 1566 29 1566 29 1567 29 1567 29 1567.552 28.552 1568 28 1568ZM38 1590C38 1590 40 1590 40 1590 40.552 1590 41 1590.448 41 1591 41 1591 41 1592 41 1592 41 1592.552 40.552 1593 40 1593 40 1593 38 1593 38 1593 37.448 1593 37 1592.552 37 1592 37 1592 37 1591 37 1591 37 1590.448 37.448 1590 38 1590ZM52.962 1592.189C52.871 1592.647 52.485 1593 52 1593 52 1593 50 1593 50 1593 49.799 1593 49.623 1592.926 49.467 1592.824 49.467 1592.824 52.962 1592.189 52.962 1592.189ZM57 1590C57 1590 58 1590 58 1590 58.552 1590 59 1590.448 59 1591 59 1591 59 1592 59 1592 59 1592.552 58.552 1593 58 1593 58 1593 56 1593 56 1593 55.448 1593 55 1592.552 55 1592 55 1592 55 1591.333 55 1591.333 55 1591.333 57 1590 57 1590ZM62 1590C62 1590 64 1590 64 1590 64.552 1590 65 1590.448 65 1591 65 1591 65 1592 65 1592 65 1592.552 64.552 1593 64 1593 64 1593 62 1593 62 1593 61.448 1593 61 1592.552 61 1592 61 1592 61 1591 61 1591 61 1590.448 61.448 1590 62 1590Z" class="cls-9" fill-rule="evenodd"/><path d="M80.823 1572.439C80.823 1572.439 79.186 1573.588 79.186 1573.588 79.186 1573.588 72.296 1563.762 72.296 1563.762 72.296 1563.762 73.934 1562.614 73.934 1562.614 75.29 1561.663 77.161 1561.992 78.112 1563.348 78.112 1563.348 81.557 1568.261 81.557 1568.261 82.508 1569.617 82.18 1571.488 80.823 1572.439ZM58.716 1587.94C58.716 1587.94 51.827 1578.115 51.827 1578.115 51.827 1578.115 70.659 1564.911 70.659 1564.911 70.659 1564.911 77.548 1574.736 77.548 1574.736 77.548 1574.736 58.716 1587.94 58.716 1587.94ZM54.382 1590.457C53.475 1590.821 43.022 1593.387 42.159 1592.156 41.344 1590.994 47.363 1581.934 47.985 1581.215 48.975 1580.067 50.189 1579.263 50.189 1579.263 50.189 1579.263 57.078 1589.089 57.078 1589.089 57.078 1589.089 55.896 1589.849 54.382 1590.457Z" class="cls-4" fill-rule="evenodd"/><path d="M59 1509C59 1509 31 1509 31 1509 28.239 1509 26 1506.761 26 1504 26 1504 26 1473 26 1473 26 1473 38 1461 38 1461 38 1461 59 1461 59 1461 61.761 1461 64 1463.239 64 1466 64 1466 64 1504 64 1504 64 1506.761 61.761 1509 59 1509ZM47 1489C47 1489 45 1489 45 1489 45 1489 45 1487 45 1487 45 1487 47 1487 47 1487 47 1487 47 1485 47 1485 47 1485 45 1485 45 1485 45 1485 45 1483 45 1483 45 1483 47 1483 47 1483 47 1483 47 1481 47 1481 47 1481 45 1481 45 1481 45 1481 45 1479 45 1479 45 1479 47 1479 47 1479 47 1479 47 1477 47 1477 47 1477 45 1477 45 1477 45 1477 45 1475 45 1475 45 1475 47 1475 47 1475 47 1475 47 1473 47 1473 47 1473 45 1473 45 1473 45 1473 45 1471 45 1471 45 1471 47 1471 47 1471 47 1471 47 1469 47 1469 47 1469 45 1469 45 1469 45 1469 45 1467 45 1467 45 1467 47 1467 47 1467 47 1467 47 1465 47 1465 47 1465 45 1465 45 1465 45 1465 45 1463 45 1463 45 1463 47 1463 47 1463 47 1463 47 1461 47 1461 47 1461 45 1461 45 1461 45 1461 45 1463 45 1463 45 1463 43 1463 43 1463 43 1463 43 1465 43 1465 43 1465 45 1465 45 1465 45 1465 45 1467 45 1467 45 1467 43 1467 43 1467 43 1467 43 1469 43 1469 43 1469 45 1469 45 1469 45 1469 45 1471 45 1471 45 1471 43 1471 43 1471 43 1471 43 1473 43 1473 43 1473 45 1473 45 1473 45 1473 45 1475 45 1475 45 1475 43 1475 43 1475 43 1475 43 1477 43 1477 43 1477 45 1477 45 1477 45 1477 45 1479 45 1479 45 1479 43 1479 43 1479 43 1479 43 1481 43 1481 43 1481 45 1481 45 1481 45 1481 45 1483 45 1483 45 1483 43 1483 43 1483 43 1483 43 1485 43 1485 43 1485 45 1485 45 1485 45 1485 45 1487 45 1487 45 1487 43 1487 43 1487 43 1487 43 1489 43 1489 43 1489 45 1489 45 1489 45 1489 45 1491 45 1491 45 1491 47 1491 47 1491 47 1491 47 1489 47 1489ZM62 1467C62 1464.791 60.209 1463 58 1463 58 1463 48 1463 48 1463 48 1463 48 1492 48 1492 48 1492 42 1492 42 1492 42 1492 42 1463 42 1463 42 1463 38 1463 38 1463 38 1463 38 1468 38 1468 38 1470.761 35.761 1473 33 1473 33 1473 28 1473 28 1473 28 1473 28 1503 28 1503 28 1505.209 29.791 1507 32 1507 32 1507 58 1507 58 1507 60.209 1507 62 1505.209 62 1503 62 1503 62 1467 62 1467ZM43 1493C43 1493 47 1493 47 1493 47 1493 47 1501 47 1501 47 1501 43 1501 43 1501 43 1501 43 1493 43 1493ZM44 1496C44 1496 46 1496 46 1496 46 1496 46 1494 46 1494 46 1494 44 1494 44 1494 44 1494 44 1496 44 1496Z" class="cls-4" fill-rule="evenodd"/><path d="M63.818 1419C63.818 1419 61 1419 61 1419 61 1419 61 1417 61 1417 61 1417 63 1417 63 1417 65.209 1417 67 1415.209 67 1413 67 1413 67 1411 67 1411 67 1411 69 1411 69 1411 69 1411 69 1413.857 69 1413.857 69 1416.697 66.68 1419 63.818 1419ZM67 1405C67 1405 69 1405 69 1405 69 1405 69 1409 69 1409 69 1409 67 1409 67 1409 67 1409 67 1405 67 1405ZM67 1399C67 1399 69 1399 69 1399 69 1399 69 1403 69 1403 69 1403 67 1403 67 1403 67 1403 67 1399 67 1399ZM67 1393C67 1393 69 1393 69 1393 69 1393 69 1397 69 1397 69 1397 67 1397 67 1397 67 1397 67 1393 67 1393ZM67 1387C67 1387 69 1387 69 1387 69 1387 69 1391 69 1391 69 1391 67 1391 67 1391 67 1391 67 1387 67 1387ZM67 1381C67 1381 69 1381 69 1381 69 1381 69 1385 69 1385 69 1385 67 1385 67 1385 67 1385 67 1381 67 1381ZM67 1377C67 1374.791 65.209 1373 63 1373 63 1373 61 1373 61 1373 61 1373 61 1371 61 1371 61 1371 59 1371 59 1371 59 1371 59 1373 59 1373 59 1373 55 1373 55 1373 55 1373 55 1371 55 1371 55 1371 53 1371 53 1371 53 1371 53 1373 53 1373 53 1373 49 1373 49 1373 49 1373 49 1371 49 1371 49 1371 47 1371 47 1371 47 1371 47 1373 47 1373 47 1373 43 1373 43 1373 43 1373 43 1371 43 1371 43 1371 41 1371 41 1371 41 1371 41 1373 41 1373 41 1373 37 1373 37 1373 37 1373 37 1371 37 1371 37 1371 35 1371 35 1371 35 1371 35 1373 35 1373 35 1373 31 1373 31 1373 31 1373 31 1371 31 1371 31 1371 29 1371 29 1371 29 1371 29 1373 29 1373 29 1373 27 1373 27 1373 24.791 1373 23 1374.791 23 1377 23 1377 23 1379 23 1379 23 1379 21 1379 21 1379 21 1379 21 1381 21 1381 21 1381 23 1381 23 1381 23 1381 23 1385 23 1385 23 1385 21 1385 21 1385 21 1385 21 1387 21 1387 21 1387 23 1387 23 1387 23 1387 23 1391 23 1391 23 1391 21 1391 21 1391 21 1391 21 1393 21 1393 21 1393 23 1393 23 1393 23 1393 23 1397 23 1397 23 1397 21 1397 21 1397 21 1397 21 1399 21 1399 21 1399 23 1399 23 1399 23 1399 23 1403 23 1403 23 1403 21 1403 21 1403 21 1403 21 1405 21 1405 21 1405 23 1405 23 1405 23 1405 23 1409 23 1409 23 1409 21 1409 21 1409 21 1409 21 1411 21 1411 21 1411 23 1411 23 1411 23 1411 23 1413 23 1413 23 1415.209 24.791 1417 27 1417 27 1417 29 1417 29 1417 29 1417 29 1419 29 1419 29 1419 26.182 1419 26.182 1419 23.32 1419 21 1416.697 21 1413.857 21 1413.857 21 1376.143 21 1376.143 21 1373.302 23.32 1371 26.182 1371 26.182 1371 63.818 1371 63.818 1371 66.68 1371 69 1373.302 69 1376.143 69 1376.143 69 1379 69 1379 69 1379 67 1379 67 1379 67 1379 67 1377 67 1377ZM35 1419C35 1419 31 1419 31 1419 31 1419 31 1417 31 1417 31 1417 35 1417 35 1417 35 1417 35 1419 35 1419ZM41 1419C41 1419 37 1419 37 1419 37 1419 37 1417 37 1417 37 1417 41 1417 41 1417 41 1417 41 1419 41 1419ZM47 1419C47 1419 43 1419 43 1419 43 1419 43 1417 43 1417 43 1417 47 1417 47 1417 47 1417 47 1419 47 1419ZM53 1419C53 1419 49 1419 49 1419 49 1419 49 1417 49 1417 49 1417 53 1417 53 1417 53 1417 53 1419 53 1419ZM59 1419C59 1419 55 1419 55 1419 55 1419 55 1417 55 1417 55 1417 59 1417 59 1417 59 1417 59 1419 59 1419Z" class="cls-4" fill-rule="evenodd"/><path d="M29 1411C29 1411 29 1410 29 1410 29 1410 61 1410 61 1410 61 1410 61 1411 61 1411 61 1411 29 1411 29 1411ZM29 1408C29 1408 61 1408 61 1408 61 1408 61 1409 61 1409 61 1409 29 1409 29 1409 29 1409 29 1408 29 1408ZM29 1406C29 1406 61 1406 61 1406 61 1406 61 1407 61 1407 61 1407 29 1407 29 1407 29 1407 29 1406 29 1406ZM33 1403C33 1403 61 1403 61 1403 61 1403 61 1405 61 1405 61 1405 33 1405 33 1405 33 1405 33 1403 33 1403ZM29 1398C29 1398 61 1398 61 1398 61 1398 61 1399 61 1399 61 1399 29 1399 29 1399 29 1399 29 1398 29 1398ZM29 1396C29 1396 61 1396 61 1396 61 1396 61 1397 61 1397 61 1397 29 1397 29 1397 29 1397 29 1396 29 1396ZM29 1394C29 1394 61 1394 61 1394 61 1394 61 1395 61 1395 61 1395 29 1395 29 1395 29 1395 29 1394 29 1394ZM33 1391C33 1391 61 1391 61 1391 61 1391 61 1393 61 1393 61 1393 33 1393 33 1393 33 1393 33 1391 33 1391ZM29 1386C29 1386 61 1386 61 1386 61 1386 61 1387 61 1387 61 1387 29 1387 29 1387 29 1387 29 1386 29 1386ZM29 1384C29 1384 61 1384 61 1384 61 1384 61 1385 61 1385 61 1385 29 1385 29 1385 29 1385 29 1384 29 1384ZM29 1382C29 1382 61 1382 61 1382 61 1382 61 1383 61 1383 61 1383 29 1383 29 1383 29 1383 29 1382 29 1382ZM33 1379C33 1379 61 1379 61 1379 61 1379 61 1381 61 1381 61 1381 33 1381 33 1381 33 1381 33 1379 33 1379ZM29 1379C29 1379 31 1379 31 1379 31 1379 31 1381 31 1381 31 1381 29 1381 29 1381 29 1381 29 1379 29 1379ZM31 1393C31 1393 29 1393 29 1393 29 1393 29 1391 29 1391 29 1391 31 1391 31 1391 31 1391 31 1393 31 1393ZM31 1405C31 1405 29 1405 29 1405 29 1405 29 1403 29 1403 29 1403 31 1403 31 1403 31 1403 31 1405 31 1405Z" class="cls-4" fill-rule="evenodd"/><path d="M59 1329C59 1329 31 1329 31 1329 28.239 1329 26 1326.761 26 1324 26 1324 26 1297 26 1297 26 1297 42 1281 42 1281 42 1281 59 1281 59 1281 61.761 1281 64 1283.239 64 1286 64 1286 64 1324 64 1324 64 1326.761 61.761 1329 59 1329ZM62 1287C62 1284.791 60.209 1283 58 1283 58 1283 42 1283 42 1283 42 1283 42 1292 42 1292 42 1294.761 39.761 1297 37 1297 37 1297 28 1297 28 1297 28 1297 28 1323 28 1323 28 1325.209 29.791 1327 32 1327 32 1327 58 1327 58 1327 60.209 1327 62 1325.209 62 1323 62 1323 62 1287 62 1287Z" class="cls-4" fill-rule="evenodd"/><path d="M48.532 1305.277C48.144 1305.669 47.51 1305.672 47.118 1305.284 47.118 1305.284 46.989 1305.414 46.989 1305.414 46.844 1305.113 46.658 1304.828 46.408 1304.579 45.231 1303.413 43.332 1303.421 42.165 1304.598 42.165 1304.598 36.533 1310.28 36.533 1310.28 35.367 1311.456 35.375 1313.356 36.552 1314.522 37.729 1315.689 39.628 1315.68 40.795 1314.504 40.795 1314.504 43.751 1311.521 43.751 1311.521 43.751 1311.521 46.017 1312.077 46.017 1312.077 46.017 1312.077 42.215 1315.912 42.215 1315.912 40.271 1317.873 37.105 1317.887 35.144 1315.943 33.183 1313.999 33.169 1310.833 35.113 1308.872 35.113 1308.872 40.745 1303.19 40.745 1303.19 42.689 1301.229 45.855 1301.215 47.816 1303.159 47.978 1303.32 48.107 1303.5 48.242 1303.676 48.343 1303.724 48.442 1303.78 48.526 1303.863 48.918 1304.252 48.921 1304.885 48.532 1305.277Z" class="cls-4" fill-rule="evenodd"/><path d="M54.887 1303.128C54.887 1303.128 49.255 1308.81 49.255 1308.81 47.311 1310.771 44.145 1310.785 42.184 1308.841 42.022 1308.68 41.893 1308.5 41.758 1308.324 41.657 1308.276 41.558 1308.22 41.474 1308.137 41.082 1307.748 41.079 1307.115 41.468 1306.723 41.856 1306.33 42.49 1306.328 42.882 1306.716 42.882 1306.716 42.882 1306.716 42.882 1306.716 42.882 1306.716 43.011 1306.586 43.011 1306.586 43.156 1306.886 43.342 1307.172 43.592 1307.42 44.769 1308.587 46.668 1308.578 47.835 1307.402 47.835 1307.402 53.467 1301.72 53.467 1301.72 54.633 1300.543 54.625 1298.644 53.448 1297.477 52.271 1296.311 50.372 1296.319 49.205 1297.496 49.205 1297.496 46.249 1300.479 46.249 1300.479 46.249 1300.479 43.983 1299.923 43.983 1299.923 43.983 1299.923 47.785 1296.088 47.785 1296.088 49.729 1294.127 52.895 1294.113 54.856 1296.057 56.817 1298.001 56.831 1301.167 54.887 1303.128Z" class="cls-4" fill-rule="evenodd"/><path d="M63.818 1239C63.818 1239 61 1239 61 1239 61 1239 61 1237 61 1237 61 1237 63 1237 63 1237 65.209 1237 67 1235.209 67 1233 67 1233 67 1231 67 1231 67 1231 69 1231 69 1231 69 1231 69 1233.857 69 1233.857 69 1236.697 66.68 1239 63.818 1239ZM67 1225C67 1225 69 1225 69 1225 69 1225 69 1229 69 1229 69 1229 67 1229 67 1229 67 1229 67 1225 67 1225ZM67 1219C67 1219 69 1219 69 1219 69 1219 69 1223 69 1223 69 1223 67 1223 67 1223 67 1223 67 1219 67 1219ZM67 1213C67 1213 69 1213 69 1213 69 1213 69 1217 69 1217 69 1217 67 1217 67 1217 67 1217 67 1213 67 1213ZM67 1207C67 1207 69 1207 69 1207 69 1207 69 1211 69 1211 69 1211 67 1211 67 1211 67 1211 67 1207 67 1207ZM67 1201C67 1201 69 1201 69 1201 69 1201 69 1205 69 1205 69 1205 67 1205 67 1205 67 1205 67 1201 67 1201ZM67 1197C67 1194.791 65.209 1193 63 1193 63 1193 61 1193 61 1193 61 1193 61 1191 61 1191 61 1191 59 1191 59 1191 59 1191 59 1193 59 1193 59 1193 55 1193 55 1193 55 1193 55 1191 55 1191 55 1191 53 1191 53 1191 53 1191 53 1193 53 1193 53 1193 49 1193 49 1193 49 1193 49 1191 49 1191 49 1191 47 1191 47 1191 47 1191 47 1193 47 1193 47 1193 43 1193 43 1193 43 1193 43 1191 43 1191 43 1191 41 1191 41 1191 41 1191 41 1193 41 1193 41 1193 37 1193 37 1193 37 1193 37 1191 37 1191 37 1191 35 1191 35 1191 35 1191 35 1193 35 1193 35 1193 31 1193 31 1193 31 1193 31 1191 31 1191 31 1191 29 1191 29 1191 29 1191 29 1193 29 1193 29 1193 27 1193 27 1193 24.791 1193 23 1194.791 23 1197 23 1197 23 1199 23 1199 23 1199 21 1199 21 1199 21 1199 21 1201 21 1201 21 1201 23 1201 23 1201 23 1201 23 1205 23 1205 23 1205 21 1205 21 1205 21 1205 21 1207 21 1207 21 1207 23 1207 23 1207 23 1207 23 1211 23 1211 23 1211 21 1211 21 1211 21 1211 21 1213 21 1213 21 1213 23 1213 23 1213 23 1213 23 1217 23 1217 23 1217 21 1217 21 1217 21 1217 21 1219 21 1219 21 1219 23 1219 23 1219 23 1219 23 1223 23 1223 23 1223 21 1223 21 1223 21 1223 21 1225 21 1225 21 1225 23 1225 23 1225 23 1225 23 1229 23 1229 23 1229 21 1229 21 1229 21 1229 21 1231 21 1231 21 1231 23 1231 23 1231 23 1231 23 1233 23 1233 23 1235.209 24.791 1237 27 1237 27 1237 29 1237 29 1237 29 1237 29 1239 29 1239 29 1239 26.182 1239 26.182 1239 23.32 1239 21 1236.697 21 1233.857 21 1233.857 21 1196.143 21 1196.143 21 1193.302 23.32 1191 26.182 1191 26.182 1191 63.818 1191 63.818 1191 66.68 1191 69 1193.302 69 1196.143 69 1196.143 69 1199 69 1199 69 1199 67 1199 67 1199 67 1199 67 1197 67 1197ZM35 1239C35 1239 31 1239 31 1239 31 1239 31 1237 31 1237 31 1237 35 1237 35 1237 35 1237 35 1239 35 1239ZM41 1239C41 1239 37 1239 37 1239 37 1239 37 1237 37 1237 37 1237 41 1237 41 1237 41 1237 41 1239 41 1239ZM47 1239C47 1239 43 1239 43 1239 43 1239 43 1237 43 1237 43 1237 47 1237 47 1237 47 1237 47 1239 47 1239ZM53 1239C53 1239 49 1239 49 1239 49 1239 49 1237 49 1237 49 1237 53 1237 53 1237 53 1237 53 1239 53 1239ZM59 1239C59 1239 55 1239 55 1239 55 1239 55 1237 55 1237 55 1237 59 1237 59 1237 59 1237 59 1239 59 1239Z" class="cls-4" fill-rule="evenodd"/><path d="M46 1231C46 1231 46 1216 46 1216 46 1216 61 1216 61 1216 61 1216 61 1231 61 1231 61 1231 46 1231 46 1231ZM46 1199C46 1199 61 1199 61 1199 61 1199 61 1214 61 1214 61 1214 46 1214 46 1214 46 1214 46 1199 46 1199ZM29 1216C29 1216 44 1216 44 1216 44 1216 44 1231 44 1231 44 1231 29 1231 29 1231 29 1231 29 1216 29 1216ZM29 1199C29 1199 44 1199 44 1199 44 1199 44 1214 44 1214 44 1214 29 1214 29 1214 29 1214 29 1199 29 1199Z" class="cls-4" fill-rule="evenodd"/><path d="M64 1131C64 1131 64 1144 64 1144 64 1146.761 61.761 1149 59 1149 59 1149 31 1149 31 1149 28.239 1149 26 1146.761 26 1144 26 1144 26 1117 26 1117 26 1117 42 1101 42 1101 42 1101 59 1101 59 1101 61.761 1101 64 1103.239 64 1106 64 1106 64 1110 64 1110 64 1110 62 1112 62 1112 62 1112 62 1107 62 1107 62 1104.791 60.209 1103 58 1103 58 1103 42 1103 42 1103 42 1103 42 1112 42 1112 42 1114.761 39.761 1117 37 1117 37 1117 28 1117 28 1117 28 1117 28 1143 28 1143 28 1145.209 29.791 1147 32 1147 32 1147 58 1147 58 1147 60.209 1147 62 1145.209 62 1143 62 1143 62 1133 62 1133 62 1133 64 1131 64 1131Z" class="cls-4" fill-rule="evenodd"/><path d="M76.823 1119.439C76.823 1119.439 75.186 1120.588 75.186 1120.588 75.186 1120.588 68.296 1110.762 68.296 1110.762 68.296 1110.762 69.934 1109.614 69.934 1109.614 71.29 1108.663 73.161 1108.992 74.112 1110.348 74.112 1110.348 77.557 1115.261 77.557 1115.261 78.508 1116.617 78.18 1118.488 76.823 1119.439ZM54.716 1134.94C54.716 1134.94 47.827 1125.115 47.827 1125.115 47.827 1125.115 66.659 1111.911 66.659 1111.911 66.659 1111.911 73.548 1121.736 73.548 1121.736 73.548 1121.736 54.716 1134.94 54.716 1134.94ZM50.382 1137.457C49.475 1137.821 39.022 1140.387 38.159 1139.156 37.344 1137.994 43.363 1128.934 43.985 1128.215 44.975 1127.067 46.189 1126.263 46.189 1126.263 46.189 1126.263 53.078 1136.089 53.078 1136.089 53.078 1136.089 51.896 1136.849 50.382 1137.457Z" class="cls-4" fill-rule="evenodd"/><path d="M67.828 1057.966C66.266 1059.529 63.733 1059.529 62.171 1057.967 62.171 1057.967 50.66 1046.463 50.66 1046.463 52.896 1044.967 54.827 1043.054 56.344 1040.834 56.344 1040.834 67.826 1052.309 67.826 1052.309 69.389 1053.871 69.389 1056.403 67.828 1057.966ZM39 1047C29.059 1047 21 1038.941 21 1029 21 1019.059 29.059 1011 39 1011 48.941 1011 57 1019.059 57 1029 57 1038.941 48.941 1047 39 1047ZM49 1019.211C49 1019.211 49 1019 49 1019 49 1019 48.789 1019 48.789 1019 46.264 1016.528 42.812 1015 39 1015 31.268 1015 25 1021.268 25 1029 25 1032.812 26.528 1036.264 29 1038.789 29 1038.789 29 1039 29 1039 29 1039 29.211 1039 29.211 1039 31.736 1041.472 35.188 1043 39 1043 42.812 1043 46.264 1041.472 48.789 1039 48.789 1039 49 1039 49 1039 49 1039 49 1038.789 49 1038.789 51.472 1036.264 53 1032.812 53 1029 53 1025.188 51.472 1021.736 49 1019.211ZM31 1029C31 1029 29 1029 29 1029 29 1023.477 33.477 1019 39 1019 39 1019 39 1021 39 1021 34.582 1021 31 1024.582 31 1029Z" class="cls-4" fill-rule="evenodd"/><path d="M63.818 969C63.818 969 26.182 969 26.182 969 23.32 969 21 966.697 21 963.857 21 963.857 21 934.143 21 934.143 21 931.708 22.71 929.679 25 929.147 25 929.147 25 926.143 25 926.143 25 923.302 27.32 921 30.182 921 30.182 921 38.818 921 38.818 921 41.68 921 44 923.302 44 926.143 44 926.143 44 929 44 929 44 929 46 929 46 929 46 929 46 926.143 46 926.143 46 923.302 48.32 921 51.182 921 51.182 921 59.818 921 59.818 921 62.68 921 65 923.302 65 926.143 65 926.143 65 929.147 65 929.147 67.29 929.679 69 931.708 69 934.143 69 934.143 69 963.857 69 963.857 69 966.697 66.68 969 63.818 969ZM63 926C63 924.343 61.657 923 60 923 60 923 51 923 51 923 49.343 923 48 924.343 48 926 48 926 48 929 48 929 48 929 63 929 63 929 63 929 63 926 63 926ZM67 935C67 932.791 65.209 931 63 931 63 931 42 931 42 931 42 931 42 929 42 929 42 929 42 929 42 929 42 929 42 926 42 926 42 924.343 40.657 923 39 923 39 923 30 923 30 923 28.343 923 27 924.343 27 926 27 926 27 929 27 929 27 929 27 929 27 929 27 929 27 931 27 931 24.791 931 23 932.791 23 935 23 935 23 963 23 963 23 965.209 24.791 967 27 967 27 967 63 967 63 967 65.209 967 67 965.209 67 963 67 963 67 935 67 935Z" class="cls-4" fill-rule="evenodd"/><path d="M49 867C45.952 872.187 46 879 46 879 46 879 44 879 44 879 44 879 44.06 872.162 41 867 38.334 862.503 30 854.328 30 846 30 837.716 36.716 831 45 831 53.284 831 60 837.716 60 846 60 854.35 51.646 862.496 49 867ZM45 840C41.686 840 39 842.686 39 846 39 849.314 41.686 852 45 852 48.314 852 51 849.314 51 846 51 842.686 48.314 840 45 840Z" class="cls-4" fill-rule="evenodd"/><path d="M71.999 788.94C70.925 788.94 69.851 788.94 68.713 788.877 62.773 788.626 59.805 786.563 58.097 785.126 53.486 788.065 48.748 789.003 44.64 789.003 29.602 789.003 20 777.189 20 765.186 20 752.624 29.855 740.998 44.513 740.998 59.173 740.998 69.281 752.374 69.281 764.751 69.281 773.002 65.934 777.312 64.353 779.313 66.376 780.814 68.461 781.251 71.999 781.437 71.999 781.437 71.999 788.94 71.999 788.94ZM44.513 749.184C37.311 749.184 31.435 753.998 29.982 761.498 29.855 762.938 29.855 763.937 29.982 764.812 31.624 764.312 34.279 763.373 37.817 763.373 41.672 763.373 45.083 764.187 48.748 766.563 51.591 768.437 53.171 769.875 57.024 773.375 58.856 771.187 59.867 768.126 59.867 764.751 59.867 755.372 52.853 749.184 44.577 749.184 44.577 749.184 44.513 749.184 44.513 749.184ZM44.64 780.814C47.483 780.814 50.074 780.002 51.4 779.126 50.01 777.5 47.421 775.313 46.472 774.564 43.439 772.252 40.09 771.312 36.867 771.312 34.214 771.312 32.51 771.812 31.117 772.313 34.026 778.751 40.534 780.814 44.577 780.814 44.577 780.814 44.64 780.814 44.64 780.814Z" class="cls-4" fill-rule="evenodd"/><path d="M63.556 685.246C63.556 686.586 63.618 687.452 63.741 687.84 63.864 688.229 64.08 688.544 64.392 688.783 64.703 689.024 64.99 689.144 65.252 689.144 66.317 689.144 67.324 688.324 68.275 686.686 68.275 686.686 69.012 687.232 69.012 687.232 67.685 690.41 65.53 691.998 62.549 691.998 61.091 691.998 59.858 691.589 58.85 690.769 57.843 689.95 57.2 689.036 56.921 688.026 56.757 687.464 56.676 685.941 56.676 683.459 56.676 683.459 56.676 670.922 56.676 670.922 56.676 670.922 53.678 670.922 53.678 670.922 53.678 670.922 53.678 670.053 53.678 670.053 55.742 668.58 57.499 667.033 58.949 665.411 60.399 663.789 61.664 661.977 62.745 659.974 62.745 659.974 63.556 659.974 63.556 659.974 63.556 659.974 63.556 668.464 63.556 668.464 63.556 668.464 69.012 668.464 69.012 668.464 69.012 668.464 69.012 670.922 69.012 670.922 69.012 670.922 63.556 670.922 63.556 670.922 63.556 670.922 63.556 685.246 63.556 685.246ZM48.296 662.593C47.657 661.675 46.78 660.942 45.666 660.396 45.044 660.098 43.954 659.949 42.398 659.949 42.398 659.949 39.916 659.949 39.916 659.949 39.916 659.949 39.916 685.916 39.916 685.916 39.916 687.638 40.01 688.713 40.199 689.144 40.387 689.574 40.755 689.95 41.305 690.273 41.853 690.596 42.603 690.757 43.553 690.757 43.553 690.757 44.659 690.757 44.659 690.757 44.659 690.757 44.659 691.676 44.659 691.676 44.659 691.676 27.211 691.676 27.211 691.676 27.211 691.676 27.211 690.757 27.211 690.757 27.211 690.757 28.317 690.757 28.317 690.757 29.284 690.757 30.062 690.583 30.652 690.236 31.078 690.004 31.414 689.607 31.659 689.044 31.839 688.647 31.93 687.604 31.93 685.916 31.93 685.916 31.93 659.949 31.93 659.949 31.93 659.949 29.521 659.949 29.521 659.949 27.277 659.949 25.647 660.43 24.631 661.389 23.206 662.73 22.305 664.641 21.928 667.124 21.928 667.124 20.994 667.124 20.994 667.124 20.994 667.124 20.994 658.013 20.994 658.013 20.994 658.013 50.925 658.013 50.925 658.013 50.925 658.013 50.925 667.124 50.925 667.124 50.925 667.124 50.041 667.124 50.041 667.124 49.516 665.022 48.935 663.512 48.296 662.593Z" class="cls-4" fill-rule="evenodd"/><path d="M63.818 609C63.818 609 61 609 61 609 61 609 61 607 61 607 61 607 63 607 63 607 65.209 607 67 605.209 67 603 67 603 67 601 67 601 67 601 69 601 69 601 69 601 69 603.857 69 603.857 69 606.697 66.68 609 63.818 609ZM67 595C67 595 69 595 69 595 69 595 69 599 69 599 69 599 67 599 67 599 67 599 67 595 67 595ZM67 589C67 589 69 589 69 589 69 589 69 593 69 593 69 593 67 593 67 593 67 593 67 589 67 589ZM67 583C67 583 69 583 69 583 69 583 69 587 69 587 69 587 67 587 67 587 67 587 67 583 67 583ZM67 577C67 577 69 577 69 577 69 577 69 581 69 581 69 581 67 581 67 581 67 581 67 577 67 577ZM67 571C67 571 69 571 69 571 69 571 69 575 69 575 69 575 67 575 67 575 67 575 67 571 67 571ZM67 567C67 564.791 65.209 563 63 563 63 563 61 563 61 563 61 563 61 561 61 561 61 561 59 561 59 561 59 561 59 563 59 563 59 563 55 563 55 563 55 563 55 561 55 561 55 561 53 561 53 561 53 561 53 563 53 563 53 563 49 563 49 563 49 563 49 561 49 561 49 561 47 561 47 561 47 561 47 563 47 563 47 563 43 563 43 563 43 563 43 561 43 561 43 561 41 561 41 561 41 561 41 563 41 563 41 563 37 563 37 563 37 563 37 561 37 561 37 561 35 561 35 561 35 561 35 563 35 563 35 563 31 563 31 563 31 563 31 561 31 561 31 561 29 561 29 561 29 561 29 563 29 563 29 563 27 563 27 563 24.791 563 23 564.791 23 567 23 567 23 569 23 569 23 569 21 569 21 569 21 569 21 571 21 571 21 571 23 571 23 571 23 571 23 575 23 575 23 575 21 575 21 575 21 575 21 577 21 577 21 577 23 577 23 577 23 577 23 581 23 581 23 581 21 581 21 581 21 581 21 583 21 583 21 583 23 583 23 583 23 583 23 587 23 587 23 587 21 587 21 587 21 587 21 589 21 589 21 589 23 589 23 589 23 589 23 593 23 593 23 593 21 593 21 593 21 593 21 595 21 595 21 595 23 595 23 595 23 595 23 599 23 599 23 599 21 599 21 599 21 599 21 601 21 601 21 601 23 601 23 601 23 601 23 603 23 603 23 605.209 24.791 607 27 607 27 607 29 607 29 607 29 607 29 609 29 609 29 609 26.182 609 26.182 609 23.32 609 21 606.697 21 603.857 21 603.857 21 566.143 21 566.143 21 563.302 23.32 561 26.182 561 26.182 561 63.818 561 63.818 561 66.68 561 69 563.302 69 566.143 69 566.143 69 569 69 569 69 569 67 569 67 569 67 569 67 567 67 567ZM35 609C35 609 31 609 31 609 31 609 31 607 31 607 31 607 35 607 35 607 35 607 35 609 35 609ZM41 609C41 609 37 609 37 609 37 609 37 607 37 607 37 607 41 607 41 607 41 607 41 609 41 609ZM47 609C47 609 43 609 43 609 43 609 43 607 43 607 43 607 47 607 47 607 47 607 47 609 47 609ZM53 609C53 609 49 609 49 609 49 609 49 607 49 607 49 607 53 607 53 607 53 607 53 609 53 609ZM59 609C59 609 55 609 55 609 55 609 55 607 55 607 55 607 59 607 59 607 59 607 59 609 59 609Z" class="cls-4" fill-rule="evenodd"/><path d="M68 520C68 520 68 517 68 517 68 517 69 517 69 517 69 517 69 520 69 520 69 520 68 520 68 520ZM68 513C68 513 69 513 69 513 69 513 69 516 69 516 69 516 68 516 68 516 68 516 68 513 68 513ZM68 509C68 509 69 509 69 509 69 509 69 512 69 512 69 512 68 512 68 512 68 512 68 509 68 509ZM68 505C68 505 69 505 69 505 69 505 69 508 69 508 69 508 68 508 68 508 68 508 68 505 68 505ZM68 502C68 502 65 502 65 502 65 502 65 501 65 501 65 501 69 501 69 501 69 501 69 504 69 504 69 504 68 504 68 504 68 504 68 502 68 502ZM65 490C65 490 68 490 68 490 68 490 68 488 68 488 68 488 69 488 69 488 69 488 69 491 69 491 69 491 65 491 65 491 65 491 65 490 65 490ZM68 484C68 484 69 484 69 484 69 484 69 487 69 487 69 487 68 487 68 487 68 487 68 484 68 484ZM68 480C68 480 69 480 69 480 69 480 69 483 69 483 69 483 68 483 68 483 68 483 68 480 68 480ZM68 476C68 476 69 476 69 476 69 476 69 479 69 479 69 479 68 479 68 479 68 479 68 476 68 476ZM68 472C68 472 69 472 69 472 69 472 69 475 69 475 69 475 68 475 68 475 68 475 68 472 68 472ZM61 502C61 502 61 501 61 501 61 501 64 501 64 501 64 501 64 502 64 502 64 502 61 502 61 502ZM61 490C61 490 64 490 64 490 64 490 64 491 64 491 64 491 61 491 61 491 61 491 61 490 61 490ZM57 501C57 501 60 501 60 501 60 501 60 502 60 502 60 502 57 502 57 502 57 502 57 501 57 501ZM57 490C57 490 60 490 60 490 60 490 60 491 60 491 60 491 57 491 57 491 57 491 57 490 57 490ZM53 501C53 501 56 501 56 501 56 501 56 502 56 502 56 502 53 502 53 502 53 502 53 501 53 501ZM53 490C53 490 56 490 56 490 56 490 56 491 56 491 56 491 53 491 53 491 53 491 53 490 53 490ZM49 501C49 501 52 501 52 501 52 501 52 502 52 502 52 502 49 502 49 502 49 502 49 501 49 501ZM49 490C49 490 52 490 52 490 52 490 52 491 52 491 52 491 49 491 49 491 49 491 49 490 49 490ZM45 501C45 501 48 501 48 501 48 501 48 502 48 502 48 502 45 502 45 502 45 502 45 501 45 501ZM45 490C45 490 48 490 48 490 48 490 48 491 48 491 48 491 45 491 45 491 45 491 45 490 45 490ZM41 501C41 501 44 501 44 501 44 501 44 502 44 502 44 502 41 502 41 502 41 502 41 501 41 501ZM41 490C41 490 44 490 44 490 44 490 44 491 44 491 44 491 41 491 41 491 41 491 41 490 41 490ZM37 501C37 501 40 501 40 501 40 501 40 502 40 502 40 502 37 502 37 502 37 502 37 501 37 501ZM37 490C37 490 40 490 40 490 40 490 40 491 40 491 40 491 37 491 37 491 37 491 37 490 37 490ZM33 501C33 501 36 501 36 501 36 501 36 502 36 502 36 502 33 502 33 502 33 502 33 501 33 501ZM33 490C33 490 36 490 36 490 36 490 36 491 36 491 36 491 33 491 33 491 33 491 33 490 33 490ZM29 501C29 501 32 501 32 501 32 501 32 502 32 502 32 502 29 502 29 502 29 502 29 501 29 501ZM29 490C29 490 32 490 32 490 32 490 32 491 32 491 32 491 29 491 29 491 29 491 29 490 29 490ZM25 501C25 501 28 501 28 501 28 501 28 502 28 502 28 502 25 502 25 502 25 502 25 501 25 501ZM25 490C25 490 28 490 28 490 28 490 28 491 28 491 28 491 25 491 25 491 25 491 25 490 25 490ZM22 504C22 504 21 504 21 504 21 504 21 501 21 501 21 501 24 501 24 501 24 501 24 502 24 502 24 502 22 502 22 502 22 502 22 504 22 504ZM21 488C21 488 22 488 22 488 22 488 22 490 22 490 22 490 24 490 24 490 24 490 24 491 24 491 24 491 21 491 21 491 21 491 21 488 21 488ZM21 484C21 484 22 484 22 484 22 484 22 487 22 487 22 487 21 487 21 487 21 487 21 484 21 484ZM21 480C21 480 22 480 22 480 22 480 22 483 22 483 22 483 21 483 21 483 21 483 21 480 21 480ZM21 476C21 476 22 476 22 476 22 476 22 479 22 479 22 479 21 479 21 479 21 479 21 476 21 476ZM21 472C21 472 22 472 22 472 22 472 22 475 22 475 22 475 21 475 21 475 21 475 21 472 21 472ZM22 508C22 508 21 508 21 508 21 508 21 505 21 505 21 505 22 505 22 505 22 505 22 508 22 508ZM22 512C22 512 21 512 21 512 21 512 21 509 21 509 21 509 22 509 22 509 22 509 22 512 22 512ZM22 516C22 516 21 516 21 516 21 516 21 513 21 513 21 513 22 513 22 513 22 513 22 516 22 516ZM22 520C22 520 21 520 21 520 21 520 21 517 21 517 21 517 22 517 22 517 22 517 22 520 22 520Z" class="cls-4" fill-rule="evenodd"/><path d="M68 429C68 429 68 426 68 426 68 426 69 426 69 426 69 426 69 429 69 429 69 429 68 429 68 429ZM68 422C68 422 69 422 69 422 69 422 69 425 69 425 69 425 68 425 68 425 68 425 68 422 68 422ZM68 418C68 418 69 418 69 418 69 418 69 421 69 421 69 421 68 421 68 421 68 421 68 418 68 418ZM68 414C68 414 69 414 69 414 69 414 69 417 69 417 69 417 68 417 68 417 68 417 68 414 68 414ZM68 411C68 411 65 411 65 411 65 411 65 410 65 410 65 410 69 410 69 410 69 410 69 413 69 413 69 413 68 413 68 413 68 413 68 411 68 411ZM21 404C21 404 69 404 69 404 69 404 69 406 69 406 69 406 21 406 21 406 21 406 21 404 21 404ZM65 399C65 399 68 399 68 399 68 399 68 397 68 397 68 397 69 397 69 397 69 397 69 400 69 400 69 400 65 400 65 400 65 400 65 399 65 399ZM68 393C68 393 69 393 69 393 69 393 69 396 69 396 69 396 68 396 68 396 68 396 68 393 68 393ZM68 389C68 389 69 389 69 389 69 389 69 392 69 392 69 392 68 392 68 392 68 392 68 389 68 389ZM68 385C68 385 69 385 69 385 69 385 69 388 69 388 69 388 68 388 68 388 68 388 68 385 68 385ZM68 381C68 381 69 381 69 381 69 381 69 384 69 384 69 384 68 384 68 384 68 384 68 381 68 381ZM61 399C61 399 64 399 64 399 64 399 64 400 64 400 64 400 61 400 61 400 61 400 61 399 61 399ZM57 399C57 399 60 399 60 399 60 399 60 400 60 400 60 400 57 400 57 400 57 400 57 399 57 399ZM53 399C53 399 56 399 56 399 56 399 56 400 56 400 56 400 53 400 53 400 53 400 53 399 53 399ZM49 399C49 399 52 399 52 399 52 399 52 400 52 400 52 400 49 400 49 400 49 400 49 399 49 399ZM45 399C45 399 48 399 48 399 48 399 48 400 48 400 48 400 45 400 45 400 45 400 45 399 45 399ZM41 399C41 399 44 399 44 399 44 399 44 400 44 400 44 400 41 400 41 400 41 400 41 399 41 399ZM37 399C37 399 40 399 40 399 40 399 40 400 40 400 40 400 37 400 37 400 37 400 37 399 37 399ZM33 399C33 399 36 399 36 399 36 399 36 400 36 400 36 400 33 400 33 400 33 400 33 399 33 399ZM29 399C29 399 32 399 32 399 32 399 32 400 32 400 32 400 29 400 29 400 29 400 29 399 29 399ZM25 399C25 399 28 399 28 399 28 399 28 400 28 400 28 400 25 400 25 400 25 400 25 399 25 399ZM21 397C21 397 22 397 22 397 22 397 22 399 22 399 22 399 24 399 24 399 24 399 24 400 24 400 24 400 21 400 21 400 21 400 21 397 21 397ZM21 393C21 393 22 393 22 393 22 393 22 396 22 396 22 396 21 396 21 396 21 396 21 393 21 393ZM21 389C21 389 22 389 22 389 22 389 22 392 22 392 22 392 21 392 21 392 21 392 21 389 21 389ZM21 385C21 385 22 385 22 385 22 385 22 388 22 388 22 388 21 388 21 388 21 388 21 385 21 385ZM21 381C21 381 22 381 22 381 22 381 22 384 22 384 22 384 21 384 21 384 21 384 21 381 21 381ZM24 411C24 411 22 411 22 411 22 411 22 413 22 413 22 413 21 413 21 413 21 413 21 410 21 410 21 410 24 410 24 410 24 410 24 411 24 411ZM22 417C22 417 21 417 21 417 21 417 21 414 21 414 21 414 22 414 22 414 22 414 22 417 22 417ZM22 421C22 421 21 421 21 421 21 421 21 418 21 418 21 418 22 418 22 418 22 418 22 421 22 421ZM22 425C22 425 21 425 21 425 21 425 21 422 21 422 21 422 22 422 22 422 22 422 22 425 22 425ZM22 429C22 429 21 429 21 429 21 429 21 426 21 426 21 426 22 426 22 426 22 426 22 429 22 429ZM28 411C28 411 25 411 25 411 25 411 25 410 25 410 25 410 28 410 28 410 28 410 28 411 28 411ZM32 411C32 411 29 411 29 411 29 411 29 410 29 410 29 410 32 410 32 410 32 410 32 411 32 411ZM36 411C36 411 33 411 33 411 33 411 33 410 33 410 33 410 36 410 36 410 36 410 36 411 36 411ZM40 411C40 411 37 411 37 411 37 411 37 410 37 410 37 410 40 410 40 410 40 410 40 411 40 411ZM44 411C44 411 41 411 41 411 41 411 41 410 41 410 41 410 44 410 44 410 44 410 44 411 44 411ZM48 411C48 411 45 411 45 411 45 411 45 410 45 410 45 410 48 410 48 410 48 410 48 411 48 411ZM52 411C52 411 49 411 49 411 49 411 49 410 49 410 49 410 52 410 52 410 52 410 52 411 52 411ZM56 411C56 411 53 411 53 411 53 411 53 410 53 410 53 410 56 410 56 410 56 410 56 411 56 411ZM60 411C60 411 57 411 57 411 57 411 57 410 57 410 57 410 60 410 60 410 60 410 60 411 60 411ZM64 411C64 411 61 411 61 411 61 411 61 410 61 410 61 410 64 410 64 410 64 410 64 411 64 411Z" class="cls-4" fill-rule="evenodd"/><path d="M66 328C66 328 32 328 32 328 30.343 328 29 326.657 29 325 29 323.343 30.343 322 32 322 32 322 66 322 66 322 67.657 322 69 323.343 69 325 69 326.657 67.657 328 66 328ZM66 318C66 318 32 318 32 318 30.343 318 29 316.657 29 315 29 313.343 30.343 312 32 312 32 312 66 312 66 312 67.657 312 69 313.343 69 315 69 316.657 67.657 318 66 318ZM66 308C66 308 32 308 32 308 30.343 308 29 306.657 29 305 29 303.343 30.343 302 32 302 32 302 66 302 66 302 67.657 302 69 303.343 69 305 69 306.657 67.657 308 66 308ZM66 298C66 298 32 298 32 298 30.343 298 29 296.657 29 295 29 293.343 30.343 292 32 292 32 292 66 292 66 292 67.657 292 69 293.343 69 295 69 296.657 67.657 298 66 298ZM24 338C22.343 338 21 336.657 21 335 21 333.343 22.343 332 24 332 25.657 332 27 333.343 27 335 27 336.657 25.657 338 24 338ZM24 328C22.343 328 21 326.657 21 325 21 323.343 22.343 322 24 322 25.657 322 27 323.343 27 325 27 326.657 25.657 328 24 328ZM24 318C22.343 318 21 316.657 21 315 21 313.343 22.343 312 24 312 25.657 312 27 313.343 27 315 27 316.657 25.657 318 24 318ZM24 308C22.343 308 21 306.657 21 305 21 303.343 22.343 302 24 302 25.657 302 27 303.343 27 305 27 306.657 25.657 308 24 308ZM24 298C22.343 298 21 296.657 21 295 21 293.343 22.343 292 24 292 25.657 292 27 293.343 27 295 27 296.657 25.657 298 24 298ZM32 332C32 332 66 332 66 332 67.657 332 69 333.343 69 335 69 336.657 67.657 338 66 338 66 338 32 338 32 338 30.343 338 29 336.657 29 335 29 333.343 30.343 332 32 332Z" class="cls-4" fill-rule="evenodd"/><path d="M64 249C64 249 60 249 60 249 57.239 249 55 246.761 55 244 55 244 55 206 55 206 55 203.239 57.239 201 60 201 60 201 64 201 64 201 66.761 201 69 203.239 69 206 69 206 69 244 69 244 69 246.761 66.761 249 64 249ZM47 249C47 249 43 249 43 249 40.239 249 38 246.761 38 244 38 244 38 206 38 206 38 203.239 40.239 201 43 201 43 201 47 201 47 201 49.761 201 52 203.239 52 206 52 206 52 244 52 244 52 246.761 49.761 249 47 249ZM30 249C30 249 26 249 26 249 23.239 249 21 246.761 21 244 21 244 21 206 21 206 21 203.239 23.239 201 26 201 26 201 30 201 30 201 32.761 201 35 203.239 35 206 35 206 35 244 35 244 35 246.761 32.761 249 30 249Z" class="cls-4" fill-rule="evenodd"/><path d="M64.414 145.971C64.326 145.94 63.486 145.648 62.418 145.277 61.552 147.094 59.826 150.385 58 152 54.521 155.077 49.405 156.495 48 157 46 157.719 45 159 45 159 45 159 44 157.719 42 157 40.595 156.495 35.479 155.077 32 152 30.057 150.281 28.223 146.657 27.422 144.94 26.331 145.338 25.452 145.658 25.364 145.69 25.054 145.803 24.723 145.613 24.806 145.277 24.873 145.007 26.232 139.609 26.349 139.148 26.425 138.845 26.82 138.706 27.072 138.885 27.353 139.084 31.886 142.355 32.206 142.595 32.44 142.771 32.384 143.133 32.042 143.258 31.94 143.295 31.336 143.515 30.535 143.807 31.546 145.286 33.83 148.428 36 150 37.752 151.269 40.26 152.156 41 152 42.187 151.75 42 150 42 150 42 150 42.094 150 42.094 150 42.094 150 42.719 130 42.719 130 42.719 130 37.5 130 37.5 130 36.672 130 36 129.328 36 128.5 36 127.672 36.672 127 37.5 127 37.5 127 42.813 127 42.813 127 42.813 127 42.949 122.617 42.949 122.617 40.65 121.777 39 119.59 39 117 39 113.686 41.686 111 45 111 48.314 111 51 113.686 51 117 51 119.59 49.35 121.777 47.051 122.617 47.051 122.617 47.188 127 47.188 127 47.188 127 52.5 127 52.5 127 53.328 127 54 127.672 54 128.5 54 129.328 53.328 130 52.5 130 52.5 130 47.281 130 47.281 130 47.281 130 47.906 150 47.906 150 47.906 150 48 150 48 150 48 150 47.813 151.75 49 152 49.74 152.156 52.248 151.269 54 150 56.008 148.545 58.113 145.747 59.217 144.165 58.22 143.818 57.441 143.548 57.321 143.506 56.957 143.379 56.898 143.012 57.147 142.834 57.486 142.59 62.301 139.275 62.6 139.073 62.868 138.892 63.287 139.033 63.368 139.34 63.492 139.807 64.936 145.279 65.007 145.552 65.095 145.893 64.744 146.085 64.414 145.971ZM49 117C49 114.791 47.209 113 45 113 42.791 113 41 114.791 41 117 41 119.209 42.791 121 45 121 47.209 121 49 119.209 49 117Z" class="cls-4" fill-rule="evenodd"/><path d="M54 53C54 53 54 57 54 57 54 57 49.827 57 49.827 57 49.521 58.82 48.795 60.494 47.767 61.937 47.767 61.937 50.729 64.898 50.729 64.898 50.729 64.898 47.901 67.727 47.901 67.727 47.901 67.727 44.936 64.763 44.936 64.763 43.493 65.789 41.82 66.514 40 66.82 40 66.82 40 71 40 71 40 71 36 71 36 71 36 71 36 66.82 36 66.82 34.181 66.514 32.508 65.79 31.066 64.764 31.066 64.764 28.102 67.729 28.102 67.729 28.102 67.729 25.273 64.901 25.273 64.901 25.273 64.901 28.235 61.939 28.235 61.939 27.206 60.495 26.479 58.821 26.173 57 26.173 57 22 57 22 57 22 57 22 53 22 53 22 53 26.173 53 26.173 53 26.479 51.18 27.205 49.506 28.233 48.063 28.233 48.063 25.271 45.102 25.271 45.102 25.271 45.102 28.099 42.273 28.099 42.273 28.099 42.273 31.064 45.237 31.064 45.237 32.507 44.211 34.18 43.486 36 43.18 36 43.18 36 39 36 39 36 39 40 39 40 39 40 39 40 43.18 40 43.18 41.819 43.486 43.492 44.21 44.934 45.235 44.934 45.235 47.898 42.271 47.898 42.271 47.898 42.271 50.727 45.099 50.727 45.099 50.727 45.099 47.765 48.061 47.765 48.061 48.794 49.505 49.521 51.179 49.827 53 49.827 53 54 53 54 53ZM38 49C34.686 49 32 51.686 32 55 32 58.314 34.686 61 38 61 41.314 61 44 58.314 44 55 44 51.686 41.314 49 38 49Z" class="cls-4" fill-rule="evenodd"/><path d="M67 30.5C67 30.5 67 33.5 67 33.5 67 33.5 63.864 33.5 63.864 33.5 63.634 34.864 63.091 36.118 62.322 37.199 62.322 37.199 64.547 39.424 64.547 39.424 64.547 39.424 62.426 41.545 62.426 41.545 62.426 41.545 60.201 39.321 60.201 39.321 59.12 40.091 57.865 40.635 56.5 40.865 56.5 40.865 56.5 44 56.5 44 56.5 44 53.5 44 53.5 44 53.5 44 53.5 40.865 53.5 40.865 52.135 40.636 50.882 40.092 49.8 39.322 49.8 39.322 47.576 41.547 47.576 41.547 47.576 41.547 45.455 39.425 45.455 39.425 45.455 39.425 47.679 37.201 47.679 37.201 46.909 36.119 46.366 34.865 46.136 33.5 46.136 33.5 43 33.5 43 33.5 43 33.5 43 30.5 43 30.5 43 30.5 46.136 30.5 46.136 30.5 46.366 29.136 46.909 27.882 47.678 26.801 47.678 26.801 45.453 24.576 45.453 24.576 45.453 24.576 47.574 22.455 47.574 22.455 47.574 22.455 49.799 24.679 49.799 24.679 50.88 23.909 52.135 23.365 53.5 23.135 53.5 23.135 53.5 20 53.5 20 53.5 20 56.5 20 56.5 20 56.5 20 56.5 23.135 56.5 23.135 57.865 23.364 59.118 23.908 60.2 24.678 60.2 24.678 62.424 22.453 62.424 22.453 62.424 22.453 64.545 24.574 64.545 24.574 64.545 24.574 62.321 26.799 62.321 26.799 63.091 27.881 63.634 29.135 63.864 30.5 63.864 30.5 67 30.5 67 30.5ZM55 27C52.239 27 50 29.239 50 32 50 34.761 52.239 37 55 37 57.761 37 60 34.761 60 32 60 29.239 57.761 27 55 27Z" class="cls-107" fill-rule="evenodd"/><rect class="cls-109" width="1" height="1"/><rect class="cls-109" x="89" y="3440" width="1" height="1"/></svg>