<svg xmlns="http://www.w3.org/2000/svg" xmlns:xlink="http://www.w3.org/1999/xlink" preserveAspectRatio="xMidYMid" width="90" height="3489" viewBox="0 0 90 3489">
  <defs>
    <style>
      .cls-1, .cls-2, .cls-3, .cls-4 {
        fill: #fff;
      }

      .cls-1, .cls-2, .cls-3 {
        fill-rule: evenodd;
      }

      .cls-2 {
        opacity: 0.55;
      }

      .cls-3 {
        fill-opacity: 0.85;
      }

      .cls-4 {
        opacity: 0;
      }
    </style>
  </defs>
  <g>
    <path d="M68.767,3468.170 C68.704,3468.643 68.641,3469.115 68.552,3469.579 C68.484,3469.928 68.396,3470.269 68.313,3470.612 C68.222,3470.989 68.132,3471.367 68.024,3471.737 C67.911,3472.120 67.783,3472.496 67.653,3472.870 C67.545,3473.180 67.435,3473.488 67.316,3473.791 C67.155,3474.198 66.982,3474.598 66.800,3474.993 C66.686,3475.241 66.567,3475.486 66.445,3475.730 C66.231,3476.155 66.010,3476.576 65.772,3476.986 C65.663,3477.173 65.549,3477.355 65.436,3477.539 C65.162,3477.982 64.883,3478.422 64.582,3478.846 C64.499,3478.962 64.410,3479.074 64.325,3479.189 C63.979,3479.659 63.625,3480.124 63.246,3480.568 L63.246,3480.568 C62.829,3481.055 62.404,3481.536 61.950,3481.989 L61.950,3481.989 C59.780,3484.155 57.197,3485.907 54.330,3487.118 C54.265,3487.146 54.196,3487.164 54.131,3487.191 C53.476,3487.461 52.811,3487.711 52.128,3487.923 C51.949,3487.979 51.762,3488.012 51.581,3488.064 C51.004,3488.228 50.426,3488.392 49.832,3488.513 C49.474,3488.586 49.105,3488.623 48.742,3488.679 C48.312,3488.747 47.889,3488.832 47.452,3488.876 C46.646,3488.958 45.828,3489.000 45.000,3489.000 C44.172,3489.000 43.354,3488.958 42.548,3488.876 C42.111,3488.832 41.688,3488.747 41.258,3488.679 C40.895,3488.623 40.526,3488.586 40.168,3488.513 C39.574,3488.392 38.996,3488.228 38.419,3488.064 C38.238,3488.012 38.051,3487.979 37.872,3487.923 C37.189,3487.711 36.524,3487.461 35.869,3487.191 C35.804,3487.164 35.735,3487.146 35.670,3487.118 C32.803,3485.907 30.220,3484.155 28.050,3481.989 L28.050,3481.989 C27.596,3481.536 27.171,3481.055 26.754,3480.568 L26.754,3480.568 C26.375,3480.124 26.021,3479.659 25.675,3479.189 C25.590,3479.074 25.501,3478.962 25.418,3478.846 C25.117,3478.422 24.838,3477.982 24.564,3477.539 C24.451,3477.355 24.337,3477.173 24.228,3476.986 C23.990,3476.576 23.769,3476.155 23.555,3475.730 C23.433,3475.486 23.314,3475.241 23.200,3474.993 C23.018,3474.598 22.845,3474.198 22.684,3473.791 C22.565,3473.488 22.455,3473.180 22.347,3472.870 C22.217,3472.496 22.089,3472.120 21.976,3471.737 C21.868,3471.367 21.778,3470.989 21.687,3470.612 C21.604,3470.269 21.516,3469.928 21.448,3469.579 C21.359,3469.115 21.296,3468.643 21.233,3468.170 C21.196,3467.889 21.145,3467.613 21.118,3467.329 C21.044,3466.562 21.000,3465.786 21.000,3465.000 C21.000,3464.214 21.044,3463.438 21.118,3462.671 C21.145,3462.387 21.196,3462.111 21.233,3461.830 C21.296,3461.357 21.359,3460.885 21.448,3460.421 C21.516,3460.072 21.604,3459.731 21.687,3459.388 C21.778,3459.011 21.868,3458.633 21.976,3458.263 C22.089,3457.880 22.217,3457.504 22.347,3457.130 C22.455,3456.820 22.565,3456.512 22.684,3456.209 C22.845,3455.802 23.018,3455.402 23.200,3455.007 C23.314,3454.759 23.433,3454.514 23.555,3454.270 C23.769,3453.845 23.990,3453.424 24.228,3453.014 C24.337,3452.827 24.451,3452.645 24.564,3452.461 C24.838,3452.018 25.117,3451.578 25.418,3451.154 C25.501,3451.038 25.590,3450.926 25.675,3450.811 C26.021,3450.341 26.375,3449.876 26.754,3449.432 L26.754,3449.432 C27.171,3448.945 27.596,3448.464 28.050,3448.011 L28.050,3448.011 C30.220,3445.845 32.803,3444.093 35.670,3442.882 C35.735,3442.854 35.804,3442.836 35.869,3442.809 C36.524,3442.539 37.189,3442.289 37.872,3442.077 C38.051,3442.021 38.238,3441.988 38.419,3441.936 C38.996,3441.772 39.574,3441.608 40.168,3441.487 C40.526,3441.414 40.895,3441.377 41.258,3441.321 C41.688,3441.253 42.111,3441.168 42.548,3441.124 C43.354,3441.042 44.172,3441.000 45.000,3441.000 C45.828,3441.000 46.646,3441.042 47.452,3441.124 C47.889,3441.168 48.312,3441.253 48.742,3441.321 C49.105,3441.377 49.474,3441.414 49.832,3441.487 C50.426,3441.608 51.004,3441.772 51.581,3441.936 C51.762,3441.988 51.949,3442.021 52.128,3442.077 C52.811,3442.289 53.476,3442.539 54.131,3442.809 C54.196,3442.836 54.265,3442.854 54.330,3442.882 C57.197,3444.093 59.780,3445.845 61.950,3448.011 L61.950,3448.011 C62.404,3448.464 62.829,3448.945 63.246,3449.432 L63.246,3449.432 C63.625,3449.876 63.979,3450.341 64.325,3450.811 C64.410,3450.926 64.499,3451.038 64.582,3451.154 C64.883,3451.578 65.162,3452.018 65.436,3452.461 C65.549,3452.645 65.663,3452.827 65.772,3453.014 C66.010,3453.424 66.231,3453.845 66.445,3454.270 C66.567,3454.514 66.686,3454.759 66.800,3455.007 C66.982,3455.402 67.155,3455.802 67.316,3456.209 C67.435,3456.512 67.545,3456.820 67.653,3457.130 C67.783,3457.504 67.911,3457.880 68.024,3458.263 C68.132,3458.633 68.222,3459.011 68.313,3459.388 C68.396,3459.731 68.484,3460.072 68.552,3460.421 C68.641,3460.885 68.704,3461.357 68.767,3461.830 C68.804,3462.111 68.855,3462.387 68.882,3462.671 C68.956,3463.438 69.000,3464.214 69.000,3465.000 C69.000,3465.786 68.956,3466.562 68.882,3467.329 C68.855,3467.613 68.804,3467.889 68.767,3468.170 ZM38.799,3486.099 C37.139,3484.432 35.719,3482.088 34.597,3479.308 C32.890,3479.767 31.330,3480.341 29.931,3481.000 C32.413,3483.340 35.436,3485.112 38.799,3486.099 ZM28.541,3479.556 C30.142,3478.737 31.943,3478.034 33.912,3477.477 C32.798,3474.105 32.112,3470.197 32.019,3466.000 L23.042,3466.000 C23.275,3471.195 25.317,3475.911 28.541,3479.556 ZM23.042,3464.000 L32.019,3464.000 C32.112,3459.803 32.798,3455.895 33.912,3452.523 C31.943,3451.966 30.142,3451.263 28.541,3450.444 C25.317,3454.089 23.275,3458.805 23.042,3464.000 ZM29.931,3449.000 C31.330,3449.659 32.890,3450.233 34.597,3450.692 C35.719,3447.912 37.139,3445.568 38.799,3443.901 C35.436,3444.888 32.413,3446.660 29.931,3449.000 ZM44.000,3443.098 C40.963,3443.647 38.288,3446.667 36.472,3451.142 C38.802,3451.632 41.343,3451.915 44.000,3451.975 L44.000,3443.098 ZM44.000,3453.973 C41.105,3453.908 38.337,3453.578 35.796,3453.006 C34.757,3456.195 34.116,3459.952 34.025,3464.000 L44.000,3464.000 L44.000,3453.973 ZM44.000,3466.000 L34.025,3466.000 C34.116,3470.048 34.757,3473.805 35.796,3476.994 C38.337,3476.422 41.105,3476.092 44.000,3476.027 L44.000,3466.000 ZM44.000,3478.025 C41.343,3478.085 38.802,3478.368 36.472,3478.858 C38.288,3483.333 40.963,3486.353 44.000,3486.902 L44.000,3478.025 ZM66.958,3466.000 L57.981,3466.000 C57.888,3470.197 57.202,3474.105 56.088,3477.477 C58.057,3478.034 59.858,3478.737 61.459,3479.556 C64.683,3475.911 66.725,3471.195 66.958,3466.000 ZM60.069,3481.000 C58.670,3480.341 57.110,3479.767 55.403,3479.308 C54.281,3482.088 52.861,3484.432 51.201,3486.099 C54.564,3485.112 57.587,3483.340 60.069,3481.000 ZM46.000,3486.902 C49.037,3486.353 51.712,3483.333 53.528,3478.858 C51.198,3478.368 48.657,3478.085 46.000,3478.025 L46.000,3486.902 ZM46.000,3476.027 C48.895,3476.092 51.663,3476.422 54.204,3476.994 C55.243,3473.805 55.884,3470.048 55.975,3466.000 L46.000,3466.000 L46.000,3476.027 ZM46.000,3464.000 L55.975,3464.000 C55.884,3459.952 55.243,3456.195 54.204,3453.006 C51.663,3453.578 48.895,3453.908 46.000,3453.973 L46.000,3464.000 ZM46.000,3451.975 C48.657,3451.915 51.198,3451.632 53.528,3451.142 C51.712,3446.667 49.037,3443.647 46.000,3443.098 L46.000,3451.975 ZM51.201,3443.901 C52.861,3445.568 54.281,3447.912 55.403,3450.692 C57.110,3450.233 58.670,3449.659 60.069,3449.000 C57.587,3446.660 54.564,3444.888 51.201,3443.901 ZM61.459,3450.444 C59.858,3451.263 58.057,3451.966 56.088,3452.523 C57.202,3455.895 57.888,3459.803 57.981,3464.000 L66.958,3464.000 C66.725,3458.805 64.683,3454.089 61.459,3450.444 Z" class="cls-1"/>
    <path d="M57.000,3387.000 C50.373,3387.000 45.000,3381.627 45.000,3375.000 C45.000,3368.373 50.373,3363.000 57.000,3363.000 C63.627,3363.000 69.000,3368.373 69.000,3375.000 C69.000,3381.627 63.627,3387.000 57.000,3387.000 ZM57.000,3366.000 C52.029,3366.000 48.000,3370.029 48.000,3375.000 C48.000,3379.971 52.029,3384.000 57.000,3384.000 C61.971,3384.000 66.000,3379.971 66.000,3375.000 C66.000,3370.029 61.971,3366.000 57.000,3366.000 ZM33.000,3387.000 C26.373,3387.000 21.000,3381.627 21.000,3375.000 C21.000,3368.373 26.373,3363.000 33.000,3363.000 C39.627,3363.000 45.000,3368.373 45.000,3375.000 C45.000,3381.627 39.627,3387.000 33.000,3387.000 Z" class="cls-1"/>
    <g>
      <path d="M63.818,3309.000 L61.000,3309.000 L61.000,3307.000 L63.000,3307.000 C65.209,3307.000 67.000,3305.209 67.000,3303.000 L67.000,3301.000 L69.000,3301.000 L69.000,3303.857 C69.000,3306.697 66.680,3309.000 63.818,3309.000 ZM67.000,3295.000 L69.000,3295.000 L69.000,3299.000 L67.000,3299.000 L67.000,3295.000 ZM67.000,3289.000 L69.000,3289.000 L69.000,3293.000 L67.000,3293.000 L67.000,3289.000 ZM67.000,3283.000 L69.000,3283.000 L69.000,3287.000 L67.000,3287.000 L67.000,3283.000 ZM67.000,3277.000 L69.000,3277.000 L69.000,3281.000 L67.000,3281.000 L67.000,3277.000 ZM67.000,3271.000 L69.000,3271.000 L69.000,3275.000 L67.000,3275.000 L67.000,3271.000 ZM67.000,3267.000 C67.000,3264.791 65.209,3263.000 63.000,3263.000 L61.000,3263.000 L61.000,3261.000 L63.818,3261.000 C66.680,3261.000 69.000,3263.302 69.000,3266.143 L69.000,3269.000 L67.000,3269.000 L67.000,3267.000 ZM55.000,3263.000 L55.000,3261.000 L59.000,3261.000 L59.000,3263.000 L55.000,3263.000 ZM49.000,3307.000 L53.000,3307.000 L53.000,3309.000 L49.000,3309.000 L49.000,3307.000 ZM49.000,3261.000 L53.000,3261.000 L53.000,3263.000 L49.000,3263.000 L49.000,3261.000 ZM43.000,3307.000 L47.000,3307.000 L47.000,3309.000 L43.000,3309.000 L43.000,3307.000 ZM43.000,3261.000 L47.000,3261.000 L47.000,3263.000 L43.000,3263.000 L43.000,3261.000 ZM37.000,3307.000 L41.000,3307.000 L41.000,3309.000 L37.000,3309.000 L37.000,3307.000 ZM37.000,3261.000 L41.000,3261.000 L41.000,3263.000 L37.000,3263.000 L37.000,3261.000 ZM31.000,3307.000 L35.000,3307.000 L35.000,3309.000 L31.000,3309.000 L31.000,3307.000 ZM31.000,3261.000 L35.000,3261.000 L35.000,3263.000 L31.000,3263.000 L31.000,3261.000 ZM21.000,3303.857 L21.000,3266.143 C21.000,3263.302 23.320,3261.000 26.182,3261.000 L29.000,3261.000 L29.000,3263.000 L27.000,3263.000 C24.791,3263.000 23.000,3264.791 23.000,3267.000 L23.000,3269.000 L21.000,3269.000 L21.000,3271.000 L23.000,3271.000 L23.000,3275.000 L21.000,3275.000 L21.000,3277.000 L23.000,3277.000 L23.000,3281.000 L21.000,3281.000 L21.000,3283.000 L23.000,3283.000 L23.000,3287.000 L21.000,3287.000 L21.000,3289.000 L23.000,3289.000 L23.000,3293.000 L21.000,3293.000 L21.000,3295.000 L23.000,3295.000 L23.000,3299.000 L21.000,3299.000 L21.000,3301.000 L23.000,3301.000 L23.000,3303.000 C23.000,3305.209 24.791,3307.000 27.000,3307.000 L29.000,3307.000 L29.000,3309.000 L26.182,3309.000 C23.320,3309.000 21.000,3306.697 21.000,3303.857 ZM59.000,3309.000 L55.000,3309.000 L55.000,3307.000 L59.000,3307.000 L59.000,3309.000 Z" class="cls-1"/>
      <g>
        <path d="M56.250,3285.750 L56.250,3284.250 L59.250,3284.250 L59.250,3285.750 L56.250,3285.750 ZM52.434,3293.477 L53.495,3292.415 L55.617,3294.534 L54.556,3295.597 L52.434,3293.477 ZM52.420,3276.511 L54.540,3274.388 L55.601,3275.448 L53.481,3277.571 L52.420,3276.511 ZM44.250,3296.250 L45.750,3296.250 L45.750,3299.250 L44.250,3299.250 L44.250,3296.250 ZM44.250,3270.750 L45.750,3270.750 L45.750,3273.750 L44.250,3273.750 L44.250,3270.750 ZM34.399,3294.552 L36.519,3292.429 L37.580,3293.489 L35.460,3295.612 L34.399,3294.552 ZM34.383,3275.466 L35.444,3274.403 L37.566,3276.523 L36.505,3277.585 L34.383,3275.466 ZM30.750,3284.250 L33.750,3284.250 L33.750,3285.750 L30.750,3285.750 L30.750,3284.250 Z" class="cls-2"/>
        <path d="M45.000,3303.000 C35.059,3303.000 27.000,3294.941 27.000,3285.000 C27.000,3275.059 35.059,3267.000 45.000,3267.000 C54.941,3267.000 63.000,3275.059 63.000,3285.000 C63.000,3294.941 54.941,3303.000 45.000,3303.000 ZM45.000,3270.000 C36.716,3270.000 30.000,3276.716 30.000,3285.000 C30.000,3293.284 36.716,3300.000 45.000,3300.000 C53.284,3300.000 60.000,3293.284 60.000,3285.000 C60.000,3276.716 53.284,3270.000 45.000,3270.000 ZM47.889,3284.234 C47.954,3284.480 48.000,3284.733 48.000,3285.000 C48.000,3286.657 46.657,3288.000 45.000,3288.000 C43.696,3288.000 42.597,3287.163 42.184,3286.000 L33.000,3286.000 C32.448,3286.000 32.000,3285.552 32.000,3285.000 C32.000,3284.448 32.448,3284.000 33.000,3284.000 L42.184,3284.000 C42.597,3282.837 43.696,3282.000 45.000,3282.000 C45.267,3282.000 45.522,3282.046 45.768,3282.112 L50.119,3277.756 C50.704,3277.170 51.654,3277.169 52.240,3277.755 C52.826,3278.340 52.827,3279.290 52.241,3279.876 L47.889,3284.234 Z" class="cls-1"/>
      </g>
    </g>
    <g>
      <g>
        <path d="M67.000,3185.000 C67.000,3182.791 65.209,3181.000 63.000,3181.000 L27.000,3181.000 C24.791,3181.000 23.000,3182.791 23.000,3185.000 L23.000,3213.000 C23.000,3215.209 24.791,3217.000 27.000,3217.000 L47.211,3217.000 C47.994,3217.767 48.871,3218.433 49.816,3219.000 L26.000,3219.000 C23.239,3219.000 21.000,3216.761 21.000,3214.000 L21.000,3176.000 C21.000,3173.239 23.239,3171.000 26.000,3171.000 L28.000,3171.000 L28.000,3177.000 C28.000,3178.104 28.895,3179.000 30.000,3179.000 C31.105,3179.000 32.000,3178.104 32.000,3177.000 L32.000,3171.000 L38.000,3171.000 L38.000,3177.000 C38.000,3178.104 38.895,3179.000 40.000,3179.000 C41.105,3179.000 42.000,3178.104 42.000,3177.000 L42.000,3171.000 L48.000,3171.000 L48.000,3177.000 C48.000,3178.104 48.895,3179.000 50.000,3179.000 C51.105,3179.000 52.000,3178.104 52.000,3177.000 L52.000,3171.000 L58.000,3171.000 L58.000,3177.000 C58.000,3178.104 58.895,3179.000 60.000,3179.000 C61.105,3179.000 62.000,3178.104 62.000,3177.000 L62.000,3171.000 L64.000,3171.000 C66.761,3171.000 69.000,3173.239 69.000,3176.000 L69.000,3199.816 C68.433,3198.871 67.766,3197.994 67.000,3197.211 L67.000,3185.000 ZM60.000,3178.000 C59.448,3178.000 59.000,3177.552 59.000,3177.000 L59.000,3170.000 C59.000,3169.448 59.448,3169.000 60.000,3169.000 C60.552,3169.000 61.000,3169.448 61.000,3170.000 L61.000,3177.000 C61.000,3177.552 60.552,3178.000 60.000,3178.000 ZM50.000,3178.000 C49.448,3178.000 49.000,3177.552 49.000,3177.000 L49.000,3170.000 C49.000,3169.448 49.448,3169.000 50.000,3169.000 C50.552,3169.000 51.000,3169.448 51.000,3170.000 L51.000,3177.000 C51.000,3177.552 50.552,3178.000 50.000,3178.000 ZM40.000,3178.000 C39.448,3178.000 39.000,3177.552 39.000,3177.000 L39.000,3170.000 C39.000,3169.448 39.448,3169.000 40.000,3169.000 C40.552,3169.000 41.000,3169.448 41.000,3170.000 L41.000,3177.000 C41.000,3177.552 40.552,3178.000 40.000,3178.000 ZM30.000,3178.000 C29.448,3178.000 29.000,3177.552 29.000,3177.000 L29.000,3170.000 C29.000,3169.448 29.448,3169.000 30.000,3169.000 C30.552,3169.000 31.000,3169.448 31.000,3170.000 L31.000,3177.000 C31.000,3177.552 30.552,3178.000 30.000,3178.000 Z" class="cls-1"/>
        <path d="M64.000,3193.000 L62.000,3193.000 C61.448,3193.000 61.000,3192.552 61.000,3192.000 L61.000,3191.000 C61.000,3190.448 61.448,3190.000 62.000,3190.000 L64.000,3190.000 C64.552,3190.000 65.000,3190.448 65.000,3191.000 L65.000,3192.000 C65.000,3192.552 64.552,3193.000 64.000,3193.000 ZM64.000,3188.000 L62.000,3188.000 C61.448,3188.000 61.000,3187.552 61.000,3187.000 L61.000,3186.000 C61.000,3185.448 61.448,3185.000 62.000,3185.000 L64.000,3185.000 C64.552,3185.000 65.000,3185.448 65.000,3186.000 L65.000,3187.000 C65.000,3187.552 64.552,3188.000 64.000,3188.000 ZM58.000,3193.000 L56.000,3193.000 C55.448,3193.000 55.000,3192.552 55.000,3192.000 L55.000,3191.000 C55.000,3190.448 55.448,3190.000 56.000,3190.000 L58.000,3190.000 C58.552,3190.000 59.000,3190.448 59.000,3191.000 L59.000,3192.000 C59.000,3192.552 58.552,3193.000 58.000,3193.000 ZM52.000,3193.000 L50.000,3193.000 C49.448,3193.000 49.000,3192.552 49.000,3192.000 L49.000,3191.000 C49.000,3190.448 49.448,3190.000 50.000,3190.000 L52.000,3190.000 C52.552,3190.000 53.000,3190.448 53.000,3191.000 L53.000,3192.000 C53.000,3192.552 52.552,3193.000 52.000,3193.000 ZM46.347,3197.930 C46.238,3197.971 46.123,3198.000 46.000,3198.000 L44.000,3198.000 C43.448,3198.000 43.000,3197.552 43.000,3197.000 L43.000,3196.000 C43.000,3195.448 43.448,3195.000 44.000,3195.000 L46.000,3195.000 C46.552,3195.000 47.000,3195.448 47.000,3196.000 L47.000,3197.000 C47.000,3197.096 46.971,3197.183 46.945,3197.271 C46.739,3197.485 46.539,3197.704 46.347,3197.930 ZM46.000,3193.000 L44.000,3193.000 C43.448,3193.000 43.000,3192.552 43.000,3192.000 L43.000,3191.000 C43.000,3190.448 43.448,3190.000 44.000,3190.000 L46.000,3190.000 C46.552,3190.000 47.000,3190.448 47.000,3191.000 L47.000,3192.000 C47.000,3192.552 46.552,3193.000 46.000,3193.000 ZM40.000,3208.000 L38.000,3208.000 C37.448,3208.000 37.000,3207.552 37.000,3207.000 L37.000,3206.000 C37.000,3205.448 37.448,3205.000 38.000,3205.000 L40.000,3205.000 C40.552,3205.000 41.000,3205.448 41.000,3206.000 L41.000,3207.000 C41.000,3207.552 40.552,3208.000 40.000,3208.000 ZM40.000,3203.000 L38.000,3203.000 C37.448,3203.000 37.000,3202.552 37.000,3202.000 L37.000,3201.000 C37.000,3200.448 37.448,3200.000 38.000,3200.000 L40.000,3200.000 C40.552,3200.000 41.000,3200.448 41.000,3201.000 L41.000,3202.000 C41.000,3202.552 40.552,3203.000 40.000,3203.000 ZM40.000,3198.000 L38.000,3198.000 C37.448,3198.000 37.000,3197.552 37.000,3197.000 L37.000,3196.000 C37.000,3195.448 37.448,3195.000 38.000,3195.000 L40.000,3195.000 C40.552,3195.000 41.000,3195.448 41.000,3196.000 L41.000,3197.000 C41.000,3197.552 40.552,3198.000 40.000,3198.000 ZM40.000,3193.000 L38.000,3193.000 C37.448,3193.000 37.000,3192.552 37.000,3192.000 L37.000,3191.000 C37.000,3190.448 37.448,3190.000 38.000,3190.000 L40.000,3190.000 C40.552,3190.000 41.000,3190.448 41.000,3191.000 L41.000,3192.000 C41.000,3192.552 40.552,3193.000 40.000,3193.000 ZM34.000,3213.000 L32.000,3213.000 C31.448,3213.000 31.000,3212.552 31.000,3212.000 L31.000,3211.000 C31.000,3210.448 31.448,3210.000 32.000,3210.000 L34.000,3210.000 C34.552,3210.000 35.000,3210.448 35.000,3211.000 L35.000,3212.000 C35.000,3212.552 34.552,3213.000 34.000,3213.000 ZM34.000,3208.000 L32.000,3208.000 C31.448,3208.000 31.000,3207.552 31.000,3207.000 L31.000,3206.000 C31.000,3205.448 31.448,3205.000 32.000,3205.000 L34.000,3205.000 C34.552,3205.000 35.000,3205.448 35.000,3206.000 L35.000,3207.000 C35.000,3207.552 34.552,3208.000 34.000,3208.000 ZM34.000,3203.000 L32.000,3203.000 C31.448,3203.000 31.000,3202.552 31.000,3202.000 L31.000,3201.000 C31.000,3200.448 31.448,3200.000 32.000,3200.000 L34.000,3200.000 C34.552,3200.000 35.000,3200.448 35.000,3201.000 L35.000,3202.000 C35.000,3202.552 34.552,3203.000 34.000,3203.000 ZM34.000,3198.000 L32.000,3198.000 C31.448,3198.000 31.000,3197.552 31.000,3197.000 L31.000,3196.000 C31.000,3195.448 31.448,3195.000 32.000,3195.000 L34.000,3195.000 C34.552,3195.000 35.000,3195.448 35.000,3196.000 L35.000,3197.000 C35.000,3197.552 34.552,3198.000 34.000,3198.000 ZM34.000,3193.000 L32.000,3193.000 C31.448,3193.000 31.000,3192.552 31.000,3192.000 L31.000,3191.000 C31.000,3190.448 31.448,3190.000 32.000,3190.000 L34.000,3190.000 C34.552,3190.000 35.000,3190.448 35.000,3191.000 L35.000,3192.000 C35.000,3192.552 34.552,3193.000 34.000,3193.000 ZM28.000,3213.000 L26.000,3213.000 C25.448,3213.000 25.000,3212.552 25.000,3212.000 L25.000,3211.000 C25.000,3210.448 25.448,3210.000 26.000,3210.000 L28.000,3210.000 C28.552,3210.000 29.000,3210.448 29.000,3211.000 L29.000,3212.000 C29.000,3212.552 28.552,3213.000 28.000,3213.000 ZM28.000,3208.000 L26.000,3208.000 C25.448,3208.000 25.000,3207.552 25.000,3207.000 L25.000,3206.000 C25.000,3205.448 25.448,3205.000 26.000,3205.000 L28.000,3205.000 C28.552,3205.000 29.000,3205.448 29.000,3206.000 L29.000,3207.000 C29.000,3207.552 28.552,3208.000 28.000,3208.000 ZM28.000,3203.000 L26.000,3203.000 C25.448,3203.000 25.000,3202.552 25.000,3202.000 L25.000,3201.000 C25.000,3200.448 25.448,3200.000 26.000,3200.000 L28.000,3200.000 C28.552,3200.000 29.000,3200.448 29.000,3201.000 L29.000,3202.000 C29.000,3202.552 28.552,3203.000 28.000,3203.000 ZM28.000,3198.000 L26.000,3198.000 C25.448,3198.000 25.000,3197.552 25.000,3197.000 L25.000,3196.000 C25.000,3195.448 25.448,3195.000 26.000,3195.000 L28.000,3195.000 C28.552,3195.000 29.000,3195.448 29.000,3196.000 L29.000,3197.000 C29.000,3197.552 28.552,3198.000 28.000,3198.000 ZM28.000,3193.000 L26.000,3193.000 C25.448,3193.000 25.000,3192.552 25.000,3192.000 L25.000,3191.000 C25.000,3190.448 25.448,3190.000 26.000,3190.000 L28.000,3190.000 C28.552,3190.000 29.000,3190.448 29.000,3191.000 L29.000,3192.000 C29.000,3192.552 28.552,3193.000 28.000,3193.000 ZM44.000,3200.000 L44.888,3200.000 C44.358,3200.915 43.922,3201.889 43.608,3202.920 C43.251,3202.767 43.000,3202.413 43.000,3202.000 L43.000,3201.000 C43.000,3200.448 43.448,3200.000 44.000,3200.000 ZM43.000,3207.000 L43.000,3206.000 C43.000,3205.882 43.030,3205.772 43.067,3205.666 C43.026,3206.106 43.000,3206.550 43.000,3207.000 ZM64.736,3195.335 C64.586,3195.236 64.429,3195.149 64.275,3195.055 C64.455,3195.108 64.613,3195.200 64.736,3195.335 ZM49.725,3195.055 C49.571,3195.149 49.414,3195.236 49.264,3195.335 C49.387,3195.200 49.545,3195.108 49.725,3195.055 Z" class="cls-1"/>
        <path d="M58.000,3188.000 L56.000,3188.000 C55.448,3188.000 55.000,3187.552 55.000,3187.000 L55.000,3186.000 C55.000,3185.448 55.448,3185.000 56.000,3185.000 L58.000,3185.000 C58.552,3185.000 59.000,3185.448 59.000,3186.000 L59.000,3187.000 C59.000,3187.552 58.552,3188.000 58.000,3188.000 ZM52.000,3188.000 L50.000,3188.000 C49.448,3188.000 49.000,3187.552 49.000,3187.000 L49.000,3186.000 C49.000,3185.448 49.448,3185.000 50.000,3185.000 L52.000,3185.000 C52.552,3185.000 53.000,3185.448 53.000,3186.000 L53.000,3187.000 C53.000,3187.552 52.552,3188.000 52.000,3188.000 ZM46.000,3188.000 L44.000,3188.000 C43.448,3188.000 43.000,3187.552 43.000,3187.000 L43.000,3186.000 C43.000,3185.448 43.448,3185.000 44.000,3185.000 L46.000,3185.000 C46.552,3185.000 47.000,3185.448 47.000,3186.000 L47.000,3187.000 C47.000,3187.552 46.552,3188.000 46.000,3188.000 ZM40.000,3213.000 L38.000,3213.000 C37.448,3213.000 37.000,3212.552 37.000,3212.000 L37.000,3211.000 C37.000,3210.448 37.448,3210.000 38.000,3210.000 L40.000,3210.000 C40.552,3210.000 41.000,3210.448 41.000,3211.000 L41.000,3212.000 C41.000,3212.552 40.552,3213.000 40.000,3213.000 ZM40.000,3188.000 L38.000,3188.000 C37.448,3188.000 37.000,3187.552 37.000,3187.000 L37.000,3186.000 C37.000,3185.448 37.448,3185.000 38.000,3185.000 L40.000,3185.000 C40.552,3185.000 41.000,3185.448 41.000,3186.000 L41.000,3187.000 C41.000,3187.552 40.552,3188.000 40.000,3188.000 ZM34.000,3188.000 L32.000,3188.000 C31.448,3188.000 31.000,3187.552 31.000,3187.000 L31.000,3186.000 C31.000,3185.448 31.448,3185.000 32.000,3185.000 L34.000,3185.000 C34.552,3185.000 35.000,3185.448 35.000,3186.000 L35.000,3187.000 C35.000,3187.552 34.552,3188.000 34.000,3188.000 ZM28.000,3188.000 L26.000,3188.000 C25.448,3188.000 25.000,3187.552 25.000,3187.000 L25.000,3186.000 C25.000,3185.448 25.448,3185.000 26.000,3185.000 L28.000,3185.000 C28.552,3185.000 29.000,3185.448 29.000,3186.000 L29.000,3187.000 C29.000,3187.552 28.552,3188.000 28.000,3188.000 ZM43.389,3210.228 C43.618,3211.196 43.947,3212.122 44.365,3213.000 L44.000,3213.000 C43.448,3213.000 43.000,3212.552 43.000,3212.000 L43.000,3211.000 C43.000,3210.682 43.158,3210.411 43.389,3210.228 Z" class="cls-2"/>
      </g>
      <g>
        <path d="M64.500,3207.500 L64.500,3206.500 L66.500,3206.500 L66.500,3207.500 L64.500,3207.500 ZM61.956,3212.651 L62.663,3211.943 L64.078,3213.356 L63.371,3214.065 L61.956,3212.651 ZM61.947,3201.340 L63.360,3199.925 L64.068,3200.632 L62.654,3202.047 L61.947,3201.340 ZM56.500,3214.500 L57.500,3214.500 L57.500,3216.500 L56.500,3216.500 L56.500,3214.500 ZM56.500,3197.500 L57.500,3197.500 L57.500,3199.500 L56.500,3199.500 L56.500,3197.500 ZM49.932,3213.368 L51.346,3211.953 L52.053,3212.660 L50.640,3214.075 L49.932,3213.368 ZM49.922,3200.644 L50.629,3199.935 L52.044,3201.349 L51.337,3202.057 L49.922,3200.644 ZM47.500,3206.500 L49.500,3206.500 L49.500,3207.500 L47.500,3207.500 L47.500,3206.500 Z" class="cls-2"/>
        <path d="M57.000,3219.000 C50.373,3219.000 45.000,3213.627 45.000,3207.000 C45.000,3200.372 50.373,3195.000 57.000,3195.000 C63.627,3195.000 69.000,3200.372 69.000,3207.000 C69.000,3213.627 63.627,3219.000 57.000,3219.000 ZM57.000,3197.000 C51.477,3197.000 47.000,3201.477 47.000,3207.000 C47.000,3212.523 51.477,3217.000 57.000,3217.000 C62.523,3217.000 67.000,3212.523 67.000,3207.000 C67.000,3201.477 62.523,3197.000 57.000,3197.000 ZM58.926,3206.489 C58.969,3206.653 59.000,3206.822 59.000,3207.000 C59.000,3208.105 58.105,3209.000 57.000,3209.000 C56.262,3209.000 55.624,3208.595 55.277,3208.000 L49.500,3208.000 C48.948,3208.000 48.500,3207.552 48.500,3207.000 C48.500,3206.448 48.948,3206.000 49.500,3206.000 L55.277,3206.000 C55.624,3205.405 56.262,3205.000 57.000,3205.000 C57.178,3205.000 57.348,3205.031 57.512,3205.074 L60.412,3202.171 C60.803,3201.780 61.436,3201.779 61.827,3202.170 C62.217,3202.560 62.218,3203.193 61.828,3203.584 L58.926,3206.489 Z" class="cls-1"/>
      </g>
    </g>
    <g>
      <g>
        <path d="M60.001,3105.992 L60.001,3103.990 L63.999,3103.990 L63.999,3105.992 L60.001,3105.992 ZM54.912,3116.303 L56.327,3114.886 L59.156,3117.712 L57.741,3119.129 L54.912,3116.303 ZM54.893,3093.681 L57.720,3090.851 L59.135,3092.264 L56.308,3095.094 L54.893,3093.681 ZM44.000,3120.000 L46.000,3120.000 L46.000,3124.000 L44.000,3124.000 L44.000,3120.000 ZM44.000,3086.000 L46.000,3086.000 L46.000,3090.000 L44.000,3090.000 L44.000,3086.000 ZM30.865,3117.736 L33.692,3114.906 L35.107,3116.319 L32.280,3119.149 L30.865,3117.736 ZM30.844,3092.288 L32.259,3090.871 L35.088,3093.697 L33.673,3095.114 L30.844,3092.288 ZM26.001,3104.008 L29.999,3104.008 L29.999,3106.010 L26.001,3106.010 L26.001,3104.008 Z" class="cls-2"/>
        <path d="M45.000,3129.000 C31.745,3129.000 21.000,3118.255 21.000,3105.000 C21.000,3091.745 31.745,3081.000 45.000,3081.000 C58.255,3081.000 69.000,3091.745 69.000,3105.000 C69.000,3118.255 58.255,3129.000 45.000,3129.000 ZM45.000,3085.000 C33.954,3085.000 25.000,3093.954 25.000,3105.000 C25.000,3116.046 33.954,3125.000 45.000,3125.000 C56.046,3125.000 65.000,3116.046 65.000,3105.000 C65.000,3093.954 56.046,3085.000 45.000,3085.000 ZM48.852,3103.978 C48.939,3104.306 49.000,3104.644 49.000,3105.000 C49.000,3107.209 47.209,3109.000 45.000,3109.000 C43.523,3109.000 42.248,3108.191 41.555,3107.000 L30.000,3107.000 C28.895,3107.000 28.000,3106.105 28.000,3105.000 C28.000,3103.895 28.895,3103.000 30.000,3103.000 L41.555,3103.000 C42.248,3101.809 43.523,3101.000 45.000,3101.000 C45.356,3101.000 45.696,3101.061 46.025,3101.149 L51.825,3095.341 C52.605,3094.560 53.872,3094.559 54.653,3095.340 C55.435,3096.120 55.436,3097.386 54.655,3098.168 L48.852,3103.978 Z" class="cls-1"/>
      </g>
      <path d="M80.000,3091.000 C77.349,3091.529 72.976,3091.716 73.000,3095.000 C73.027,3098.798 78.167,3097.250 79.000,3097.000 C80.789,3096.463 82.623,3094.564 83.967,3092.879 C83.711,3093.974 83.392,3095.022 83.000,3096.000 C80.831,3101.407 74.689,3108.805 69.037,3114.902 C70.296,3111.849 71.000,3108.508 71.000,3105.000 C71.000,3090.641 59.359,3079.000 45.000,3079.000 C44.526,3079.000 44.064,3079.046 43.597,3079.071 C47.580,3077.553 51.274,3076.268 53.000,3076.000 C56.217,3075.501 59.540,3075.546 62.501,3075.705 C61.493,3076.253 60.298,3077.073 60.000,3078.000 C59.124,3080.726 61.459,3081.450 64.000,3080.000 C66.298,3078.689 66.491,3077.140 66.141,3075.944 C68.222,3076.088 69.931,3076.185 71.000,3076.000 C78.138,3074.763 83.000,3067.000 83.000,3067.000 C83.000,3067.000 83.016,3067.074 83.039,3067.181 C82.809,3070.461 82.010,3075.563 80.000,3079.000 C77.167,3083.844 71.000,3086.000 71.000,3086.000 C71.000,3086.000 78.106,3088.676 84.000,3080.000 C84.314,3079.537 84.514,3078.957 84.633,3078.300 C84.778,3080.133 84.873,3082.067 84.866,3084.024 C84.553,3086.456 83.504,3090.301 80.000,3091.000 Z" class="cls-1"/>
    </g>
    <g>
      <path d="M47.102,3038.908 C33.898,3040.069 22.253,3030.306 21.092,3017.102 C19.931,3003.898 29.694,2992.253 42.898,2991.092 C56.102,2989.931 67.747,2999.694 68.908,3012.898 C70.069,3026.102 60.306,3037.747 47.102,3038.908 ZM52.939,2995.559 C42.201,2991.174 29.943,2996.324 25.558,3007.061 C21.174,3017.798 26.324,3030.057 37.061,3034.442 C47.799,3038.826 60.057,3033.676 64.442,3022.939 C68.826,3012.202 63.676,2999.943 52.939,2995.559 Z" class="cls-1"/>
      <path d="M47.102,3038.908 C33.898,3040.069 22.253,3030.306 21.092,3017.102 C19.931,3003.898 29.694,2992.253 42.898,2991.092 C56.102,2989.931 67.747,2999.694 68.908,3012.898 C70.069,3026.102 60.306,3037.747 47.102,3038.908 ZM52.522,2993.942 C46.780,2990.633 32.358,2990.877 25.074,3003.513 C17.775,3016.174 24.806,3028.752 30.547,3032.062 C36.289,3035.372 45.863,3029.522 51.931,3018.995 C57.999,3008.469 58.264,2997.252 52.522,2993.942 Z" class="cls-1"/>
    </g>
    <g>
      <path d="M63.818,2949.000 L61.000,2949.000 L61.000,2947.000 L63.000,2947.000 C65.209,2947.000 67.000,2945.209 67.000,2943.000 L67.000,2941.000 L69.000,2941.000 L69.000,2943.857 C69.000,2946.697 66.680,2949.000 63.818,2949.000 ZM67.000,2935.000 L69.000,2935.000 L69.000,2939.000 L67.000,2939.000 L67.000,2935.000 ZM67.000,2929.000 L69.000,2929.000 L69.000,2933.000 L67.000,2933.000 L67.000,2929.000 ZM67.000,2923.000 L69.000,2923.000 L69.000,2927.000 L67.000,2927.000 L67.000,2923.000 ZM67.000,2917.000 L69.000,2917.000 L69.000,2921.000 L67.000,2921.000 L67.000,2917.000 ZM67.000,2911.000 L69.000,2911.000 L69.000,2915.000 L67.000,2915.000 L67.000,2911.000 ZM67.000,2907.000 C67.000,2904.791 65.209,2903.000 63.000,2903.000 L61.000,2903.000 L61.000,2901.000 L59.000,2901.000 L59.000,2903.000 L55.000,2903.000 L55.000,2901.000 L53.000,2901.000 L53.000,2903.000 L49.000,2903.000 L49.000,2901.000 L47.000,2901.000 L47.000,2903.000 L43.000,2903.000 L43.000,2901.000 L41.000,2901.000 L41.000,2903.000 L37.000,2903.000 L37.000,2901.000 L35.000,2901.000 L35.000,2903.000 L31.000,2903.000 L31.000,2901.000 L29.000,2901.000 L29.000,2903.000 L27.000,2903.000 C24.791,2903.000 23.000,2904.791 23.000,2907.000 L23.000,2909.000 L21.000,2909.000 L21.000,2911.000 L23.000,2911.000 L23.000,2915.000 L21.000,2915.000 L21.000,2917.000 L23.000,2917.000 L23.000,2921.000 L21.000,2921.000 L21.000,2923.000 L23.000,2923.000 L23.000,2927.000 L21.000,2927.000 L21.000,2929.000 L23.000,2929.000 L23.000,2933.000 L21.000,2933.000 L21.000,2935.000 L23.000,2935.000 L23.000,2939.000 L21.000,2939.000 L21.000,2941.000 L23.000,2941.000 L23.000,2943.000 C23.000,2945.209 24.791,2947.000 27.000,2947.000 L29.000,2947.000 L29.000,2949.000 L26.182,2949.000 C23.320,2949.000 21.000,2946.697 21.000,2943.857 L21.000,2906.143 C21.000,2903.302 23.320,2901.000 26.182,2901.000 L63.818,2901.000 C66.680,2901.000 69.000,2903.302 69.000,2906.143 L69.000,2909.000 L67.000,2909.000 L67.000,2907.000 ZM35.000,2949.000 L31.000,2949.000 L31.000,2947.000 L35.000,2947.000 L35.000,2949.000 ZM41.000,2949.000 L37.000,2949.000 L37.000,2947.000 L41.000,2947.000 L41.000,2949.000 ZM47.000,2949.000 L43.000,2949.000 L43.000,2947.000 L47.000,2947.000 L47.000,2949.000 ZM53.000,2949.000 L49.000,2949.000 L49.000,2947.000 L53.000,2947.000 L53.000,2949.000 ZM59.000,2949.000 L55.000,2949.000 L55.000,2947.000 L59.000,2947.000 L59.000,2949.000 Z" class="cls-1"/>
      <path d="M51.000,2941.000 L61.000,2931.000 L61.000,2941.000 L51.000,2941.000 ZM34.182,2941.000 C31.320,2941.000 29.000,2938.698 29.000,2935.857 L29.000,2914.143 C29.000,2911.303 31.320,2909.000 34.182,2909.000 L55.818,2909.000 C58.680,2909.000 61.000,2911.303 61.000,2914.143 L61.000,2927.000 L47.000,2941.000 L34.182,2941.000 ZM59.000,2914.000 C59.000,2912.343 57.657,2911.000 56.000,2911.000 L34.000,2911.000 C32.343,2911.000 31.000,2912.343 31.000,2914.000 L31.000,2936.000 C31.000,2937.657 32.343,2939.000 34.000,2939.000 L45.000,2939.000 L59.000,2925.000 L59.000,2914.000 Z" class="cls-1"/>
    </g>
    <path d="M54.000,2859.000 L64.000,2849.000 L64.000,2859.000 L54.000,2859.000 ZM31.182,2859.000 C28.320,2859.000 26.000,2856.698 26.000,2853.857 L26.000,2816.143 C26.000,2813.303 28.320,2811.000 31.182,2811.000 L58.818,2811.000 C61.680,2811.000 64.000,2813.303 64.000,2816.143 L64.000,2845.000 L50.000,2859.000 L31.182,2859.000 ZM62.000,2816.000 C62.000,2814.343 60.657,2813.000 59.000,2813.000 L31.000,2813.000 C29.343,2813.000 28.000,2814.343 28.000,2816.000 L28.000,2854.000 C28.000,2855.657 29.343,2857.000 31.000,2857.000 L48.000,2857.000 L62.000,2843.000 L62.000,2816.000 Z" class="cls-1"/>
    <g>
      <path d="M63.818,2769.000 L61.000,2769.000 L61.000,2767.000 L63.000,2767.000 C65.209,2767.000 67.000,2765.209 67.000,2763.000 L67.000,2761.000 L69.000,2761.000 L69.000,2763.857 C69.000,2766.697 66.680,2769.000 63.818,2769.000 ZM67.000,2755.000 L69.000,2755.000 L69.000,2759.000 L67.000,2759.000 L67.000,2755.000 ZM67.000,2749.000 L69.000,2749.000 L69.000,2753.000 L67.000,2753.000 L67.000,2749.000 ZM67.000,2743.000 L69.000,2743.000 L69.000,2747.000 L67.000,2747.000 L67.000,2743.000 ZM67.000,2737.000 L69.000,2737.000 L69.000,2741.000 L67.000,2741.000 L67.000,2737.000 ZM67.000,2731.000 L69.000,2731.000 L69.000,2735.000 L67.000,2735.000 L67.000,2731.000 ZM67.000,2727.000 C67.000,2724.791 65.209,2723.000 63.000,2723.000 L61.000,2723.000 L61.000,2721.000 L63.818,2721.000 C66.680,2721.000 69.000,2723.302 69.000,2726.143 L69.000,2729.000 L67.000,2729.000 L67.000,2727.000 ZM55.000,2723.000 L55.000,2721.000 L59.000,2721.000 L59.000,2723.000 L55.000,2723.000 ZM49.000,2767.000 L53.000,2767.000 L53.000,2769.000 L49.000,2769.000 L49.000,2767.000 ZM49.000,2721.000 L53.000,2721.000 L53.000,2723.000 L49.000,2723.000 L49.000,2721.000 ZM43.000,2767.000 L47.000,2767.000 L47.000,2769.000 L43.000,2769.000 L43.000,2767.000 ZM43.000,2721.000 L47.000,2721.000 L47.000,2723.000 L43.000,2723.000 L43.000,2721.000 ZM37.000,2767.000 L41.000,2767.000 L41.000,2769.000 L37.000,2769.000 L37.000,2767.000 ZM37.000,2721.000 L41.000,2721.000 L41.000,2723.000 L37.000,2723.000 L37.000,2721.000 ZM31.000,2767.000 L35.000,2767.000 L35.000,2769.000 L31.000,2769.000 L31.000,2767.000 ZM31.000,2721.000 L35.000,2721.000 L35.000,2723.000 L31.000,2723.000 L31.000,2721.000 ZM21.000,2763.857 L21.000,2726.143 C21.000,2723.302 23.320,2721.000 26.182,2721.000 L29.000,2721.000 L29.000,2723.000 L27.000,2723.000 C24.791,2723.000 23.000,2724.791 23.000,2727.000 L23.000,2729.000 L21.000,2729.000 L21.000,2731.000 L23.000,2731.000 L23.000,2735.000 L21.000,2735.000 L21.000,2737.000 L23.000,2737.000 L23.000,2741.000 L21.000,2741.000 L21.000,2743.000 L23.000,2743.000 L23.000,2747.000 L21.000,2747.000 L21.000,2749.000 L23.000,2749.000 L23.000,2753.000 L21.000,2753.000 L21.000,2755.000 L23.000,2755.000 L23.000,2759.000 L21.000,2759.000 L21.000,2761.000 L23.000,2761.000 L23.000,2763.000 C23.000,2765.209 24.791,2767.000 27.000,2767.000 L29.000,2767.000 L29.000,2769.000 L26.182,2769.000 C23.320,2769.000 21.000,2766.697 21.000,2763.857 ZM59.000,2769.000 L55.000,2769.000 L55.000,2767.000 L59.000,2767.000 L59.000,2769.000 Z" class="cls-1"/>
      <path d="M60.000,2763.000 L45.000,2763.000 L30.000,2763.000 C30.000,2763.000 29.778,2748.284 32.250,2745.000 C34.335,2742.231 35.991,2741.976 37.500,2742.000 C39.039,2742.024 39.572,2743.468 41.250,2744.250 C43.084,2745.105 45.000,2745.000 45.000,2745.000 C45.000,2745.000 46.916,2745.105 48.750,2744.250 C50.428,2743.468 50.961,2742.024 52.500,2742.000 C54.009,2741.976 55.665,2742.231 57.750,2745.000 C60.222,2748.284 60.000,2763.000 60.000,2763.000 ZM45.000,2742.750 C40.858,2742.750 37.500,2739.224 37.500,2734.875 C37.500,2730.526 40.858,2727.000 45.000,2727.000 C49.142,2727.000 52.500,2730.526 52.500,2734.875 C52.500,2739.224 49.142,2742.750 45.000,2742.750 Z" class="cls-1"/>
    </g>
    <path d="M65.000,2679.000 L45.000,2679.000 L25.000,2679.000 C25.000,2679.000 24.704,2659.378 28.000,2655.000 C30.780,2651.309 32.988,2650.968 35.000,2651.000 C37.052,2651.033 37.762,2652.957 40.000,2654.000 C42.445,2655.139 45.000,2655.000 45.000,2655.000 C45.000,2655.000 47.555,2655.139 50.000,2654.000 C52.238,2652.957 52.948,2651.033 55.000,2651.000 C57.012,2650.968 59.220,2651.309 62.000,2655.000 C65.296,2659.378 65.000,2679.000 65.000,2679.000 ZM45.000,2652.000 C39.477,2652.000 35.000,2647.299 35.000,2641.500 C35.000,2635.701 39.477,2631.000 45.000,2631.000 C50.523,2631.000 55.000,2635.701 55.000,2641.500 C55.000,2647.299 50.523,2652.000 45.000,2652.000 Z" class="cls-1"/>
    <path d="M60.000,2589.000 L30.000,2589.000 C27.239,2589.000 25.000,2586.761 25.000,2584.000 L25.000,2564.000 C25.000,2561.239 27.239,2559.000 30.000,2559.000 L60.000,2559.000 C62.761,2559.000 65.000,2561.239 65.000,2564.000 L65.000,2584.000 C65.000,2586.761 62.761,2589.000 60.000,2589.000 ZM45.000,2566.000 C42.239,2566.000 40.000,2568.238 40.000,2571.000 C40.000,2573.049 41.236,2574.806 43.000,2575.578 L43.000,2580.000 C43.000,2581.105 43.895,2582.000 45.000,2582.000 C46.105,2582.000 47.000,2581.105 47.000,2580.000 L47.000,2575.578 C48.764,2574.806 50.000,2573.049 50.000,2571.000 C50.000,2568.238 47.761,2566.000 45.000,2566.000 ZM55.950,2557.000 C55.979,2556.670 56.000,2556.338 56.000,2556.000 C56.000,2549.925 51.075,2545.000 45.000,2545.000 C38.925,2545.000 34.000,2549.925 34.000,2556.000 C34.000,2556.338 34.021,2556.670 34.050,2557.000 L30.050,2557.000 C30.029,2556.668 30.000,2556.338 30.000,2556.000 C30.000,2547.716 36.716,2541.000 45.000,2541.000 C53.284,2541.000 60.000,2547.716 60.000,2556.000 C60.000,2556.338 59.971,2556.668 59.950,2557.000 L55.950,2557.000 Z" class="cls-1"/>
    <path d="M58.818,2499.000 L31.182,2499.000 C28.320,2499.000 26.000,2496.697 26.000,2493.857 L26.000,2477.000 L24.000,2477.000 L24.000,2473.000 L26.000,2473.000 L26.000,2456.143 C26.000,2453.302 28.320,2451.000 31.182,2451.000 L58.818,2451.000 C61.680,2451.000 64.000,2453.302 64.000,2456.143 L64.000,2493.857 C64.000,2496.697 61.680,2499.000 58.818,2499.000 ZM62.000,2456.000 C62.000,2454.343 60.657,2453.000 59.000,2453.000 L31.000,2453.000 C29.343,2453.000 28.000,2454.343 28.000,2456.000 L28.000,2468.000 L26.000,2468.000 L26.000,2473.000 L45.000,2473.000 L35.000,2463.000 L42.000,2463.000 L54.000,2475.000 L42.000,2487.000 L35.000,2487.000 L45.000,2477.000 L26.000,2477.000 L26.000,2482.000 L28.000,2482.000 L28.000,2494.000 C28.000,2495.657 29.343,2497.000 31.000,2497.000 L59.000,2497.000 C60.657,2497.000 62.000,2495.657 62.000,2494.000 L62.000,2456.000 Z" class="cls-1"/>
    <g>
      <path d="M58.000,2383.000 C51.925,2383.000 47.000,2378.075 47.000,2372.000 C47.000,2365.925 51.925,2361.000 58.000,2361.000 C64.075,2361.000 69.000,2365.925 69.000,2372.000 C69.000,2378.075 64.075,2383.000 58.000,2383.000 ZM64.613,2367.203 C64.058,2367.521 63.444,2367.752 62.789,2367.877 C62.265,2367.337 61.519,2367.000 60.693,2367.000 C59.106,2367.000 57.820,2368.243 57.820,2369.777 C57.820,2369.994 57.846,2370.206 57.895,2370.410 C55.508,2370.294 53.391,2369.188 51.975,2367.508 C51.727,2367.918 51.586,2368.395 51.586,2368.904 C51.586,2369.868 52.093,2370.718 52.863,2371.216 C52.393,2371.201 51.950,2371.076 51.562,2370.868 C51.562,2370.880 51.562,2370.892 51.562,2370.903 C51.562,2372.249 52.552,2373.371 53.866,2373.626 C53.625,2373.690 53.372,2373.724 53.110,2373.724 C52.924,2373.724 52.745,2373.706 52.569,2373.674 C52.935,2374.777 53.995,2375.580 55.252,2375.602 C54.269,2376.347 53.031,2376.791 51.685,2376.791 C51.453,2376.791 51.225,2376.778 51.000,2376.752 C52.271,2377.540 53.781,2378.000 55.403,2378.000 C60.686,2378.000 63.575,2373.769 63.575,2370.099 C63.575,2369.978 63.572,2369.859 63.567,2369.740 C64.128,2369.348 64.615,2368.859 65.000,2368.302 C64.485,2368.523 63.931,2368.672 63.350,2368.739 C63.943,2368.396 64.399,2367.851 64.613,2367.203 Z" class="cls-1"/>
      <path d="M45.000,2409.000 C38.925,2409.000 34.000,2404.075 34.000,2398.000 C34.000,2391.925 38.925,2387.000 45.000,2387.000 C51.075,2387.000 56.000,2391.925 56.000,2398.000 C56.000,2404.075 51.075,2409.000 45.000,2409.000 ZM44.357,2391.000 C43.860,2391.000 43.327,2391.057 42.758,2391.170 C42.184,2391.302 41.630,2391.583 41.097,2392.013 C40.322,2392.749 39.934,2393.568 39.934,2394.471 C39.934,2395.218 40.207,2395.873 40.755,2396.435 C41.278,2397.038 42.039,2397.346 43.036,2397.358 C43.225,2397.358 43.425,2397.346 43.638,2397.322 C43.603,2397.418 43.565,2397.524 43.524,2397.638 C43.477,2397.746 43.453,2397.882 43.453,2398.044 C43.453,2398.314 43.515,2398.546 43.638,2398.738 C43.744,2398.937 43.864,2399.123 44.000,2399.297 C43.562,2399.309 43.013,2399.363 42.351,2399.459 C41.683,2399.572 41.046,2399.799 40.439,2400.139 C39.898,2400.455 39.525,2400.822 39.318,2401.240 C39.106,2401.658 39.000,2402.037 39.000,2402.377 C39.000,2403.075 39.326,2403.675 39.980,2404.176 C40.627,2404.714 41.607,2404.988 42.920,2405.000 C44.488,2404.976 45.688,2404.608 46.520,2403.897 C47.322,2403.209 47.722,2402.420 47.722,2401.529 C47.711,2400.901 47.565,2400.393 47.284,2400.004 C46.986,2399.621 46.640,2399.272 46.245,2398.955 L45.609,2398.444 C45.517,2398.354 45.423,2398.249 45.326,2398.130 C45.211,2398.004 45.154,2397.846 45.154,2397.654 C45.154,2397.457 45.210,2397.284 45.321,2397.134 C45.416,2396.991 45.519,2396.862 45.631,2396.748 C45.826,2396.581 46.011,2396.416 46.184,2396.255 C46.340,2396.094 46.488,2395.917 46.628,2395.726 C46.913,2395.331 47.061,2394.805 47.072,2394.147 C47.072,2393.788 47.030,2393.475 46.948,2393.205 C46.848,2392.936 46.733,2392.703 46.604,2392.506 C46.469,2392.297 46.330,2392.120 46.189,2391.977 C46.042,2391.839 45.909,2391.734 45.792,2391.663 L46.947,2391.663 L48.105,2391.000 L44.357,2391.000 ZM51.981,2396.732 L51.981,2394.758 L50.827,2394.758 L50.827,2396.732 L48.856,2396.732 L48.856,2397.859 L50.827,2397.859 L50.827,2399.785 L51.981,2399.785 L51.981,2397.859 L54.000,2397.859 L54.000,2396.732 L51.981,2396.732 ZM45.136,2396.336 C44.807,2396.666 44.396,2396.840 43.903,2396.858 C43.512,2396.858 43.165,2396.741 42.861,2396.507 C42.558,2396.274 42.310,2395.989 42.118,2395.653 C41.721,2394.934 41.523,2394.242 41.523,2393.577 C41.510,2393.074 41.646,2392.619 41.930,2392.211 C42.267,2391.822 42.689,2391.621 43.197,2391.609 C43.581,2391.621 43.921,2391.732 44.216,2391.942 C44.505,2392.163 44.739,2392.451 44.916,2392.804 C45.294,2393.541 45.483,2394.272 45.483,2394.997 C45.483,2395.165 45.469,2395.372 45.442,2395.617 C45.397,2395.863 45.295,2396.103 45.136,2396.336 ZM44.511,2399.817 C45.209,2400.295 45.722,2400.699 46.050,2401.028 C46.361,2401.375 46.516,2401.781 46.516,2402.248 C46.516,2402.822 46.289,2403.291 45.835,2403.656 C45.370,2404.027 44.696,2404.218 43.813,2404.231 C42.828,2404.218 42.052,2404.003 41.485,2403.585 C40.889,2403.166 40.590,2402.634 40.590,2401.988 C40.590,2401.659 40.659,2401.378 40.796,2401.145 C40.916,2400.923 41.062,2400.738 41.235,2400.588 C41.414,2400.445 41.590,2400.334 41.763,2400.256 C41.936,2400.184 42.070,2400.131 42.166,2400.095 C42.571,2399.975 42.968,2399.889 43.356,2399.835 C43.750,2399.799 43.995,2399.787 44.090,2399.799 C44.251,2399.799 44.391,2399.805 44.511,2399.817 Z" class="cls-1"/>
      <path d="M32.000,2383.000 C25.925,2383.000 21.000,2378.075 21.000,2372.000 C21.000,2365.925 25.925,2361.000 32.000,2361.000 C38.075,2361.000 43.000,2365.925 43.000,2372.000 C43.000,2378.075 38.075,2383.000 32.000,2383.000 ZM35.000,2365.099 C34.749,2365.066 33.889,2365.000 32.889,2365.000 C30.801,2365.000 29.372,2366.237 29.372,2368.520 L29.372,2370.489 L27.000,2370.489 L27.000,2373.147 L29.371,2373.147 L29.371,2380.000 L32.203,2380.000 L32.203,2373.147 L34.552,2373.147 L34.904,2370.489 L32.203,2370.489 L32.203,2368.784 C32.203,2368.012 32.416,2367.486 33.551,2367.486 L35.000,2367.486 L35.000,2365.099 Z" class="cls-1"/>
    </g>
    <path d="M69.000,2279.616 C67.234,2280.400 65.336,2280.929 63.344,2281.167 C65.377,2279.948 66.939,2278.019 67.674,2275.720 C65.771,2276.848 63.664,2277.667 61.421,2278.109 C59.624,2276.195 57.065,2275.000 54.232,2275.000 C48.794,2275.000 44.384,2279.408 44.384,2284.845 C44.384,2285.617 44.471,2286.368 44.639,2287.089 C36.455,2286.678 29.198,2282.759 24.341,2276.802 C23.494,2278.256 23.008,2279.947 23.008,2281.752 C23.008,2285.167 24.747,2288.181 27.389,2289.947 C25.775,2289.896 24.256,2289.453 22.928,2288.715 C22.928,2288.756 22.928,2288.797 22.928,2288.839 C22.928,2293.609 26.322,2297.589 30.827,2298.493 C30.001,2298.718 29.131,2298.838 28.233,2298.838 C27.598,2298.838 26.981,2298.777 26.380,2298.662 C27.633,2302.573 31.270,2305.420 35.579,2305.500 C32.209,2308.140 27.963,2309.714 23.349,2309.714 C22.554,2309.714 21.770,2309.667 21.000,2309.577 C25.358,2312.370 30.534,2314.000 36.096,2314.000 C54.210,2314.000 64.115,2298.997 64.115,2285.987 C64.115,2285.560 64.105,2285.135 64.086,2284.713 C66.010,2283.325 67.680,2281.591 69.000,2279.616 Z" class="cls-1"/>
    <path d="M61.000,2207.000 C66.006,2206.909 69.146,2212.305 69.000,2215.000 C68.833,2218.083 66.000,2223.000 61.000,2223.000 C53.500,2223.000 45.821,2215.999 46.000,2207.000 C46.250,2194.417 62.000,2187.000 62.000,2187.000 C62.000,2187.000 49.042,2197.078 49.000,2207.000 C48.964,2215.531 55.165,2207.105 61.000,2207.000 ZM36.000,2223.000 C28.500,2223.000 20.821,2215.999 21.000,2207.000 C21.250,2194.417 37.000,2187.000 37.000,2187.000 C37.000,2187.000 24.042,2197.078 24.000,2207.000 C23.964,2215.531 30.165,2207.105 36.000,2207.000 C41.006,2206.909 44.146,2212.305 44.000,2215.000 C43.833,2218.083 41.000,2223.000 36.000,2223.000 Z" class="cls-1"/>
    <g>
      <path d="M63.818,2139.000 L61.000,2139.000 L61.000,2137.000 L63.000,2137.000 C65.209,2137.000 67.000,2135.209 67.000,2133.000 L67.000,2131.000 L69.000,2131.000 L69.000,2133.857 C69.000,2136.697 66.680,2139.000 63.818,2139.000 ZM67.000,2125.000 L69.000,2125.000 L69.000,2129.000 L67.000,2129.000 L67.000,2125.000 ZM67.000,2119.000 L69.000,2119.000 L69.000,2123.000 L67.000,2123.000 L67.000,2119.000 ZM67.000,2113.000 L69.000,2113.000 L69.000,2117.000 L67.000,2117.000 L67.000,2113.000 ZM67.000,2107.000 L69.000,2107.000 L69.000,2111.000 L67.000,2111.000 L67.000,2107.000 ZM67.000,2101.000 L69.000,2101.000 L69.000,2105.000 L67.000,2105.000 L67.000,2101.000 ZM67.000,2097.000 C67.000,2094.791 65.209,2093.000 63.000,2093.000 L61.000,2093.000 L61.000,2091.000 L59.000,2091.000 L59.000,2093.000 L55.000,2093.000 L55.000,2091.000 L53.000,2091.000 L53.000,2093.000 L49.000,2093.000 L49.000,2091.000 L47.000,2091.000 L47.000,2093.000 L43.000,2093.000 L43.000,2091.000 L41.000,2091.000 L41.000,2093.000 L37.000,2093.000 L37.000,2091.000 L35.000,2091.000 L35.000,2093.000 L31.000,2093.000 L31.000,2091.000 L29.000,2091.000 L29.000,2093.000 L27.000,2093.000 C24.791,2093.000 23.000,2094.791 23.000,2097.000 L23.000,2099.000 L21.000,2099.000 L21.000,2101.000 L23.000,2101.000 L23.000,2105.000 L21.000,2105.000 L21.000,2107.000 L23.000,2107.000 L23.000,2111.000 L21.000,2111.000 L21.000,2113.000 L23.000,2113.000 L23.000,2117.000 L21.000,2117.000 L21.000,2119.000 L23.000,2119.000 L23.000,2123.000 L21.000,2123.000 L21.000,2125.000 L23.000,2125.000 L23.000,2129.000 L21.000,2129.000 L21.000,2131.000 L23.000,2131.000 L23.000,2133.000 C23.000,2135.209 24.791,2137.000 27.000,2137.000 L29.000,2137.000 L29.000,2139.000 L26.182,2139.000 C23.320,2139.000 21.000,2136.697 21.000,2133.857 L21.000,2096.143 C21.000,2093.302 23.320,2091.000 26.182,2091.000 L63.818,2091.000 C66.680,2091.000 69.000,2093.302 69.000,2096.143 L69.000,2099.000 L67.000,2099.000 L67.000,2097.000 ZM35.000,2139.000 L31.000,2139.000 L31.000,2137.000 L35.000,2137.000 L35.000,2139.000 ZM41.000,2139.000 L37.000,2139.000 L37.000,2137.000 L41.000,2137.000 L41.000,2139.000 ZM47.000,2139.000 L43.000,2139.000 L43.000,2137.000 L47.000,2137.000 L47.000,2139.000 ZM53.000,2139.000 L49.000,2139.000 L49.000,2137.000 L53.000,2137.000 L53.000,2139.000 ZM59.000,2139.000 L55.000,2139.000 L55.000,2137.000 L59.000,2137.000 L59.000,2139.000 Z" class="cls-1"/>
      <path d="M60.000,2121.000 L60.000,2118.723 C60.595,2118.376 61.000,2117.738 61.000,2117.000 L61.000,2105.000 C61.000,2103.895 60.105,2103.000 59.000,2103.000 L35.000,2103.000 C34.262,2103.000 33.624,2103.405 33.277,2104.000 L31.000,2104.000 L31.000,2105.000 L56.000,2105.000 C57.657,2105.000 59.000,2106.343 59.000,2108.000 L59.000,2122.000 C59.000,2123.657 57.657,2125.000 56.000,2125.000 L53.000,2125.000 L53.000,2130.000 L48.000,2125.000 L30.000,2125.000 C28.343,2125.000 27.000,2123.657 27.000,2122.000 L27.000,2108.000 C27.000,2106.343 28.343,2105.000 30.000,2105.000 L31.000,2105.000 L31.000,2104.000 C31.000,2102.343 32.343,2101.000 34.000,2101.000 L60.000,2101.000 C61.657,2101.000 63.000,2102.343 63.000,2104.000 L63.000,2118.000 C63.000,2119.657 61.657,2121.000 60.000,2121.000 Z" class="cls-1"/>
    </g>
    <path d="M66.000,2032.000 L65.000,2032.000 L65.000,2030.000 C66.105,2030.000 67.000,2029.104 67.000,2028.000 L67.000,2008.000 C67.000,2006.896 66.105,2006.000 65.000,2006.000 L31.000,2006.000 C29.895,2006.000 29.000,2006.896 29.000,2008.000 L27.000,2008.000 L27.000,2007.000 C27.000,2005.343 28.343,2004.000 30.000,2004.000 L66.000,2004.000 C67.657,2004.000 69.000,2005.343 69.000,2007.000 L69.000,2029.000 C69.000,2030.657 67.657,2032.000 66.000,2032.000 ZM63.000,2013.000 L63.000,2035.000 C63.000,2036.657 61.657,2038.000 60.000,2038.000 L57.000,2038.000 L57.000,2046.000 L50.000,2038.000 L24.000,2038.000 C22.343,2038.000 21.000,2036.657 21.000,2035.000 L21.000,2013.000 C21.000,2011.343 22.343,2010.000 24.000,2010.000 L60.000,2010.000 C61.657,2010.000 63.000,2011.343 63.000,2013.000 Z" class="cls-1"/>
    <path d="M67.000,1951.000 L67.000,1913.000 L29.000,1913.000 L29.000,1911.000 L69.000,1911.000 L69.000,1913.000 L69.000,1951.000 L67.000,1951.000 ZM65.000,1917.000 L65.000,1955.000 L63.000,1955.000 L63.000,1917.000 L25.000,1917.000 L25.000,1915.000 L65.000,1915.000 L65.000,1917.000 ZM61.000,1959.000 L21.000,1959.000 L21.000,1919.000 L61.000,1919.000 L61.000,1959.000 ZM59.000,1921.000 L23.000,1921.000 L23.000,1957.000 L59.000,1957.000 L59.000,1921.000 ZM35.000,1947.000 L35.000,1931.000 L47.000,1939.000 L35.000,1947.000 Z" class="cls-1"/>
    <path d="M74.000,1853.000 L71.000,1853.000 L78.000,1845.000 L71.000,1837.000 L74.000,1837.000 L81.000,1845.000 L74.000,1853.000 ZM25.000,1825.000 L65.000,1825.000 L65.000,1865.000 L25.000,1865.000 L25.000,1825.000 ZM27.000,1863.000 L63.000,1863.000 L63.000,1827.000 L27.000,1827.000 L27.000,1863.000 ZM40.063,1842.990 L50.618,1860.175 L55.554,1852.137 L61.002,1861.006 L28.998,1861.006 L40.063,1842.990 ZM55.008,1838.995 C52.799,1838.995 51.008,1837.203 51.008,1834.992 C51.008,1832.782 52.799,1830.990 55.008,1830.990 C57.217,1830.990 59.008,1832.782 59.008,1834.992 C59.008,1837.203 57.217,1838.995 55.008,1838.995 ZM16.000,1853.000 L9.000,1845.000 L16.000,1837.000 L19.000,1837.000 L12.000,1845.000 L19.000,1853.000 L16.000,1853.000 Z" class="cls-1"/>
    <path d="M67.000,1771.000 L67.000,1733.000 L29.000,1733.000 L29.000,1731.000 L69.000,1731.000 L69.000,1733.000 L69.000,1771.000 L67.000,1771.000 ZM65.000,1737.000 L65.000,1775.000 L63.000,1775.000 L63.000,1737.000 L25.000,1737.000 L25.000,1735.000 L65.000,1735.000 L65.000,1737.000 ZM61.000,1779.000 L21.000,1779.000 L21.000,1739.000 L61.000,1739.000 L61.000,1779.000 ZM59.000,1741.000 L23.000,1741.000 L23.000,1777.000 L59.000,1777.000 L59.000,1741.000 ZM46.618,1774.174 L51.554,1766.136 L57.002,1775.006 L24.998,1775.006 L36.063,1756.990 L46.618,1774.174 ZM51.008,1752.995 C48.799,1752.995 47.008,1751.203 47.008,1748.992 C47.008,1746.782 48.799,1744.990 51.008,1744.990 C53.217,1744.990 55.008,1746.782 55.008,1748.992 C55.008,1751.203 53.217,1752.995 51.008,1752.995 Z" class="cls-1"/>
    <path d="M21.000,1689.000 L21.000,1641.000 L69.000,1641.000 L69.000,1689.000 L21.000,1689.000 ZM67.000,1643.000 L23.000,1643.000 L23.000,1687.000 L67.000,1687.000 L67.000,1643.000 ZM52.022,1683.991 L58.193,1674.167 L65.002,1685.007 L24.998,1685.007 L38.829,1662.988 L52.022,1683.991 ZM58.010,1656.994 C55.249,1656.994 53.010,1654.754 53.010,1651.990 C53.010,1649.227 55.249,1646.987 58.010,1646.987 C60.772,1646.987 63.010,1649.227 63.010,1651.990 C63.010,1654.754 60.772,1656.994 58.010,1656.994 Z" class="cls-1"/>
    <g>
      <path d="M67.000,1565.391 L67.000,1565.000 C67.000,1562.791 65.209,1561.000 63.000,1561.000 L27.000,1561.000 C24.791,1561.000 23.000,1562.791 23.000,1565.000 L23.000,1593.000 C23.000,1595.209 24.791,1597.000 27.000,1597.000 L63.000,1597.000 C65.209,1597.000 67.000,1595.209 67.000,1593.000 L67.000,1583.333 L69.000,1582.000 L69.000,1594.000 C69.000,1596.761 66.761,1599.000 64.000,1599.000 L26.000,1599.000 C23.239,1599.000 21.000,1596.761 21.000,1594.000 L21.000,1556.000 C21.000,1553.239 23.239,1551.000 26.000,1551.000 L28.000,1551.000 L28.000,1557.000 C28.000,1558.105 28.895,1559.000 30.000,1559.000 C31.105,1559.000 32.000,1558.105 32.000,1557.000 L32.000,1551.000 L38.000,1551.000 L38.000,1557.000 C38.000,1558.105 38.895,1559.000 40.000,1559.000 C41.105,1559.000 42.000,1558.105 42.000,1557.000 L42.000,1551.000 L48.000,1551.000 L48.000,1557.000 C48.000,1558.105 48.895,1559.000 50.000,1559.000 C51.105,1559.000 52.000,1558.105 52.000,1557.000 L52.000,1551.000 L58.000,1551.000 L58.000,1557.000 C58.000,1558.105 58.895,1559.000 60.000,1559.000 C61.105,1559.000 62.000,1558.105 62.000,1557.000 L62.000,1551.000 L64.000,1551.000 C66.761,1551.000 69.000,1553.239 69.000,1556.000 L69.000,1564.000 L67.000,1565.391 ZM60.000,1558.000 C59.448,1558.000 59.000,1557.552 59.000,1557.000 L59.000,1550.000 C59.000,1549.448 59.448,1549.000 60.000,1549.000 C60.552,1549.000 61.000,1549.448 61.000,1550.000 L61.000,1557.000 C61.000,1557.552 60.552,1558.000 60.000,1558.000 ZM50.000,1558.000 C49.448,1558.000 49.000,1557.552 49.000,1557.000 L49.000,1550.000 C49.000,1549.448 49.448,1549.000 50.000,1549.000 C50.552,1549.000 51.000,1549.448 51.000,1550.000 L51.000,1557.000 C51.000,1557.552 50.552,1558.000 50.000,1558.000 ZM40.000,1558.000 C39.448,1558.000 39.000,1557.552 39.000,1557.000 L39.000,1550.000 C39.000,1549.448 39.448,1549.000 40.000,1549.000 C40.552,1549.000 41.000,1549.448 41.000,1550.000 L41.000,1557.000 C41.000,1557.552 40.552,1558.000 40.000,1558.000 ZM30.000,1558.000 C29.448,1558.000 29.000,1557.552 29.000,1557.000 L29.000,1550.000 C29.000,1549.448 29.448,1549.000 30.000,1549.000 C30.552,1549.000 31.000,1549.448 31.000,1550.000 L31.000,1557.000 C31.000,1557.552 30.552,1558.000 30.000,1558.000 Z" class="cls-1"/>
      <path d="M63.250,1568.000 L62.000,1568.000 C61.448,1568.000 61.000,1567.552 61.000,1567.000 L61.000,1566.000 C61.000,1565.448 61.448,1565.000 62.000,1565.000 L64.000,1565.000 C64.552,1565.000 65.000,1565.448 65.000,1566.000 L65.000,1566.783 L63.250,1568.000 ZM56.062,1573.000 L56.000,1573.000 C55.448,1573.000 55.000,1572.552 55.000,1572.000 L55.000,1571.000 C55.000,1570.448 55.448,1570.000 56.000,1570.000 L58.000,1570.000 C58.539,1570.000 58.971,1570.428 58.992,1570.962 L56.062,1573.000 ZM52.000,1573.000 L50.000,1573.000 C49.448,1573.000 49.000,1572.552 49.000,1572.000 L49.000,1571.000 C49.000,1570.448 49.448,1570.000 50.000,1570.000 L52.000,1570.000 C52.552,1570.000 53.000,1570.448 53.000,1571.000 L53.000,1572.000 C53.000,1572.552 52.552,1573.000 52.000,1573.000 ZM46.000,1578.000 L44.000,1578.000 C43.448,1578.000 43.000,1577.552 43.000,1577.000 L43.000,1576.000 C43.000,1575.448 43.448,1575.000 44.000,1575.000 L46.000,1575.000 C46.552,1575.000 47.000,1575.448 47.000,1576.000 L47.000,1577.000 C47.000,1577.552 46.552,1578.000 46.000,1578.000 ZM46.000,1573.000 L44.000,1573.000 C43.448,1573.000 43.000,1572.552 43.000,1572.000 L43.000,1571.000 C43.000,1570.448 43.448,1570.000 44.000,1570.000 L46.000,1570.000 C46.552,1570.000 47.000,1570.448 47.000,1571.000 L47.000,1572.000 C47.000,1572.552 46.552,1573.000 46.000,1573.000 ZM40.000,1588.000 L38.000,1588.000 C37.448,1588.000 37.000,1587.552 37.000,1587.000 L37.000,1586.000 C37.000,1585.448 37.448,1585.000 38.000,1585.000 L40.000,1585.000 C40.552,1585.000 41.000,1585.448 41.000,1586.000 L41.000,1587.000 C41.000,1587.552 40.552,1588.000 40.000,1588.000 ZM40.000,1583.000 L38.000,1583.000 C37.448,1583.000 37.000,1582.552 37.000,1582.000 L37.000,1581.000 C37.000,1580.448 37.448,1580.000 38.000,1580.000 L40.000,1580.000 C40.552,1580.000 41.000,1580.448 41.000,1581.000 L41.000,1582.000 C41.000,1582.552 40.552,1583.000 40.000,1583.000 ZM40.000,1578.000 L38.000,1578.000 C37.448,1578.000 37.000,1577.552 37.000,1577.000 L37.000,1576.000 C37.000,1575.448 37.448,1575.000 38.000,1575.000 L40.000,1575.000 C40.552,1575.000 41.000,1575.448 41.000,1576.000 L41.000,1577.000 C41.000,1577.552 40.552,1578.000 40.000,1578.000 ZM40.000,1573.000 L38.000,1573.000 C37.448,1573.000 37.000,1572.552 37.000,1572.000 L37.000,1571.000 C37.000,1570.448 37.448,1570.000 38.000,1570.000 L40.000,1570.000 C40.552,1570.000 41.000,1570.448 41.000,1571.000 L41.000,1572.000 C41.000,1572.552 40.552,1573.000 40.000,1573.000 ZM34.000,1593.000 L32.000,1593.000 C31.448,1593.000 31.000,1592.552 31.000,1592.000 L31.000,1591.000 C31.000,1590.448 31.448,1590.000 32.000,1590.000 L34.000,1590.000 C34.552,1590.000 35.000,1590.448 35.000,1591.000 L35.000,1592.000 C35.000,1592.552 34.552,1593.000 34.000,1593.000 ZM34.000,1588.000 L32.000,1588.000 C31.448,1588.000 31.000,1587.552 31.000,1587.000 L31.000,1586.000 C31.000,1585.448 31.448,1585.000 32.000,1585.000 L34.000,1585.000 C34.552,1585.000 35.000,1585.448 35.000,1586.000 L35.000,1587.000 C35.000,1587.552 34.552,1588.000 34.000,1588.000 ZM34.000,1583.000 L32.000,1583.000 C31.448,1583.000 31.000,1582.552 31.000,1582.000 L31.000,1581.000 C31.000,1580.448 31.448,1580.000 32.000,1580.000 L34.000,1580.000 C34.552,1580.000 35.000,1580.448 35.000,1581.000 L35.000,1582.000 C35.000,1582.552 34.552,1583.000 34.000,1583.000 ZM34.000,1578.000 L32.000,1578.000 C31.448,1578.000 31.000,1577.552 31.000,1577.000 L31.000,1576.000 C31.000,1575.448 31.448,1575.000 32.000,1575.000 L34.000,1575.000 C34.552,1575.000 35.000,1575.448 35.000,1576.000 L35.000,1577.000 C35.000,1577.552 34.552,1578.000 34.000,1578.000 ZM34.000,1573.000 L32.000,1573.000 C31.448,1573.000 31.000,1572.552 31.000,1572.000 L31.000,1571.000 C31.000,1570.448 31.448,1570.000 32.000,1570.000 L34.000,1570.000 C34.552,1570.000 35.000,1570.448 35.000,1571.000 L35.000,1572.000 C35.000,1572.552 34.552,1573.000 34.000,1573.000 ZM28.000,1593.000 L26.000,1593.000 C25.448,1593.000 25.000,1592.552 25.000,1592.000 L25.000,1591.000 C25.000,1590.448 25.448,1590.000 26.000,1590.000 L28.000,1590.000 C28.552,1590.000 29.000,1590.448 29.000,1591.000 L29.000,1592.000 C29.000,1592.552 28.552,1593.000 28.000,1593.000 ZM28.000,1588.000 L26.000,1588.000 C25.448,1588.000 25.000,1587.552 25.000,1587.000 L25.000,1586.000 C25.000,1585.448 25.448,1585.000 26.000,1585.000 L28.000,1585.000 C28.552,1585.000 29.000,1585.448 29.000,1586.000 L29.000,1587.000 C29.000,1587.552 28.552,1588.000 28.000,1588.000 ZM28.000,1583.000 L26.000,1583.000 C25.448,1583.000 25.000,1582.552 25.000,1582.000 L25.000,1581.000 C25.000,1580.448 25.448,1580.000 26.000,1580.000 L28.000,1580.000 C28.552,1580.000 29.000,1580.448 29.000,1581.000 L29.000,1582.000 C29.000,1582.552 28.552,1583.000 28.000,1583.000 ZM28.000,1578.000 L26.000,1578.000 C25.448,1578.000 25.000,1577.552 25.000,1577.000 L25.000,1576.000 C25.000,1575.448 25.448,1575.000 26.000,1575.000 L28.000,1575.000 C28.552,1575.000 29.000,1575.448 29.000,1576.000 L29.000,1577.000 C29.000,1577.552 28.552,1578.000 28.000,1578.000 ZM28.000,1573.000 L26.000,1573.000 C25.448,1573.000 25.000,1572.552 25.000,1572.000 L25.000,1571.000 C25.000,1570.448 25.448,1570.000 26.000,1570.000 L28.000,1570.000 C28.552,1570.000 29.000,1570.448 29.000,1571.000 L29.000,1572.000 C29.000,1572.552 28.552,1573.000 28.000,1573.000 ZM64.384,1585.078 C64.745,1585.228 65.000,1585.584 65.000,1586.000 L65.000,1587.000 C65.000,1587.552 64.552,1588.000 64.000,1588.000 L62.000,1588.000 C61.552,1588.000 61.187,1587.700 61.059,1587.294 L64.384,1585.078 ZM50.000,1575.000 L52.000,1575.000 C52.288,1575.000 52.544,1575.126 52.726,1575.321 L49.295,1577.708 C49.113,1577.527 49.000,1577.277 49.000,1577.000 L49.000,1576.000 C49.000,1575.448 49.448,1575.000 50.000,1575.000 ZM44.000,1580.000 L46.000,1580.000 C46.000,1580.000 46.000,1580.000 46.000,1580.000 L44.000,1583.000 C43.448,1583.000 43.000,1582.552 43.000,1582.000 L43.000,1581.000 C43.000,1580.448 43.448,1580.000 44.000,1580.000 Z" class="cls-1"/>
      <path d="M58.000,1568.000 L56.000,1568.000 C55.448,1568.000 55.000,1567.552 55.000,1567.000 L55.000,1566.000 C55.000,1565.448 55.448,1565.000 56.000,1565.000 L58.000,1565.000 C58.552,1565.000 59.000,1565.448 59.000,1566.000 L59.000,1567.000 C59.000,1567.552 58.552,1568.000 58.000,1568.000 ZM52.000,1568.000 L50.000,1568.000 C49.448,1568.000 49.000,1567.552 49.000,1567.000 L49.000,1566.000 C49.000,1565.448 49.448,1565.000 50.000,1565.000 L52.000,1565.000 C52.552,1565.000 53.000,1565.448 53.000,1566.000 L53.000,1567.000 C53.000,1567.552 52.552,1568.000 52.000,1568.000 ZM46.000,1568.000 L44.000,1568.000 C43.448,1568.000 43.000,1567.552 43.000,1567.000 L43.000,1566.000 C43.000,1565.448 43.448,1565.000 44.000,1565.000 L46.000,1565.000 C46.552,1565.000 47.000,1565.448 47.000,1566.000 L47.000,1567.000 C47.000,1567.552 46.552,1568.000 46.000,1568.000 ZM40.000,1568.000 L38.000,1568.000 C37.448,1568.000 37.000,1567.552 37.000,1567.000 L37.000,1566.000 C37.000,1565.448 37.448,1565.000 38.000,1565.000 L40.000,1565.000 C40.552,1565.000 41.000,1565.448 41.000,1566.000 L41.000,1567.000 C41.000,1567.552 40.552,1568.000 40.000,1568.000 ZM34.000,1568.000 L32.000,1568.000 C31.448,1568.000 31.000,1567.552 31.000,1567.000 L31.000,1566.000 C31.000,1565.448 31.448,1565.000 32.000,1565.000 L34.000,1565.000 C34.552,1565.000 35.000,1565.448 35.000,1566.000 L35.000,1567.000 C35.000,1567.552 34.552,1568.000 34.000,1568.000 ZM28.000,1568.000 L26.000,1568.000 C25.448,1568.000 25.000,1567.552 25.000,1567.000 L25.000,1566.000 C25.000,1565.448 25.448,1565.000 26.000,1565.000 L28.000,1565.000 C28.552,1565.000 29.000,1565.448 29.000,1566.000 L29.000,1567.000 C29.000,1567.552 28.552,1568.000 28.000,1568.000 ZM38.000,1590.000 L40.000,1590.000 C40.552,1590.000 41.000,1590.448 41.000,1591.000 L41.000,1592.000 C41.000,1592.552 40.552,1593.000 40.000,1593.000 L38.000,1593.000 C37.448,1593.000 37.000,1592.552 37.000,1592.000 L37.000,1591.000 C37.000,1590.448 37.448,1590.000 38.000,1590.000 ZM52.962,1592.189 C52.871,1592.647 52.485,1593.000 52.000,1593.000 L50.000,1593.000 C49.799,1593.000 49.623,1592.926 49.467,1592.824 L52.962,1592.189 ZM57.000,1590.000 L58.000,1590.000 C58.552,1590.000 59.000,1590.448 59.000,1591.000 L59.000,1592.000 C59.000,1592.552 58.552,1593.000 58.000,1593.000 L56.000,1593.000 C55.448,1593.000 55.000,1592.552 55.000,1592.000 L55.000,1591.333 L57.000,1590.000 ZM62.000,1590.000 L64.000,1590.000 C64.552,1590.000 65.000,1590.448 65.000,1591.000 L65.000,1592.000 C65.000,1592.552 64.552,1593.000 64.000,1593.000 L62.000,1593.000 C61.448,1593.000 61.000,1592.552 61.000,1592.000 L61.000,1591.000 C61.000,1590.448 61.448,1590.000 62.000,1590.000 Z" class="cls-2"/>
      <path d="M80.823,1572.439 L79.186,1573.588 L72.296,1563.762 L73.934,1562.614 C75.290,1561.663 77.161,1561.992 78.112,1563.348 L81.557,1568.261 C82.508,1569.618 82.180,1571.488 80.823,1572.439 ZM58.716,1587.940 L51.827,1578.115 L70.659,1564.911 L77.548,1574.736 L58.716,1587.940 ZM54.382,1590.457 C53.475,1590.821 43.022,1593.387 42.159,1592.156 C41.344,1590.994 47.363,1581.934 47.985,1581.215 C48.975,1580.067 50.189,1579.263 50.189,1579.263 L57.078,1589.089 C57.078,1589.089 55.896,1589.849 54.382,1590.457 Z" class="cls-1"/>
    </g>
    <path d="M59.000,1509.000 L31.000,1509.000 C28.239,1509.000 26.000,1506.762 26.000,1504.000 L26.000,1473.000 L38.000,1461.000 L42.000,1461.000 L45.000,1461.000 L45.000,1463.000 L43.000,1463.000 L43.000,1465.000 L45.000,1465.000 L45.000,1467.000 L43.000,1467.000 L43.000,1469.000 L45.000,1469.000 L45.000,1471.000 L43.000,1471.000 L43.000,1473.000 L45.000,1473.000 L45.000,1475.000 L43.000,1475.000 L43.000,1477.000 L45.000,1477.000 L45.000,1479.000 L43.000,1479.000 L43.000,1481.000 L45.000,1481.000 L45.000,1483.000 L43.000,1483.000 L43.000,1485.000 L45.000,1485.000 L45.000,1487.000 L43.000,1487.000 L43.000,1489.000 L45.000,1489.000 L45.000,1491.000 L47.000,1491.000 L47.000,1489.000 L45.000,1489.000 L45.000,1487.000 L47.000,1487.000 L47.000,1485.000 L45.000,1485.000 L45.000,1483.000 L47.000,1483.000 L47.000,1481.000 L45.000,1481.000 L45.000,1479.000 L47.000,1479.000 L47.000,1477.000 L45.000,1477.000 L45.000,1475.000 L47.000,1475.000 L47.000,1473.000 L45.000,1473.000 L45.000,1471.000 L47.000,1471.000 L47.000,1469.000 L45.000,1469.000 L45.000,1467.000 L47.000,1467.000 L47.000,1465.000 L45.000,1465.000 L45.000,1463.000 L47.000,1463.000 L47.000,1461.000 L48.000,1461.000 L59.000,1461.000 C61.761,1461.000 64.000,1463.238 64.000,1466.000 L64.000,1504.000 C64.000,1506.762 61.761,1509.000 59.000,1509.000 ZM62.000,1467.000 C62.000,1464.791 60.209,1463.000 58.000,1463.000 L48.000,1463.000 L48.000,1492.000 L42.000,1492.000 L42.000,1463.000 L38.000,1463.000 L38.000,1468.000 C38.000,1470.762 35.761,1473.000 33.000,1473.000 L28.000,1473.000 L28.000,1503.000 C28.000,1505.209 29.791,1507.000 32.000,1507.000 L58.000,1507.000 C60.209,1507.000 62.000,1505.209 62.000,1503.000 L62.000,1467.000 ZM43.000,1493.000 L47.000,1493.000 L47.000,1501.000 L43.000,1501.000 L43.000,1493.000 ZM44.000,1496.000 L46.000,1496.000 L46.000,1494.000 L44.000,1494.000 L44.000,1496.000 Z" class="cls-1"/>
    <g>
      <path d="M63.818,1419.000 L61.000,1419.000 L61.000,1417.000 L63.000,1417.000 C65.209,1417.000 67.000,1415.209 67.000,1413.000 L67.000,1411.000 L69.000,1411.000 L69.000,1413.857 C69.000,1416.698 66.680,1419.000 63.818,1419.000 ZM67.000,1405.000 L69.000,1405.000 L69.000,1409.000 L67.000,1409.000 L67.000,1405.000 ZM67.000,1399.000 L69.000,1399.000 L69.000,1403.000 L67.000,1403.000 L67.000,1399.000 ZM67.000,1393.000 L69.000,1393.000 L69.000,1397.000 L67.000,1397.000 L67.000,1393.000 ZM67.000,1387.000 L69.000,1387.000 L69.000,1391.000 L67.000,1391.000 L67.000,1387.000 ZM67.000,1381.000 L69.000,1381.000 L69.000,1385.000 L67.000,1385.000 L67.000,1381.000 ZM67.000,1377.000 C67.000,1374.791 65.209,1373.000 63.000,1373.000 L61.000,1373.000 L61.000,1371.000 L59.000,1371.000 L59.000,1373.000 L55.000,1373.000 L55.000,1371.000 L53.000,1371.000 L53.000,1373.000 L49.000,1373.000 L49.000,1371.000 L47.000,1371.000 L47.000,1373.000 L43.000,1373.000 L43.000,1371.000 L41.000,1371.000 L41.000,1373.000 L37.000,1373.000 L37.000,1371.000 L35.000,1371.000 L35.000,1373.000 L31.000,1373.000 L31.000,1371.000 L29.000,1371.000 L29.000,1373.000 L27.000,1373.000 C24.791,1373.000 23.000,1374.791 23.000,1377.000 L23.000,1379.000 L21.000,1379.000 L21.000,1381.000 L23.000,1381.000 L23.000,1385.000 L21.000,1385.000 L21.000,1387.000 L23.000,1387.000 L23.000,1391.000 L21.000,1391.000 L21.000,1393.000 L23.000,1393.000 L23.000,1397.000 L21.000,1397.000 L21.000,1399.000 L23.000,1399.000 L23.000,1403.000 L21.000,1403.000 L21.000,1405.000 L23.000,1405.000 L23.000,1409.000 L21.000,1409.000 L21.000,1411.000 L23.000,1411.000 L23.000,1413.000 C23.000,1415.209 24.791,1417.000 27.000,1417.000 L29.000,1417.000 L29.000,1419.000 L26.182,1419.000 C23.320,1419.000 21.000,1416.698 21.000,1413.857 L21.000,1376.143 C21.000,1373.302 23.320,1371.000 26.182,1371.000 L63.818,1371.000 C66.680,1371.000 69.000,1373.302 69.000,1376.143 L69.000,1379.000 L67.000,1379.000 L67.000,1377.000 ZM35.000,1419.000 L31.000,1419.000 L31.000,1417.000 L35.000,1417.000 L35.000,1419.000 ZM41.000,1419.000 L37.000,1419.000 L37.000,1417.000 L41.000,1417.000 L41.000,1419.000 ZM47.000,1419.000 L43.000,1419.000 L43.000,1417.000 L47.000,1417.000 L47.000,1419.000 ZM53.000,1419.000 L49.000,1419.000 L49.000,1417.000 L53.000,1417.000 L53.000,1419.000 ZM59.000,1419.000 L55.000,1419.000 L55.000,1417.000 L59.000,1417.000 L59.000,1419.000 Z" class="cls-1"/>
      <path d="M29.000,1411.000 L29.000,1410.000 L61.000,1410.000 L61.000,1411.000 L29.000,1411.000 ZM29.000,1408.000 L61.000,1408.000 L61.000,1409.000 L29.000,1409.000 L29.000,1408.000 ZM29.000,1406.000 L61.000,1406.000 L61.000,1407.000 L29.000,1407.000 L29.000,1406.000 ZM33.000,1403.000 L61.000,1403.000 L61.000,1405.000 L33.000,1405.000 L33.000,1403.000 ZM29.000,1398.000 L61.000,1398.000 L61.000,1399.000 L29.000,1399.000 L29.000,1398.000 ZM29.000,1396.000 L61.000,1396.000 L61.000,1397.000 L29.000,1397.000 L29.000,1396.000 ZM29.000,1394.000 L61.000,1394.000 L61.000,1395.000 L29.000,1395.000 L29.000,1394.000 ZM33.000,1391.000 L61.000,1391.000 L61.000,1393.000 L33.000,1393.000 L33.000,1391.000 ZM29.000,1386.000 L61.000,1386.000 L61.000,1387.000 L29.000,1387.000 L29.000,1386.000 ZM29.000,1384.000 L61.000,1384.000 L61.000,1385.000 L29.000,1385.000 L29.000,1384.000 ZM29.000,1382.000 L61.000,1382.000 L61.000,1383.000 L29.000,1383.000 L29.000,1382.000 ZM33.000,1379.000 L61.000,1379.000 L61.000,1381.000 L33.000,1381.000 L33.000,1379.000 ZM29.000,1379.000 L31.000,1379.000 L31.000,1381.000 L29.000,1381.000 L29.000,1379.000 ZM31.000,1393.000 L29.000,1393.000 L29.000,1391.000 L31.000,1391.000 L31.000,1393.000 ZM31.000,1405.000 L29.000,1405.000 L29.000,1403.000 L31.000,1403.000 L31.000,1405.000 Z" class="cls-1"/>
    </g>
    <g>
      <path d="M59.000,1329.000 L31.000,1329.000 C28.239,1329.000 26.000,1326.761 26.000,1324.000 L26.000,1297.000 L42.000,1281.000 L59.000,1281.000 C61.761,1281.000 64.000,1283.239 64.000,1286.000 L64.000,1324.000 C64.000,1326.761 61.761,1329.000 59.000,1329.000 ZM62.000,1287.000 C62.000,1284.791 60.209,1283.000 58.000,1283.000 L42.000,1283.000 L42.000,1292.000 C42.000,1294.761 39.761,1297.000 37.000,1297.000 L28.000,1297.000 L28.000,1323.000 C28.000,1325.209 29.791,1327.000 32.000,1327.000 L58.000,1327.000 C60.209,1327.000 62.000,1325.209 62.000,1323.000 L62.000,1287.000 Z" class="cls-1"/>
      <g>
        <path d="M48.532,1305.277 C48.144,1305.670 47.510,1305.672 47.118,1305.284 L46.989,1305.414 C46.844,1305.114 46.658,1304.828 46.408,1304.579 C45.231,1303.413 43.332,1303.421 42.165,1304.598 L36.533,1310.280 C35.367,1311.456 35.375,1313.356 36.552,1314.523 C37.729,1315.689 39.628,1315.681 40.795,1314.504 L43.751,1311.521 L46.017,1312.077 L42.215,1315.912 C40.271,1317.873 37.105,1317.887 35.144,1315.943 C33.183,1313.999 33.169,1310.833 35.113,1308.872 L40.745,1303.190 C42.689,1301.229 45.855,1301.215 47.816,1303.159 C47.978,1303.320 48.107,1303.500 48.242,1303.676 C48.343,1303.723 48.442,1303.780 48.526,1303.863 C48.918,1304.252 48.921,1304.885 48.532,1305.277 Z" class="cls-1"/>
        <path d="M54.887,1303.128 L49.255,1308.810 C47.311,1310.771 44.145,1310.785 42.184,1308.841 C42.022,1308.680 41.893,1308.500 41.758,1308.324 C41.657,1308.276 41.558,1308.220 41.474,1308.137 C41.082,1307.748 41.079,1307.115 41.468,1306.723 C41.856,1306.330 42.490,1306.328 42.882,1306.716 C42.882,1306.716 42.882,1306.716 42.882,1306.716 L43.011,1306.586 C43.156,1306.886 43.342,1307.172 43.592,1307.420 C44.769,1308.587 46.668,1308.578 47.835,1307.402 L53.467,1301.720 C54.633,1300.544 54.625,1298.644 53.448,1297.477 C52.271,1296.311 50.372,1296.319 49.205,1297.496 L46.249,1300.479 L43.983,1299.923 L47.785,1296.088 C49.729,1294.127 52.895,1294.113 54.856,1296.057 C56.817,1298.001 56.831,1301.167 54.887,1303.128 Z" class="cls-1"/>
      </g>
    </g>
    <g>
      <path d="M63.818,1239.000 L61.000,1239.000 L61.000,1237.000 L63.000,1237.000 C65.209,1237.000 67.000,1235.209 67.000,1233.000 L67.000,1231.000 L69.000,1231.000 L69.000,1233.857 C69.000,1236.697 66.680,1239.000 63.818,1239.000 ZM67.000,1225.000 L69.000,1225.000 L69.000,1229.000 L67.000,1229.000 L67.000,1225.000 ZM67.000,1219.000 L69.000,1219.000 L69.000,1223.000 L67.000,1223.000 L67.000,1219.000 ZM67.000,1213.000 L69.000,1213.000 L69.000,1217.000 L67.000,1217.000 L67.000,1213.000 ZM67.000,1207.000 L69.000,1207.000 L69.000,1211.000 L67.000,1211.000 L67.000,1207.000 ZM67.000,1201.000 L69.000,1201.000 L69.000,1205.000 L67.000,1205.000 L67.000,1201.000 ZM67.000,1197.000 C67.000,1194.791 65.209,1193.000 63.000,1193.000 L61.000,1193.000 L61.000,1191.000 L63.818,1191.000 C66.680,1191.000 69.000,1193.302 69.000,1196.143 L69.000,1199.000 L67.000,1199.000 L67.000,1197.000 ZM55.000,1193.000 L55.000,1191.000 L59.000,1191.000 L59.000,1193.000 L55.000,1193.000 ZM49.000,1237.000 L53.000,1237.000 L53.000,1239.000 L49.000,1239.000 L49.000,1237.000 ZM49.000,1191.000 L53.000,1191.000 L53.000,1193.000 L49.000,1193.000 L49.000,1191.000 ZM43.000,1237.000 L47.000,1237.000 L47.000,1239.000 L43.000,1239.000 L43.000,1237.000 ZM43.000,1191.000 L47.000,1191.000 L47.000,1193.000 L43.000,1193.000 L43.000,1191.000 ZM37.000,1237.000 L41.000,1237.000 L41.000,1239.000 L37.000,1239.000 L37.000,1237.000 ZM37.000,1191.000 L41.000,1191.000 L41.000,1193.000 L37.000,1193.000 L37.000,1191.000 ZM31.000,1237.000 L35.000,1237.000 L35.000,1239.000 L31.000,1239.000 L31.000,1237.000 ZM31.000,1191.000 L35.000,1191.000 L35.000,1193.000 L31.000,1193.000 L31.000,1191.000 ZM21.000,1233.857 L21.000,1196.143 C21.000,1193.302 23.320,1191.000 26.182,1191.000 L29.000,1191.000 L29.000,1193.000 L27.000,1193.000 C24.791,1193.000 23.000,1194.791 23.000,1197.000 L23.000,1199.000 L21.000,1199.000 L21.000,1201.000 L23.000,1201.000 L23.000,1205.000 L21.000,1205.000 L21.000,1207.000 L23.000,1207.000 L23.000,1211.000 L21.000,1211.000 L21.000,1213.000 L23.000,1213.000 L23.000,1217.000 L21.000,1217.000 L21.000,1219.000 L23.000,1219.000 L23.000,1223.000 L21.000,1223.000 L21.000,1225.000 L23.000,1225.000 L23.000,1229.000 L21.000,1229.000 L21.000,1231.000 L23.000,1231.000 L23.000,1233.000 C23.000,1235.209 24.791,1237.000 27.000,1237.000 L29.000,1237.000 L29.000,1239.000 L26.182,1239.000 C23.320,1239.000 21.000,1236.697 21.000,1233.857 ZM59.000,1239.000 L55.000,1239.000 L55.000,1237.000 L59.000,1237.000 L59.000,1239.000 Z" class="cls-1"/>
      <path d="M46.000,1231.000 L46.000,1216.000 L61.000,1216.000 L61.000,1231.000 L46.000,1231.000 ZM46.000,1199.000 L61.000,1199.000 L61.000,1214.000 L46.000,1214.000 L46.000,1199.000 ZM29.000,1216.000 L44.000,1216.000 L44.000,1231.000 L29.000,1231.000 L29.000,1216.000 ZM29.000,1199.000 L44.000,1199.000 L44.000,1214.000 L29.000,1214.000 L29.000,1199.000 Z" class="cls-1"/>
    </g>
    <g>
      <path d="M64.000,1131.000 L64.000,1144.000 C64.000,1146.761 61.761,1149.000 59.000,1149.000 L31.000,1149.000 C28.239,1149.000 26.000,1146.761 26.000,1144.000 L26.000,1117.000 L42.000,1101.000 L59.000,1101.000 C61.761,1101.000 64.000,1103.239 64.000,1106.000 L64.000,1110.000 L62.000,1112.000 L62.000,1107.000 C62.000,1104.791 60.209,1103.000 58.000,1103.000 L42.000,1103.000 L42.000,1112.000 C42.000,1114.761 39.761,1117.000 37.000,1117.000 L28.000,1117.000 L28.000,1143.000 C28.000,1145.209 29.791,1147.000 32.000,1147.000 L58.000,1147.000 C60.209,1147.000 62.000,1145.209 62.000,1143.000 L62.000,1133.000 L64.000,1131.000 Z" class="cls-1"/>
      <path d="M76.823,1119.439 L75.186,1120.588 L68.296,1110.762 L69.934,1109.614 C71.290,1108.663 73.161,1108.992 74.112,1110.348 L77.557,1115.261 C78.508,1116.617 78.180,1118.488 76.823,1119.439 ZM54.716,1134.940 L47.827,1125.115 L66.659,1111.911 L73.548,1121.736 L54.716,1134.940 ZM50.382,1137.457 C49.475,1137.821 39.022,1140.387 38.159,1139.156 C37.344,1137.994 43.363,1128.934 43.985,1128.215 C44.975,1127.067 46.189,1126.263 46.189,1126.263 L53.078,1136.089 C53.078,1136.089 51.896,1136.849 50.382,1137.457 Z" class="cls-1"/>
    </g>
    <path d="M67.828,1057.966 C66.266,1059.529 63.733,1059.529 62.171,1057.967 L50.660,1046.463 C52.896,1044.967 54.827,1043.054 56.344,1040.834 L67.826,1052.309 C69.389,1053.871 69.389,1056.403 67.828,1057.966 ZM39.000,1047.000 C29.059,1047.000 21.000,1038.941 21.000,1029.000 C21.000,1019.059 29.059,1011.000 39.000,1011.000 C48.941,1011.000 57.000,1019.059 57.000,1029.000 C57.000,1038.941 48.941,1047.000 39.000,1047.000 ZM49.000,1019.211 L49.000,1019.000 L48.789,1019.000 C46.264,1016.528 42.812,1015.000 39.000,1015.000 C31.268,1015.000 25.000,1021.268 25.000,1029.000 C25.000,1032.812 26.528,1036.264 29.000,1038.789 L29.000,1039.000 L29.211,1039.000 C31.736,1041.472 35.188,1043.000 39.000,1043.000 C42.812,1043.000 46.264,1041.472 48.789,1039.000 L49.000,1039.000 L49.000,1038.789 C51.472,1036.264 53.000,1032.812 53.000,1029.000 C53.000,1025.188 51.472,1021.736 49.000,1019.211 ZM31.000,1029.000 L29.000,1029.000 C29.000,1023.477 33.477,1019.000 39.000,1019.000 L39.000,1021.000 C34.582,1021.000 31.000,1024.582 31.000,1029.000 Z" class="cls-1"/>
    <path d="M63.818,969.000 L26.182,969.000 C23.320,969.000 21.000,966.697 21.000,963.857 L21.000,934.143 C21.000,931.708 22.710,929.679 25.000,929.147 L25.000,926.143 C25.000,923.302 27.320,921.000 30.182,921.000 L38.818,921.000 C41.680,921.000 44.000,923.302 44.000,926.143 L44.000,929.000 L46.000,929.000 L46.000,926.143 C46.000,923.302 48.320,921.000 51.182,921.000 L59.818,921.000 C62.680,921.000 65.000,923.302 65.000,926.143 L65.000,929.147 C67.290,929.679 69.000,931.708 69.000,934.143 L69.000,963.857 C69.000,966.697 66.680,969.000 63.818,969.000 ZM63.000,926.000 C63.000,924.343 61.657,923.000 60.000,923.000 L51.000,923.000 C49.343,923.000 48.000,924.343 48.000,926.000 L48.000,929.000 L63.000,929.000 L63.000,926.000 ZM67.000,935.000 C67.000,932.791 65.209,931.000 63.000,931.000 L46.000,931.000 L44.000,931.000 L42.000,931.000 L42.000,929.000 L42.000,929.000 L42.000,926.000 C42.000,924.343 40.657,923.000 39.000,923.000 L30.000,923.000 C28.343,923.000 27.000,924.343 27.000,926.000 L27.000,929.000 L27.000,931.000 C24.791,931.000 23.000,932.791 23.000,935.000 L23.000,963.000 C23.000,965.209 24.791,967.000 27.000,967.000 L63.000,967.000 C65.209,967.000 67.000,965.209 67.000,963.000 L67.000,935.000 Z" class="cls-1"/>
    <path d="M49.000,867.000 C45.952,872.188 46.000,879.000 46.000,879.000 L44.000,879.000 C44.000,879.000 44.060,872.162 41.000,867.000 C38.334,862.503 30.000,854.328 30.000,846.000 C30.000,837.716 36.716,831.000 45.000,831.000 C53.284,831.000 60.000,837.716 60.000,846.000 C60.000,854.351 51.646,862.496 49.000,867.000 ZM45.000,840.000 C41.686,840.000 39.000,842.686 39.000,846.000 C39.000,849.314 41.686,852.000 45.000,852.000 C48.314,852.000 51.000,849.314 51.000,846.000 C51.000,842.686 48.314,840.000 45.000,840.000 Z" class="cls-1"/>
    <path d="M71.999,788.940 C70.925,788.940 69.851,788.940 68.713,788.877 C62.773,788.626 59.805,786.563 58.097,785.126 C53.486,788.065 48.748,789.003 44.640,789.003 C29.602,789.003 20.000,777.189 20.000,765.186 C20.000,752.624 29.855,740.998 44.513,740.998 C59.173,740.998 69.281,752.374 69.281,764.751 C69.281,773.002 65.934,777.312 64.353,779.313 C66.376,780.814 68.461,781.251 71.999,781.437 L71.999,788.940 ZM44.513,749.184 C37.311,749.184 31.435,753.998 29.982,761.498 C29.855,762.938 29.855,763.937 29.982,764.812 C31.624,764.312 34.279,763.373 37.817,763.373 C41.672,763.373 45.083,764.187 48.748,766.563 C51.591,768.437 53.171,769.875 57.024,773.375 C58.856,771.187 59.867,768.126 59.867,764.751 C59.867,755.372 52.853,749.184 44.577,749.184 L44.513,749.184 ZM44.640,780.814 C47.483,780.814 50.074,780.002 51.400,779.126 C50.010,777.500 47.421,775.313 46.472,774.564 C43.439,772.252 40.090,771.312 36.867,771.312 C34.214,771.312 32.510,771.812 31.117,772.313 C34.026,778.751 40.534,780.814 44.577,780.814 L44.640,780.814 Z" class="cls-1"/>
    <path d="M63.556,685.246 C63.556,686.587 63.618,687.452 63.741,687.840 C63.864,688.229 64.080,688.544 64.392,688.783 C64.703,689.023 64.990,689.144 65.252,689.144 C66.317,689.144 67.324,688.324 68.275,686.686 L69.012,687.232 C67.685,690.410 65.530,691.998 62.549,691.998 C61.091,691.998 59.858,691.589 58.850,690.769 C57.843,689.950 57.200,689.036 56.921,688.026 C56.757,687.464 56.676,685.941 56.676,683.459 L56.676,670.922 L53.678,670.922 L53.678,670.053 C55.742,668.580 57.499,667.033 58.949,665.411 C60.399,663.789 61.664,661.977 62.745,659.974 L63.556,659.974 L63.556,668.464 L69.012,668.464 L69.012,670.922 L63.556,670.922 L63.556,685.246 ZM48.296,662.593 C47.657,661.675 46.780,660.943 45.666,660.396 C45.044,660.099 43.954,659.950 42.398,659.950 L39.916,659.950 L39.916,685.916 C39.916,687.638 40.010,688.713 40.199,689.144 C40.387,689.574 40.755,689.950 41.305,690.273 C41.853,690.596 42.603,690.757 43.553,690.757 L44.659,690.757 L44.659,691.676 L27.211,691.676 L27.211,690.757 L28.317,690.757 C29.284,690.757 30.062,690.583 30.652,690.236 C31.078,690.004 31.414,689.607 31.659,689.044 C31.839,688.647 31.930,687.604 31.930,685.916 L31.930,659.950 L29.521,659.950 C27.277,659.950 25.647,660.430 24.631,661.390 C23.206,662.730 22.305,664.641 21.928,667.124 L20.994,667.124 L20.994,658.013 L50.925,658.013 L50.925,667.124 L50.041,667.124 C49.516,665.022 48.935,663.512 48.296,662.593 Z" class="cls-1"/>
    <path d="M63.818,609.000 L61.000,609.000 L61.000,607.000 L63.000,607.000 C65.209,607.000 67.000,605.209 67.000,603.000 L67.000,601.000 L69.000,601.000 L69.000,603.857 C69.000,606.698 66.680,609.000 63.818,609.000 ZM67.000,595.000 L69.000,595.000 L69.000,599.000 L67.000,599.000 L67.000,595.000 ZM67.000,589.000 L69.000,589.000 L69.000,593.000 L67.000,593.000 L67.000,589.000 ZM67.000,583.000 L69.000,583.000 L69.000,587.000 L67.000,587.000 L67.000,583.000 ZM67.000,577.000 L69.000,577.000 L69.000,581.000 L67.000,581.000 L67.000,577.000 ZM67.000,571.000 L69.000,571.000 L69.000,575.000 L67.000,575.000 L67.000,571.000 ZM67.000,567.000 C67.000,564.791 65.209,563.000 63.000,563.000 L61.000,563.000 L61.000,561.000 L59.000,561.000 L59.000,563.000 L55.000,563.000 L55.000,561.000 L53.000,561.000 L53.000,563.000 L49.000,563.000 L49.000,561.000 L47.000,561.000 L47.000,563.000 L43.000,563.000 L43.000,561.000 L41.000,561.000 L41.000,563.000 L37.000,563.000 L37.000,561.000 L35.000,561.000 L35.000,563.000 L31.000,563.000 L31.000,561.000 L29.000,561.000 L29.000,563.000 L27.000,563.000 C24.791,563.000 23.000,564.791 23.000,567.000 L23.000,569.000 L21.000,569.000 L21.000,571.000 L23.000,571.000 L23.000,575.000 L21.000,575.000 L21.000,577.000 L23.000,577.000 L23.000,581.000 L21.000,581.000 L21.000,583.000 L23.000,583.000 L23.000,587.000 L21.000,587.000 L21.000,589.000 L23.000,589.000 L23.000,593.000 L21.000,593.000 L21.000,595.000 L23.000,595.000 L23.000,599.000 L21.000,599.000 L21.000,601.000 L23.000,601.000 L23.000,603.000 C23.000,605.209 24.791,607.000 27.000,607.000 L29.000,607.000 L29.000,609.000 L26.182,609.000 C23.320,609.000 21.000,606.698 21.000,603.857 L21.000,566.143 C21.000,563.302 23.320,561.000 26.182,561.000 L63.818,561.000 C66.680,561.000 69.000,563.302 69.000,566.143 L69.000,569.000 L67.000,569.000 L67.000,567.000 ZM35.000,609.000 L31.000,609.000 L31.000,607.000 L35.000,607.000 L35.000,609.000 ZM41.000,609.000 L37.000,609.000 L37.000,607.000 L41.000,607.000 L41.000,609.000 ZM47.000,609.000 L43.000,609.000 L43.000,607.000 L47.000,607.000 L47.000,609.000 ZM53.000,609.000 L49.000,609.000 L49.000,607.000 L53.000,607.000 L53.000,609.000 ZM59.000,609.000 L55.000,609.000 L55.000,607.000 L59.000,607.000 L59.000,609.000 Z" class="cls-1"/>
    <path d="M68.000,520.000 L68.000,517.000 L69.000,517.000 L69.000,520.000 L68.000,520.000 ZM68.000,513.000 L69.000,513.000 L69.000,516.000 L68.000,516.000 L68.000,513.000 ZM68.000,509.000 L69.000,509.000 L69.000,512.000 L68.000,512.000 L68.000,509.000 ZM68.000,505.000 L69.000,505.000 L69.000,508.000 L68.000,508.000 L68.000,505.000 ZM68.000,502.000 L65.000,502.000 L65.000,501.000 L69.000,501.000 L69.000,504.000 L68.000,504.000 L68.000,502.000 ZM65.000,490.000 L68.000,490.000 L68.000,488.000 L69.000,488.000 L69.000,491.000 L65.000,491.000 L65.000,490.000 ZM68.000,484.000 L69.000,484.000 L69.000,487.000 L68.000,487.000 L68.000,484.000 ZM68.000,480.000 L69.000,480.000 L69.000,483.000 L68.000,483.000 L68.000,480.000 ZM68.000,476.000 L69.000,476.000 L69.000,479.000 L68.000,479.000 L68.000,476.000 ZM68.000,472.000 L69.000,472.000 L69.000,475.000 L68.000,475.000 L68.000,472.000 ZM61.000,502.000 L61.000,501.000 L64.000,501.000 L64.000,502.000 L61.000,502.000 ZM61.000,490.000 L64.000,490.000 L64.000,491.000 L61.000,491.000 L61.000,490.000 ZM57.000,501.000 L60.000,501.000 L60.000,502.000 L57.000,502.000 L57.000,501.000 ZM57.000,490.000 L60.000,490.000 L60.000,491.000 L57.000,491.000 L57.000,490.000 ZM53.000,501.000 L56.000,501.000 L56.000,502.000 L53.000,502.000 L53.000,501.000 ZM53.000,490.000 L56.000,490.000 L56.000,491.000 L53.000,491.000 L53.000,490.000 ZM49.000,501.000 L52.000,501.000 L52.000,502.000 L49.000,502.000 L49.000,501.000 ZM49.000,490.000 L52.000,490.000 L52.000,491.000 L49.000,491.000 L49.000,490.000 ZM45.000,501.000 L48.000,501.000 L48.000,502.000 L45.000,502.000 L45.000,501.000 ZM45.000,490.000 L48.000,490.000 L48.000,491.000 L45.000,491.000 L45.000,490.000 ZM41.000,501.000 L44.000,501.000 L44.000,502.000 L41.000,502.000 L41.000,501.000 ZM41.000,490.000 L44.000,490.000 L44.000,491.000 L41.000,491.000 L41.000,490.000 ZM37.000,501.000 L40.000,501.000 L40.000,502.000 L37.000,502.000 L37.000,501.000 ZM37.000,490.000 L40.000,490.000 L40.000,491.000 L37.000,491.000 L37.000,490.000 ZM33.000,501.000 L36.000,501.000 L36.000,502.000 L33.000,502.000 L33.000,501.000 ZM33.000,490.000 L36.000,490.000 L36.000,491.000 L33.000,491.000 L33.000,490.000 ZM29.000,501.000 L32.000,501.000 L32.000,502.000 L29.000,502.000 L29.000,501.000 ZM29.000,490.000 L32.000,490.000 L32.000,491.000 L29.000,491.000 L29.000,490.000 ZM25.000,501.000 L28.000,501.000 L28.000,502.000 L25.000,502.000 L25.000,501.000 ZM25.000,490.000 L28.000,490.000 L28.000,491.000 L25.000,491.000 L25.000,490.000 ZM22.000,504.000 L21.000,504.000 L21.000,501.000 L24.000,501.000 L24.000,502.000 L22.000,502.000 L22.000,504.000 ZM21.000,488.000 L22.000,488.000 L22.000,490.000 L24.000,490.000 L24.000,491.000 L21.000,491.000 L21.000,488.000 ZM21.000,484.000 L22.000,484.000 L22.000,487.000 L21.000,487.000 L21.000,484.000 ZM21.000,480.000 L22.000,480.000 L22.000,483.000 L21.000,483.000 L21.000,480.000 ZM21.000,476.000 L22.000,476.000 L22.000,479.000 L21.000,479.000 L21.000,476.000 ZM21.000,472.000 L22.000,472.000 L22.000,475.000 L21.000,475.000 L21.000,472.000 ZM22.000,508.000 L21.000,508.000 L21.000,505.000 L22.000,505.000 L22.000,508.000 ZM22.000,512.000 L21.000,512.000 L21.000,509.000 L22.000,509.000 L22.000,512.000 ZM22.000,516.000 L21.000,516.000 L21.000,513.000 L22.000,513.000 L22.000,516.000 ZM22.000,520.000 L21.000,520.000 L21.000,517.000 L22.000,517.000 L22.000,520.000 Z" class="cls-1"/>
    <path d="M68.000,429.000 L68.000,426.000 L69.000,426.000 L69.000,429.000 L68.000,429.000 ZM68.000,422.000 L69.000,422.000 L69.000,425.000 L68.000,425.000 L68.000,422.000 ZM68.000,418.000 L69.000,418.000 L69.000,421.000 L68.000,421.000 L68.000,418.000 ZM68.000,414.000 L69.000,414.000 L69.000,417.000 L68.000,417.000 L68.000,414.000 ZM68.000,411.000 L65.000,411.000 L65.000,410.000 L69.000,410.000 L69.000,413.000 L68.000,413.000 L68.000,411.000 ZM21.000,404.000 L69.000,404.000 L69.000,406.000 L21.000,406.000 L21.000,404.000 ZM65.000,399.000 L68.000,399.000 L68.000,397.000 L69.000,397.000 L69.000,400.000 L65.000,400.000 L65.000,399.000 ZM68.000,393.000 L69.000,393.000 L69.000,396.000 L68.000,396.000 L68.000,393.000 ZM68.000,389.000 L69.000,389.000 L69.000,392.000 L68.000,392.000 L68.000,389.000 ZM68.000,385.000 L69.000,385.000 L69.000,388.000 L68.000,388.000 L68.000,385.000 ZM68.000,381.000 L69.000,381.000 L69.000,384.000 L68.000,384.000 L68.000,381.000 ZM61.000,399.000 L64.000,399.000 L64.000,400.000 L61.000,400.000 L61.000,399.000 ZM57.000,399.000 L60.000,399.000 L60.000,400.000 L57.000,400.000 L57.000,399.000 ZM53.000,399.000 L56.000,399.000 L56.000,400.000 L53.000,400.000 L53.000,399.000 ZM49.000,399.000 L52.000,399.000 L52.000,400.000 L49.000,400.000 L49.000,399.000 ZM45.000,399.000 L48.000,399.000 L48.000,400.000 L45.000,400.000 L45.000,399.000 ZM41.000,399.000 L44.000,399.000 L44.000,400.000 L41.000,400.000 L41.000,399.000 ZM37.000,399.000 L40.000,399.000 L40.000,400.000 L37.000,400.000 L37.000,399.000 ZM33.000,399.000 L36.000,399.000 L36.000,400.000 L33.000,400.000 L33.000,399.000 ZM29.000,399.000 L32.000,399.000 L32.000,400.000 L29.000,400.000 L29.000,399.000 ZM25.000,399.000 L28.000,399.000 L28.000,400.000 L25.000,400.000 L25.000,399.000 ZM21.000,397.000 L22.000,397.000 L22.000,399.000 L24.000,399.000 L24.000,400.000 L21.000,400.000 L21.000,397.000 ZM21.000,393.000 L22.000,393.000 L22.000,396.000 L21.000,396.000 L21.000,393.000 ZM21.000,389.000 L22.000,389.000 L22.000,392.000 L21.000,392.000 L21.000,389.000 ZM21.000,385.000 L22.000,385.000 L22.000,388.000 L21.000,388.000 L21.000,385.000 ZM21.000,381.000 L22.000,381.000 L22.000,384.000 L21.000,384.000 L21.000,381.000 ZM24.000,411.000 L22.000,411.000 L22.000,413.000 L21.000,413.000 L21.000,410.000 L24.000,410.000 L24.000,411.000 ZM22.000,417.000 L21.000,417.000 L21.000,414.000 L22.000,414.000 L22.000,417.000 ZM22.000,421.000 L21.000,421.000 L21.000,418.000 L22.000,418.000 L22.000,421.000 ZM22.000,425.000 L21.000,425.000 L21.000,422.000 L22.000,422.000 L22.000,425.000 ZM22.000,429.000 L21.000,429.000 L21.000,426.000 L22.000,426.000 L22.000,429.000 ZM28.000,411.000 L25.000,411.000 L25.000,410.000 L28.000,410.000 L28.000,411.000 ZM32.000,411.000 L29.000,411.000 L29.000,410.000 L32.000,410.000 L32.000,411.000 ZM36.000,411.000 L33.000,411.000 L33.000,410.000 L36.000,410.000 L36.000,411.000 ZM40.000,411.000 L37.000,411.000 L37.000,410.000 L40.000,410.000 L40.000,411.000 ZM44.000,411.000 L41.000,411.000 L41.000,410.000 L44.000,410.000 L44.000,411.000 ZM48.000,411.000 L45.000,411.000 L45.000,410.000 L48.000,410.000 L48.000,411.000 ZM52.000,411.000 L49.000,411.000 L49.000,410.000 L52.000,410.000 L52.000,411.000 ZM56.000,411.000 L53.000,411.000 L53.000,410.000 L56.000,410.000 L56.000,411.000 ZM60.000,411.000 L57.000,411.000 L57.000,410.000 L60.000,410.000 L60.000,411.000 ZM64.000,411.000 L61.000,411.000 L61.000,410.000 L64.000,410.000 L64.000,411.000 Z" class="cls-1"/>
    <path d="M66.000,328.000 L32.000,328.000 C30.343,328.000 29.000,326.657 29.000,325.000 C29.000,323.343 30.343,322.000 32.000,322.000 L66.000,322.000 C67.657,322.000 69.000,323.343 69.000,325.000 C69.000,326.657 67.657,328.000 66.000,328.000 ZM66.000,318.000 L32.000,318.000 C30.343,318.000 29.000,316.657 29.000,315.000 C29.000,313.343 30.343,312.000 32.000,312.000 L66.000,312.000 C67.657,312.000 69.000,313.343 69.000,315.000 C69.000,316.657 67.657,318.000 66.000,318.000 ZM66.000,308.000 L32.000,308.000 C30.343,308.000 29.000,306.657 29.000,305.000 C29.000,303.343 30.343,302.000 32.000,302.000 L66.000,302.000 C67.657,302.000 69.000,303.343 69.000,305.000 C69.000,306.657 67.657,308.000 66.000,308.000 ZM66.000,298.000 L32.000,298.000 C30.343,298.000 29.000,296.657 29.000,295.000 C29.000,293.343 30.343,292.000 32.000,292.000 L66.000,292.000 C67.657,292.000 69.000,293.343 69.000,295.000 C69.000,296.657 67.657,298.000 66.000,298.000 ZM24.000,338.000 C22.343,338.000 21.000,336.657 21.000,335.000 C21.000,333.343 22.343,332.000 24.000,332.000 C25.657,332.000 27.000,333.343 27.000,335.000 C27.000,336.657 25.657,338.000 24.000,338.000 ZM24.000,328.000 C22.343,328.000 21.000,326.657 21.000,325.000 C21.000,323.343 22.343,322.000 24.000,322.000 C25.657,322.000 27.000,323.343 27.000,325.000 C27.000,326.657 25.657,328.000 24.000,328.000 ZM24.000,318.000 C22.343,318.000 21.000,316.657 21.000,315.000 C21.000,313.343 22.343,312.000 24.000,312.000 C25.657,312.000 27.000,313.343 27.000,315.000 C27.000,316.657 25.657,318.000 24.000,318.000 ZM24.000,308.000 C22.343,308.000 21.000,306.657 21.000,305.000 C21.000,303.343 22.343,302.000 24.000,302.000 C25.657,302.000 27.000,303.343 27.000,305.000 C27.000,306.657 25.657,308.000 24.000,308.000 ZM24.000,298.000 C22.343,298.000 21.000,296.657 21.000,295.000 C21.000,293.343 22.343,292.000 24.000,292.000 C25.657,292.000 27.000,293.343 27.000,295.000 C27.000,296.657 25.657,298.000 24.000,298.000 ZM32.000,332.000 L66.000,332.000 C67.657,332.000 69.000,333.343 69.000,335.000 C69.000,336.657 67.657,338.000 66.000,338.000 L32.000,338.000 C30.343,338.000 29.000,336.657 29.000,335.000 C29.000,333.343 30.343,332.000 32.000,332.000 Z" class="cls-1"/>
    <path d="M64.000,249.000 L60.000,249.000 C57.239,249.000 55.000,246.761 55.000,244.000 L55.000,206.000 C55.000,203.238 57.239,201.000 60.000,201.000 L64.000,201.000 C66.761,201.000 69.000,203.238 69.000,206.000 L69.000,244.000 C69.000,246.761 66.761,249.000 64.000,249.000 ZM47.000,249.000 L43.000,249.000 C40.239,249.000 38.000,246.761 38.000,244.000 L38.000,206.000 C38.000,203.238 40.239,201.000 43.000,201.000 L47.000,201.000 C49.761,201.000 52.000,203.238 52.000,206.000 L52.000,244.000 C52.000,246.761 49.761,249.000 47.000,249.000 ZM30.000,249.000 L26.000,249.000 C23.239,249.000 21.000,246.761 21.000,244.000 L21.000,206.000 C21.000,203.238 23.239,201.000 26.000,201.000 L30.000,201.000 C32.761,201.000 35.000,203.238 35.000,206.000 L35.000,244.000 C35.000,246.761 32.761,249.000 30.000,249.000 Z" class="cls-1"/>
    <path d="M64.414,145.971 C64.326,145.940 63.486,145.648 62.418,145.277 C61.552,147.094 59.826,150.385 58.000,152.000 C54.521,155.077 49.405,156.495 48.000,157.000 C46.000,157.719 45.000,159.000 45.000,159.000 C45.000,159.000 44.000,157.719 42.000,157.000 C40.595,156.495 35.479,155.077 32.000,152.000 C30.057,150.281 28.223,146.657 27.422,144.940 C26.331,145.338 25.452,145.658 25.364,145.690 C25.054,145.803 24.723,145.613 24.806,145.277 C24.873,145.007 26.232,139.609 26.349,139.148 C26.425,138.845 26.820,138.706 27.072,138.885 C27.353,139.084 31.886,142.355 32.206,142.595 C32.440,142.771 32.384,143.133 32.042,143.258 C31.940,143.295 31.336,143.515 30.535,143.807 C31.546,145.286 33.830,148.428 36.000,150.000 C37.752,151.269 40.260,152.156 41.000,152.000 C42.187,151.750 42.000,150.000 42.000,150.000 L42.094,150.000 L42.719,130.000 L37.500,130.000 C36.672,130.000 36.000,129.328 36.000,128.500 C36.000,127.671 36.672,127.000 37.500,127.000 L42.813,127.000 L42.949,122.617 C40.650,121.777 39.000,119.590 39.000,117.000 C39.000,113.686 41.686,111.000 45.000,111.000 C48.314,111.000 51.000,113.686 51.000,117.000 C51.000,119.590 49.350,121.777 47.051,122.617 L47.188,127.000 L52.500,127.000 C53.328,127.000 54.000,127.671 54.000,128.500 C54.000,129.328 53.328,130.000 52.500,130.000 L47.281,130.000 L47.906,150.000 L48.000,150.000 C48.000,150.000 47.813,151.750 49.000,152.000 C49.740,152.156 52.248,151.269 54.000,150.000 C56.008,148.545 58.113,145.747 59.217,144.165 C58.220,143.818 57.441,143.548 57.321,143.506 C56.957,143.379 56.898,143.012 57.147,142.833 C57.486,142.590 62.301,139.275 62.600,139.073 C62.868,138.892 63.287,139.033 63.368,139.340 C63.492,139.807 64.936,145.279 65.007,145.552 C65.095,145.893 64.744,146.085 64.414,145.971 ZM49.000,117.000 C49.000,114.791 47.209,113.000 45.000,113.000 C42.791,113.000 41.000,114.791 41.000,117.000 C41.000,119.209 42.791,121.000 45.000,121.000 C47.209,121.000 49.000,119.209 49.000,117.000 Z" class="cls-1"/>
    <g>
      <path d="M54.000,53.000 L54.000,57.000 L49.827,57.000 C49.521,58.820 48.795,60.494 47.767,61.937 L50.729,64.898 L47.901,67.727 L44.936,64.763 C43.493,65.789 41.820,66.514 40.000,66.820 L40.000,71.000 L36.000,71.000 L36.000,66.820 C34.181,66.514 32.508,65.789 31.066,64.764 L28.102,67.729 L25.273,64.901 L28.235,61.939 C27.206,60.495 26.479,58.821 26.173,57.000 L22.000,57.000 L22.000,53.000 L26.173,53.000 C26.479,51.179 27.205,49.506 28.233,48.063 L25.271,45.102 L28.099,42.273 L31.064,45.237 C32.507,44.211 34.180,43.486 36.000,43.180 L36.000,39.000 L40.000,39.000 L40.000,43.180 C41.819,43.486 43.492,44.210 44.934,45.235 L47.898,42.271 L50.727,45.099 L47.765,48.061 C48.794,49.505 49.521,51.179 49.827,53.000 L54.000,53.000 ZM38.000,49.000 C34.686,49.000 32.000,51.686 32.000,55.000 C32.000,58.314 34.686,61.000 38.000,61.000 C41.314,61.000 44.000,58.314 44.000,55.000 C44.000,51.686 41.314,49.000 38.000,49.000 Z" class="cls-1"/>
      <path d="M67.000,30.500 L67.000,33.500 L63.864,33.500 C63.634,34.864 63.091,36.118 62.322,37.199 L64.547,39.424 L62.426,41.545 L60.201,39.321 C59.120,40.091 57.865,40.635 56.500,40.865 L56.500,44.000 L53.500,44.000 L53.500,40.865 C52.135,40.635 50.882,40.092 49.800,39.322 L47.576,41.547 L45.455,39.425 L47.679,37.201 C46.909,36.119 46.366,34.865 46.136,33.500 L43.000,33.500 L43.000,30.500 L46.136,30.500 C46.366,29.136 46.909,27.882 47.678,26.801 L45.453,24.576 L47.574,22.455 L49.799,24.679 C50.880,23.909 52.135,23.365 53.500,23.135 L53.500,20.000 L56.500,20.000 L56.500,23.135 C57.865,23.364 59.119,23.908 60.200,24.678 L62.424,22.453 L64.545,24.575 L62.321,26.799 C63.091,27.881 63.634,29.135 63.864,30.500 L67.000,30.500 ZM55.000,27.000 C52.239,27.000 50.000,29.238 50.000,32.000 C50.000,34.761 52.239,37.000 55.000,37.000 C57.761,37.000 60.000,34.761 60.000,32.000 C60.000,29.238 57.761,27.000 55.000,27.000 Z" class="cls-3"/>
    </g>
    <g>
      <rect width="1" height="1" class="cls-4"/>
      <rect x="89" y="3488" width="1" height="1" class="cls-4"/>
    </g>
  </g>
</svg>
