<svg id="Sprite.svg" xmlns="http://www.w3.org/2000/svg" width="90" height="5241" viewBox="0 0 90 5241">
  <defs>
    <style>
      .cls-1, .cls-2, .cls-3, .cls-4, .cls-5, .cls-6, .cls-7 {
        fill: #fff;
      }

      .cls-1, .cls-2, .cls-4, .cls-5 {
        fill-rule: evenodd;
      }

      .cls-2 {
        fill-opacity: 0.85;
      }

      .cls-4 {
        opacity: 0.55;
      }

      .cls-5, .cls-6 {
        opacity: 0.4;
      }

      .cls-7 {
        opacity: 0;
      }
    </style>
  </defs>
  <g id="Hidden_Tabs" data-name="Hidden Tabs">
    <path id="Icon" class="cls-1" d="M63.818,5199H26.182A5.16,5.16,0,0,1,21,5193.86v-29.72a5.14,5.14,0,0,1,4-4.99v-3.01a5.16,5.16,0,0,1,5.182-5.14h8.636A5.16,5.16,0,0,1,44,5156.14V5159h2v-2.86a5.16,5.16,0,0,1,5.182-5.14h8.636A5.16,5.16,0,0,1,65,5156.14v3.01a5.14,5.14,0,0,1,4,4.99v29.72A5.16,5.16,0,0,1,63.818,5199ZM63,5156a3,3,0,0,0-3-3H51a3,3,0,0,0-3,3v3H63v-3Zm4,9a4,4,0,0,0-4-4H42v-2h0v-3a3,3,0,0,0-3-3H30a3,3,0,0,0-3,3v5a4,4,0,0,0-4,4v28a4,4,0,0,0,4,4H63a4,4,0,0,0,4-4v-28Z"/>
    <path id="Arrow" class="cls-1" d="M53,5177l-8,7-8-7v-3l8,7,8-7v3Z"/>
  </g>
  <g id="Tabs">
    <path id="Icon-2" data-name="Icon" class="cls-1" d="M63.818,969H26.182A5.162,5.162,0,0,1,21,963.857V934.143a5.144,5.144,0,0,1,4-5v-3A5.162,5.162,0,0,1,30.182,921h8.636A5.162,5.162,0,0,1,44,926.143V929h2v-2.857A5.162,5.162,0,0,1,51.182,921h8.636A5.162,5.162,0,0,1,65,926.143v3a5.144,5.144,0,0,1,4,5v29.714A5.162,5.162,0,0,1,63.818,969ZM63,926a3,3,0,0,0-3-3H51a3,3,0,0,0-3,3v3H63v-3Zm4,9a4,4,0,0,0-4-4H42v-2h0v-3a3,3,0,0,0-3-3H30a3,3,0,0,0-3,3v5a4,4,0,0,0-4,4v28a4,4,0,0,0,4,4H63a4,4,0,0,0,4-4V935Z"/>
  </g>
  <g id="Form">
    <path id="Border" class="cls-1" d="M26,5061H64a5,5,0,0,1,5,5v38a5,5,0,0,1-5,5H26a5,5,0,0,1-5-5v-38A5,5,0,0,1,26,5061Zm1,2H63a4,4,0,0,1,4,4v36a4,4,0,0,1-4,4H27a4,4,0,0,1-4-4v-36A4,4,0,0,1,27,5063Z"/>
    <path id="Input" class="cls-2" d="M28,5069H62a1,1,0,0,1,1,1v2a1,1,0,0,1-1,1H28a1,1,0,0,1-1-1v-2A1,1,0,0,1,28,5069Zm0,6H62a1,1,0,0,1,1,1v2a1,1,0,0,1-1,1H28a1,1,0,0,1-1-1v-2A1,1,0,0,1,28,5075Zm0,6H62a1,1,0,0,1,1,1v8a1,1,0,0,1-1,1H28a1,1,0,0,1-1-1v-8A1,1,0,0,1,28,5081Z"/>
    <path id="Button" class="cls-1" d="M33,5097H43a1,1,0,0,1,1,1v2a1,1,0,0,1-1,1H33a1,1,0,0,1-1-1v-2A1,1,0,0,1,33,5097Zm14,0H57a1,1,0,0,1,1,1v2a1,1,0,0,1-1,1H47a1,1,0,0,1-1-1v-2A1,1,0,0,1,47,5097Z"/>
  </g>
  <g id="Date_Picker" data-name="Date Picker">
    <path id="Icon-3" data-name="Icon" class="cls-1" d="M65,5005.9v-2.45a4,4,0,0,0,2-3.45v-10a4,4,0,0,0-4-4H27a4,4,0,0,0-4,4v10a4,4,0,0,0,4,4H39v2H26a5,5,0,0,1-5-5v-12a5,5,0,0,1,5-5H64a5,5,0,0,1,5,5v12A5,5,0,0,1,65,5005.9Z"/>
    <rect id="Text" class="cls-3" x="27" y="4989" width="2" height="12"/>
    <path id="Icon-4" data-name="Icon" class="cls-1" d="M61,5016H41v-22h2v3h5v-3h8v3h5v-3h2v22H61Zm0-17H43v15H61v-15Zm-14,7H45v-2h2v2Zm0,3H45v-2h2v2Zm0,3H45v-2h2v2Zm3-6H48v-2h2v2Zm0,3H48v-2h2v2Zm0,3H48v-2h2v2Zm3-9H51v-2h2v2Zm0,3H51v-2h2v2Zm0,3H51v-2h2v2Zm0,3H51v-2h2v2Zm3-9H54v-2h2v2Zm0,3H54v-2h2v2Zm0,3H54v-2h2v2Zm0,3H54v-2h2v2Zm3-9H57v-2h2v2Zm0,3H57v-2h2v2Zm0,3H57v-2h2v2Zm-2-15h3v2H57v-2Zm-13,0h3v2H44v-2Z"/>
  </g>
  <g id="Timer_Picker" data-name="Timer Picker">
    <path id="Icon-5" data-name="Icon" class="cls-1" d="M65,4915.9v-2.45a4,4,0,0,0,2-3.45v-10a4,4,0,0,0-4-4H27a4,4,0,0,0-4,4v10a4,4,0,0,0,4,4H37v2H26a5,5,0,0,1-5-5v-12a5,5,0,0,1,5-5H64a5,5,0,0,1,5,5v12A5,5,0,0,1,65,4915.9Z"/>
    <rect id="Text-2" data-name="Text" class="cls-3" x="27" y="4899" width="2" height="12"/>
    <g id="Clock">
      <path id="Lines" class="cls-4" d="M50.5,4922.5h1v2h-1v-2Zm0-17h1v2h-1v-2Zm-9,9h2v1h-2v-1Zm17,0h2v1h-2v-1Zm-13.154,5.45,0.708,0.71-1.413,1.41-0.707-.7Zm12.014-12.02,0.707,0.7-1.413,1.42-0.708-.71Zm-12.731.01,1.415,1.41-0.708.71-1.415-1.42Zm12.034,12,1.415,1.42-0.708.7-1.415-1.41Z"/>
      <path id="Border-2" data-name="Border" class="cls-1" d="M51,4927a12,12,0,1,1,12-12A12,12,0,0,1,51,4927Zm0-22a10,10,0,1,0,10,10A10,10,0,0,0,51,4905Zm1.926,9.49A1.936,1.936,0,0,1,53,4915a2,2,0,0,1-2,2,1.982,1.982,0,0,1-1.723-1H43.5a1,1,0,0,1,0-2h5.777A1.982,1.982,0,0,1,51,4913a2.156,2.156,0,0,1,.512.07l2.9-2.9a1,1,0,0,1,1.415,1.41Z"/>
    </g>
  </g>
  <g id="Image_Browser" data-name="Image Browser">
    <g id="Image">
      <path id="Input-2" data-name="Input" class="cls-1" d="M66.346,4838.39l-1.817-1.7A3.989,3.989,0,0,0,67,4833v-36a4,4,0,0,0-4-4H27a4,4,0,0,0-4,4v36a4,4,0,0,0,4,4H51v2H26a5,5,0,0,1-5-5v-38a5,5,0,0,1,5-5H64a5,5,0,0,1,5,5v38A4.974,4.974,0,0,1,66.346,4838.39Z"/>
      <path id="Background" class="cls-5" d="M64.53,4836.69L52,4825H51v12H27a4,4,0,0,1-4-4v-36a4,4,0,0,1,4-4H63a4,4,0,0,1,4,4v36A3.989,3.989,0,0,1,64.53,4836.69Z"/>
      <path id="Image-2" data-name="Image" class="cls-1" d="M55.574,4828.34l2.619-4.17L65,4835.01h-2.28Zm2.436-21.35a5,5,0,1,1,5-5A5,5,0,0,1,58.01,4806.99ZM51,4835.01H25l13.831-22.02L51,4832.36v2.65Z"/>
    </g>
    <path id="Cursor" class="cls-1" d="M53,4828v21.28l4.617-4.3L61.6,4852l4.856-2.49-3.582-6.34H69Z"/>
  </g>
  <g id="Captcha">
    <path id="Icon-6" data-name="Icon" class="cls-1" d="M64,4749H62v-2h1a4,4,0,0,0,4-4v-10a4,4,0,0,0-4-4H27a4,4,0,0,0-4,4v10a4,4,0,0,0,4,4H56v2H26a5,5,0,0,1-5-5v-12a5,5,0,0,1,5-5H64a5,5,0,0,1,5,5v12A5,5,0,0,1,64,4749Z"/>
    <rect id="Text-3" data-name="Text" class="cls-3" x="27" y="4732" width="2" height="12"/>
    <path id="Cursor-2" data-name="Cursor" class="cls-1" d="M64,4740H60v16h4a1,1,0,0,1,0,2H54a1,1,0,0,1,0-2h4v-16H54a1,1,0,0,1,0-2H64A1,1,0,0,1,64,4740Z"/>
    <path id="Captcha-2" data-name="Captcha" class="cls-1" d="M26,4701H64a5,5,0,0,1,5,5v12a5,5,0,0,1-5,5H26a5,5,0,0,1-5-5v-12A5,5,0,0,1,26,4701Zm1,2H63a4,4,0,0,1,4,4v10a4,4,0,0,1-4,4H27a4,4,0,0,1-4-4v-10A4,4,0,0,1,27,4703Z"/>
    <rect id="Background-2" data-name="Background" class="cls-6" x="23" y="4703" width="44" height="18" rx="4" ry="4"/>
    <path id="ABC" class="cls-1" d="M40.384,4717.09l-3.931-10.04H35.476l-3.951,10.04H32.7l1.23-3.18h4.006l1.244,3.18h1.2Zm-6.043-4.23,1.176-3.09a13.282,13.282,0,0,0,.431-1.45c0.159,0.57.314,1.06,0.465,1.45l1.162,3.09H34.341Zm7.417,4.23h3.486a3.862,3.862,0,0,0,2.533-.75,2.576,2.576,0,0,0,.906-2.1c0-1.33-.759-2.13-2.276-2.39v-0.07a2.385,2.385,0,0,0,1.446-.74,2.2,2.2,0,0,0,.5-1.47,2.1,2.1,0,0,0-.889-1.88,5.289,5.289,0,0,0-2.878-.6H41.758v10Zm1.162-8.99h1.709a3.746,3.746,0,0,1,1.914.37,1.321,1.321,0,0,1,.6,1.22,1.491,1.491,0,0,1-.54,1.3,3.1,3.1,0,0,1-1.77.38H42.92v-3.27Zm1.989,4.26a3.276,3.276,0,0,1,1.9.44,1.537,1.537,0,0,1,.626,1.36,1.728,1.728,0,0,1-.612,1.47,2.984,2.984,0,0,1-1.822.47H42.92v-3.74H44.91Zm12.469-3.84,0.492-.99a6.1,6.1,0,0,0-2.748-.58,5.041,5.041,0,0,0-2.567.63,4.174,4.174,0,0,0-1.668,1.79,6.037,6.037,0,0,0-.578,2.71,5.545,5.545,0,0,0,1.2,3.81,4.347,4.347,0,0,0,3.408,1.34,7.342,7.342,0,0,0,2.564-.39v-1.02a8.948,8.948,0,0,1-2.386.37,3.247,3.247,0,0,1-2.622-1.07,4.5,4.5,0,0,1-.919-3.03,4.414,4.414,0,0,1,.954-3,3.274,3.274,0,0,1,2.6-1.1,5.373,5.373,0,0,1,2.27.53h0Z"/>
  </g>
  <g id="Wysiwyg">
    <path id="Icon-7" data-name="Icon" class="cls-1" d="M26,4611H64a5,5,0,0,1,5,5v38a5,5,0,0,1-5,5H26a5,5,0,0,1-5-5v-38A5,5,0,0,1,26,4611Zm1,12H63a4,4,0,0,1,4,4v26a4,4,0,0,1-4,4H27a4,4,0,0,1-4-4v-26A4,4,0,0,1,27,4623Zm-2-10h4a2,2,0,0,1,2,2v4a2,2,0,0,1-2,2H25a2,2,0,0,1-2-2v-4A2,2,0,0,1,25,4613Zm10,0h4a2,2,0,0,1,2,2v4a2,2,0,0,1-2,2H35a2,2,0,0,1-2-2v-4A2,2,0,0,1,35,4613Zm10,0h4a2,2,0,0,1,2,2v4a2,2,0,0,1-2,2H45a2,2,0,0,1-2-2v-4A2,2,0,0,1,45,4613Z"/>
    <path id="Bold" class="cls-4" d="M29,4619l-1,1H25v-6h3l1,1v1l-1,1,1,1v1Zm-1-1-2-1,2-1v-1H26v4h2v-1Z"/>
    <path id="Italic" class="cls-4" d="M36,4620l1-6h1l-1,6H36Zm-1-1h3v1H35v-1Zm1-5h3v1H36v-1Z"/>
    <path id="Underline" class="cls-4" d="M45,4614v5l1,1h2l1-1v-5H48v4l-1,1-1-1v-4H45Z"/>
    <rect id="Text-4" data-name="Text" class="cls-3" x="27" y="4626" width="2" height="12"/>
    <rect id="Scroll" class="cls-6" x="60" y="4623" width="7" height="34" rx="4" ry="4"/>
    <path id="Arrow_Up" data-name="Arrow Up" class="cls-1" d="M62,4628l1.5-2,1.5,2H64.25l-0.75-1-0.75,1H62Z"/>
    <path id="Arrow_Down" data-name="Arrow Down" class="cls-1" d="M62,4652l1.5,2,1.5-2H64.25l-0.75,1-0.75-1H62Z"/>
  </g>
  <g id="Textarea">
    <path id="Icon-8" data-name="Icon" class="cls-1" d="M26,4521H64a5,5,0,0,1,5,5v38a5,5,0,0,1-5,5H26a5,5,0,0,1-5-5v-38A5,5,0,0,1,26,4521Zm1,2H63a4,4,0,0,1,4,4v36a4,4,0,0,1-4,4H27a4,4,0,0,1-4-4v-36A4,4,0,0,1,27,4523Z"/>
    <rect id="Text-5" data-name="Text" class="cls-3" x="27" y="4526" width="2" height="12"/>
    <rect id="Scroll-2" data-name="Scroll" class="cls-6" x="60" y="4523" width="7" height="44" rx="4" ry="4"/>
    <path id="Arrow_Up-2" data-name="Arrow Up" class="cls-1" d="M62,4528l1.5-2,1.5,2H64.25l-0.75-1-0.75,1H62Z"/>
    <path id="Arrow_Down-2" data-name="Arrow Down" class="cls-1" d="M62,4562l1.5,2,1.5-2H64.25l-0.75,1-0.75-1H62Z"/>
  </g>
  <g id="Multi_Checkbox" data-name="Multi Checkbox">
    <path id="Icon-9" data-name="Icon" class="cls-1" d="M39,4457H51a5,5,0,0,1,5,5v12a5,5,0,0,1-5,5H39a5,5,0,0,1-5-5v-12A5,5,0,0,1,39,4457Zm1,2H50a4,4,0,0,1,4,4v10a4,4,0,0,1-4,4H40a4,4,0,0,1-4-4v-10A4,4,0,0,1,40,4459Z"/>
    <path id="Icon_Check" data-name="Icon Check" class="cls-1" d="M52.28,4433.72A3.983,3.983,0,0,0,50,4433H40a4,4,0,0,0-4,4v10a4,4,0,0,0,4,4H50a4,4,0,0,0,4-4v-4.6l2-1.6v7.2a5,5,0,0,1-5,5H39a5,5,0,0,1-5-5v-12a5,5,0,0,1,5-5H51a5,5,0,0,1,2.988,1.01Z"/>
    <path id="Check" class="cls-1" d="M37,4440l8,7,16-13-3-3-13,11-4-4Z"/>
  </g>
  <g id="Radiobutton">
    <path id="Icon-10" data-name="Icon" class="cls-1" d="M32,4376a11,11,0,1,1,11-11A11,11,0,0,1,32,4376Zm0-20a9,9,0,1,0,9,9A9,9,0,0,0,32,4356Z"/>
    <path id="Icon_Check-2" data-name="Icon Check" class="cls-1" d="M59,4376a11,11,0,1,1,11-11A11,11,0,0,1,59,4376Zm0-20a9,9,0,1,0,9,9A9,9,0,0,0,59,4356Zm0,13a4,4,0,1,1,4-4A4,4,0,0,1,59,4369Z"/>
  </g>
  <g id="Checkbox">
    <path id="Icon-11" data-name="Icon" class="cls-1" d="M52.28,4266.72A3.983,3.983,0,0,0,50,4266H40a4,4,0,0,0-4,4v10a4,4,0,0,0,4,4H50a4,4,0,0,0,4-4v-4.6l2-1.6v7.2a5,5,0,0,1-5,5H39a5,5,0,0,1-5-5v-12a5,5,0,0,1,5-5H51a5,5,0,0,1,2.988,1.01Z"/>
    <path id="Check-2" data-name="Check" class="cls-1" d="M37,4273l8,7,16-13-3-3-13,11-4-4Z"/>
  </g>
  <g id="Select">
    <path id="Icon-12" data-name="Icon" class="cls-1" d="M26,4174H64a5,5,0,0,1,5,5v12a5,5,0,0,1-5,5H26a5,5,0,0,1-5-5v-12A5,5,0,0,1,26,4174Zm1,2H63a4,4,0,0,1,4,4v10a4,4,0,0,1-4,4H27a4,4,0,0,1-4-4v-10A4,4,0,0,1,27,4176Z"/>
    <rect id="Button-2" data-name="Button" class="cls-6" x="49" y="4176" width="18" height="18" rx="4" ry="4"/>
    <path id="Arrow-2" data-name="Arrow" class="cls-1" d="M54,4183l4,4,4-4h2l-6,6-6-6h2Z"/>
  </g>
  <g id="Hidden">
    <path id="Icon-13" data-name="Icon" class="cls-1" d="M65,4105.9v-2.45a4,4,0,0,0,2-3.45v-10a4,4,0,0,0-4-4H27a4,4,0,0,0-4,4v10a4,4,0,0,0,4,4h4v2H26a5,5,0,0,1-5-5v-12a5,5,0,0,1,5-5H64a5,5,0,0,1,5,5v12A5,5,0,0,1,65,4105.9Z"/>
    <rect id="Text-6" data-name="Text" class="cls-3" x="27" y="4089" width="2" height="12"/>
    <path id="Eye" class="cls-1" d="M58.385,4113.83L38.769,4094l-1.154,1.17L57.231,4115ZM48,4101l3.462,3.5A3.483,3.483,0,0,0,48,4101Zm0-1.17a4.642,4.642,0,0,1,4.615,4.67,4.776,4.776,0,0,1-.118,1.05l4.635,4.68A16.876,16.876,0,0,0,63,4104.5a17.381,17.381,0,0,0-15-8.17,18.6,18.6,0,0,0-4.164.46l3.129,3.16A5.031,5.031,0,0,1,48,4099.83Zm0,8.17h0.07l-3.53-3.57c0,0.02,0,.05,0,0.07A3.483,3.483,0,0,0,48,4108Zm0,1.17a4.642,4.642,0,0,1-4.615-4.67,4.794,4.794,0,0,1,.132-1.11l-4.6-4.65A16.949,16.949,0,0,0,33,4104.5a17.381,17.381,0,0,0,15,8.17,19.061,19.061,0,0,0,4.223-.47l-3.129-3.17A4.4,4.4,0,0,1,48,4109.17Z"/>
  </g>
  <g id="Input_Password" data-name="Input Password">
    <path id="Icon-14" data-name="Icon" class="cls-1" d="M64,4016H62v-2h1a4,4,0,0,0,4-4v-10a4,4,0,0,0-4-4H27a4,4,0,0,0-4,4v10a4,4,0,0,0,4,4H56v2H26a5,5,0,0,1-5-5v-12a5,5,0,0,1,5-5H64a5,5,0,0,1,5,5v12A5,5,0,0,1,64,4016Z"/>
    <path id="Text-7" data-name="Text" class="cls-1" d="M30,4002l0.989,1.89,2.011,0.4-1.4,1.57,0.254,2.14L30,4007.09l-1.854.91,0.254-2.14-1.4-1.57,2.011-.4L30,4002m8,0,0.989,1.89,2.011,0.4-1.4,1.57,0.254,2.14L38,4007.09l-1.854.91,0.254-2.14-1.4-1.57,2.011-.4L38,4002m8,0,0.989,1.89,2.011,0.4-1.4,1.57,0.254,2.14L46,4007.09l-1.854.91,0.254-2.14-1.4-1.57,2.011-.4L46,4002"/>
    <path id="Cursor-3" data-name="Cursor" class="cls-1" d="M64,4007H60v16h4a1,1,0,0,1,0,2H54a1,1,0,0,1,0-2h4v-16H54a1,1,0,0,1,0-2H64A1,1,0,0,1,64,4007Z"/>
  </g>
  <g id="Input-3" data-name="Input">
    <path id="Icon-15" data-name="Icon" class="cls-1" d="M64,3926H62v-2h1a4,4,0,0,0,4-4v-10a4,4,0,0,0-4-4H27a4,4,0,0,0-4,4v10a4,4,0,0,0,4,4H56v2H26a5,5,0,0,1-5-5v-12a5,5,0,0,1,5-5H64a5,5,0,0,1,5,5v12A5,5,0,0,1,64,3926Z"/>
    <rect id="Text-8" data-name="Text" class="cls-3" x="27" y="3909" width="2" height="12"/>
    <path id="Cursor-4" data-name="Cursor" class="cls-1" d="M64,3917H60v16h4a1,1,0,0,1,0,2H54a1,1,0,0,1,0-2h4v-16H54a1,1,0,0,1,0-2H64A1,1,0,0,1,64,3917Z"/>
  </g>
  <g id="Button-3" data-name="Button">
    <path id="Icon-16" data-name="Icon" class="cls-1" d="M66.364,3835.41L52,3822H51v14H26a5,5,0,0,1-5-5v-12a5,5,0,0,1,5-5H64a5,5,0,0,1,5,5v12A5.008,5.008,0,0,1,66.364,3835.41Z"/>
    <path id="Cursor-5" data-name="Cursor" class="cls-1" d="M53,3825v21.28l4.617-4.3L61.6,3849l4.856-2.49-3.582-6.34H69Z"/>
  </g>
  <g id="Breadcrumbs">
    <path id="Icon-17" data-name="Icon" class="cls-1" d="M68.811,3732.9l-2.836,2.83-18.889-18.91a3,3,0,0,0-4.243,0l-18.988,18.97-2.862-2.87L41.4,3712.53a5,5,0,0,1,7.071.01l6.53,6.53V3712a1,1,0,0,1,1-1h6a1,1,0,0,1,1,1v15.08Zm-21.689-12.51L63,3736.27V3756a3,3,0,0,1-3,3H30a3,3,0,0,1-3-3v-19.73l15.879-15.88A3,3,0,0,1,47.122,3720.39ZM39,3759H51v-18H39v18Z"/>
  </g>
  <g id="RSS">
    <path id="Icon-18" data-name="Icon" class="cls-1" d="M52.729,3669H43.78A22.781,22.781,0,0,0,21,3646.22v-8.95A31.732,31.732,0,0,1,52.729,3669ZM21,3662.49a6.508,6.508,0,1,1,6.509,6.51A6.513,6.513,0,0,1,21,3662.49ZM69,3669H60.051A39.048,39.048,0,0,0,21,3629.95V3621h0a48,48,0,0,1,48,48h0Z"/>
  </g>
  <g id="D3">
    <path id="icon-19" data-name="icon" class="cls-1" d="M21,3532.01a43.916,43.916,0,0,1,8.6.46,22.926,22.926,0,0,1,17.6,17.65,24.267,24.267,0,0,1-.056,10.27,23.858,23.858,0,0,1-2.5,6.19,23.226,23.226,0,0,1-16.106,11.09A48.834,48.834,0,0,1,21,3578v-10a43.322,43.322,0,0,0,6.071-.29,12.981,12.981,0,0,0,10.681-12.2c0.072-4.58-1.508-7.02-2.417-8.12-3.752-4.53-6.517-5.73-14.335-5.39v-9.99ZM51,3550c3.853,0.06,6.618.47,7.721-2.72a4.033,4.033,0,0,0,0-2.72c-1.769-3.44-3.758-2.18-10.4-2.44a24.126,24.126,0,0,0-6.971-8.35c-0.824-.57-1.649-1.13-2.473-1.7v-0.06H51.02c2.778,0,5.721-.13,7.87.51,6.517,1.95,12.288,9.15,9.149,18.56a15.108,15.108,0,0,1-2.291,3.86c0.075,0.08.15,0.15,0.225,0.23l1.124,1.65a15.375,15.375,0,0,1,1.574,4.08,14.166,14.166,0,0,1-9.95,16.49c-2.037.61-4.86,0.57-7.477,0.58-4.085.01-8.16,0.03-12.245,0.03,0.038-.06.064-0.24,0.1-0.3,2.4-1.13,6.265-5.24,7.758-7.38l1.574-2.55c6.451-.24,8.453,1.01,10.288-2.44a3.838,3.838,0,0,0,0-2.73c-1.219-3.12-3.536-2.6-7.721-2.6a27.147,27.147,0,0,0,.617-4.82A36.842,36.842,0,0,0,51,3550Z"/>
  </g>
  <g id="Language_Swicther" data-name="Language Swicther">
    <path id="Icon-20" data-name="Icon" class="cls-1" d="M68.767,3468.17c-0.063.47-.125,0.95-0.215,1.41-0.068.35-.156,0.69-0.239,1.03-0.091.38-.181,0.76-0.289,1.13s-0.24.76-.371,1.13c-0.108.31-.217,0.62-0.337,0.92q-0.241.615-.515,1.2c-0.114.25-.233,0.5-0.355,0.74-0.214.43-.436,0.85-0.674,1.26-0.108.18-.223,0.37-0.336,0.55-0.273.44-.553,0.88-0.854,1.31-0.083.11-.172,0.22-0.256,0.34-0.346.47-.7,0.93-1.08,1.38h0c-0.417.49-.841,0.97-1.3,1.42h0a24.118,24.118,0,0,1-7.621,5.13c-0.065.03-.134,0.04-0.2,0.07-0.655.27-1.32,0.52-2,.73-0.179.06-.367,0.09-0.547,0.14-0.577.17-1.155,0.33-1.75,0.45-0.357.08-.727,0.11-1.09,0.17-0.43.07-.854,0.15-1.291,0.2Q46.242,3489,45,3489t-2.452-.12c-0.437-.05-0.861-0.13-1.291-0.2-0.363-.06-0.732-0.09-1.09-0.17-0.594-.12-1.172-0.28-1.75-0.45-0.18-.05-0.368-0.08-0.547-0.14-0.682-.21-1.348-0.46-2-0.73-0.065-.03-0.134-0.04-0.2-0.07a24.118,24.118,0,0,1-7.621-5.13h0c-0.454-.45-0.879-0.93-1.3-1.42h0c-0.379-.45-0.733-0.91-1.08-1.38-0.085-.12-0.174-0.23-0.256-0.34-0.3-.43-0.58-0.87-0.854-1.31-0.113-.18-0.228-0.37-0.336-0.55-0.238-.41-0.46-0.83-0.674-1.26-0.122-.24-0.241-0.49-0.355-0.74q-0.273-.585-0.515-1.2c-0.12-.3-0.23-0.61-0.337-0.92-0.131-.37-0.259-0.75-0.371-1.13s-0.2-.75-0.289-1.13c-0.083-.34-0.171-0.68-0.239-1.03-0.09-.46-0.152-0.94-0.215-1.41-0.037-.28-0.088-0.56-0.116-0.84-0.074-.77-0.118-1.54-0.118-2.33s0.044-1.56.118-2.33c0.027-.28.078-0.56,0.116-0.84,0.063-.47.125-0.95,0.215-1.41,0.068-.35.156-0.69,0.239-1.03,0.091-.38.181-0.76,0.289-1.13s0.24-.76.371-1.13c0.107-.31.217-0.62,0.337-0.92q0.241-.615.515-1.2c0.114-.25.233-0.5,0.355-0.74,0.214-.43.436-0.85,0.674-1.26,0.108-.18.223-0.36,0.336-0.55,0.274-.44.553-0.88,0.854-1.31,0.083-.11.172-0.22,0.256-0.34,0.346-.47.7-0.93,1.08-1.38h0c0.417-.49.841-0.97,1.3-1.42h0a24.118,24.118,0,0,1,7.621-5.13c0.065-.03.134-0.04,0.2-0.07,0.655-.27,1.32-0.52,2-0.73,0.179-.06.367-0.09,0.547-0.14,0.577-.17,1.155-0.33,1.75-0.45,0.357-.08.727-0.11,1.09-0.17,0.43-.07.854-0.15,1.291-0.2Q43.758,3441,45,3441t2.452,0.12c0.437,0.05.861,0.13,1.291,0.2,0.363,0.06.732,0.09,1.09,0.17,0.594,0.12,1.172.28,1.75,0.45,0.18,0.05.368,0.08,0.547,0.14,0.682,0.21,1.348.46,2,.73,0.065,0.03.134,0.04,0.2,0.07a24.118,24.118,0,0,1,7.621,5.13h0c0.454,0.45.879,0.93,1.3,1.42h0c0.379,0.45.733,0.91,1.08,1.38,0.085,0.12.174,0.23,0.256,0.34,0.3,0.43.581,0.87,0.854,1.31,0.113,0.19.228,0.37,0.336,0.55,0.238,0.41.46,0.83,0.674,1.26,0.122,0.24.241,0.49,0.355,0.74q0.273,0.585.515,1.2c0.12,0.3.23,0.61,0.337,0.92,0.131,0.37.259,0.75,0.371,1.13s0.2,0.75.289,1.13c0.083,0.34.171,0.68,0.239,1.03,0.09,0.46.152,0.94,0.215,1.41,0.037,0.28.088,0.56,0.116,0.84,0.074,0.77.118,1.54,0.118,2.33s-0.044,1.56-.118,2.33C68.855,3467.61,68.8,3467.89,68.767,3468.17ZM38.8,3486.1a20.514,20.514,0,0,1-4.2-6.79,28.051,28.051,0,0,0-4.666,1.69A21.974,21.974,0,0,0,38.8,3486.1Zm-10.258-6.54a28.773,28.773,0,0,1,5.371-2.08A39.674,39.674,0,0,1,32.019,3466H23.042A21.905,21.905,0,0,0,28.542,3479.56Zm-5.5-15.56h8.977a39.732,39.732,0,0,1,1.893-11.48,28.773,28.773,0,0,1-5.37-2.08A21.905,21.905,0,0,0,23.042,3464Zm6.889-15a28.051,28.051,0,0,0,4.666,1.69,20.514,20.514,0,0,1,4.2-6.79A21.974,21.974,0,0,0,29.931,3449ZM44,3443.1c-3.036.55-5.712,3.57-7.528,8.04a41.328,41.328,0,0,0,7.528.83v-8.87Zm0,10.87a41.61,41.61,0,0,1-8.2-.96,38.584,38.584,0,0,0-1.77,10.99H44v-10.03ZM44,3466H34.025a38.584,38.584,0,0,0,1.77,10.99,41.61,41.61,0,0,1,8.2-.96V3466Zm0,12.03a41.328,41.328,0,0,0-7.528.83c1.816,4.47,4.492,7.49,7.528,8.04v-8.87ZM66.958,3466H57.981a39.674,39.674,0,0,1-1.893,11.48,28.773,28.773,0,0,1,5.371,2.08A21.905,21.905,0,0,0,66.958,3466Zm-6.889,15a28.051,28.051,0,0,0-4.666-1.69,20.514,20.514,0,0,1-4.2,6.79A21.974,21.974,0,0,0,60.069,3481ZM46,3486.9c3.036-.55,5.712-3.57,7.528-8.04a41.328,41.328,0,0,0-7.528-.83v8.87Zm0-10.87a41.61,41.61,0,0,1,8.2.96,38.584,38.584,0,0,0,1.77-10.99H46v10.03ZM46,3464h9.975a38.584,38.584,0,0,0-1.77-10.99,41.61,41.61,0,0,1-8.2.96V3464Zm0-12.03a41.328,41.328,0,0,0,7.528-.83c-1.816-4.47-4.492-7.49-7.528-8.04v8.87Zm5.2-8.07a20.514,20.514,0,0,1,4.2,6.79,28.051,28.051,0,0,0,4.666-1.69A21.974,21.974,0,0,0,51.2,3443.9Zm10.258,6.54a28.773,28.773,0,0,1-5.37,2.08A39.732,39.732,0,0,1,57.981,3464h8.977A21.905,21.905,0,0,0,61.459,3450.44Z"/>
  </g>
  <g id="Flickr">
    <path id="Icon-21" data-name="Icon" class="cls-1" d="M33,3363a12,12,0,1,1-12,12A12,12,0,0,1,33,3363Zm24,0a12,12,0,1,1-12,12A12,12,0,0,1,57,3363Zm0,3a9,9,0,1,1-9,9A9,9,0,0,1,57,3366Z"/>
  </g>
  <g id="Events_Widget" data-name="Events Widget">
    <path id="Border-3" data-name="Border" class="cls-1" d="M63.818,3309H61v-2h2a4,4,0,0,0,4-4v-2h2v2.86A5.16,5.16,0,0,1,63.818,3309ZM67,3295h2v4H67v-4Zm0-6h2v4H67v-4Zm0-6h2v4H67v-4Zm0-6h2v4H67v-4Zm0-6h2v4H67v-4Zm0-4a4,4,0,0,0-4-4H61v-2h2.818A5.16,5.16,0,0,1,69,3266.14V3269H67v-2Zm-8-6h0v2H55v-2h4Zm0,48H55v-2h4v2Zm-6-46H49v-2h4v2Zm0,46H49v-2h4v2Zm-6-46H43v-2h4v2Zm-10,44h4v2H37v-2Zm0-46h4v2H37v-2Zm-6,46h4v2H31v-2Zm0-46h4v2H31v-2Zm-10,42.86V3301h2v2a4,4,0,0,0,4,4h2v2H26.182A5.16,5.16,0,0,1,21,3303.86ZM23,3267v2H21v-2.86a5.16,5.16,0,0,1,5.182-5.14H29v2H27A4,4,0,0,0,23,3267Zm-2,4h2v4H21v-4h0Zm2,10H21v-4h2v4Zm0,6H21v-4h2v4Zm0,6H21v-4h2v4Zm-2,2h2v4H21v-4h0Zm26,14H43v-2h4v2Z"/>
    <g id="Clock-2" data-name="Clock">
      <path id="Lines-2" data-name="Lines" class="cls-4" d="M44.25,3296.25h1.5v3h-1.5v-3Zm0-25.5h1.5v3h-1.5v-3Zm-13.5,13.5h3v1.5h-3v-1.5Zm25.5,0h3v1.5h-3v-1.5Zm-19.731,8.18,1.061,1.06-2.12,2.12-1.061-1.06Zm18.021-18.04,1.061,1.06-2.12,2.12-1.061-1.06Zm-19.1.01,2.122,2.12-1.061,1.07-2.122-2.12ZM53.5,3292.41l2.122,2.12-1.061,1.07-2.122-2.12Z"/>
      <path id="Border-4" data-name="Border" class="cls-1" d="M45,3303a18,18,0,1,1,18-18A18,18,0,0,1,45,3303Zm0-33a15,15,0,1,0,15,15A15,15,0,0,0,45,3270Zm2.889,14.23a2.989,2.989,0,0,1-5.705,1.77H33a1,1,0,0,1,0-2h9.184A3,3,0,0,1,45,3282a3.233,3.233,0,0,1,.768.11l4.35-4.35a1.5,1.5,0,1,1,2.123,2.12Z"/>
    </g>
  </g>
  <g id="Events_Calendar" data-name="Events Calendar">
    <g id="Calendar">
      <path id="Border-5" data-name="Border" class="cls-1" d="M67,3185a4,4,0,0,0-4-4H27a4,4,0,0,0-4,4v28a4,4,0,0,0,4,4H47.211a14.021,14.021,0,0,0,2.6,2H26a5,5,0,0,1-5-5v-38a5,5,0,0,1,5-5h2v6a2,2,0,0,0,4,0v-6h6v6a2,2,0,0,0,4,0v-6h6v6a2,2,0,0,0,4,0v-6h6v6a2,2,0,0,0,4,0v-6h2a5,5,0,0,1,5,5v23.82a13.818,13.818,0,0,0-2-2.61V3185Zm-7-7a1,1,0,0,1-1-1v-7a1,1,0,0,1,2,0v7A1,1,0,0,1,60,3178Zm-10,0a1,1,0,0,1-1-1v-7a1,1,0,0,1,2,0v7A1,1,0,0,1,50,3178Zm-10,0a1,1,0,0,1-1-1v-7a1,1,0,0,1,2,0v7A1,1,0,0,1,40,3178Zm-10,0a1,1,0,0,1-1-1v-7a1,1,0,0,1,2,0v7A1,1,0,0,1,30,3178Z"/>
      <path id="Days" class="cls-1" d="M64,3193H62a1,1,0,0,1-1-1v-1a1,1,0,0,1,1-1h2a1,1,0,0,1,1,1v1A1,1,0,0,1,64,3193Zm0-5H62a1,1,0,0,1-1-1v-1a1,1,0,0,1,1-1h2a1,1,0,0,1,1,1v1A1,1,0,0,1,64,3188Zm-6,5H56a1,1,0,0,1-1-1v-1a1,1,0,0,1,1-1h2a1,1,0,0,1,1,1v1A1,1,0,0,1,58,3193Zm-6,0H50a1,1,0,0,1-1-1v-1a1,1,0,0,1,1-1h2a1,1,0,0,1,1,1v1A1,1,0,0,1,52,3193Zm-5.653,4.93A1,1,0,0,1,46,3198H44a1,1,0,0,1-1-1v-1a1,1,0,0,1,1-1h2a1,1,0,0,1,1,1v1a0.946,0.946,0,0,1-.055.27Q46.636,3197.585,46.347,3197.93ZM46,3193H44a1,1,0,0,1-1-1v-1a1,1,0,0,1,1-1h2a1,1,0,0,1,1,1v1A1,1,0,0,1,46,3193Zm-6,15H38a1,1,0,0,1-1-1v-1a1,1,0,0,1,1-1h2a1,1,0,0,1,1,1v1A1,1,0,0,1,40,3208Zm0-5H38a1,1,0,0,1-1-1v-1a1,1,0,0,1,1-1h2a1,1,0,0,1,1,1v1A1,1,0,0,1,40,3203Zm0-5H38a1,1,0,0,1-1-1v-1a1,1,0,0,1,1-1h2a1,1,0,0,1,1,1v1A1,1,0,0,1,40,3198Zm0-5H38a1,1,0,0,1-1-1v-1a1,1,0,0,1,1-1h2a1,1,0,0,1,1,1v1A1,1,0,0,1,40,3193Zm-6,20H32a1,1,0,0,1-1-1v-1a1,1,0,0,1,1-1h2a1,1,0,0,1,1,1v1A1,1,0,0,1,34,3213Zm0-5H32a1,1,0,0,1-1-1v-1a1,1,0,0,1,1-1h2a1,1,0,0,1,1,1v1A1,1,0,0,1,34,3208Zm0-5H32a1,1,0,0,1-1-1v-1a1,1,0,0,1,1-1h2a1,1,0,0,1,1,1v1A1,1,0,0,1,34,3203Zm0-5H32a1,1,0,0,1-1-1v-1a1,1,0,0,1,1-1h2a1,1,0,0,1,1,1v1A1,1,0,0,1,34,3198Zm0-5H32a1,1,0,0,1-1-1v-1a1,1,0,0,1,1-1h2a1,1,0,0,1,1,1v1A1,1,0,0,1,34,3193Zm-6,20H26a1,1,0,0,1-1-1v-1a1,1,0,0,1,1-1h2a1,1,0,0,1,1,1v1A1,1,0,0,1,28,3213Zm0-5H26a1,1,0,0,1-1-1v-1a1,1,0,0,1,1-1h2a1,1,0,0,1,1,1v1A1,1,0,0,1,28,3208Zm0-5H26a1,1,0,0,1-1-1v-1a1,1,0,0,1,1-1h2a1,1,0,0,1,1,1v1A1,1,0,0,1,28,3203Zm0-5H26a1,1,0,0,1-1-1v-1a1,1,0,0,1,1-1h2a1,1,0,0,1,1,1v1A1,1,0,0,1,28,3198Zm0-5H26a1,1,0,0,1-1-1v-1a1,1,0,0,1,1-1h2a1,1,0,0,1,1,1v1A1,1,0,0,1,28,3193Zm16,7h0.888a13.8,13.8,0,0,0-1.28,2.92A1,1,0,0,1,43,3202v-1A1,1,0,0,1,44,3200Zm-1,7v-1a0.931,0.931,0,0,1,.067-0.33C43.026,3206.11,43,3206.55,43,3207Zm21.736-11.66c-0.15-.1-0.307-0.19-0.461-0.28A0.928,0.928,0,0,1,64.736,3195.34Zm-15.011-.28c-0.154.09-.311,0.18-0.461,0.28A0.927,0.927,0,0,1,49.725,3195.06Z"/>
      <path id="Offdays" class="cls-4" d="M58,3188H56a1,1,0,0,1-1-1v-1a1,1,0,0,1,1-1h2a1,1,0,0,1,1,1v1A1,1,0,0,1,58,3188Zm-6,0H50a1,1,0,0,1-1-1v-1a1,1,0,0,1,1-1h2a1,1,0,0,1,1,1v1A1,1,0,0,1,52,3188Zm-6,0H44a1,1,0,0,1-1-1v-1a1,1,0,0,1,1-1h2a1,1,0,0,1,1,1v1A1,1,0,0,1,46,3188Zm-6,25H38a1,1,0,0,1-1-1v-1a1,1,0,0,1,1-1h2a1,1,0,0,1,1,1v1A1,1,0,0,1,40,3213Zm0-25H38a1,1,0,0,1-1-1v-1a1,1,0,0,1,1-1h2a1,1,0,0,1,1,1v1A1,1,0,0,1,40,3188Zm-6,0H32a1,1,0,0,1-1-1v-1a1,1,0,0,1,1-1h2a1,1,0,0,1,1,1v1A1,1,0,0,1,34,3188Zm-6,0H26a1,1,0,0,1-1-1v-1a1,1,0,0,1,1-1h2a1,1,0,0,1,1,1v1A1,1,0,0,1,28,3188Zm15.389,22.23a13.839,13.839,0,0,0,.976,2.77H44a1,1,0,0,1-1-1v-1A0.971,0.971,0,0,1,43.389,3210.23Z"/>
    </g>
    <g id="Clock-3" data-name="Clock">
      <path id="Lines-3" data-name="Lines" class="cls-4" d="M56.5,3214.5h1v2h-1v-2Zm0-17h1v2h-1v-2Zm-9,9h2v1h-2v-1Zm17,0h2v1h-2v-1Zm-13.154,5.45,0.708,0.71-1.413,1.41-0.707-.7Zm12.014-12.02,0.707,0.7-1.413,1.42-0.708-.71Zm-12.731.01,1.415,1.41-0.708.71-1.415-1.42Zm12.034,12,1.415,1.42-0.708.7-1.415-1.41Z"/>
      <path id="Border-6" data-name="Border" class="cls-1" d="M57,3219a12,12,0,1,1,12-12A12,12,0,0,1,57,3219Zm0-22a10,10,0,1,0,10,10A10,10,0,0,0,57,3197Zm1.926,9.49A1.936,1.936,0,0,1,59,3207a2,2,0,0,1-2,2,1.982,1.982,0,0,1-1.723-1H49.5a1,1,0,0,1,0-2h5.777A1.982,1.982,0,0,1,57,3205a2.154,2.154,0,0,1,.512.07l2.9-2.9a1,1,0,0,1,1.415,1.41Z"/>
    </g>
  </g>
  <g id="Events">
    <g id="Clock-4" data-name="Clock">
      <path id="Lines-4" data-name="Lines" class="cls-4" d="M44,3120h2v4H44v-4Zm0-34h2v4H44v-4Zm-18,18h4v2H26v-2Zm34,0h4v2H60v-2Zm-26.308,10.91,1.415,1.41-2.827,2.83-1.415-1.41Zm24.029-24.06,1.415,1.41-2.827,2.83-1.415-1.41Zm-25.461.02,2.829,2.83-1.415,1.41-2.829-2.82Zm24.068,24.02,2.829,2.82-1.415,1.42-2.829-2.83Z"/>
      <path id="Border-7" data-name="Border" class="cls-1" d="M45,3129a24,24,0,1,1,24-24A24,24,0,0,1,45,3129Zm0-44a20,20,0,1,0,20,20A20,20,0,0,0,45,3085Zm3.852,18.98A3.937,3.937,0,0,1,49,3105a3.988,3.988,0,0,1-7.445,2H30a2,2,0,0,1,0-4H41.555A3.984,3.984,0,0,1,45,3101a3.858,3.858,0,0,1,1.025.15l5.8-5.81a2,2,0,0,1,2.83,2.83Z"/>
    </g>
    <path id="Fire" class="cls-1" d="M80,3091c-2.651.53-7.024,0.72-7,4,0.027,3.8,5.167,2.25,6,2,1.789-.54,3.623-2.44,4.967-4.12A21.916,21.916,0,0,1,83,3096c-2.169,5.41-8.311,12.8-13.963,18.9A25.99,25.99,0,0,0,45,3079c-0.474,0-.936.05-1.4,0.07A64.531,64.531,0,0,1,53,3076a46.3,46.3,0,0,1,9.5-.29A5.127,5.127,0,0,0,60,3078c-0.876,2.73,1.459,3.45,4,2,2.3-1.31,2.491-2.86,2.141-4.06A23.507,23.507,0,0,0,71,3076c7.138-1.24,12-9,12-9s0.016,0.07.04,0.18c-0.23,3.28-1.03,8.38-3.04,11.82-2.833,4.84-9,7-9,7s7.106,2.68,13-6a4.363,4.363,0,0,0,.633-1.7c0.146,1.83.24,3.77,0.233,5.72C84.553,3086.46,83.5,3090.3,80,3091Z"/>
  </g>
  <g id="WebEX">
    <path id="Border-8" data-name="Border" class="cls-1" d="M47.1,3038.91a24,24,0,1,1,21.806-26.01A24,24,0,0,1,47.1,3038.91Zm5.837-43.35a21,21,0,1,0,11.5,27.38A20.992,20.992,0,0,0,52.939,2995.56Z"/>
    <path id="Icon-22" data-name="Icon" class="cls-1" d="M47.1,3038.91a24,24,0,1,1,21.806-26.01A24,24,0,0,1,47.1,3038.91Zm5.42-44.97c-5.742-3.31-20.164-3.06-27.448,9.57-7.3,12.66-.268,25.24,5.473,28.55s15.315-2.54,21.384-13.06S58.264,2997.25,52.522,2993.94Z"/>
  </g>
  <g id="File_Grid_List_Widget" data-name="File Grid List Widget">
    <path id="Border-9" data-name="Border" class="cls-1" d="M63.818,2949H61v-2h2a4,4,0,0,0,4-4v-2h2v2.86A5.16,5.16,0,0,1,63.818,2949ZM67,2935h2v4H67v-4Zm0-6h2v4H67v-4Zm0-6h2v4H67v-4Zm0-6h2v4H67v-4Zm0-6h2v4H67v-4Zm0-4a4,4,0,0,0-4-4H61v-2h2.818A5.16,5.16,0,0,1,69,2906.14V2909H67v-2Zm-8-6h0v2H55v-2h4Zm0,48H55v-2h4v2Zm-6-46H49v-2h4v2Zm0,46H49v-2h4v2Zm-6-46H43v-2h4v2Zm-10,44h4v2H37v-2Zm0-46h4v2H37v-2Zm-6,46h4v2H31v-2Zm0-46h4v2H31v-2Zm-10,42.86V2941h2v2a4,4,0,0,0,4,4h2v2H26.182A5.16,5.16,0,0,1,21,2943.86ZM23,2907v2H21v-2.86a5.16,5.16,0,0,1,5.182-5.14H29v2H27A4,4,0,0,0,23,2907Zm-2,4h2v4H21v-4h0Zm2,10H21v-4h2v4Zm0,6H21v-4h2v4Zm0,6H21v-4h2v4Zm-2,2h2v4H21v-4h0Zm26,14H43v-2h4v2Z"/>
    <path id="Icon-23" data-name="Icon" class="cls-1" d="M51,2941l10-10v10H51Zm-16.818,0A5.16,5.16,0,0,1,29,2935.86v-21.72a5.16,5.16,0,0,1,5.182-5.14H55.818A5.16,5.16,0,0,1,61,2914.14V2927l-14,14H34.182ZM59,2914a3,3,0,0,0-3-3H34a3,3,0,0,0-3,3v22a3,3,0,0,0,3,3H45l14-14v-11Z"/>
  </g>
  <g id="File_Grid_List" data-name="File Grid List">
    <path id="Icon-24" data-name="Icon" class="cls-1" d="M54,2859l10-10v10H54Zm-22.818,0A5.16,5.16,0,0,1,26,2853.86v-37.72a5.16,5.16,0,0,1,5.182-5.14H58.818A5.16,5.16,0,0,1,64,2816.14V2845l-14,14H31.182ZM62,2816a3,3,0,0,0-3-3H31a3,3,0,0,0-3,3v38a3,3,0,0,0,3,3H48l14-14v-27Z"/>
  </g>
  <g id="Member_Directory_Widget" data-name="Member Directory Widget">
    <path id="Border-10" data-name="Border" class="cls-1" d="M63.818,2769H61v-2h2a4,4,0,0,0,4-4v-2h2v2.86A5.16,5.16,0,0,1,63.818,2769ZM67,2755h2v4H67v-4Zm0-6h2v4H67v-4Zm0-6h2v4H67v-4Zm0-6h2v4H67v-4Zm0-6h2v4H67v-4Zm0-4a4,4,0,0,0-4-4H61v-2h2.818A5.16,5.16,0,0,1,69,2726.14V2729H67v-2Zm-8-6h0v2H55v-2h4Zm0,48H55v-2h4v2Zm-6-46H49v-2h4v2Zm0,46H49v-2h4v2Zm-6-46H43v-2h4v2Zm-10,44h4v2H37v-2Zm0-46h4v2H37v-2Zm-6,46h4v2H31v-2Zm0-46h4v2H31v-2Zm-10,42.86V2761h2v2a4,4,0,0,0,4,4h2v2H26.182A5.16,5.16,0,0,1,21,2763.86ZM23,2727v2H21v-2.86a5.16,5.16,0,0,1,5.182-5.14H29v2H27A4,4,0,0,0,23,2727Zm-2,4h2v4H21v-4h0Zm2,10H21v-4h2v4Zm0,6H21v-4h2v4Zm0,6H21v-4h2v4Zm-2,2h2v4H21v-4h0Zm26,14H43v-2h4v2Z"/>
    <path id="Icon-25" data-name="Icon" class="cls-1" d="M60,2763H30s-0.222-14.72,2.25-18c2.085-2.77,3.741-3.02,5.25-3,1.539,0.02,2.072,1.47,3.75,2.25a9.75,9.75,0,0,0,7.5,0c1.678-.78,2.211-2.23,3.75-2.25,1.509-.02,3.165.23,5.25,3C60.222,2748.28,60,2763,60,2763Zm-15-20.25a7.884,7.884,0,1,1,7.5-7.87A7.7,7.7,0,0,1,45,2742.75Z"/>
  </g>
  <g id="Member_Directory" data-name="Member Directory">
    <path id="Icon-26" data-name="Icon" class="cls-1" d="M65,2679H25s-0.3-19.62,3-24c2.78-3.69,4.988-4.03,7-4,2.052,0.03,2.762,1.96,5,3a11.72,11.72,0,0,0,5,1,11.72,11.72,0,0,0,5-1c2.238-1.04,2.948-2.97,5-3,2.012-.03,4.22.31,7,4C65.3,2659.38,65,2679,65,2679Zm-20-27a10.513,10.513,0,0,1,0-21A10.512,10.512,0,0,1,45,2652Z"/>
  </g>
  <g id="Registration">
    <path id="Icon-27" data-name="Icon" class="cls-1" d="M60,2589H30a5,5,0,0,1-5-5v-20a5,5,0,0,1,5-5H60a5,5,0,0,1,5,5v20A5,5,0,0,1,60,2589Zm-15-23a5,5,0,0,0-2,9.58V2580a2,2,0,0,0,4,0v-4.42A5,5,0,0,0,45,2566Zm10.95-9c0.03-.33.05-0.66,0.05-1a11,11,0,0,0-22,0c0,0.34.021,0.67,0.05,1h-4c-0.022-.33-0.05-0.66-0.05-1a15,15,0,0,1,30,0c0,0.34-.029.67-0.05,1h-4Z"/>
  </g>
  <g id="Login">
    <path id="Icon-28" data-name="Icon" class="cls-1" d="M58.818,2499H31.182A5.16,5.16,0,0,1,26,2493.86V2477H24v-4h2v-16.86a5.16,5.16,0,0,1,5.182-5.14H58.818A5.16,5.16,0,0,1,64,2456.14v37.72A5.16,5.16,0,0,1,58.818,2499ZM62,2456a3,3,0,0,0-3-3H31a3,3,0,0,0-3,3v12H26v5H45l-10-10h7l12,12-12,12H35l10-10H26v5h2v12a3,3,0,0,0,3,3H59a3,3,0,0,0,3-3v-38Z"/>
  </g>
  <g id="Social">
    <path id="Twitter" class="cls-1" d="M58,2383a11,11,0,1,1,11-11A11,11,0,0,1,58,2383Zm6.613-15.8a5.977,5.977,0,0,1-1.824.68,2.916,2.916,0,0,0-2.1-.88,2.824,2.824,0,0,0-2.872,2.78,2.7,2.7,0,0,0,.074.63,8.265,8.265,0,0,1-5.92-2.9,2.7,2.7,0,0,0-.389,1.39,2.762,2.762,0,0,0,1.278,2.32,2.986,2.986,0,0,1-1.3-.35q0,0.015,0,.03a2.812,2.812,0,0,0,2.3,2.73,3.131,3.131,0,0,1-.757.09,2.418,2.418,0,0,1-.54-0.05,2.854,2.854,0,0,0,2.683,1.93,5.857,5.857,0,0,1-3.567,1.19,5.176,5.176,0,0,1-.685-0.04,8.317,8.317,0,0,0,4.4,1.25,7.975,7.975,0,0,0,8.172-7.9q0-.18-0.008-0.36A5.668,5.668,0,0,0,65,2368.3a6.031,6.031,0,0,1-1.65.44A2.794,2.794,0,0,0,64.613,2367.2Z"/>
    <path id="Google" class="cls-1" d="M45,2409a11,11,0,1,1,11-11A11,11,0,0,1,45,2409Zm-0.643-18a8.467,8.467,0,0,0-1.6.17,4.078,4.078,0,0,0-1.661.84,3.344,3.344,0,0,0-1.164,2.46,2.711,2.711,0,0,0,.821,1.96,2.88,2.88,0,0,0,2.281.93,4.289,4.289,0,0,0,.6-0.04c-0.035.1-.073,0.2-0.114,0.32a1,1,0,0,0-.071.4,1.274,1.274,0,0,0,.185.7,4.162,4.162,0,0,0,.361.56,13.328,13.328,0,0,0-1.648.16,5.837,5.837,0,0,0-1.913.68,2.73,2.73,0,0,0-1.12,1.1,2.567,2.567,0,0,0-.319,1.14,2.226,2.226,0,0,0,.98,1.8,4.632,4.632,0,0,0,2.94.82,5.51,5.51,0,0,0,3.6-1.1,3.067,3.067,0,0,0,1.2-2.37,2.646,2.646,0,0,0-.438-1.53,6.559,6.559,0,0,0-1.04-1.05l-0.636-.51a3.629,3.629,0,0,1-.284-0.31,0.683,0.683,0,0,1-.172-0.48,0.862,0.862,0,0,1,.167-0.52,2.505,2.505,0,0,1,.31-0.38c0.2-.17.38-0.33,0.553-0.5a4.859,4.859,0,0,0,.444-0.52,2.736,2.736,0,0,0,.444-1.58,3.169,3.169,0,0,0-.124-0.94,3.294,3.294,0,0,0-.344-0.7,3.169,3.169,0,0,0-.415-0.53,2.4,2.4,0,0,0-.4-0.32h1.156l1.158-.66H44.357Zm7.624,5.73v-1.97H50.827v1.97H48.856v1.13h1.971v1.93h1.154v-1.93H54v-1.13H51.981Zm-6.845-.39a1.774,1.774,0,0,1-1.233.52,1.683,1.683,0,0,1-1.041-.35,2.9,2.9,0,0,1-.744-0.86,4.294,4.294,0,0,1-.6-2.07,2.239,2.239,0,0,1,.407-1.37,1.65,1.65,0,0,1,1.267-.6,1.8,1.8,0,0,1,1.019.33,2.454,2.454,0,0,1,.7.86,4.8,4.8,0,0,1,.567,2.2,5.853,5.853,0,0,1-.041.62A1.972,1.972,0,0,1,45.136,2396.34Zm-0.625,3.48a11.313,11.313,0,0,1,1.54,1.21,1.815,1.815,0,0,1-.215,2.63,3.252,3.252,0,0,1-2.023.57,3.9,3.9,0,0,1-2.327-.65,1.87,1.87,0,0,1-.9-1.59,1.675,1.675,0,0,1,.206-0.85,1.94,1.94,0,0,1,.439-0.55,2,2,0,0,1,.528-0.33c0.173-.08.307-0.13,0.4-0.17a10.98,10.98,0,0,1,1.19-.26,5.874,5.874,0,0,1,.734-0.03A2.681,2.681,0,0,1,44.511,2399.82Z"/>
    <path id="Facebook" class="cls-1" d="M32,2383a11,11,0,1,1,11-11A11,11,0,0,1,32,2383Zm3-17.9c-0.251-.03-1.11-0.1-2.111-0.1a3.25,3.25,0,0,0-3.517,3.52v1.97H27v2.66h2.371V2380H32.2v-6.85h2.348l0.353-2.66H32.2v-1.71a1.11,1.11,0,0,1,1.348-1.29H35v-2.39Z"/>
  </g>
  <g id="Twitter-2" data-name="Twitter">
    <path id="Icon-29" data-name="Icon" class="cls-1" d="M69,2279.62a19.855,19.855,0,0,1-5.656,1.55,9.883,9.883,0,0,0,4.33-5.45,19.643,19.643,0,0,1-6.253,2.39,9.856,9.856,0,0,0-16.781,8.98,27.949,27.949,0,0,1-20.3-10.29,9.861,9.861,0,0,0,3.048,13.15,9.888,9.888,0,0,1-4.461-1.23q0,0.06,0,.12a9.844,9.844,0,0,0,7.9,9.65,9.663,9.663,0,0,1-2.595.35,9.44,9.44,0,0,1-1.853-.18,9.863,9.863,0,0,0,9.2,6.84,19.762,19.762,0,0,1-12.23,4.21,20.245,20.245,0,0,1-2.349-.13A27.906,27.906,0,0,0,36.1,2314c18.114,0,28.019-15,28.019-28.01,0-.43-0.01-0.85-0.029-1.28A20.087,20.087,0,0,0,69,2279.62Z"/>
  </g>
  <g id="Comments">
    <path id="Icon-30" data-name="Icon" class="cls-1" d="M61,2207c5.006-.09,8.146,5.3,8,8-0.167,3.08-3,8-8,8-7.5,0-15.179-7-15-16,0.25-12.58,16-20,16-20s-12.958,10.08-13,20C48.964,2215.53,55.165,2207.11,61,2207Zm-25,16c-7.5,0-15.179-7-15-16,0.25-12.58,16-20,16-20s-12.958,10.08-13,20c-0.036,8.53,6.165.11,12,0,5.006-.09,8.146,5.3,8,8C43.833,2218.08,41,2223,36,2223Z"/>
  </g>
  <g id="Forum_Widget" data-name="Forum Widget">
    <path id="Border-11" data-name="Border" class="cls-1" d="M63.818,2139H61v-2h2a4,4,0,0,0,4-4v-2h2v2.86A5.16,5.16,0,0,1,63.818,2139ZM67,2125h2v4H67v-4Zm0-6h2v4H67v-4Zm0-6h2v4H67v-4Zm0-6h2v4H67v-4Zm0-6h2v4H67v-4Zm0-4a4,4,0,0,0-4-4H61v-2h2.818A5.16,5.16,0,0,1,69,2096.14V2099H67v-2Zm-8-6h0v2H55v-2h4Zm0,48H55v-2h4v2Zm-6-46H49v-2h4v2Zm0,46H49v-2h4v2Zm-6-46H43v-2h4v2Zm-10,44h4v2H37v-2Zm0-46h4v2H37v-2Zm-6,46h4v2H31v-2Zm0-46h4v2H31v-2Zm-10,42.86V2131h2v2a4,4,0,0,0,4,4h2v2H26.182A5.16,5.16,0,0,1,21,2133.86ZM23,2097v2H21v-2.86a5.16,5.16,0,0,1,5.182-5.14H29v2H27A4,4,0,0,0,23,2097Zm-2,4h2v4H21v-4h0Zm2,10H21v-4h2v4Zm0,6H21v-4h2v4Zm0,6H21v-4h2v4Zm-2,2h2v4H21v-4h0Zm26,14H43v-2h4v2Z"/>
    <path id="Icon-31" data-name="Icon" class="cls-1" d="M60,2121v-2.28a1.977,1.977,0,0,0,1-1.72v-12a2,2,0,0,0-2-2H35a1.982,1.982,0,0,0-1.723,1H31v1H56a3,3,0,0,1,3,3v14a3,3,0,0,1-3,3H53v5l-5-5H30a3,3,0,0,1-3-3v-14a3,3,0,0,1,3-3h1v-1a3,3,0,0,1,3-3H60a3,3,0,0,1,3,3v14A3,3,0,0,1,60,2121Z"/>
  </g>
  <g id="Forum">
    <path id="Icon-32" data-name="Icon" class="cls-1" d="M66,2032H65v-2a2,2,0,0,0,2-2v-20a2,2,0,0,0-2-2H31a2,2,0,0,0-2,2H27v-1a3,3,0,0,1,3-3H66a3,3,0,0,1,3,3v22A3,3,0,0,1,66,2032Zm-3-19v22a3,3,0,0,1-3,3H57v8l-7-8H24a3,3,0,0,1-3-3v-22a3,3,0,0,1,3-3H60A3,3,0,0,1,63,2013Z"/>
  </g>
  <g id="Video">
    <path id="Icon-33" data-name="Icon" class="cls-1" d="M67,1951v-38H29v-2H69v40H67Zm-2-34v38H63v-38H25v-2H65v2Zm-4,42H21v-40H61v40Zm-2-38H23v36H59v-36Zm-24,26v-16l12,8Z"/>
  </g>
  <g id="Slider">
    <path id="Icon-34" data-name="Icon" class="cls-1" d="M74,1853H71l7-8-7-8h3l7,8Zm-49-28H65v40H25v-40Zm2,38H63v-36H27v36Zm13.063-20.01,10.554,17.18,4.937-8.03L61,1861.01H29Zm14.945-4a4,4,0,1,1,4-4A4,4,0,0,1,55.008,1838.99ZM16,1853l-7-8,7-8h3l-7,8,7,8H16Z"/>
  </g>
  <g id="Gallery">
    <path id="Icon-35" data-name="Icon" class="cls-1" d="M67,1771v-38H29v-2H69v40H67Zm-2-34v38H63v-38H25v-2H65v2Zm-4,42H21v-40H61v40Zm-2-38H23v36H59v-36Zm-12.382,33.17,4.937-8.03L57,1775.01H25l11.065-18.02Zm4.391-21.18a4,4,0,1,1,4-4A4,4,0,0,1,51.008,1752.99Z"/>
  </g>
  <g id="Image-3" data-name="Image">
    <path id="Icon-36" data-name="Icon" class="cls-1" d="M21,1689v-48H69v48H21Zm46-46H23v44H67v-44Zm-14.978,40.99,6.171-9.82L65,1685.01H25l13.831-22.02Zm5.988-27a5,5,0,1,1,5-5A5,5,0,0,1,58.01,1656.99Z"/>
  </g>
  <g id="Blog_Calendar" data-name="Blog Calendar">
    <path id="Calendar-2" data-name="Calendar" class="cls-1" d="M67,1565.39V1565a4,4,0,0,0-4-4H27a4,4,0,0,0-4,4v28a4,4,0,0,0,4,4H63a4,4,0,0,0,4-4v-9.67l2-1.33v12a5,5,0,0,1-5,5H26a5,5,0,0,1-5-5v-38a5,5,0,0,1,5-5h2v6a2,2,0,0,0,4,0v-6h6v6a2,2,0,0,0,4,0v-6h6v6a2,2,0,0,0,4,0v-6h6v6a2,2,0,0,0,4,0v-6h2a5,5,0,0,1,5,5v8ZM60,1558a1,1,0,0,1-1-1v-7a1,1,0,0,1,2,0v7A1,1,0,0,1,60,1558Zm-10,0a1,1,0,0,1-1-1v-7a1,1,0,0,1,2,0v7A1,1,0,0,1,50,1558Zm-10,0a1,1,0,0,1-1-1v-7a1,1,0,0,1,2,0v7A1,1,0,0,1,40,1558Zm-10,0a1,1,0,0,1-1-1v-7a1,1,0,0,1,2,0v7A1,1,0,0,1,30,1558Z"/>
    <path id="Days-2" data-name="Days" class="cls-1" d="M63.251,1568H62a1,1,0,0,1-1-1v-1a1,1,0,0,1,1-1h2a1,1,0,0,1,1,1v0.78Zm-7.188,5H56a1,1,0,0,1-1-1v-1a1,1,0,0,1,1-1h2a1,1,0,0,1,.992.96ZM52,1573H50a1,1,0,0,1-1-1v-1a1,1,0,0,1,1-1h2a1,1,0,0,1,1,1v1A1,1,0,0,1,52,1573Zm-6,5H44a1,1,0,0,1-1-1v-1a1,1,0,0,1,1-1h2a1,1,0,0,1,1,1v1A1,1,0,0,1,46,1578Zm0-5H44a1,1,0,0,1-1-1v-1a1,1,0,0,1,1-1h2a1,1,0,0,1,1,1v1A1,1,0,0,1,46,1573Zm-6,15H38a1,1,0,0,1-1-1v-1a1,1,0,0,1,1-1h2a1,1,0,0,1,1,1v1A1,1,0,0,1,40,1588Zm0-5H38a1,1,0,0,1-1-1v-1a1,1,0,0,1,1-1h2a1,1,0,0,1,1,1v1A1,1,0,0,1,40,1583Zm0-5H38a1,1,0,0,1-1-1v-1a1,1,0,0,1,1-1h2a1,1,0,0,1,1,1v1A1,1,0,0,1,40,1578Zm0-5H38a1,1,0,0,1-1-1v-1a1,1,0,0,1,1-1h2a1,1,0,0,1,1,1v1A1,1,0,0,1,40,1573Zm-6,20H32a1,1,0,0,1-1-1v-1a1,1,0,0,1,1-1h2a1,1,0,0,1,1,1v1A1,1,0,0,1,34,1593Zm0-5H32a1,1,0,0,1-1-1v-1a1,1,0,0,1,1-1h2a1,1,0,0,1,1,1v1A1,1,0,0,1,34,1588Zm0-5H32a1,1,0,0,1-1-1v-1a1,1,0,0,1,1-1h2a1,1,0,0,1,1,1v1A1,1,0,0,1,34,1583Zm0-5H32a1,1,0,0,1-1-1v-1a1,1,0,0,1,1-1h2a1,1,0,0,1,1,1v1A1,1,0,0,1,34,1578Zm0-5H32a1,1,0,0,1-1-1v-1a1,1,0,0,1,1-1h2a1,1,0,0,1,1,1v1A1,1,0,0,1,34,1573Zm-6,20H26a1,1,0,0,1-1-1v-1a1,1,0,0,1,1-1h2a1,1,0,0,1,1,1v1A1,1,0,0,1,28,1593Zm0-5H26a1,1,0,0,1-1-1v-1a1,1,0,0,1,1-1h2a1,1,0,0,1,1,1v1A1,1,0,0,1,28,1588Zm0-5H26a1,1,0,0,1-1-1v-1a1,1,0,0,1,1-1h2a1,1,0,0,1,1,1v1A1,1,0,0,1,28,1583Zm0-5H26a1,1,0,0,1-1-1v-1a1,1,0,0,1,1-1h2a1,1,0,0,1,1,1v1A1,1,0,0,1,28,1578Zm0-5H26a1,1,0,0,1-1-1v-1a1,1,0,0,1,1-1h2a1,1,0,0,1,1,1v1A1,1,0,0,1,28,1573Zm36.384,12.08A0.991,0.991,0,0,1,65,1586v1a1,1,0,0,1-1,1H62a0.987,0.987,0,0,1-.941-0.71ZM50,1575h2a1.009,1.009,0,0,1,.726.32l-3.431,2.39A0.993,0.993,0,0,1,49,1577v-1A1,1,0,0,1,50,1575Zm-6,5h2l-2,3a1,1,0,0,1-1-1v-1A1,1,0,0,1,44,1580Z"/>
    <path id="Offdays-2" data-name="Offdays" class="cls-4" d="M58,1568H56a1,1,0,0,1-1-1v-1a1,1,0,0,1,1-1h2a1,1,0,0,1,1,1v1A1,1,0,0,1,58,1568Zm-6,0H50a1,1,0,0,1-1-1v-1a1,1,0,0,1,1-1h2a1,1,0,0,1,1,1v1A1,1,0,0,1,52,1568Zm-6,0H44a1,1,0,0,1-1-1v-1a1,1,0,0,1,1-1h2a1,1,0,0,1,1,1v1A1,1,0,0,1,46,1568Zm-6,0H38a1,1,0,0,1-1-1v-1a1,1,0,0,1,1-1h2a1,1,0,0,1,1,1v1A1,1,0,0,1,40,1568Zm-6,0H32a1,1,0,0,1-1-1v-1a1,1,0,0,1,1-1h2a1,1,0,0,1,1,1v1A1,1,0,0,1,34,1568Zm-6,0H26a1,1,0,0,1-1-1v-1a1,1,0,0,1,1-1h2a1,1,0,0,1,1,1v1A1,1,0,0,1,28,1568Zm10,22h2a1,1,0,0,1,1,1v1a1,1,0,0,1-1,1H38a1,1,0,0,1-1-1v-1A1,1,0,0,1,38,1590Zm14.962,2.19A0.984,0.984,0,0,1,52,1593H50a0.915,0.915,0,0,1-.533-0.18ZM57,1590h1a1,1,0,0,1,1,1v1a1,1,0,0,1-1,1H56a1,1,0,0,1-1-1v-0.67Zm5,0h2a1,1,0,0,1,1,1v1a1,1,0,0,1-1,1H62a1,1,0,0,1-1-1v-1A1,1,0,0,1,62,1590Z"/>
    <path id="Pen" class="cls-1" d="M80.823,1572.44l-1.638,1.15-6.889-9.83,1.638-1.15a3,3,0,0,1,4.179.74l3.445,4.91A3,3,0,0,1,80.823,1572.44Zm-22.107,15.5-6.889-9.82,18.832-13.21,6.889,9.83Zm-4.334,2.52c-0.907.36-11.36,2.93-12.223,1.7-0.815-1.17,5.2-10.23,5.825-10.94a12.354,12.354,0,0,1,2.2-1.96l6.889,9.83A18.024,18.024,0,0,1,54.382,1590.46Z"/>
  </g>
  <g id="Blog_Archive" data-name="Blog Archive">
    <path id="Icon-37" data-name="Icon" class="cls-1" d="M59,1509H31a5,5,0,0,1-5-5v-31l12-12h7v2H43v2h2v2H43v2h2v2H43v2h2v2H43v2h2v2H43v2h2v2H43v2h2v2H43v2h2v2h2v-2H45v-2h2v-2H45v-2h2v-2H45v-2h2v-2H45v-2h2v-2H45v-2h2v-2H45v-2h2v-2H45v-2h2v-2H59a5,5,0,0,1,5,5v38A5,5,0,0,1,59,1509Zm3-42a4,4,0,0,0-4-4H48v29H42v-29H38v5a5,5,0,0,1-5,5H28v30a4,4,0,0,0,4,4H58a4,4,0,0,0,4-4v-36Zm-19,26h4v8H43v-8Zm1,3h2v-2H44v2Z"/>
  </g>
  <g id="Blog_Widget" data-name="Blog Widget">
    <path id="Border-12" data-name="Border" class="cls-1" d="M63.818,1419H61v-2h2a4,4,0,0,0,4-4v-2h2v2.86A5.16,5.16,0,0,1,63.818,1419ZM67,1405h2v4H67v-4Zm0-6h2v4H67v-4Zm0-6h2v4H67v-4Zm0-6h2v4H67v-4Zm0-6h2v4H67v-4Zm0-4a4,4,0,0,0-4-4H61v-2h2.818A5.16,5.16,0,0,1,69,1376.14V1379H67v-2Zm-8-6h0v2H55v-2h4Zm0,48H55v-2h4v2Zm-6-46H49v-2h4v2Zm0,46H49v-2h4v2Zm-6-46H43v-2h4v2Zm-10,44h4v2H37v-2Zm0-46h4v2H37v-2Zm-6,46h4v2H31v-2Zm0-46h4v2H31v-2Zm-10,42.86V1411h2v2a4,4,0,0,0,4,4h2v2H26.182A5.16,5.16,0,0,1,21,1413.86ZM23,1377v2H21v-2.86a5.16,5.16,0,0,1,5.182-5.14H29v2H27A4,4,0,0,0,23,1377Zm-2,4h2v4H21v-4h0Zm2,10H21v-4h2v4Zm0,6H21v-4h2v4Zm0,6H21v-4h2v4Zm-2,2h2v4H21v-4h0Zm26,14H43v-2h4v2Z"/>
    <path id="Menu" class="cls-1" d="M29,1411v-1H61v1H29Zm0-3H61v1H29v-1Zm0-2H61v1H29v-1Zm4-3H61v2H33v-2Zm-4-5H61v1H29v-1Zm0-2H61v1H29v-1Zm0-2H61v1H29v-1Zm4-3H61v2H33v-2Zm-4-5H61v1H29v-1Zm0-2H61v1H29v-1Zm0-2H61v1H29v-1Zm4-3H61v2H33v-2Zm-4,0h2v2H29v-2Zm2,14H29v-2h2v2Zm0,12H29v-2h2v2Z"/>
  </g>
  <g id="Blog_Roll" data-name="Blog Roll">
    <path id="Paper" class="cls-1" d="M59,1329H31a5,5,0,0,1-5-5v-27l16-16H59a5,5,0,0,1,5,5v38A5,5,0,0,1,59,1329Zm3-42a4,4,0,0,0-4-4H42v9a5,5,0,0,1-5,5H28v26a4,4,0,0,0,4,4H58a4,4,0,0,0,4-4v-36Z"/>
    <path id="Icon-38" data-name="Icon" class="cls-1" d="M54.887,1303.13l-5.632,5.68a5,5,0,0,1-7.071.03,4.517,4.517,0,0,1-.426-0.52,0.883,0.883,0,0,1-.284-0.18,1,1,0,1,1,1.408-1.42h0l0.129-.13a2.975,2.975,0,0,0,4.824.81l5.632-5.68a3,3,0,1,0-4.261-4.22l-2.957,2.98-2.265-.56,3.8-3.83A5,5,0,0,1,54.887,1303.13Zm-7.071.03a4.515,4.515,0,0,1,.426.52,0.884,0.884,0,0,1,.284.18,1,1,0,1,1-1.408,1.42l-0.129.13a2.975,2.975,0,0,0-4.824-.81l-5.632,5.68a3,3,0,1,0,4.261,4.22l2.957-2.98,2.265,0.56-3.8,3.83a5,5,0,0,1-7.1-7.04l5.632-5.68A5,5,0,0,1,47.816,1303.16Z"/>
  </g>
  <g id="Blog_Categories" data-name="Blog Categories">
    <path id="Border-13" data-name="Border" class="cls-1" d="M63.818,1239H61v-2h2a4,4,0,0,0,4-4v-2h2v2.86A5.16,5.16,0,0,1,63.818,1239ZM67,1225h2v4H67v-4Zm0-6h2v4H67v-4Zm0-6h2v4H67v-4Zm0-6h2v4H67v-4Zm0-6h2v4H67v-4Zm0-4a4,4,0,0,0-4-4H61v-2h2.818A5.16,5.16,0,0,1,69,1196.14V1199H67v-2Zm-8-6h0v2H55v-2h4Zm0,48H55v-2h4v2Zm-6-46H49v-2h4v2Zm0,46H49v-2h4v2Zm-6-46H43v-2h4v2Zm-10,44h4v2H37v-2Zm0-46h4v2H37v-2Zm-6,46h4v2H31v-2Zm0-46h4v2H31v-2Zm-10,42.86V1231h2v2a4,4,0,0,0,4,4h2v2H26.182A5.16,5.16,0,0,1,21,1233.86ZM23,1197v2H21v-2.86a5.16,5.16,0,0,1,5.182-5.14H29v2H27A4,4,0,0,0,23,1197Zm-2,4h2v4H21v-4h0Zm2,10H21v-4h2v4Zm0,6H21v-4h2v4Zm0,6H21v-4h2v4Zm-2,2h2v4H21v-4h0Zm26,14H43v-2h4v2Z"/>
    <path id="Icon-39" data-name="Icon" class="cls-1" d="M29,1199H44v15H29v-15Zm17,0H61v15H46v-15Zm-17,17H44v15H29v-15Zm17,0H61v15H46v-15Z"/>
  </g>
  <g id="Blog">
    <path id="Icon-40" data-name="Icon" class="cls-1" d="M76.823,1119.44l-1.638,1.15-6.889-9.83,1.638-1.15a3,3,0,0,1,4.179.74l3.445,4.91A3,3,0,0,1,76.823,1119.44Zm-22.107,15.5-6.889-9.83,18.832-13.2,6.889,9.83Zm-16.557,4.22c-0.815-1.17,5.2-10.23,5.825-10.95a12.536,12.536,0,0,1,2.2-1.95l6.889,9.83a18.024,18.024,0,0,1-2.7,1.37C49.475,1137.82,39.022,1140.39,38.159,1139.16ZM62,1107a4,4,0,0,0-4-4H42v9a5,5,0,0,1-5,5H28v26a4,4,0,0,0,4,4H58a4,4,0,0,0,4-4v-10l2-2v13a5,5,0,0,1-5,5H31a5,5,0,0,1-5-5v-27l16-16H59a5,5,0,0,1,5,5v4l-2,2v-5Z"/>
  </g>
  <g id="Search">
    <path id="Icon-41" data-name="Icon" class="cls-1" d="M67.828,1057.97a4,4,0,0,1-5.657,0L50.66,1046.46a21.026,21.026,0,0,0,5.685-5.63l11.482,11.48A4,4,0,0,1,67.828,1057.97ZM39,1047a18,18,0,1,1,18-18A18,18,0,0,1,39,1047Zm10-27.79V1019H48.789A13.994,13.994,0,0,0,29,1038.79V1039h0.211a13.978,13.978,0,0,0,19.578,0H49v-0.21A13.981,13.981,0,0,0,49,1019.21ZM31,1029H29a10,10,0,0,1,10-10v2A8,8,0,0,0,31,1029Z"/>
  </g>
  <g id="Map">
    <path id="Icon-42" data-name="Icon" class="cls-1" d="M49,867a37.734,37.734,0,0,0-4,12h0a37.2,37.2,0,0,0-4-12c-2.666-4.5-11-12.672-11-21a15,15,0,0,1,30,0C60,854.35,51.646,862.5,49,867Zm-4-27a6,6,0,1,0,6,6A6,6,0,0,0,45,840Z"/>
  </g>
  <g id="Logo">
    <path id="Icon-43" data-name="Icon" class="cls-1" d="M72,788.94c-1.074,0-2.148,0-3.285-.063-5.94-.251-8.908-2.314-10.616-3.751A24.744,24.744,0,0,1,44.64,789C29.6,789,20,777.189,20,765.185A24.139,24.139,0,0,1,44.513,741c14.66,0,24.768,11.376,24.768,23.753,0,8.251-3.347,12.561-4.928,14.562,2.023,1.5,4.108,1.938,7.646,2.124v7.5ZM44.513,749.184c-7.2,0-13.078,4.814-14.531,12.314a14.306,14.306,0,0,0,0,3.314,24.812,24.812,0,0,1,7.835-1.439,18.936,18.936,0,0,1,10.931,3.19,61.575,61.575,0,0,1,8.276,6.812,13.388,13.388,0,0,0,2.844-8.624c0-9.379-7.014-15.567-15.29-15.567H44.513Zm0.127,31.63a13.286,13.286,0,0,0,6.761-1.688,43.321,43.321,0,0,0-4.929-4.562,15.623,15.623,0,0,0-9.6-3.252,15.785,15.785,0,0,0-5.75,1c2.908,6.438,9.416,8.5,13.46,8.5H44.64Z"/>
  </g>
  <g id="Content">
    <path id="Icon-44" data-name="Icon" class="cls-1" d="M63.556,685.246a11.029,11.029,0,0,0,.184,2.594,1.866,1.866,0,0,0,.651.943,1.454,1.454,0,0,0,.86.361q1.6,0,3.023-2.458l0.737,0.546Q67.021,692,62.549,692a5.668,5.668,0,0,1-3.7-1.229,5.422,5.422,0,0,1-1.929-2.743,23.622,23.622,0,0,1-.246-4.567V670.922h-3v-0.869a31.8,31.8,0,0,0,5.271-4.642,28.261,28.261,0,0,0,3.8-5.437h0.811v8.49h5.455v2.458H63.556v14.324ZM48.3,662.593a6.748,6.748,0,0,0-2.629-2.2,8.362,8.362,0,0,0-3.268-.446H39.916v25.966a10.713,10.713,0,0,0,.283,3.228,2.548,2.548,0,0,0,1.106,1.129,4.432,4.432,0,0,0,2.249.484h1.106v0.919H27.211v-0.919h1.106a4.565,4.565,0,0,0,2.335-.521,2.368,2.368,0,0,0,1.007-1.192,10.326,10.326,0,0,0,.27-3.128V659.95H29.521q-3.367,0-4.89,1.44a9.556,9.556,0,0,0-2.7,5.734H20.994v-9.111H50.925v9.111H50.041A14.482,14.482,0,0,0,48.3,662.593Z"/>
  </g>
  <g id="Area">
    <path id="Border-14" data-name="Border" class="cls-1" d="M63.818,609H61v-2h2a4,4,0,0,0,4-4v-2h2v2.857A5.162,5.162,0,0,1,63.818,609ZM67,595h2v4H67v-4Zm0-6h2v4H67v-4Zm0-6h2v4H67v-4Zm0-6h2v4H67v-4Zm0-6h2v4H67v-4Zm0-4a4,4,0,0,0-4-4H61v-2h2.818A5.162,5.162,0,0,1,69,566.143V569H67v-2Zm-8-6h0v2H55v-2h4Zm0,48H55v-2h4v2Zm-6-46H49v-2h4v2Zm0,46H49v-2h4v2Zm-6-46H43v-2h4v2ZM37,607h4v2H37v-2Zm0-46h4v2H37v-2Zm-6,46h4v2H31v-2Zm0-46h4v2H31v-2ZM21,603.857V601h2v2a4,4,0,0,0,4,4h2v2H26.182A5.162,5.162,0,0,1,21,603.857ZM23,567v2H21v-2.857A5.162,5.162,0,0,1,26.182,561H29v2H27A4,4,0,0,0,23,567Zm-2,4h2v4H21v-4h0Zm2,10H21v-4h2v4Zm0,6H21v-4h2v4Zm0,6H21v-4h2v4Zm-2,2h2v4H21v-4h0Zm26,14H43v-2h4v2Z"/>
  </g>
  <g id="Spacer">
    <path id="Icon-45" data-name="Icon" class="cls-1" d="M67,519v-3h2v3H67Zm0-9h2v4H67v-4Zm0-4a4,4,0,0,0-4-4H61v-2h2.818A5.162,5.162,0,0,1,69,505.143V508H67v-2Zm-3.182-16H61v-2h2a4,4,0,0,0,4-4v-2h2v2.857A5.162,5.162,0,0,1,63.818,490ZM67,476h2v4H67v-4Zm0-5h2v3H67v-3ZM55,488h4v2H55v-2Zm-2,14H49v-2h4v2Zm-4-14h4v2H49v-2Zm-2,14H43v-2h4v2Zm-4-14h4v2H43v-2Zm-6,0h4v2H37v-2Zm4,14H37v-2h4v2ZM31,488h4v2H31v-2Zm4,14H31v-2h4v2ZM21,484.857V482h2v2a4,4,0,0,0,4,4h2v2H26.182A5.162,5.162,0,0,1,21,484.857ZM21,480h0v-4h2v4H21Zm0-6h0v-3h2v3H21Zm5.182,26H29v2H27a4,4,0,0,0-4,4v2H21v-2.857A5.162,5.162,0,0,1,26.182,500ZM21,510h2v4H21v-4h0Zm2,9H21v-3h2v3Zm36-19h0v2H55v-2h4Z"/>
  </g>
  <g id="Divider">
    <path id="Icon-46" data-name="Icon" class="cls-1" d="M67,429v-3h2v3H67Zm0-9h2v4H67v-4Zm0-4a4,4,0,0,0-4-4H61v-2h2.818A5.162,5.162,0,0,1,69,415.143V418H67v-2Zm-3.182-16H61v-2h2a4,4,0,0,0,4-4v-2h2v2.857A5.163,5.163,0,0,1,63.818,400ZM67,386h2v4H67v-4Zm0-5h2v3H67v-3ZM55,398h4v2H55v-2Zm-2,14H49v-2h4v2Zm-4-14h4v2H49v-2Zm-2,14H43v-2h4v2Zm-4-14h4v2H43v-2Zm-6,0h4v2H37v-2Zm4,14H37v-2h4v2ZM31,398h4v2H31v-2Zm4,14H31v-2h4v2ZM21,394.857V392h2v2a4,4,0,0,0,4,4h2v2H26.182A5.163,5.163,0,0,1,21,394.857ZM21,390h0v-4h2v4H21Zm0-6h0v-3h2v3H21Zm5.182,26H29v2H27a4,4,0,0,0-4,4v2H21v-2.857A5.162,5.162,0,0,1,26.182,410ZM21,420h2v4H21v-4h0Zm2,9H21v-3h2v3Zm36-19h0v2H55v-2h4Zm-38-6H69v2H21v-2Z"/>
  </g>
  <g id="Menu-2" data-name="Menu">
    <path id="Icon-47" data-name="Icon" class="cls-1" d="M66,328H32a3,3,0,0,1,0-6H66A3,3,0,0,1,66,328Zm0-10H32a3,3,0,0,1,0-6H66A3,3,0,0,1,66,318Zm0-10H32a3,3,0,0,1,0-6H66A3,3,0,0,1,66,308Zm0-10H32a3,3,0,0,1,0-6H66A3,3,0,0,1,66,298ZM24,338a3,3,0,1,1,3-3A3,3,0,0,1,24,338Zm0-10a3,3,0,1,1,3-3A3,3,0,0,1,24,328Zm0-10a3,3,0,1,1,3-3A3,3,0,0,1,24,318Zm0-10a3,3,0,1,1,3-3A3,3,0,0,1,24,308Zm0-10a3,3,0,1,1,3-3A3,3,0,0,1,24,298Zm8,34H66a3,3,0,0,1,0,6H32A3,3,0,0,1,32,332Z"/>
  </g>
  <g id="Columns">
    <path id="Icon-48" data-name="Icon" class="cls-1" d="M64,249H60a5,5,0,0,1-5-5V206a5,5,0,0,1,5-5h4a5,5,0,0,1,5,5v38A5,5,0,0,1,64,249Zm3-43a3,3,0,0,0-3-3H60a3,3,0,0,0-3,3v38a3,3,0,0,0,3,3h4a3,3,0,0,0,3-3V206ZM47,249H43a5,5,0,0,1-5-5V206a5,5,0,0,1,5-5h4a5,5,0,0,1,5,5v38A5,5,0,0,1,47,249Zm3-43a3,3,0,0,0-3-3H43a3,3,0,0,0-3,3v38a3,3,0,0,0,3,3h4a3,3,0,0,0,3-3V206ZM30,249H26a5,5,0,0,1-5-5V206a5,5,0,0,1,5-5h4a5,5,0,0,1,5,5v38A5,5,0,0,1,30,249Zm3-43a3,3,0,0,0-3-3H26a3,3,0,0,0-3,3v38a3,3,0,0,0,3,3h4a3,3,0,0,0,3-3V206Z"/>
  </g>
  <g id="Anchor">
    <path id="Icon-49" data-name="Icon" class="cls-1" d="M64.414,145.971l-2-.694C61.552,147.094,59.826,150.385,58,152c-3.479,3.077-8.6,4.5-10,5a7.055,7.055,0,0,0-3,2,7.055,7.055,0,0,0-3-2c-1.4-.5-6.521-1.923-10-5-1.943-1.719-3.777-5.343-4.578-7.059l-2.058.749a0.381,0.381,0,0,1-.558-0.413c0.066-.27,1.426-5.668,1.542-6.129a0.482,0.482,0,0,1,.723-0.263c0.281,0.2,4.814,3.47,5.134,3.71a0.378,0.378,0,0,1-.164.663l-1.507.549A28.134,28.134,0,0,0,36,150c1.752,1.269,4.26,2.156,5,2,1.188-.25,1-2,1-2h0.094l0.625-20H37.5a1.5,1.5,0,0,1,0-3h5.313l0.137-4.383a6,6,0,1,1,4.1,0L47.188,127H52.5a1.5,1.5,0,0,1,0,3H47.281l0.625,20H48s-0.187,1.75,1,2c0.74,0.156,3.248-.731,5-2a26.992,26.992,0,0,0,5.217-5.835l-1.9-.659a0.378,0.378,0,0,1-.174-0.672c0.339-.244,5.155-3.559,5.453-3.761a0.52,0.52,0,0,1,.768.267c0.124,0.467,1.568,5.939,1.638,6.212A0.4,0.4,0,0,1,64.414,145.971ZM49,117a4,4,0,1,0-4,4A4,4,0,0,0,49,117Z"/>
  </g>
  <g id="Default">
    <path id="big" class="cls-1" d="M54,53v4H49.827a11.909,11.909,0,0,1-2.06,4.937L50.729,64.9,47.9,67.727l-2.964-2.964A11.927,11.927,0,0,1,40,66.82V71H36V66.82a11.934,11.934,0,0,1-4.934-2.055L28.1,67.729,25.273,64.9l2.962-2.962A11.906,11.906,0,0,1,26.173,57H22V53h4.173a11.907,11.907,0,0,1,2.06-4.937L25.271,45.1,28.1,42.273l2.964,2.964A11.924,11.924,0,0,1,36,43.18V39h4v4.18a11.934,11.934,0,0,1,4.935,2.055L47.9,42.271,50.727,45.1l-2.962,2.962A11.906,11.906,0,0,1,49.827,53H54ZM38,49a6,6,0,1,0,6,6A6,6,0,0,0,38,49Z"/>
    <path id="small" class="cls-2" d="M67,30.5v3H63.864a8.941,8.941,0,0,1-1.542,3.7l2.225,2.224-2.121,2.122L60.2,39.321a8.935,8.935,0,0,1-3.7,1.544V44h-3V40.865a8.931,8.931,0,0,1-3.7-1.543l-2.224,2.225-2.122-2.122L47.679,37.2a8.945,8.945,0,0,1-1.543-3.7H43v-3h3.136a8.943,8.943,0,0,1,1.542-3.7l-2.225-2.224,2.121-2.122L49.8,24.678a8.933,8.933,0,0,1,3.7-1.543V20h3v3.135a8.932,8.932,0,0,1,3.7,1.542l2.224-2.224,2.121,2.121L62.321,26.8a8.945,8.945,0,0,1,1.543,3.7H67ZM55,27a5,5,0,1,0,5,5A5,5,0,0,0,55,27Z"/>
  </g>
  <g id="_helpers">
    <rect id="Top" class="cls-7" width="1" height="1"/>
    <rect id="Bottom" class="cls-7" x="89" y="5240" width="1" height="1"/>
  </g>
</svg>
