<svg id="Dark.svg" xmlns="http://www.w3.org/2000/svg" width="1164" height="1392" viewBox="0 0 1164 1392">
  <defs>
    <style>
      .cls-1, .cls-2, .cls-3, .cls-4, .cls-5, .cls-6, .cls-7 {
        fill: #fff;
      }

      .cls-1, .cls-4, .cls-5, .cls-6, .cls-7 {
        fill-rule: evenodd;
      }

      .cls-2, .cls-4 {
        opacity: 0.4;
      }

      .cls-5 {
        opacity: 0.55;
      }

      .cls-6 {
        fill-opacity: 0.85;
      }

      .cls-7 {
        opacity: 0;
      }
    </style>
  </defs>
  <g id="Column_10" data-name="Column 10">
    <g id="Flickr">
      <path id="Icon" class="cls-1" d="M1083,627a12,12,0,1,1-12,12A12,12,0,0,1,1083,627Zm24,0a12,12,0,1,1-12,12A12,12,0,0,1,1107,627Zm0,3a9,9,0,1,1-9,9A9,9,0,0,1,1107,630Z"/>
    </g>
    <g id="Instagram">
      <path id="icon-2" data-name="icon" class="cls-1" d="M1118.94,534.954a17.325,17.325,0,0,1-1.12,5.836,12.265,12.265,0,0,1-7.03,7.031,17.619,17.619,0,0,1-5.83,1.118c-2.57.117-3.39,0.144-9.91,0.144s-7.35-.027-9.92-0.144a17.619,17.619,0,0,1-5.83-1.118,12.274,12.274,0,0,1-7.03-7.031,17.325,17.325,0,0,1-1.12-5.836c-0.12-2.564-.15-3.383-0.15-9.913s0.03-7.348.15-9.912a17.6,17.6,0,0,1,1.11-5.836,12.329,12.329,0,0,1,7.04-7.031,17.593,17.593,0,0,1,5.83-1.118c2.57-.117,3.39-0.145,9.91-0.145s7.35,0.028,9.92.145a17.622,17.622,0,0,1,5.83,1.117,12.28,12.28,0,0,1,7.03,7.032,17.325,17.325,0,0,1,1.12,5.836c0.12,2.564.15,3.383,0.15,9.912S1119.06,532.389,1118.94,534.954Zm-4.33-19.628a13.156,13.156,0,0,0-.82-4.464,7.962,7.962,0,0,0-4.57-4.563,13.24,13.24,0,0,0-4.46-.827c-2.54-.116-3.3-0.141-9.72-0.141h0c-6.41,0-7.18.025-9.71,0.14a13.259,13.259,0,0,0-4.46.828,7.962,7.962,0,0,0-4.57,4.563,13.345,13.345,0,0,0-.83,4.464c-0.11,2.536-.14,3.3-0.14,9.716s0.03,7.18.14,9.715a13.345,13.345,0,0,0,.83,4.464,7.962,7.962,0,0,0,4.57,4.563,13.259,13.259,0,0,0,4.46.828c2.53,0.115,3.29.14,9.71,0.14s7.19-.025,9.72-0.14a13.259,13.259,0,0,0,4.46-.828,7.968,7.968,0,0,0,4.57-4.563,13.156,13.156,0,0,0,.82-4.464c0.12-2.535.15-3.3,0.15-9.715S1114.73,517.862,1114.61,515.326Zm-6.73-.233a2.885,2.885,0,1,1,2.88-2.885A2.892,2.892,0,0,1,1107.88,515.093Zm-12.84,22.294a12.346,12.346,0,1,1,12.35-12.346A12.346,12.346,0,0,1,1095.04,537.387Zm0-20.36a8.014,8.014,0,1,0,8.02,8.014A8.014,8.014,0,0,0,1095.04,517.027Zm0-16.028h0Z"/>
    </g>
    <g id="Klipfolio">
      <path id="Letter" class="cls-1" d="M1080.4,387.58h7.67a1.414,1.414,0,0,1,1.42,1.381v17.083c0,0.768.3,0.87,0.7,0.205l10.25-17.441a2.727,2.727,0,0,1,2.12-1.228h7.78c0.75,0,1.06.512,0.6,1.126l-10.45,15.19a2.907,2.907,0,0,0-.25,2.4l11.86,27.466a0.852,0.852,0,0,1-.3,1.176,0.68,0.68,0,0,1-.55.1h-7.98a2.153,2.153,0,0,1-1.92-1.279l-7.37-19.282c-0.25-.716-0.86-0.768-1.31-0.154l-2.43,3.427a5.125,5.125,0,0,0-.8,2.557v13.35a1.414,1.414,0,0,1-1.42,1.381h-7.62a1.414,1.414,0,0,1-1.42-1.381v-44.7A1.414,1.414,0,0,1,1080.4,387.58Z"/>
      <path id="Triangle" class="cls-1" d="M1130.31,396.29a1.517,1.517,0,0,0,.41-0.819V377.826a1.824,1.824,0,0,0-1.82-1.842h-17.42a1.467,1.467,0,0,0-.96,2.455c0.96,0.972,16.76,16.93,17.72,17.9A1.436,1.436,0,0,0,1130.31,396.29Z"/>
    </g>
    <g id="HubSpot">
      <path id="Icon-3" data-name="Icon" class="cls-1" d="M1107.13,288.888v-5.711a4.4,4.4,0,0,0,2.53-3.965v-0.13a4.4,4.4,0,0,0-4.38-4.393h-0.11a4.407,4.407,0,0,0-4.38,4.393v0.13a4.4,4.4,0,0,0,2.53,3.965v5.711a12.37,12.37,0,0,0-5.9,2.607l-15.62-12.2a5.016,5.016,0,0,0-2.61-5.78,4.96,4.96,0,0,0-6.15,1.437,5.022,5.022,0,0,0,.19,6.343,4.967,4.967,0,0,0,6.23,1.049l15.35,12a12.532,12.532,0,0,0,.19,14.089l-4.67,4.693a3.915,3.915,0,0,0-1.16-.191,4.072,4.072,0,1,0,4.05,4.072,3.816,3.816,0,0,0-.18-1.162l4.62-4.642a12.407,12.407,0,0,0,14.19.649,12.533,12.533,0,0,0-4.73-22.967m-1.91,18.787a6.4,6.4,0,1,1,4.52-1.88,6.405,6.405,0,0,1-4.52,1.88"/>
    </g>
    <g id="WebEX">
      <path id="Border" class="cls-1" d="M1097.1,206.908a24,24,0,1,1,21.81-26.01A24,24,0,0,1,1097.1,206.908Zm5.84-43.35a21,21,0,1,0,11.5,27.381A21,21,0,0,0,1102.94,163.558Z"/>
      <path id="Icon-4" data-name="Icon" class="cls-1" d="M1097.1,206.908a24,24,0,1,1,21.81-26.01A24,24,0,0,1,1097.1,206.908Zm5.42-44.965c-5.74-3.31-20.16-3.066-27.45,9.57-7.29,12.661-.26,25.239,5.48,28.549s15.31-2.54,21.38-13.067S1108.26,165.252,1102.52,161.943Z"/>
    </g>
    <g id="D3">
      <path id="icon-5" data-name="icon" class="cls-1" d="M1071,46.012a43.328,43.328,0,0,1,8.6.455,22.943,22.943,0,0,1,17.6,17.651,24.368,24.368,0,0,1-.06,10.273,23.922,23.922,0,0,1-2.5,6.186,23.239,23.239,0,0,1-16.11,11.1A49.106,49.106,0,0,1,1071,92V82a42.518,42.518,0,0,0,6.07-.288,12.982,12.982,0,0,0,10.68-12.2c0.07-4.582-1.5-7.016-2.41-8.116-3.76-4.537-6.52-5.735-14.34-5.393V46.012ZM1101,64c3.85,0.059,6.62.471,7.72-2.72a3.985,3.985,0,0,0,0-2.724c-1.77-3.439-3.76-2.174-10.4-2.44a24.151,24.151,0,0,0-6.97-8.343c-0.82-.568-1.65-1.135-2.47-1.7V46.012h12.14c2.78,0,5.72-.131,7.87.511,6.52,1.946,12.29,9.149,9.15,18.559a15.269,15.269,0,0,1-2.29,3.86c0.07,0.076.15,0.151,0.22,0.227,0.38,0.549.75,1.1,1.13,1.646a15.821,15.821,0,0,1,1.57,4.086,14.165,14.165,0,0,1-9.95,16.488c-2.04.615-4.86,0.573-7.48,0.579-4.08.009-8.16,0.034-12.24,0.032,0.04-.057.06-0.242,0.1-0.3,2.41-1.131,6.27-5.237,7.76-7.378,0.52-.851,1.05-1.7,1.57-2.554,6.45-.236,8.46,1.013,10.29-2.44a3.819,3.819,0,0,0,0-2.725c-1.22-3.125-3.54-2.6-7.72-2.6a27.641,27.641,0,0,0,.62-4.82A36.685,36.685,0,0,0,1101,64Z"/>
    </g>
  </g>
  <g id="Column_9" data-name="Column 9">
    <g id="Wizard">
      <path id="Border-2" data-name="Border" class="cls-1" d="M1000,663H962a5,5,0,0,1-5-5V620a5,5,0,0,1,5-5h38a5,5,0,0,1,5,5v38A5,5,0,0,1,1000,663Zm3-42a4,4,0,0,0-4-4H963a4,4,0,0,0-4,4v36a4,4,0,0,0,4,4h36a4,4,0,0,0,4-4V621Z"/>
      <path id="Icon-6" data-name="Icon" class="cls-1" d="M995,641a5,5,0,0,1-4.9-4h-4.2a5,5,0,0,1-9.8,0h-4.2a5,5,0,1,1,0-2h4.2a5,5,0,0,1,9.8,0h4.2A5,5,0,1,1,995,641Zm-27.99-7.986a3,3,0,1,0,3,3A3,3,0,0,0,967.01,633.014Zm14,0a3,3,0,1,0,3,3A3,3,0,0,0,981.01,633.014Zm14,0a3,3,0,1,0,3,3A3,3,0,0,0,995.01,633.014ZM963,645h8a1,1,0,0,1,0,2h-8A1,1,0,0,1,963,645Zm14,0h8a1,1,0,0,1,0,2h-8A1,1,0,0,1,977,645Zm14,0h8a1,1,0,0,1,0,2h-8A1,1,0,0,1,991,645Z"/>
    </g>
    <g id="MultiField">
      <rect id="Field" class="cls-2" x="957" y="535" width="36" height="14" rx="5" ry="5"/>
      <rect id="Field-2" data-name="Field" class="cls-3" x="957" y="518" width="36" height="14" rx="5" ry="5"/>
      <rect id="Field-3" data-name="Field" class="cls-3" x="957" y="501" width="36" height="14" rx="5" ry="5"/>
      <path id="Plus" class="cls-1" d="M1005,543h-4v4h-2v-4h-4v-2h4v-4h2v4h4v2Z"/>
      <path id="Minus" class="cls-1" d="M1003.54,529.95l-3.54-3.536-3.536,3.536-1.414-1.414L998.586,525l-3.536-3.536,1.414-1.414,3.536,3.536,3.54-3.536,1.41,1.414L1001.41,525l3.54,3.536Z"/>
      <path id="Minus-2" data-name="Minus" class="cls-1" d="M1003.54,512.95l-3.54-3.536-3.536,3.536-1.414-1.414L998.586,508l-3.536-3.536,1.414-1.414,3.536,3.536,3.54-3.536,1.41,1.414L1001.41,508l3.54,3.536Z"/>
    </g>
    <g id="Image_Browser" data-name="Image Browser">
      <g id="Image">
        <path id="Input" class="cls-1" d="M1002.35,434.39l-1.82-1.7A4,4,0,0,0,1003,429V393a4,4,0,0,0-4-4H963a4,4,0,0,0-4,4v36a4,4,0,0,0,4,4h24v2H962a5,5,0,0,1-5-5V392a5,5,0,0,1,5-5h38a5,5,0,0,1,5,5v38A4.981,4.981,0,0,1,1002.35,434.39Z"/>
        <path id="Background" class="cls-4" d="M1000.53,432.694L988,421h-1v12H963a4,4,0,0,1-4-4V393a4,4,0,0,1,4-4h36a4,4,0,0,1,4,4v36A4,4,0,0,1,1000.53,432.694Z"/>
        <path id="Image-2" data-name="Image" class="cls-1" d="M991.574,424.336l2.619-4.169,6.807,10.84h-2.278Zm2.436-21.342a5,5,0,1,1,5-5A5,5,0,0,1,994.01,402.994ZM987,431.007H961l13.831-22.019L987,428.364v2.643Z"/>
      </g>
      <path id="Cursor" class="cls-1" d="M989,424v21.283l4.617-4.3L997.6,448l4.853-2.49-3.579-6.34H1005Z"/>
    </g>
    <g id="Captcha">
      <path id="Icon-7" data-name="Icon" class="cls-1" d="M1000,321h-2v-2h1a4,4,0,0,0,4-4V305a4,4,0,0,0-4-4H963a4,4,0,0,0-4,4v10a4,4,0,0,0,4,4h29v2H962a5,5,0,0,1-5-5V304a5,5,0,0,1,5-5h38a5,5,0,0,1,5,5v12A5,5,0,0,1,1000,321Z"/>
      <path id="Text" class="cls-1" d="M963,304h2v12h-2V304h0Z"/>
      <path id="Cursor-2" data-name="Cursor" class="cls-1" d="M1000,312h-4v16h4a1,1,0,0,1,0,2H990a1,1,0,0,1,0-2h4V312h-4a1,1,0,0,1,0-2h10A1,1,0,0,1,1000,312Z"/>
      <path id="Captcha-2" data-name="Captcha" class="cls-1" d="M962,273h38a5,5,0,0,1,5,5v12a5,5,0,0,1-5,5H962a5,5,0,0,1-5-5V278A5,5,0,0,1,962,273Zm1,2h36a4,4,0,0,1,4,4v10a4,4,0,0,1-4,4H963a4,4,0,0,1-4-4V279A4,4,0,0,1,963,275Z"/>
      <rect id="Background-2" data-name="Background" class="cls-2" x="959" y="275" width="44" height="18" rx="4" ry="4"/>
      <path id="ABC" class="cls-1" d="M976.384,289.089l-3.93-10.036h-0.978l-3.951,10.036H968.7l1.23-3.179h4.006l1.244,3.179h1.2Zm-6.043-4.225,1.176-3.1a13.043,13.043,0,0,0,.431-1.442q0.239,0.855.465,1.442l1.162,3.1h-3.234Zm7.417,4.225h3.487a3.856,3.856,0,0,0,2.532-.752,2.571,2.571,0,0,0,.906-2.092q0-2-2.276-2.393v-0.068a2.38,2.38,0,0,0,1.445-.749,2.169,2.169,0,0,0,.5-1.466,2.1,2.1,0,0,0-.889-1.88,5.328,5.328,0,0,0-2.877-.594h-2.824v9.994Zm1.162-8.99h1.709a3.762,3.762,0,0,1,1.914.373,1.318,1.318,0,0,1,.6,1.213,1.493,1.493,0,0,1-.54,1.3,3.12,3.12,0,0,1-1.771.386H978.92V280.1Zm1.99,4.259a3.346,3.346,0,0,1,1.9.437,1.555,1.555,0,0,1,.626,1.368,1.728,1.728,0,0,1-.612,1.466,2.971,2.971,0,0,1-1.822.468H978.92v-3.739h1.99Zm12.468-3.835,0.493-1a6.192,6.192,0,0,0-2.748-.574,5.038,5.038,0,0,0-2.567.629,4.143,4.143,0,0,0-1.668,1.791,6.011,6.011,0,0,0-.578,2.707,5.52,5.52,0,0,0,1.2,3.808,4.336,4.336,0,0,0,3.407,1.339,7.344,7.344,0,0,0,2.564-.389v-1.019a8.939,8.939,0,0,1-2.386.376,3.268,3.268,0,0,1-2.621-1.07,4.511,4.511,0,0,1-.92-3.031,4.424,4.424,0,0,1,.954-3,3.27,3.27,0,0,1,2.6-1.1,5.287,5.287,0,0,1,2.269.533h0Z"/>
    </g>
    <g id="Wysiwyg">
      <path id="Icon-8" data-name="Icon" class="cls-1" d="M962,159h38a5,5,0,0,1,5,5v38a5,5,0,0,1-5,5H962a5,5,0,0,1-5-5V164A5,5,0,0,1,962,159Zm1,12h36a4,4,0,0,1,4,4v26a4,4,0,0,1-4,4H963a4,4,0,0,1-4-4V175A4,4,0,0,1,963,171Zm-2-10h4a2,2,0,0,1,2,2v4a2,2,0,0,1-2,2h-4a2,2,0,0,1-2-2v-4A2,2,0,0,1,961,161Zm10,0h4a2,2,0,0,1,2,2v4a2,2,0,0,1-2,2h-4a2,2,0,0,1-2-2v-4A2,2,0,0,1,971,161Zm10,0h4a2,2,0,0,1,2,2v4a2,2,0,0,1-2,2h-4a2,2,0,0,1-2-2v-4A2,2,0,0,1,981,161Z"/>
      <path id="Bold" class="cls-5" d="M965,167l-1,1h-3v-6h3l1,1v1l-1,1,1,1v1Zm-1-1-2-1,2-1v-1h-2v4h2v-1Z"/>
      <path id="Italic" class="cls-5" d="M972,168l1-6h1l-1,6h-1Zm-1-1h3v1h-3v-1h0Zm1-5h3v1h-3v-1h0Z"/>
      <path id="Underline" class="cls-5" d="M981,162v5l1,1h2l1-1v-5h-1v4l-1,1-1-1v-4h-1Z"/>
      <path id="Text-2" data-name="Text" class="cls-1" d="M963,174h2v12h-2V174h0Z"/>
      <rect id="Scroll" class="cls-2" x="996" y="171" width="7" height="34" rx="4" ry="4"/>
      <path id="Arrow_Up" data-name="Arrow Up" class="cls-1" d="M998,176l1.5-2,1.5,2h-0.75l-0.75-1-0.75,1H998Z"/>
      <path id="Arrow_Down" data-name="Arrow Down" class="cls-1" d="M998,200l1.5,2,1.5-2h-0.75l-0.75,1-0.75-1H998Z"/>
    </g>
    <g id="Textarea">
      <path id="Icon-9" data-name="Icon" class="cls-1" d="M962,45h38a5,5,0,0,1,5,5V88a5,5,0,0,1-5,5H962a5,5,0,0,1-5-5V50A5,5,0,0,1,962,45Zm1,2h36a4,4,0,0,1,4,4V87a4,4,0,0,1-4,4H963a4,4,0,0,1-4-4V51A4,4,0,0,1,963,47Z"/>
      <path id="Text-3" data-name="Text" class="cls-1" d="M963,50h2V62h-2V50h0Z"/>
      <rect id="Scroll-2" data-name="Scroll" class="cls-2" x="996" y="47" width="7" height="44" rx="4" ry="4"/>
      <path id="Arrow_Up-2" data-name="Arrow Up" class="cls-1" d="M998,52l1.5-2,1.5,2h-0.75l-0.75-1-0.75,1H998Z"/>
      <path id="Arrow_Down-2" data-name="Arrow Down" class="cls-1" d="M998,86l1.5,2,1.5-2h-0.75l-0.75,1-0.75-1H998Z"/>
    </g>
  </g>
  <g id="Column_8" data-name="Column 8">
    <g id="Date_Picker" data-name="Date Picker">
      <path id="Icon-10" data-name="Icon" class="cls-1" d="M887,1105.9v-2.45a4,4,0,0,0,2-3.45v-10a4,4,0,0,0-4-4H849a4,4,0,0,0-4,4v10a4,4,0,0,0,4,4h12v2H848a5,5,0,0,1-5-5v-12a5,5,0,0,1,5-5h38a5,5,0,0,1,5,5v12A5,5,0,0,1,887,1105.9Z"/>
      <path id="Text-4" data-name="Text" class="cls-1" d="M849,1089h2v12h-2v-12h0Z"/>
      <path id="Icon-11" data-name="Icon" class="cls-1" d="M883,1116H863v-22h2v3h5v-3h8v3h5v-3h2v22h-2Zm0-17H865v15h18v-15Zm-14,7h-2v-2h2v2Zm0,3h-2v-2h2v2Zm0,3h-2v-2h2v2Zm3-6h-2v-2h2v2Zm0,3h-2v-2h2v2Zm0,3h-2v-2h2v2Zm3-9h-2v-2h2v2Zm0,3h-2v-2h2v2Zm0,3h-2v-2h2v2Zm0,3h-2v-2h2v2Zm3-9h-2v-2h2v2Zm0,3h-2v-2h2v2Zm0,3h-2v-2h2v2Zm0,3h-2v-2h2v2Zm3-9h-2v-2h2v2Zm0,3h-2v-2h2v2Zm0,3h-2v-2h2v2Zm-2-15h3v2h-3v-2Zm-13,0h3v2h-3v-2Z"/>
    </g>
    <g id="Timer_Picker" data-name="Timer Picker">
      <path id="Icon-12" data-name="Icon" class="cls-1" d="M887,991.9v-2.455A3.982,3.982,0,0,0,889,986V976a4,4,0,0,0-4-4H849a4,4,0,0,0-4,4v10a4,4,0,0,0,4,4h10v2H848a5,5,0,0,1-5-5V975a5,5,0,0,1,5-5h38a5,5,0,0,1,5,5v12A5,5,0,0,1,887,991.9Z"/>
      <path id="Text-5" data-name="Text" class="cls-1" d="M849,975h2v12h-2V975h0Z"/>
      <g id="Clock">
        <path id="Lines" class="cls-5" d="M872.5,998.5h1v2h-1v-2h0Zm0-17h1v2h-1v-2h0Zm-9,9h2v1h-2v-1h0Zm17,0h2v1h-2v-1h0Zm-13.154,5.453,0.707,0.707-1.413,1.415-0.708-.707Zm12.014-12.028,0.708,0.707-1.414,1.415-0.707-.707Zm-12.731.011,1.415,1.412-0.707.709-1.415-1.413Zm12.034,12.007,1.415,1.413-0.708.709-1.414-1.413Z"/>
        <path id="Border-3" data-name="Border" class="cls-1" d="M873,1003a12,12,0,1,1,12-12A12,12,0,0,1,873,1003Zm0-22a10,10,0,1,0,10,10A10,10,0,0,0,873,981Zm1.926,9.489A1.991,1.991,0,0,1,871.277,992H865.5a1,1,0,0,1,0-2h5.777A1.994,1.994,0,0,1,873,989a1.967,1.967,0,0,1,.512.075l2.9-2.9a1,1,0,0,1,1.416,1.413Z"/>
      </g>
    </g>
    <g id="Multi_Checkbox" data-name="Multi Checkbox">
      <path id="Icon-13" data-name="Icon" class="cls-1" d="M861,869h12a5,5,0,0,1,5,5v12a5,5,0,0,1-5,5H861a5,5,0,0,1-5-5V874A5,5,0,0,1,861,869Zm1,2h10a4,4,0,0,1,4,4v10a4,4,0,0,1-4,4H862a4,4,0,0,1-4-4V875A4,4,0,0,1,862,871Z"/>
      <path id="Icon_Check" data-name="Icon Check" class="cls-1" d="M874.28,845.72A3.965,3.965,0,0,0,872,845H862a4,4,0,0,0-4,4v10a4,4,0,0,0,4,4h10a4,4,0,0,0,4-4v-4.6l2-1.6V860a5,5,0,0,1-5,5H861a5,5,0,0,1-5-5V848a5,5,0,0,1,5-5h12a4.954,4.954,0,0,1,2.987,1.012Z"/>
      <path id="Check" class="cls-1" d="M859,852l8,7,16-13-3-3-13,11-4-4Z"/>
    </g>
    <g id="Radiobutton">
      <path id="Icon-14" data-name="Icon" class="cls-1" d="M854,764a11,11,0,1,1,11-11A11,11,0,0,1,854,764Zm0-20a9,9,0,1,0,9,9A9,9,0,0,0,854,744Z"/>
      <path id="Icon_Check-2" data-name="Icon Check" class="cls-1" d="M880,764a11,11,0,1,1,11-11A11,11,0,0,1,880,764Zm0-20a9,9,0,1,0,9,9A9,9,0,0,0,880,744Zm0,13a4,4,0,1,1,4-4A4,4,0,0,1,880,757Z"/>
    </g>
    <g id="Checkbox">
      <path id="Icon-15" data-name="Icon" class="cls-1" d="M874.28,630.72A3.973,3.973,0,0,0,872,630H862a4,4,0,0,0-4,4v10a4,4,0,0,0,4,4h10a4,4,0,0,0,4-4v-4.6l2-1.6V645a5,5,0,0,1-5,5H861a5,5,0,0,1-5-5V633a5,5,0,0,1,5-5h12a4.954,4.954,0,0,1,2.987,1.012Z"/>
      <path id="Check-2" data-name="Check" class="cls-1" d="M859,637l8,7,16-13-3-3-13,11-4-4Z"/>
    </g>
    <g id="Select">
      <path id="Icon-16" data-name="Icon" class="cls-1" d="M848,514h38a5,5,0,0,1,5,5v12a5,5,0,0,1-5,5H848a5,5,0,0,1-5-5V519A5,5,0,0,1,848,514Zm1,2h36a4,4,0,0,1,4,4v10a4,4,0,0,1-4,4H849a4,4,0,0,1-4-4V520A4,4,0,0,1,849,516Z"/>
      <rect id="Button" class="cls-2" x="871" y="516" width="18" height="18" rx="4" ry="4"/>
      <path id="Arrow" class="cls-1" d="M876,523l4,4,4-4h2l-6,6-6-6Z"/>
    </g>
    <g id="Hidden">
      <path id="Icon-17" data-name="Icon" class="cls-1" d="M887,421.9v-2.454A3.984,3.984,0,0,0,889,416V406a4,4,0,0,0-4-4H849a4,4,0,0,0-4,4v10a4,4,0,0,0,4,4h4v2h-5a5,5,0,0,1-5-5V405a5,5,0,0,1,5-5h38a5,5,0,0,1,5,5v12A5,5,0,0,1,887,421.9Z"/>
      <path id="Text-6" data-name="Text" class="cls-1" d="M849,405h2v12h-2V405h0Z"/>
      <path id="Eye" class="cls-1" d="M880.385,429.833L860.769,410l-1.154,1.167L879.231,431ZM870,417l3.462,3.5A3.481,3.481,0,0,0,870,417Zm0-1.166a4.67,4.67,0,0,1,4.5,5.713l4.635,4.686A16.93,16.93,0,0,0,885,420.5a17.382,17.382,0,0,0-15-8.167,18.79,18.79,0,0,0-4.165.456l3.129,3.164A4.539,4.539,0,0,1,870,415.834ZM870,424l0.07,0-3.53-3.569c0,0.024,0,.047,0,0.071A3.481,3.481,0,0,0,870,424Zm0,1.167a4.641,4.641,0,0,1-4.615-4.667,4.737,4.737,0,0,1,.131-1.106l-4.6-4.655A16.941,16.941,0,0,0,855,420.5a17.382,17.382,0,0,0,15,8.167,18.713,18.713,0,0,0,4.223-.47l-3.129-3.163A4.59,4.59,0,0,1,870,425.167Z"/>
    </g>
    <g id="Input_Password" data-name="Input Password">
      <path id="Icon-18" data-name="Icon" class="cls-1" d="M886,308h-2v-2h1a4,4,0,0,0,4-4V292a4,4,0,0,0-4-4H849a4,4,0,0,0-4,4v10a4,4,0,0,0,4,4h29v2H848a5,5,0,0,1-5-5V291a5,5,0,0,1,5-5h38a5,5,0,0,1,5,5v12A5,5,0,0,1,886,308Z"/>
      <path id="Text-7" data-name="Text" class="cls-1" d="M852,294l0.989,1.886L855,296.292l-1.4,1.571L853.854,300,852,299.085l-1.854.915,0.254-2.137-1.4-1.571,2.011-.406L852,294m8,0,0.989,1.886L863,296.292l-1.4,1.571L861.854,300,860,299.085l-1.854.915,0.254-2.137-1.4-1.571,2.011-.406L860,294m8,0,0.989,1.886L871,296.292l-1.4,1.571L869.854,300,868,299.085l-1.854.915,0.254-2.137-1.4-1.571,2.011-.406L868,294"/>
      <path id="Cursor-3" data-name="Cursor" class="cls-1" d="M886,299h-4v16h4a1,1,0,0,1,0,2H876a1,1,0,0,1,0-2h4V299h-4a1,1,0,0,1,0-2h10A1,1,0,0,1,886,299Z"/>
    </g>
    <g id="Input-2" data-name="Input">
      <path id="Icon-19" data-name="Icon" class="cls-1" d="M886,194h-2v-2h1a4,4,0,0,0,4-4V178a4,4,0,0,0-4-4H849a4,4,0,0,0-4,4v10a4,4,0,0,0,4,4h29v2H848a5,5,0,0,1-5-5V177a5,5,0,0,1,5-5h38a5,5,0,0,1,5,5v12A5,5,0,0,1,886,194Z"/>
      <path id="Text-8" data-name="Text" class="cls-1" d="M849,177h2v12h-2V177h0Z"/>
      <path id="Cursor-4" data-name="Cursor" class="cls-1" d="M886,185h-4v16h4a1,1,0,0,1,0,2H876a1,1,0,0,1,0-2h4V185h-4a1,1,0,0,1,0-2h10A1,1,0,0,1,886,185Z"/>
    </g>
    <g id="Button-2" data-name="Button">
      <path id="Icon-20" data-name="Icon" class="cls-1" d="M888.364,79.406L874,66h-1V80H848a5,5,0,0,1-5-5V63a5,5,0,0,1,5-5h38a5,5,0,0,1,5,5V75A5,5,0,0,1,888.364,79.406Z"/>
      <path id="Cursor-5" data-name="Cursor" class="cls-1" d="M875,69V90.283l4.617-4.3L883.6,93l4.856-2.491-3.582-6.34H891Z"/>
    </g>
  </g>
  <g id="Column_7" data-name="Column 7">
    <g id="Products">
      <path id="Icon-21" data-name="Icon" class="cls-1" d="M765.46,990.734l-11.536-5.7,11.536-5.7,11.536,5.7Zm-11.032-8.062v-10.52l10.649-5.4v10.521ZM742.005,964.7l11.536-5.7,11.536,5.7-11.536,5.7Zm0,2.192,10.648,5.354v10.43l-10.648-5.354v-10.43Zm-1.466,23.846L729,985.036l11.537-5.7,11.536,5.7Zm-0.888,12.276L729,997.658v-10.43l10.649,5.354v10.428Zm12.423-5.4-10.648,5.4V992.491l10.648-5.4v10.52Zm12.5,5.4-10.648-5.352v-10.43l10.648,5.354v10.428Zm12.424-5.4-10.649,5.4V992.491l10.649-5.4v10.52Z"/>
    </g>
    <g id="Orders_Widget" data-name="Orders Widget">
      <path id="Border-4" data-name="Border" class="cls-1" d="M771.818,891H769v-2h2a4,4,0,0,0,4-4v-2h2v2.857A5.162,5.162,0,0,1,771.818,891ZM775,877h2v4h-2v-4Zm0-6h2v4h-2v-4Zm0-6h2v4h-2v-4Zm0-6h2v4h-2v-4Zm0-6h2v4h-2v-4Zm0-4a4,4,0,0,0-4-4h-2v-2h2.818A5.162,5.162,0,0,1,777,848.143V851h-2v-2Zm-8-6h0v2h-4v-2h4Zm0,48h-4v-2h4v2Zm-6-46h-4v-2h4v2Zm0,46h-4v-2h4v2Zm-6-46h-4v-2h4v2Zm-10,44h4v2h-4v-2Zm0-46h4v2h-4v-2Zm-6,46h4v2h-4v-2Zm0-46h4v2h-4v-2Zm-10,42.857V883h2v2a4,4,0,0,0,4,4h2v2h-2.818A5.162,5.162,0,0,1,729,885.857ZM731,849v2h-2v-2.857A5.162,5.162,0,0,1,734.182,843H737v2h-2A4,4,0,0,0,731,849Zm-2,4h2v4h-2v-4h0Zm2,10h-2v-4h2v4Zm0,6h-2v-4h2v4Zm0,6h-2v-4h2v4Zm-2,2h2v4h-2v-4h0Zm26,14h-4v-2h4v2Z"/>
      <path id="Icon-22" data-name="Icon" class="cls-1" d="M768,868H754a1,1,0,0,1,0-2h14A1,1,0,0,1,768,868Zm0-10H754a1,1,0,0,1,0-2h14A1,1,0,0,1,768,858Zm-31,18.406,2.054-1.027,2.054,2.054,6.675-5.648,1.54,1.54L741.108,880Zm0-10,2.054-1.027,2.054,2.054,6.675-5.648,1.54,1.54L741.108,870Zm0-10,2.054-1.027,2.054,2.054,6.675-5.648,1.54,1.54L741.108,860ZM754,876h14a1,1,0,0,1,0,2H754A1,1,0,0,1,754,876Z"/>
    </g>
    <g id="Cart">
      <path id="bg" class="cls-4" d="M745.875,753h28.031V741H741.094Z"/>
      <path id="icon-23" data-name="icon" class="cls-1" d="M735,735l12,30h30v-3H750.187l-2.437-6H777V738H740.437L738,732h-9v3h6Zm18,36a3,3,0,1,1-3-3A3,3,0,0,1,753,771Zm24,0a3,3,0,1,1-3-3A3,3,0,0,1,777,771Zm-30.469-18H774V741H741.75Z"/>
    </g>
    <g id="View_Submissions" data-name="View Submissions">
      <path id="Icon-24" data-name="Icon" class="cls-1" d="M775,655V617H737v-2h40v40h-2Zm-2-34v38h-2V621H733v-2h40v2Zm-4,42H729V623h40v40Zm-2-38H731v36h36V625Z"/>
      <path id="Icon-25" data-name="Icon" class="cls-1" d="M762,644H744a1,1,0,0,1,0-2h18A1,1,0,0,1,762,644Zm0-10H744a1,1,0,0,1,0-2h18A1,1,0,0,1,762,634Zm-24,22a3,3,0,1,1,3-3A3,3,0,0,1,738,656Zm0-10a3,3,0,1,1,3-3A3,3,0,0,1,738,646Zm0-10a3,3,0,1,1,3-3A3,3,0,0,1,738,636Zm6,16h18a1,1,0,0,1,0,2H744A1,1,0,0,1,744,652Z"/>
    </g>
    <g id="Listing_Directory_Filter" data-name="Listing Directory Filter">
      <path id="Border-5" data-name="Border" class="cls-1" d="M772,549H734a5,5,0,0,1-5-5V506a5,5,0,0,1,5-5h7v2h-6a4,4,0,0,0-4,4v36a4,4,0,0,0,4,4h36a4,4,0,0,0,4-4V507a4,4,0,0,0-4-4h-6v-2h7a5,5,0,0,1,5,5v38A5,5,0,0,1,772,549Zm-29-47a3,3,0,0,1,3-3h3a3,3,0,0,1,3-3h2a3,3,0,0,1,3,3h3a3,3,0,0,1,3,3v3H743v-3Z"/>
      <path id="Line" class="cls-1" d="M743,529a4,4,0,1,1,4-4A4,4,0,0,1,743,529Zm0-6a2,2,0,1,0,2,2A2,2,0,0,0,743,523Zm-1-2.9V514a1,1,0,0,1,2,0v6.1A5.05,5.05,0,0,0,742,520.1Zm2,9.8V536a1,1,0,0,1-2,0v-6.1A5.05,5.05,0,0,0,744,529.9Z"/>
      <path id="Line-2" data-name="Line" class="cls-1" d="M753,524a4,4,0,1,1,4-4A4,4,0,0,1,753,524Zm0-6a2,2,0,1,0,2,2A2,2,0,0,0,753,518Zm-1-2.9V514a1,1,0,0,1,2,0v1.1A5.05,5.05,0,0,0,752,515.1Zm2,9.8V536a1,1,0,0,1-2,0V524.9A5.05,5.05,0,0,0,754,524.9Z"/>
      <path id="Line-3" data-name="Line" class="cls-1" d="M763,533a4,4,0,1,1,4-4A4,4,0,0,1,763,533Zm0-6a2,2,0,1,0,2,2A2,2,0,0,0,763,527Zm-1-2.9V514a1,1,0,0,1,2,0v10.1A5.05,5.05,0,0,0,762,524.1Zm2,9.8V536a1,1,0,0,1-2,0v-2.1A5.05,5.05,0,0,0,764,533.9Z"/>
    </g>
    <g id="Listing_Directory_Pins" data-name="Listing Directory Pins">
      <path id="Border-6" data-name="Border" class="cls-1" d="M772,435H734a5,5,0,0,1-5-5V392a5,5,0,0,1,5-5h7v2h-6a4,4,0,0,0-4,4v36a4,4,0,0,0,4,4h36a4,4,0,0,0,4-4V393a4,4,0,0,0-4-4h-6v-2h7a5,5,0,0,1,5,5v38A5,5,0,0,1,772,435Zm-29-47a3,3,0,0,1,3-3h3a3,3,0,0,1,3-3h2a3,3,0,0,1,3,3h3a3,3,0,0,1,3,3v3H743v-3Z"/>
      <path id="Icon_Back" data-name="Icon Back" class="cls-4" d="M765.965,418.5a18.667,18.667,0,0,0-2.1,6.079,18.384,18.384,0,0,0-2.1-6.079c-0.388-.633-1.009-1.414-1.7-2.3a30.01,30.01,0,0,0,3.349-5.346,3.316,3.316,0,0,0,.448.044,3.1,3.1,0,0,0,3.147-3.04,3.063,3.063,0,0,0-2.451-2.96,10.325,10.325,0,0,0-1.658-4.577,8.252,8.252,0,0,1,.962-0.062,7.737,7.737,0,0,1,7.868,7.6C771.735,412.086,767.353,416.213,765.965,418.5Zm-8.671-14.808a4.133,4.133,0,0,1,.72,2.323,4.2,4.2,0,0,1-1.82,3.432,6.9,6.9,0,0,1-.194-1.586A7.371,7.371,0,0,1,757.294,403.687Z"/>
      <path id="Icon_Back-2" data-name="Icon Back" class="cls-4" d="M742.041,404.936a3.05,3.05,0,0,0-2.321,2.92,3.1,3.1,0,0,0,3.147,3.04,3.255,3.255,0,0,0,.467-0.046,31.783,31.783,0,0,0,3.37,5.292,28.56,28.56,0,0,0-1.739,2.353,18.667,18.667,0,0,0-2.1,6.079,18.384,18.384,0,0,0-2.1-6.079c-1.4-2.278-5.769-6.42-5.769-10.639a7.736,7.736,0,0,1,7.867-7.6c0.227,0,.449.014,0.67,0.033A10.378,10.378,0,0,0,742.041,404.936Zm8.694,2.92a6.823,6.823,0,0,1-.157,1.39,4.241,4.241,0,0,1-1.927-3.532,4.143,4.143,0,0,1,.656-2.216A7.382,7.382,0,0,1,750.735,407.856Z"/>
      <path id="Icon-26" data-name="Icon" class="cls-1" d="M755.941,419.683a24.23,24.23,0,0,0-2.725,7.895h0a23.877,23.877,0,0,0-2.724-7.895c-1.816-2.958-7.492-8.336-7.492-13.815a10.223,10.223,0,0,1,20.433,0C763.433,411.362,757.743,416.72,755.941,419.683Zm-2.725-17.762a3.949,3.949,0,1,0,4.087,3.947A4.018,4.018,0,0,0,753.216,401.921Z"/>
    </g>
    <g id="Listing_Directory" data-name="Listing Directory">
      <path id="Border-7" data-name="Border" class="cls-1" d="M772,321H734a5,5,0,0,1-5-5V278a5,5,0,0,1,5-5h7v2h-6a4,4,0,0,0-4,4v36a4,4,0,0,0,4,4h36a4,4,0,0,0,4-4V279a4,4,0,0,0-4-4h-6v-2h7a5,5,0,0,1,5,5v38A5,5,0,0,1,772,321Zm-29-47a3,3,0,0,1,3-3h3a3,3,0,0,1,3-3h2a3,3,0,0,1,3,3h3a3,3,0,0,1,3,3v3H743v-3Z"/>
      <path id="Icon-27" data-name="Icon" class="cls-1" d="M766,298H748a1,1,0,0,1,0-2h18A1,1,0,0,1,766,298Zm0-10H748a1,1,0,0,1,0-2h18A1,1,0,0,1,766,288Zm-24,22a3,3,0,1,1,3-3A3,3,0,0,1,742,310Zm0-10a3,3,0,1,1,3-3A3,3,0,0,1,742,300Zm0-10a3,3,0,1,1,3-3A3,3,0,0,1,742,290Zm6,16h18a1,1,0,0,1,0,2H748A1,1,0,0,1,748,306Z"/>
    </g>
    <g id="File_Grid_List_Widget" data-name="File Grid List Widget">
      <path id="Border-8" data-name="Border" class="cls-1" d="M771.818,207H769v-2h2a4,4,0,0,0,4-4v-2h2v2.857A5.162,5.162,0,0,1,771.818,207ZM775,193h2v4h-2v-4Zm0-6h2v4h-2v-4Zm0-6h2v4h-2v-4Zm0-6h2v4h-2v-4Zm0-6h2v4h-2v-4Zm0-4a4,4,0,0,0-4-4h-2v-2h2.818A5.162,5.162,0,0,1,777,164.143V167h-2v-2Zm-8-6h0v2h-4v-2h4Zm0,48h-4v-2h4v2Zm-6-46h-4v-2h4v2Zm0,46h-4v-2h4v2Zm-6-46h-4v-2h4v2Zm-10,44h4v2h-4v-2Zm0-46h4v2h-4v-2Zm-6,46h4v2h-4v-2Zm0-46h4v2h-4v-2Zm-10,42.857V199h2v2a4,4,0,0,0,4,4h2v2h-2.818A5.162,5.162,0,0,1,729,201.857ZM731,165v2h-2v-2.857A5.162,5.162,0,0,1,734.182,159H737v2h-2A4,4,0,0,0,731,165Zm-2,4h2v4h-2v-4h0Zm2,10h-2v-4h2v4Zm0,6h-2v-4h2v4Zm0,6h-2v-4h2v4Zm-2,2h2v4h-2v-4h0Zm26,14h-4v-2h4v2Z"/>
      <path id="Icon-28" data-name="Icon" class="cls-1" d="M759,199l10-10v10H759Zm-16.818,0A5.162,5.162,0,0,1,737,193.857V172.143A5.163,5.163,0,0,1,742.182,167h21.636A5.163,5.163,0,0,1,769,172.143V185l-14,14H742.182ZM767,172a3,3,0,0,0-3-3H742a3,3,0,0,0-3,3v22a3,3,0,0,0,3,3h11l14-14V172Z"/>
    </g>
    <g id="File_Grid_List" data-name="File Grid List">
      <path id="Icon-29" data-name="Icon" class="cls-1" d="M762,93l10-10V93H762Zm-22.818,0A5.162,5.162,0,0,1,734,87.857V50.143A5.163,5.163,0,0,1,739.182,45h27.636A5.163,5.163,0,0,1,772,50.143V79L758,93H739.182ZM770,50a3,3,0,0,0-3-3H739a3,3,0,0,0-3,3V88a3,3,0,0,0,3,3h17l14-14V50Z"/>
    </g>
  </g>
  <g id="Column_6" data-name="Column 6">
    <g id="Events_Filter" data-name="Events Filter">
      <path id="Border-9" data-name="Border" class="cls-1" d="M654,663H624a5,5,0,0,1-5-5V620a5,5,0,0,1,5-5h3v6a2,2,0,0,0,4,0v-6h16v6a2,2,0,0,0,4,0v-6h3a5,5,0,0,1,5,5v38A5,5,0,0,1,654,663Zm3-34a4,4,0,0,0-4-4H625a4,4,0,0,0-4,4v28a4,4,0,0,0,4,4h28a4,4,0,0,0,4-4V629Zm-8-7a1,1,0,0,1-1-1v-7a1,1,0,0,1,2,0v7A1,1,0,0,1,649,622Zm-20,0a1,1,0,0,1-1-1v-7a1,1,0,0,1,2,0v7A1,1,0,0,1,629,622Z"/>
      <path id="Line-4" data-name="Line" class="cls-1" d="M629,647a4,4,0,1,1,4-4A4,4,0,0,1,629,647Zm0-6a2,2,0,1,0,2,2A2,2,0,0,0,629,641Zm-1-2.9V632a1,1,0,0,1,2,0v6.1A5.05,5.05,0,0,0,628,638.1Zm2,9.8V654a1,1,0,0,1-2,0v-6.1A5.05,5.05,0,0,0,630,647.9Z"/>
      <path id="Line-5" data-name="Line" class="cls-1" d="M639,642a4,4,0,1,1,4-4A4,4,0,0,1,639,642Zm0-6a2,2,0,1,0,2,2A2,2,0,0,0,639,636Zm-1-2.9V632a1,1,0,0,1,2,0v1.1A5.05,5.05,0,0,0,638,633.1Zm2,9.8V654a1,1,0,0,1-2,0V642.9A5.05,5.05,0,0,0,640,642.9Z"/>
      <path id="Line-6" data-name="Line" class="cls-1" d="M649,651a4,4,0,1,1,4-4A4,4,0,0,1,649,651Zm0-6a2,2,0,1,0,2,2A2,2,0,0,0,649,645Zm-1-2.9V632a1,1,0,0,1,2,0v10.1A5.05,5.05,0,0,0,648,642.1Zm2,9.8V654a1,1,0,0,1-2,0v-2.1A5.05,5.05,0,0,0,650,651.9Z"/>
    </g>
    <g id="Events_Categories" data-name="Events Categories">
      <path id="Border-10" data-name="Border" class="cls-1" d="M662.48,529H663v0.816C662.834,529.539,662.665,529.264,662.48,529ZM661,523h2v4h-2v-4Zm0-6h2v4h-2v-4Zm0-6h2v4h-2v-4Zm0-4a4,4,0,0,0-4-4h-2v-2h2.818A5.162,5.162,0,0,1,663,506.143V509h-2v-2Zm-12-6h4v2h-4v-2Zm-6,0h4v2h-4v-2Zm-6,46h4v2h-4v-2Zm0-46h4v2h-4v-2Zm-6,46h4v2h-4v-2Zm0-46h4v2h-4v-2Zm-6,46h4v2h-4v-2Zm0-46h4v2h-4v-2Zm-10,42.857V541h2v2a4,4,0,0,0,4,4h2v2h-2.818A5.162,5.162,0,0,1,615,543.857ZM617,507v2h-2v-2.857A5.162,5.162,0,0,1,620.182,501H623v2h-2A4,4,0,0,0,617,507Zm0,8h-2v-4h2v4Zm0,6h-2v-4h2v4Zm0,6h-2v-4h2v4Zm0,6h-2v-4h2v4Zm0,6h-2v-4h2v4Zm26,10v-0.52c0.264,0.185.539,0.354,0.816,0.52H643Z"/>
      <path id="Icon-30" data-name="Icon" class="cls-5" d="M645.824,524H640V509h15v14.587A13.907,13.907,0,0,0,645.824,524Zm-8.237,17H623V526h15v5.824A13.907,13.907,0,0,0,637.587,541ZM623,509h15v15H623V509Zm17,19.358V526h2.358A14.066,14.066,0,0,0,640,528.358Z"/>
      <g id="Clock-2" data-name="Clock">
        <path id="Lines-2" data-name="Lines" class="cls-5" d="M650.5,544.5h1v2h-1v-2h0Zm0-17h1v2h-1v-2h0Zm-9,9h2v1h-2v-1h0Zm17,0h2v1h-2v-1h0Zm-13.154,5.453,0.707,0.707-1.413,1.415-0.708-.707Zm12.014-12.027,0.708,0.706-1.414,1.415-0.707-.707Zm-12.731.009,1.415,1.414-0.707.708-1.415-1.413Zm12.034,12.008,1.415,1.413-0.708.709-1.414-1.414Z"/>
        <path id="Border-11" data-name="Border" class="cls-1" d="M651,549a12,12,0,1,1,12-12A12,12,0,0,1,651,549Zm0-22a10,10,0,1,0,10,10A10,10,0,0,0,651,527Zm1.926,9.489A1.991,1.991,0,0,1,649.277,538H643.5a1,1,0,0,1,0-2h5.777a1.949,1.949,0,0,1,2.235-.926l2.9-2.9a1,1,0,0,1,1.416,1.413Z"/>
      </g>
    </g>
    <g id="Events_Big_Calendar" data-name="Events Big Calendar">
      <g id="Calendar">
        <path id="Border-12" data-name="Border" class="cls-1" d="M661,401a4,4,0,0,0-4-4H621a4,4,0,0,0-4,4v28a4,4,0,0,0,4,4h20.211a14.065,14.065,0,0,0,2.605,2H620a5,5,0,0,1-5-5V392a5,5,0,0,1,5-5h2v6a2,2,0,0,0,4,0v-6h6v6a2,2,0,0,0,4,0v-6h6v6a2,2,0,0,0,4,0v-6h6v6a2,2,0,0,0,4,0v-6h2a5,5,0,0,1,5,5v23.816a14.065,14.065,0,0,0-2-2.6V401Zm-7-7a1,1,0,0,1-1-1v-7a1,1,0,0,1,2,0v7A1,1,0,0,1,654,394Zm-10,0a1,1,0,0,1-1-1v-7a1,1,0,0,1,2,0v7A1,1,0,0,1,644,394Zm-10,0a1,1,0,0,1-1-1v-7a1,1,0,0,1,2,0v7A1,1,0,0,1,634,394Zm-10,0a1,1,0,0,1-1-1v-7a1,1,0,0,1,2,0v7A1,1,0,0,1,624,394Z"/>
        <path id="Days" class="cls-1" d="M658,409h-2a1,1,0,0,1-1-1v-1a1,1,0,0,1,1-1h2a1,1,0,0,1,1,1v1A1,1,0,0,1,658,409Zm0-5h-2a1,1,0,0,1-1-1v-1a1,1,0,0,1,1-1h2a1,1,0,0,1,1,1v1A1,1,0,0,1,658,404Zm-6,5h-2a1,1,0,0,1-1-1v-1a1,1,0,0,1,1-1h2a1,1,0,0,1,1,1v1A1,1,0,0,1,652,409Zm-6,0h-2a1,1,0,0,1-1-1v-1a1,1,0,0,1,1-1h2a1,1,0,0,1,1,1v1A1,1,0,0,1,646,409Zm-5.653,4.93A1,1,0,0,1,640,414h-2a1,1,0,0,1-1-1v-1a1,1,0,0,1,1-1h2a1,1,0,0,1,1,1v1a0.94,0.94,0,0,1-.055.271Q640.636,413.59,640.347,413.93ZM640,409h-2a1,1,0,0,1-1-1v-1a1,1,0,0,1,1-1h2a1,1,0,0,1,1,1v1A1,1,0,0,1,640,409Zm-6,15h-2a1,1,0,0,1-1-1v-1a1,1,0,0,1,1-1h2a1,1,0,0,1,1,1v1A1,1,0,0,1,634,424Zm0-5h-2a1,1,0,0,1-1-1v-1a1,1,0,0,1,1-1h2a1,1,0,0,1,1,1v1A1,1,0,0,1,634,419Zm0-5h-2a1,1,0,0,1-1-1v-1a1,1,0,0,1,1-1h2a1,1,0,0,1,1,1v1A1,1,0,0,1,634,414Zm0-5h-2a1,1,0,0,1-1-1v-1a1,1,0,0,1,1-1h2a1,1,0,0,1,1,1v1A1,1,0,0,1,634,409Zm-6,20h-2a1,1,0,0,1-1-1v-1a1,1,0,0,1,1-1h2a1,1,0,0,1,1,1v1A1,1,0,0,1,628,429Zm0-5h-2a1,1,0,0,1-1-1v-1a1,1,0,0,1,1-1h2a1,1,0,0,1,1,1v1A1,1,0,0,1,628,424Zm0-5h-2a1,1,0,0,1-1-1v-1a1,1,0,0,1,1-1h2a1,1,0,0,1,1,1v1A1,1,0,0,1,628,419Zm0-5h-2a1,1,0,0,1-1-1v-1a1,1,0,0,1,1-1h2a1,1,0,0,1,1,1v1A1,1,0,0,1,628,414Zm0-5h-2a1,1,0,0,1-1-1v-1a1,1,0,0,1,1-1h2a1,1,0,0,1,1,1v1A1,1,0,0,1,628,409Zm-6,20h-2a1,1,0,0,1-1-1v-1a1,1,0,0,1,1-1h2a1,1,0,0,1,1,1v1A1,1,0,0,1,622,429Zm0-5h-2a1,1,0,0,1-1-1v-1a1,1,0,0,1,1-1h2a1,1,0,0,1,1,1v1A1,1,0,0,1,622,424Zm0-5h-2a1,1,0,0,1-1-1v-1a1,1,0,0,1,1-1h2a1,1,0,0,1,1,1v1A1,1,0,0,1,622,419Zm0-5h-2a1,1,0,0,1-1-1v-1a1,1,0,0,1,1-1h2a1,1,0,0,1,1,1v1A1,1,0,0,1,622,414Zm0-5h-2a1,1,0,0,1-1-1v-1a1,1,0,0,1,1-1h2a1,1,0,0,1,1,1v1A1,1,0,0,1,622,409Zm16,7h0.888a13.909,13.909,0,0,0-1.28,2.92A1,1,0,0,1,637,418v-1A1,1,0,0,1,638,416Zm-1,7v-1a1,1,0,0,1,.067-0.334C637.026,422.106,637,422.55,637,423Zm21.736-11.665c-0.15-.1-0.308-0.186-0.461-0.28A0.992,0.992,0,0,1,658.736,411.335Zm-15.011-.28c-0.153.094-.311,0.181-0.461,0.28A0.992,0.992,0,0,1,643.725,411.055Z"/>
        <path id="Offdays" class="cls-5" d="M652,404h-2a1,1,0,0,1-1-1v-1a1,1,0,0,1,1-1h2a1,1,0,0,1,1,1v1A1,1,0,0,1,652,404Zm-6,0h-2a1,1,0,0,1-1-1v-1a1,1,0,0,1,1-1h2a1,1,0,0,1,1,1v1A1,1,0,0,1,646,404Zm-6,0h-2a1,1,0,0,1-1-1v-1a1,1,0,0,1,1-1h2a1,1,0,0,1,1,1v1A1,1,0,0,1,640,404Zm-6,25h-2a1,1,0,0,1-1-1v-1a1,1,0,0,1,1-1h2a1,1,0,0,1,1,1v1A1,1,0,0,1,634,429Zm0-25h-2a1,1,0,0,1-1-1v-1a1,1,0,0,1,1-1h2a1,1,0,0,1,1,1v1A1,1,0,0,1,634,404Zm-6,0h-2a1,1,0,0,1-1-1v-1a1,1,0,0,1,1-1h2a1,1,0,0,1,1,1v1A1,1,0,0,1,628,404Zm-6,0h-2a1,1,0,0,1-1-1v-1a1,1,0,0,1,1-1h2a1,1,0,0,1,1,1v1A1,1,0,0,1,622,404Zm15.389,22.228a13.891,13.891,0,0,0,.976,2.772H638a1,1,0,0,1-1-1v-1A0.983,0.983,0,0,1,637.389,426.228Z"/>
      </g>
      <g id="Clock-3" data-name="Clock">
        <path id="Lines-3" data-name="Lines" class="cls-5" d="M650.5,430.5h1v2h-1v-2h0Zm0-17h1v2h-1v-2h0Zm-9,9h2v1h-2v-1h0Zm17,0h2v1h-2v-1h0Zm-13.154,5.453,0.707,0.707-1.413,1.415-0.708-.707Zm12.014-12.027,0.708,0.706-1.414,1.415-0.707-.707Zm-12.731.009,1.415,1.414-0.707.708-1.415-1.413Zm12.034,12.008,1.415,1.413-0.708.709-1.414-1.414Z"/>
        <path id="Border-13" data-name="Border" class="cls-1" d="M651,435a12,12,0,1,1,12-12A12,12,0,0,1,651,435Zm0-22a10,10,0,1,0,10,10A10,10,0,0,0,651,413Zm1.926,9.489A1.991,1.991,0,0,1,649.277,424H643.5a1,1,0,0,1,0-2h5.777a1.949,1.949,0,0,1,2.235-.926l2.9-2.9a1,1,0,0,1,1.416,1.413Z"/>
      </g>
    </g>
    <g id="Events_Calendar" data-name="Events Calendar">
      <g id="Calendar-2" data-name="Calendar">
        <path id="Border-14" data-name="Border" class="cls-1" d="M654,321H624a5,5,0,0,1-5-5V278a5,5,0,0,1,5-5h3v6a2,2,0,0,0,4,0v-6h16v6a2,2,0,0,0,4,0v-6h3a5,5,0,0,1,5,5v38A5,5,0,0,1,654,321Zm3-34a4,4,0,0,0-4-4H625a4,4,0,0,0-4,4v28a4,4,0,0,0,4,4h28a4,4,0,0,0,4-4V287Zm-8-7a1,1,0,0,1-1-1v-7a1,1,0,0,1,2,0v7A1,1,0,0,1,649,280Zm-20,0a1,1,0,0,1-1-1v-7a1,1,0,0,1,2,0v7A1,1,0,0,1,629,280Z"/>
      </g>
      <g id="Clock-4" data-name="Clock">
        <path id="Lines-4" data-name="Lines" class="cls-5" d="M638.5,308.5h1v2h-1v-2h0Zm0-17h1v2h-1v-2h0Zm-9,9h2v1h-2v-1h0Zm17,0h2v1h-2v-1h0Zm-13.154,5.453,0.707,0.707-1.413,1.415-0.708-.707Zm12.014-12.027,0.708,0.706-1.414,1.415-0.707-.707Zm-12.731.009,1.415,1.414-0.707.708-1.415-1.413Zm12.034,12.008,1.415,1.413-0.708.709-1.414-1.414Z"/>
        <path id="Border-15" data-name="Border" class="cls-1" d="M639,313a12,12,0,1,1,12-12A12,12,0,0,1,639,313Zm0-22a10,10,0,1,0,10,10A10,10,0,0,0,639,291Zm1.926,9.489A1.991,1.991,0,0,1,637.277,302H631.5a1,1,0,0,1,0-2h5.777a1.949,1.949,0,0,1,2.235-.926l2.9-2.9a1,1,0,0,1,1.416,1.413Z"/>
      </g>
    </g>
    <g id="Events_Widget" data-name="Events Widget">
      <path id="Border-16" data-name="Border" class="cls-1" d="M657.818,207H655v-2h2a4,4,0,0,0,4-4v-2h2v2.857A5.162,5.162,0,0,1,657.818,207ZM661,193h2v4h-2v-4Zm0-6h2v4h-2v-4Zm0-6h2v4h-2v-4Zm0-6h2v4h-2v-4Zm0-6h2v4h-2v-4Zm0-4a4,4,0,0,0-4-4h-2v-2h2.818A5.162,5.162,0,0,1,663,164.143V167h-2v-2Zm-8-6h0v2h-4v-2h4Zm0,48h-4v-2h4v2Zm-6-46h-4v-2h4v2Zm0,46h-4v-2h4v2Zm-6-46h-4v-2h4v2Zm-10,44h4v2h-4v-2Zm0-46h4v2h-4v-2Zm-6,46h4v2h-4v-2Zm0-46h4v2h-4v-2Zm-10,42.857V199h2v2a4,4,0,0,0,4,4h2v2h-2.818A5.162,5.162,0,0,1,615,201.857ZM617,165v2h-2v-2.857A5.162,5.162,0,0,1,620.182,159H623v2h-2A4,4,0,0,0,617,165Zm-2,4h2v4h-2v-4h0Zm2,10h-2v-4h2v4Zm0,6h-2v-4h2v4Zm0,6h-2v-4h2v4Zm-2,2h2v4h-2v-4h0Zm26,14h-4v-2h4v2Z"/>
      <g id="Clock-5" data-name="Clock">
        <path id="Lines-5" data-name="Lines" class="cls-5" d="M638.25,194.25h1.5v3h-1.5v-3h0Zm0-25.5h1.5v3h-1.5v-3h0Zm-13.5,13.5h3v1.5h-3v-1.5h0Zm25.5,0h3v1.5h-3v-1.5h0Zm-19.731,8.179,1.061,1.06-2.12,2.123-1.061-1.06Zm18.021-18.041,1.061,1.06-2.12,2.123-1.061-1.06Zm-19.1.015,2.122,2.12-1.061,1.062-2.122-2.119ZM647.5,190.415l2.122,2.119-1.061,1.063-2.122-2.12Z"/>
        <path id="Border-17" data-name="Border" class="cls-1" d="M639,201a18,18,0,1,1,18-18A18,18,0,0,1,639,201Zm0-33a15,15,0,1,0,15,15A15,15,0,0,0,639,168Zm2.889,14.234A2.988,2.988,0,0,1,636.184,184H627a1,1,0,0,1,0-2h9.184A2.992,2.992,0,0,1,639,180a2.951,2.951,0,0,1,.768.112l4.351-4.356a1.5,1.5,0,1,1,2.122,2.12Z"/>
      </g>
    </g>
    <g id="Events">
      <g id="Clock-6" data-name="Clock">
        <path id="Lines-6" data-name="Lines" class="cls-5" d="M638,84h2v4h-2V84h0Zm0-34h2v4h-2V50h0ZM620,68h4v2h-4V68h0Zm34,0h4v2h-4V68h0ZM627.692,78.906l1.415,1.413-2.827,2.83-1.415-1.413ZM651.72,54.851l1.415,1.413-2.827,2.83-1.415-1.414Zm-25.461.02,2.829,2.826-1.415,1.416-2.829-2.826Zm24.068,24.015,2.829,2.826-1.415,1.417L648.912,80.3Z"/>
        <path id="Border-18" data-name="Border" class="cls-1" d="M639,93a24,24,0,1,1,24-24A24,24,0,0,1,639,93Zm0-44a20,20,0,1,0,20,20A20,20,0,0,0,639,49Zm3.852,18.978a3.982,3.982,0,0,1-7.3,3.022H624a2,2,0,1,1,0-4h11.555a3.893,3.893,0,0,1,4.47-1.851l5.8-5.808a2,2,0,0,1,2.83,2.827Z"/>
      </g>
      <path id="Fire" class="cls-1" d="M674,55c-2.651.529-7.024,0.716-7,4,0.027,3.8,5.167,2.25,6,2,1.789-.537,3.623-2.435,4.967-4.121A21.6,21.6,0,0,1,677,60c-2.169,5.407-8.311,12.8-13.963,18.9A25.993,25.993,0,0,0,639,43c-0.474,0-.936.046-1.4,0.071A64.525,64.525,0,0,1,647,40a46.383,46.383,0,0,1,9.5-.294A5.179,5.179,0,0,0,654,42c-0.876,2.727,1.459,3.45,4,2,2.3-1.311,2.491-2.86,2.141-4.056A24.173,24.173,0,0,0,665,40c7.138-1.237,12-9,12-9s0.016,0.075.04,0.181c-0.231,3.28-1.03,8.383-3.04,11.82-2.833,4.844-9,7-9,7s7.106,2.676,13-6a4.4,4.4,0,0,0,.633-1.7c0.145,1.832.24,3.767,0.233,5.723C678.553,50.456,677.5,54.3,674,55Z"/>
    </g>
  </g>
  <g id="Column_5" data-name="Column 5">
    <g id="FAQ">
      <path id="Back" class="cls-1" d="M549,1001l-6.977-2.791a15.966,15.966,0,0,1-21.737-3.523,17.954,17.954,0,0,0,12.823-25.68,15.976,15.976,0,0,1,13.4,24.535Z"/>
      <path id="Front" class="cls-1" d="M517,993a15.914,15.914,0,0,1-9.023-2.791l2.309-.923a14.077,14.077,0,1,0-4.665-4.15L504,990l4.582-1.833a13.935,13.935,0,0,0,1.7,1.119L501,993l2.486-7.459A15.99,15.99,0,1,1,517,993Z"/>
      <path id="_" data-name="?" class="cls-1" d="M518.1,980.773l0.047-.715a3.213,3.213,0,0,1,1.019-2.006l0.949-.9a7.782,7.782,0,0,0,1.559-1.965,4.132,4.132,0,0,0,.445-1.883,4.275,4.275,0,0,0-1.371-3.4,6.682,6.682,0,0,0-7.74.064,4.519,4.519,0,0,0-1.447,3.507h3.4A2.1,2.1,0,0,1,515.5,972a1.853,1.853,0,0,1,1.389-.534,1.688,1.688,0,0,1,1.828,1.984,2.408,2.408,0,0,1-.352,1.25,7.466,7.466,0,0,1-1.412,1.537,5.368,5.368,0,0,0-1.459,1.918,7.041,7.041,0,0,0-.4,2.615h3Zm-2.819,4.865a2.136,2.136,0,0,0,2.754,0,1.82,1.82,0,0,0-.011-2.563,2.086,2.086,0,0,0-2.731,0A1.822,1.822,0,0,0,515.277,985.638Z"/>
    </g>
    <g id="Working_Groups" data-name="Working Groups">
      <path id="Icon-31" data-name="Icon" class="cls-4" d="M549.027,882.509h-8.29c-0.093-4.9-.524-13.5-2.362-16-0.023-.032-0.046-0.055-0.069-0.087a6.35,6.35,0,0,0,.875-0.324c1.469-.684,1.935-1.948,3.282-1.969,1.321-.021,2.77.2,4.6,2.626C549.222,869.629,549.027,882.509,549.027,882.509ZM536.753,864.7a5.26,5.26,0,0,0-3.934-1.436,2.233,2.233,0,0,0-.8.17c-0.136-.106-0.263-0.223-0.392-0.34a8.973,8.973,0,0,0,.869-11.065A6.274,6.274,0,0,1,535.9,851,6.9,6.9,0,0,1,536.753,864.7Zm-11.813,1.816c0.144-.182.289-0.365,0.428-0.52a8.947,8.947,0,0,0,4.837-1.643,2.458,2.458,0,0,1,.287.18,6.728,6.728,0,0,1-1.642,1.168A9.07,9.07,0,0,1,524.94,866.511Z"/>
      <path id="Icon-32" data-name="Icon" class="cls-4" d="M516.006,857.01a8.972,8.972,0,0,0,2.636,6.364c-0.125.11-.245,0.227-0.378,0.328a2.367,2.367,0,0,0-1.321-.443,5.314,5.314,0,0,0-4.089,1.581,6.946,6.946,0,0,1-5.17-6.821A6.858,6.858,0,0,1,514.369,851a6.37,6.37,0,0,1,3.227.908A8.948,8.948,0,0,0,516.006,857.01Zm-4.979,9.364c0.118,0.055.236,0.1,0.354,0.143-1.907,2.609-2.3,11.8-2.367,16.568H501s-0.2-13.116,2-16.042c1.858-2.468,3.334-2.7,4.679-2.674C509.056,864.391,509.531,865.677,511.027,866.374Zm13.854,0.135a9.122,9.122,0,0,1-3.969-.813,5.738,5.738,0,0,1-1.213-.8,3.044,3.044,0,0,1,.47-0.309,8.948,8.948,0,0,0,4.663,1.41c0.151,0.153.3,0.324,0.461,0.508C525.038,866.516,524.881,866.509,524.881,866.509Z"/>
      <path id="Icon-33" data-name="Icon" class="cls-1" d="M540,885H510s-0.222-14.717,2.25-18c2.085-2.768,3.741-3.024,5.25-3,1.539,0.024,2.072,1.468,3.75,2.25a9.75,9.75,0,0,0,7.5,0c1.678-.782,2.211-2.226,3.75-2.25,1.509-.024,3.165.232,5.25,3C540.222,870.283,540,885,540,885Zm-15-20.25a7.884,7.884,0,1,1,7.5-7.875A7.695,7.695,0,0,1,525,864.75Z"/>
    </g>
    <g id="Member_Directory_Widget" data-name="Member Directory Widget">
      <path id="Border-19" data-name="Border" class="cls-1" d="M543.818,777H541v-2h2a4,4,0,0,0,4-4v-2h2v2.857A5.162,5.162,0,0,1,543.818,777ZM547,763h2v4h-2v-4Zm0-6h2v4h-2v-4Zm0-6h2v4h-2v-4Zm0-6h2v4h-2v-4Zm0-6h2v4h-2v-4Zm0-4a4,4,0,0,0-4-4h-2v-2h2.818A5.162,5.162,0,0,1,549,734.143V737h-2v-2Zm-8-6h0v2h-4v-2h4Zm0,48h-4v-2h4v2Zm-6-46h-4v-2h4v2Zm0,46h-4v-2h4v2Zm-6-46h-4v-2h4v2Zm-10,44h4v2h-4v-2Zm0-46h4v2h-4v-2Zm-6,46h4v2h-4v-2Zm0-46h4v2h-4v-2Zm-10,42.857V769h2v2a4,4,0,0,0,4,4h2v2h-2.818A5.162,5.162,0,0,1,501,771.857ZM503,735v2h-2v-2.857A5.162,5.162,0,0,1,506.182,729H509v2h-2A4,4,0,0,0,503,735Zm-2,4h2v4h-2v-4h0Zm2,10h-2v-4h2v4Zm0,6h-2v-4h2v4Zm0,6h-2v-4h2v4Zm-2,2h2v4h-2v-4h0Zm26,14h-4v-2h4v2Z"/>
      <path id="Icon-34" data-name="Icon" class="cls-1" d="M540,771H510s-0.222-14.717,2.25-18c2.085-2.768,3.741-3.024,5.25-3,1.539,0.024,2.072,1.468,3.75,2.25a9.75,9.75,0,0,0,7.5,0c1.678-.782,2.211-2.226,3.75-2.25,1.509-.024,3.165.232,5.25,3C540.222,756.283,540,771,540,771Zm-15-20.25a7.884,7.884,0,1,1,7.5-7.875A7.695,7.695,0,0,1,525,750.75Z"/>
    </g>
    <g id="Member_Directory" data-name="Member Directory">
      <path id="Icon-35" data-name="Icon" class="cls-1" d="M545,663H505s-0.3-19.622,3-24c2.78-3.692,4.988-4.032,7-4,2.052,0.033,2.762,1.957,5,3a13,13,0,0,0,10,0c2.238-1.043,2.948-2.967,5-3,2.012-.032,4.22.308,7,4C545.3,643.378,545,663,545,663Zm-20-27a10.513,10.513,0,1,1,10-10.5A10.259,10.259,0,0,1,525,636Z"/>
    </g>
    <g id="Social">
      <path id="Twitter" class="cls-1" d="M538,523a11,11,0,1,1,11-11A11,11,0,0,1,538,523Zm6.613-15.8a5.883,5.883,0,0,1-1.824.674,2.913,2.913,0,0,0-2.1-.877,2.826,2.826,0,0,0-2.873,2.777,2.708,2.708,0,0,0,.075.633,8.25,8.25,0,0,1-5.92-2.9,2.686,2.686,0,0,0-.389,1.4,2.754,2.754,0,0,0,1.277,2.312,2.95,2.95,0,0,1-1.3-.348V510.9a2.8,2.8,0,0,0,2.3,2.723,2.945,2.945,0,0,1-.756.1,3.007,3.007,0,0,1-.541-0.05,2.866,2.866,0,0,0,2.683,1.929,5.893,5.893,0,0,1-3.567,1.188,5.958,5.958,0,0,1-.685-0.039A8.333,8.333,0,0,0,535.4,518a7.976,7.976,0,0,0,8.172-7.9c0-.121,0-0.24-0.008-0.36A5.722,5.722,0,0,0,545,508.3a5.889,5.889,0,0,1-1.65.437A2.8,2.8,0,0,0,544.613,507.2Z"/>
      <path id="Google" class="cls-1" d="M525,549a11,11,0,1,1,11-11A11,11,0,0,1,525,549Zm-0.643-18a8.235,8.235,0,0,0-1.6.17,4.115,4.115,0,0,0-1.661.843,3.33,3.33,0,0,0-1.163,2.458,2.726,2.726,0,0,0,.821,1.964,2.9,2.9,0,0,0,2.281.923,5.153,5.153,0,0,0,.6-0.036c-0.035.1-.073,0.2-0.114,0.316a1.022,1.022,0,0,0-.071.406,1.261,1.261,0,0,0,.185.694,3.885,3.885,0,0,0,.362.56,14.416,14.416,0,0,0-1.649.161,5.9,5.9,0,0,0-1.912.68,2.724,2.724,0,0,0-1.121,1.1,2.554,2.554,0,0,0-.318,1.137,2.213,2.213,0,0,0,.98,1.8,4.593,4.593,0,0,0,2.94.824,5.523,5.523,0,0,0,3.6-1.1,3.061,3.061,0,0,0,1.2-2.368,2.634,2.634,0,0,0-.439-1.525,6.32,6.32,0,0,0-1.039-1.049l-0.636-.511a3.789,3.789,0,0,1-.283-0.314,0.678,0.678,0,0,1-.172-0.476,0.851,0.851,0,0,1,.167-0.52,2.606,2.606,0,0,1,.31-0.386c0.2-.167.38-0.331,0.553-0.493a5.046,5.046,0,0,0,.444-0.529,2.723,2.723,0,0,0,.444-1.579,3.244,3.244,0,0,0-.124-0.942,3.5,3.5,0,0,0-.344-0.7,3.325,3.325,0,0,0-.415-0.53,2.545,2.545,0,0,0-.4-0.313h1.155l1.158-.663h-3.748Zm7.624,5.732v-1.974h-1.154v1.974h-1.971v1.127h1.971v1.926h1.154v-1.926H534v-1.127h-2.019Zm-6.845-.4a1.767,1.767,0,0,1-1.233.522,1.662,1.662,0,0,1-1.042-.351,2.85,2.85,0,0,1-.743-0.854,4.3,4.3,0,0,1-.6-2.076,2.237,2.237,0,0,1,.407-1.366,1.662,1.662,0,0,1,1.267-.6,1.822,1.822,0,0,1,1.019.332,2.459,2.459,0,0,1,.7.863,4.774,4.774,0,0,1,.567,2.193,5.871,5.871,0,0,1-.041.621A1.872,1.872,0,0,1,525.136,536.336Zm-0.625,3.481a11.219,11.219,0,0,1,1.539,1.211,1.768,1.768,0,0,1,.466,1.22,1.729,1.729,0,0,1-.681,1.409,3.268,3.268,0,0,1-2.022.574,3.939,3.939,0,0,1-2.328-.646,1.887,1.887,0,0,1-.895-1.6,1.639,1.639,0,0,1,.206-0.844,1.969,1.969,0,0,1,.439-0.556,2.506,2.506,0,0,1,.528-0.332c0.173-.072.307-0.125,0.4-0.161a8.136,8.136,0,0,1,1.19-.26,4.9,4.9,0,0,1,.734-0.036C524.251,539.8,524.391,539.8,524.511,539.817Z"/>
      <path id="Facebook" class="cls-1" d="M512,523a11,11,0,1,1,11-11A11,11,0,0,1,512,523Zm3-17.9a20.355,20.355,0,0,0-2.111-.1,3.249,3.249,0,0,0-3.517,3.52v1.969H507v2.658h2.371V520H512.2v-6.853h2.349l0.352-2.658h-2.7v-1.7a1.115,1.115,0,0,1,1.348-1.3H515V505.1Z"/>
    </g>
    <g id="Twitter-2" data-name="Twitter">
      <path id="Icon-36" data-name="Icon" class="cls-1" d="M549,395.616a19.7,19.7,0,0,1-5.656,1.551,9.877,9.877,0,0,0,4.33-5.447,19.738,19.738,0,0,1-6.253,2.389,9.857,9.857,0,0,0-16.782,8.98,27.961,27.961,0,0,1-20.3-10.287,9.856,9.856,0,0,0,3.048,13.145,9.818,9.818,0,0,1-4.461-1.232v0.124a9.851,9.851,0,0,0,7.9,9.654,9.89,9.89,0,0,1-4.447.169,9.859,9.859,0,0,0,9.2,6.838,19.763,19.763,0,0,1-12.23,4.214,20.23,20.23,0,0,1-2.349-.137A27.881,27.881,0,0,0,516.1,430c18.114,0,28.019-15,28.019-28.013q0-.641-0.029-1.274A20,20,0,0,0,549,395.616Z"/>
    </g>
    <g id="Comments">
      <path id="Icon-37" data-name="Icon" class="cls-1" d="M541,299c5.006-.091,8.146,5.305,8,8-0.167,3.083-3,8-8,8-7.5,0-15.179-7-15-16,0.25-12.583,16-20,16-20s-12.958,10.078-13,20C528.964,307.531,535.165,299.105,541,299Zm-25,16c-7.5,0-15.179-7-15-16,0.25-12.583,16-20,16-20s-12.958,10.078-13,20c-0.036,8.531,6.165.105,12,0,5.006-.091,8.146,5.305,8,8C523.833,310.083,521,315,516,315Z"/>
    </g>
    <g id="Forum_Widget" data-name="Forum Widget">
      <path id="Border-20" data-name="Border" class="cls-1" d="M543.818,207H541v-2h2a4,4,0,0,0,4-4v-2h2v2.857A5.163,5.163,0,0,1,543.818,207ZM547,193h2v4h-2v-4Zm0-6h2v4h-2v-4Zm0-6h2v4h-2v-4Zm0-6h2v4h-2v-4Zm0-6h2v4h-2v-4Zm0-4a4,4,0,0,0-4-4h-2v-2h2.818A5.162,5.162,0,0,1,549,164.143V167h-2v-2Zm-8-6h0v2h-4v-2h4Zm0,48h-4v-2h4v2Zm-6-46h-4v-2h4v2Zm0,46h-4v-2h4v2Zm-6-46h-4v-2h4v2Zm-10,44h4v2h-4v-2Zm0-46h4v2h-4v-2Zm-6,46h4v2h-4v-2Zm0-46h4v2h-4v-2Zm-10,42.857V199h2v2a4,4,0,0,0,4,4h2v2h-2.818A5.163,5.163,0,0,1,501,201.857ZM503,165v2h-2v-2.857A5.162,5.162,0,0,1,506.182,159H509v2h-2A4,4,0,0,0,503,165Zm-2,4h2v4h-2v-4h0Zm2,10h-2v-4h2v4Zm0,6h-2v-4h2v4Zm0,6h-2v-4h2v4Zm-2,2h2v4h-2v-4h0Zm26,14h-4v-2h4v2Z"/>
      <path id="Icon-38" data-name="Icon" class="cls-1" d="M540,189v-2.278A1.991,1.991,0,0,0,541,185V173a2,2,0,0,0-2-2H515a1.994,1.994,0,0,0-1.723,1H511v1h25a3,3,0,0,1,3,3v14a3,3,0,0,1-3,3h-3v5l-5-5H510a3,3,0,0,1-3-3V176a3,3,0,0,1,3-3h1v-1a3,3,0,0,1,3-3h26a3,3,0,0,1,3,3v14A3,3,0,0,1,540,189Z"/>
    </g>
    <g id="Forum">
      <path id="Icon-39" data-name="Icon" class="cls-1" d="M546,76h-1V74a2,2,0,0,0,2-2V52a2,2,0,0,0-2-2H511a2,2,0,0,0-2,2h-2V51a3,3,0,0,1,3-3h36a3,3,0,0,1,3,3V73A3,3,0,0,1,546,76Zm-3-19V79a3,3,0,0,1-3,3h-3v8l-7-8H504a3,3,0,0,1-3-3V57a3,3,0,0,1,3-3h36A3,3,0,0,1,543,57Z"/>
    </g>
  </g>
  <g id="Column_4" data-name="Column 4">
    <g id="Blog_Calendar" data-name="Blog Calendar">
      <path id="Calendar-3" data-name="Calendar" class="cls-1" d="M433,629.391V629a4,4,0,0,0-4-4H393a4,4,0,0,0-4,4v28a4,4,0,0,0,4,4h36a4,4,0,0,0,4-4v-9.667L435,646v12a5,5,0,0,1-5,5H392a5,5,0,0,1-5-5V620a5,5,0,0,1,5-5h2v6a2,2,0,0,0,4,0v-6h6v6a2,2,0,0,0,4,0v-6h6v6a2,2,0,0,0,4,0v-6h6v6a2,2,0,0,0,4,0v-6h2a5,5,0,0,1,5,5v8ZM426,622a1,1,0,0,1-1-1v-7a1,1,0,0,1,2,0v7A1,1,0,0,1,426,622Zm-10,0a1,1,0,0,1-1-1v-7a1,1,0,0,1,2,0v7A1,1,0,0,1,416,622Zm-10,0a1,1,0,0,1-1-1v-7a1,1,0,0,1,2,0v7A1,1,0,0,1,406,622Zm-10,0a1,1,0,0,1-1-1v-7a1,1,0,0,1,2,0v7A1,1,0,0,1,396,622Z"/>
      <path id="Days-2" data-name="Days" class="cls-1" d="M429.251,632H428a1,1,0,0,1-1-1v-1a1,1,0,0,1,1-1h2a1,1,0,0,1,1,1v0.783Zm-7.189,5H422a1,1,0,0,1-1-1v-1a1,1,0,0,1,1-1h2a1,1,0,0,1,.992.962ZM418,637h-2a1,1,0,0,1-1-1v-1a1,1,0,0,1,1-1h2a1,1,0,0,1,1,1v1A1,1,0,0,1,418,637Zm-6,5h-2a1,1,0,0,1-1-1v-1a1,1,0,0,1,1-1h2a1,1,0,0,1,1,1v1A1,1,0,0,1,412,642Zm0-5h-2a1,1,0,0,1-1-1v-1a1,1,0,0,1,1-1h2a1,1,0,0,1,1,1v1A1,1,0,0,1,412,637Zm-6,15h-2a1,1,0,0,1-1-1v-1a1,1,0,0,1,1-1h2a1,1,0,0,1,1,1v1A1,1,0,0,1,406,652Zm0-5h-2a1,1,0,0,1-1-1v-1a1,1,0,0,1,1-1h2a1,1,0,0,1,1,1v1A1,1,0,0,1,406,647Zm0-5h-2a1,1,0,0,1-1-1v-1a1,1,0,0,1,1-1h2a1,1,0,0,1,1,1v1A1,1,0,0,1,406,642Zm0-5h-2a1,1,0,0,1-1-1v-1a1,1,0,0,1,1-1h2a1,1,0,0,1,1,1v1A1,1,0,0,1,406,637Zm-6,20h-2a1,1,0,0,1-1-1v-1a1,1,0,0,1,1-1h2a1,1,0,0,1,1,1v1A1,1,0,0,1,400,657Zm0-5h-2a1,1,0,0,1-1-1v-1a1,1,0,0,1,1-1h2a1,1,0,0,1,1,1v1A1,1,0,0,1,400,652Zm0-5h-2a1,1,0,0,1-1-1v-1a1,1,0,0,1,1-1h2a1,1,0,0,1,1,1v1A1,1,0,0,1,400,647Zm0-5h-2a1,1,0,0,1-1-1v-1a1,1,0,0,1,1-1h2a1,1,0,0,1,1,1v1A1,1,0,0,1,400,642Zm0-5h-2a1,1,0,0,1-1-1v-1a1,1,0,0,1,1-1h2a1,1,0,0,1,1,1v1A1,1,0,0,1,400,637Zm-6,20h-2a1,1,0,0,1-1-1v-1a1,1,0,0,1,1-1h2a1,1,0,0,1,1,1v1A1,1,0,0,1,394,657Zm0-5h-2a1,1,0,0,1-1-1v-1a1,1,0,0,1,1-1h2a1,1,0,0,1,1,1v1A1,1,0,0,1,394,652Zm0-5h-2a1,1,0,0,1-1-1v-1a1,1,0,0,1,1-1h2a1,1,0,0,1,1,1v1A1,1,0,0,1,394,647Zm0-5h-2a1,1,0,0,1-1-1v-1a1,1,0,0,1,1-1h2a1,1,0,0,1,1,1v1A1,1,0,0,1,394,642Zm0-5h-2a1,1,0,0,1-1-1v-1a1,1,0,0,1,1-1h2a1,1,0,0,1,1,1v1A1,1,0,0,1,394,637Zm36.383,12.078A1,1,0,0,1,431,650v1a1,1,0,0,1-1,1h-2a0.989,0.989,0,0,1-.941-0.706ZM416,639h2a0.992,0.992,0,0,1,.726.321l-3.431,2.387A1,1,0,0,1,415,641v-1A1,1,0,0,1,416,639Zm-6,5h2l-2,3a1,1,0,0,1-1-1v-1A1,1,0,0,1,410,644Z"/>
      <path id="Offdays-2" data-name="Offdays" class="cls-5" d="M424,632h-2a1,1,0,0,1-1-1v-1a1,1,0,0,1,1-1h2a1,1,0,0,1,1,1v1A1,1,0,0,1,424,632Zm-6,0h-2a1,1,0,0,1-1-1v-1a1,1,0,0,1,1-1h2a1,1,0,0,1,1,1v1A1,1,0,0,1,418,632Zm-6,0h-2a1,1,0,0,1-1-1v-1a1,1,0,0,1,1-1h2a1,1,0,0,1,1,1v1A1,1,0,0,1,412,632Zm-6,0h-2a1,1,0,0,1-1-1v-1a1,1,0,0,1,1-1h2a1,1,0,0,1,1,1v1A1,1,0,0,1,406,632Zm-6,0h-2a1,1,0,0,1-1-1v-1a1,1,0,0,1,1-1h2a1,1,0,0,1,1,1v1A1,1,0,0,1,400,632Zm-6,0h-2a1,1,0,0,1-1-1v-1a1,1,0,0,1,1-1h2a1,1,0,0,1,1,1v1A1,1,0,0,1,394,632Zm10,22h2a1,1,0,0,1,1,1v1a1,1,0,0,1-1,1h-2a1,1,0,0,1-1-1v-1A1,1,0,0,1,404,654Zm14.962,2.189A0.986,0.986,0,0,1,418,657h-2a0.967,0.967,0,0,1-.533-0.176ZM423,654h1a1,1,0,0,1,1,1v1a1,1,0,0,1-1,1h-2a1,1,0,0,1-1-1v-0.667Zm5,0h2a1,1,0,0,1,1,1v1a1,1,0,0,1-1,1h-2a1,1,0,0,1-1-1v-1A1,1,0,0,1,428,654Z"/>
      <path id="Pen" class="cls-1" d="M446.823,636.439l-1.637,1.149-6.89-9.826,1.638-1.148a3,3,0,0,1,4.178.734l3.445,4.913A3,3,0,0,1,446.823,636.439Zm-22.107,15.5-6.889-9.825,18.832-13.2,6.889,9.825Zm-4.334,2.517c-0.907.364-11.36,2.93-12.223,1.7-0.815-1.162,5.2-10.222,5.826-10.941a12.2,12.2,0,0,1,2.2-1.952l6.889,9.826A17.893,17.893,0,0,1,420.382,654.457Z"/>
    </g>
    <g id="Blog_Archive" data-name="Blog Archive">
      <path id="Icon-40" data-name="Icon" class="cls-1" d="M425,549H397a5,5,0,0,1-5-5V513l12-12h7v2h-2v2h2v2h-2v2h2v2h-2v2h2v2h-2v2h2v2h-2v2h2v2h-2v2h2v2h-2v2h2v2h2v-2h-2v-2h2v-2h-2v-2h2v-2h-2v-2h2v-2h-2v-2h2v-2h-2v-2h2v-2h-2v-2h2v-2h-2v-2h2v-2h12a5,5,0,0,1,5,5v38A5,5,0,0,1,425,549Zm3-42a4,4,0,0,0-4-4H414v29h-6V503h-4v5a5,5,0,0,1-5,5h-5v30a4,4,0,0,0,4,4h26a4,4,0,0,0,4-4V507Zm-19,26h4v8h-4v-8Zm1,3h2v-2h-2v2Z"/>
    </g>
    <g id="Blog_Widget" data-name="Blog Widget">
      <path id="Border-21" data-name="Border" class="cls-1" d="M429.818,435H427v-2h2a4,4,0,0,0,4-4v-2h2v2.857A5.163,5.163,0,0,1,429.818,435ZM433,421h2v4h-2v-4Zm0-6h2v4h-2v-4Zm0-6h2v4h-2v-4Zm0-6h2v4h-2v-4Zm0-6h2v4h-2v-4Zm0-4a4,4,0,0,0-4-4h-2v-2h2.818A5.162,5.162,0,0,1,435,392.143V395h-2v-2Zm-8-6h0v2h-4v-2h4Zm0,48h-4v-2h4v2Zm-6-46h-4v-2h4v2Zm0,46h-4v-2h4v2Zm-6-46h-4v-2h4v2Zm-10,44h4v2h-4v-2Zm0-46h4v2h-4v-2Zm-6,46h4v2h-4v-2Zm0-46h4v2h-4v-2Zm-10,42.857V427h2v2a4,4,0,0,0,4,4h2v2h-2.818A5.163,5.163,0,0,1,387,429.857ZM389,393v2h-2v-2.857A5.162,5.162,0,0,1,392.182,387H395v2h-2A4,4,0,0,0,389,393Zm-2,4h2v4h-2v-4h0Zm2,10h-2v-4h2v4Zm0,6h-2v-4h2v4Zm0,6h-2v-4h2v4Zm-2,2h2v4h-2v-4h0Zm26,14h-4v-2h4v2Z"/>
      <path id="Menu" class="cls-1" d="M395,427v-1h32v1H395Zm0-3h32v1H395v-1Zm0-2h32v1H395v-1Zm4-3h28v2H399v-2Zm-4-5h32v1H395v-1Zm0-2h32v1H395v-1Zm0-2h32v1H395v-1Zm4-3h28v2H399v-2Zm-4-5h32v1H395v-1Zm0-2h32v1H395v-1Zm0-2h32v1H395v-1Zm4-3h28v2H399v-2Zm-4,0h2v2h-2v-2Zm2,14h-2v-2h2v2Zm0,12h-2v-2h2v2Z"/>
    </g>
    <g id="Blog_Roll" data-name="Blog Roll">
      <path id="Paper" class="cls-1" d="M425,321H397a5,5,0,0,1-5-5V289l16-16h17a5,5,0,0,1,5,5v38A5,5,0,0,1,425,321Zm3-42a4,4,0,0,0-4-4H408v9a5,5,0,0,1-5,5h-9v26a4,4,0,0,0,4,4h26a4,4,0,0,0,4-4V279Z"/>
      <path id="Icon-41" data-name="Icon" class="cls-1" d="M420.887,295.128l-5.632,5.682a5,5,0,0,1-7.071.031,4.93,4.93,0,0,1-.426-0.517,1,1,0,1,1,1.124-1.608h0l0.129-.13a2.973,2.973,0,0,0,4.824.816l5.632-5.682a3,3,0,0,0-4.262-4.224l-2.956,2.983-2.265-.556,3.8-3.835A5,5,0,1,1,420.887,295.128Zm-7.071.031a4.93,4.93,0,0,1,.426.517,1,1,0,1,1-1.124,1.608l-0.129.13a2.971,2.971,0,0,0-4.824-.816l-5.632,5.682A3,3,0,0,0,406.8,306.5l2.956-2.983,2.266,0.556-3.8,3.835a5,5,0,0,1-7.1-7.04l5.632-5.682A5,5,0,0,1,413.816,295.159Z"/>
    </g>
    <g id="Blog_Categories" data-name="Blog Categories">
      <path id="Border-22" data-name="Border" class="cls-1" d="M429.818,207H427v-2h2a4,4,0,0,0,4-4v-2h2v2.857A5.162,5.162,0,0,1,429.818,207ZM433,193h2v4h-2v-4Zm0-6h2v4h-2v-4Zm0-6h2v4h-2v-4Zm0-6h2v4h-2v-4Zm0-6h2v4h-2v-4Zm0-4a4,4,0,0,0-4-4h-2v-2h2.818A5.162,5.162,0,0,1,435,164.143V167h-2v-2Zm-8-6h0v2h-4v-2h4Zm0,48h-4v-2h4v2Zm-6-46h-4v-2h4v2Zm0,46h-4v-2h4v2Zm-6-46h-4v-2h4v2Zm-10,44h4v2h-4v-2Zm0-46h4v2h-4v-2Zm-6,46h4v2h-4v-2Zm0-46h4v2h-4v-2Zm-10,42.857V199h2v2a4,4,0,0,0,4,4h2v2h-2.818A5.162,5.162,0,0,1,387,201.857ZM389,165v2h-2v-2.857A5.162,5.162,0,0,1,392.182,159H395v2h-2A4,4,0,0,0,389,165Zm-2,4h2v4h-2v-4h0Zm2,10h-2v-4h2v4Zm0,6h-2v-4h2v4Zm0,6h-2v-4h2v4Zm-2,2h2v4h-2v-4h0Zm26,14h-4v-2h4v2Z"/>
      <path id="Icon-42" data-name="Icon" class="cls-5" d="M395,167h15v15H395V167h0Zm17,0h15v15H412V167h0Zm-17,17h15v15H395V184h0Zm17,0h15v15H412V184h0Z"/>
    </g>
    <g id="Blog">
      <path id="Icon-43" data-name="Icon" class="cls-1" d="M442.823,63.439l-1.638,1.148L434.3,54.763l1.638-1.148a3,3,0,0,1,4.178.734l3.445,4.913A3,3,0,0,1,442.823,63.439Zm-22.107,15.5-6.889-9.825,18.832-13.2,6.889,9.826Zm-16.557,4.216c-0.815-1.162,5.2-10.222,5.826-10.941a12.2,12.2,0,0,1,2.2-1.951l6.889,9.825a17.79,17.79,0,0,1-2.7,1.368C415.475,81.821,405.022,84.387,404.159,83.156ZM428,51a4,4,0,0,0-4-4H408v9a5,5,0,0,1-5,5h-9V87a4,4,0,0,0,4,4h26a4,4,0,0,0,4-4V77l2-2V88a5,5,0,0,1-5,5H397a5,5,0,0,1-5-5V61l16-16h17a5,5,0,0,1,5,5v4l-2,2V51Z"/>
    </g>
  </g>
  <g id="Column_3" data-name="Column 3">
    <g id="Logo">
      <path id="Icon-44" data-name="Icon" class="cls-1" d="M325,548.94c-1.074,0-2.148,0-3.286-.063-5.94-.251-8.908-2.314-10.616-3.751A24.74,24.74,0,0,1,297.64,549C282.6,549,273,537.189,273,525.186A24.139,24.139,0,0,1,297.513,501c14.66,0,24.768,11.376,24.768,23.753,0,8.251-3.347,12.561-4.928,14.562,2.023,1.5,4.108,1.938,7.646,2.124v7.5Zm-27.486-39.756c-7.2,0-13.078,4.814-14.531,12.314a14.227,14.227,0,0,0,0,3.314,24.812,24.812,0,0,1,7.835-1.439,18.937,18.937,0,0,1,10.931,3.19,61.535,61.535,0,0,1,8.276,6.812,13.387,13.387,0,0,0,2.843-8.624c0-9.379-7.014-15.567-15.29-15.567h-0.064Zm0.127,31.63a13.285,13.285,0,0,0,6.76-1.688,43.306,43.306,0,0,0-4.928-4.562,15.626,15.626,0,0,0-9.6-3.252,15.786,15.786,0,0,0-5.75,1c2.909,6.438,9.417,8.5,13.46,8.5h0.063Z"/>
    </g>
    <g id="Video">
      <path id="Icon-45" data-name="Icon" class="cls-1" d="M319,427V389H281v-2h40v40h-2Zm-2-34v38h-2V393H277v-2h40v2Zm-4,42H273V395h40v40Zm-2-38H275v36h36V397Zm-24,26V407l12,8Z"/>
    </g>
    <g id="Slider">
      <path id="Icon-46" data-name="Icon" class="cls-1" d="M326,305h-3l7-8-7-8h3l7,8Zm-49-28h40v40H277V277Zm2,38h36V279H279v36Zm13.063-20.01,10.555,17.185,4.936-8.038L313,313.006H281Zm14.945-4a4,4,0,1,1,4-4A4,4,0,0,1,307.008,291ZM268,305l-7-8,7-8h3l-7,8,7,8h-3Z"/>
    </g>
    <g id="Gallery">
      <path id="Icon-47" data-name="Icon" class="cls-1" d="M319,199V161H281v-2h40v40h-2Zm-2-34v38h-2V165H277v-2h40v2Zm-4,42H273V167h40v40Zm-2-38H275v36h36V169Zm-12.382,33.175,4.936-8.039,5.448,8.87H277l11.065-18.016Zm4.39-21.18a4,4,0,1,1,4-4A4,4,0,0,1,303.008,181Z"/>
    </g>
    <g id="Image-3" data-name="Image">
      <path id="Icon-48" data-name="Icon" class="cls-1" d="M273,93V45h48V93H273Zm46-46H275V91h44V47ZM304.022,87.991l6.171-9.824L317,89.007H277l13.831-22.019Zm5.988-27a5,5,0,1,1,5-5A5,5,0,0,1,310.01,60.994Z"/>
    </g>
  </g>
  <g id="Column_2" data-name="Column 2">
    <g id="Form">
      <path id="Border-23" data-name="Border" class="cls-1" d="M164,1071h38a5,5,0,0,1,5,5v38a5,5,0,0,1-5,5H164a5,5,0,0,1-5-5v-38A5,5,0,0,1,164,1071Zm1,2h36a4,4,0,0,1,4,4v36a4,4,0,0,1-4,4H165a4,4,0,0,1-4-4v-36A4,4,0,0,1,165,1073Z"/>
      <path id="Input-3" data-name="Input" class="cls-5" d="M166,1079h34a1,1,0,0,1,1,1v2a1,1,0,0,1-1,1H166a1,1,0,0,1-1-1v-2A1,1,0,0,1,166,1079Zm0,6h34a1,1,0,0,1,1,1v2a1,1,0,0,1-1,1H166a1,1,0,0,1-1-1v-2A1,1,0,0,1,166,1085Zm0,6h34a1,1,0,0,1,1,1v8a1,1,0,0,1-1,1H166a1,1,0,0,1-1-1v-8A1,1,0,0,1,166,1091Z"/>
      <path id="Button-3" data-name="Button" class="cls-5" d="M171,1107h10a1,1,0,0,1,1,1v2a1,1,0,0,1-1,1H171a1,1,0,0,1-1-1v-2A1,1,0,0,1,171,1107Zm14,0h10a1,1,0,0,1,1,1v2a1,1,0,0,1-1,1H185a1,1,0,0,1-1-1v-2A1,1,0,0,1,185,1107Z"/>
    </g>
    <g id="Breadcrumbs">
      <path id="Icon-49" data-name="Icon" class="cls-1" d="M206.811,978.9l-2.836,2.833-18.889-18.908a3,3,0,0,0-4.243,0l-18.988,18.969-2.862-2.866L179.4,958.534a5,5,0,0,1,7.071,0l6.53,6.536V958a1,1,0,0,1,1-1h6a1,1,0,0,1,1,1v15.08Zm-21.69-12.5L201,982.267V1002a3,3,0,0,1-3,3H168a3,3,0,0,1-3-3V982.273l15.879-15.882A3,3,0,0,1,185.121,966.391ZM177,1005h12V987H177v18Z"/>
    </g>
    <g id="RSS">
      <path id="Icon-50" data-name="Icon" class="cls-1" d="M190.729,891H181.78A22.78,22.78,0,0,0,159,868.22v-8.949A31.73,31.73,0,0,1,190.729,891ZM159,884.492A6.509,6.509,0,1,1,165.508,891,6.509,6.509,0,0,1,159,884.492ZM207,891h-8.949A39.051,39.051,0,0,0,159,851.949V843h0a48,48,0,0,1,48,48h0Z"/>
    </g>
    <g id="Language_Swicther" data-name="Language Swicther">
      <path id="Icon-51" data-name="Icon" class="cls-1" d="M206.767,756.17c-0.063.473-.126,0.945-0.215,1.409-0.068.349-.156,0.69-0.239,1.033-0.09.377-.181,0.755-0.289,1.125s-0.241.759-.371,1.133c-0.108.31-.218,0.618-0.337,0.921-0.161.406-.334,0.807-0.516,1.2-0.114.248-.233,0.493-0.355,0.737-0.214.425-.435,0.846-0.673,1.256-0.108.187-.223,0.369-0.336,0.553-0.274.443-.553,0.883-0.854,1.307-0.083.116-.172,0.228-0.257,0.343-0.346.47-.7,0.935-1.079,1.378h0c-0.417.488-.842,0.969-1.3,1.422h0a24.041,24.041,0,0,1-7.621,5.129c-0.065.028-.134,0.047-0.2,0.073-0.655.27-1.32,0.52-2,.732-0.179.056-.366,0.09-0.547,0.141-0.577.164-1.155,0.328-1.749,0.449-0.358.073-.727,0.109-1.09,0.166-0.43.068-.853,0.153-1.29,0.2a24.305,24.305,0,0,1-4.9,0c-0.436-.044-0.86-0.129-1.29-0.2-0.363-.057-0.732-0.093-1.09-0.166-0.594-.121-1.172-0.285-1.749-0.449-0.181-.051-0.368-0.085-0.547-0.141-0.683-.212-1.348-0.462-2-0.732-0.065-.026-0.134-0.045-0.2-0.073a24.026,24.026,0,0,1-7.62-5.129h0c-0.454-.453-0.879-0.934-1.3-1.422h0c-0.379-.443-0.733-0.908-1.079-1.378-0.085-.115-0.174-0.227-0.257-0.343-0.3-.424-0.58-0.864-0.854-1.307-0.113-.184-0.227-0.366-0.336-0.553-0.238-.41-0.459-0.831-0.673-1.256-0.122-.244-0.241-0.489-0.355-0.737-0.182-.4-0.355-0.8-0.516-1.2-0.119-.3-0.229-0.611-0.337-0.921-0.13-.374-0.258-0.75-0.371-1.133s-0.2-.748-0.289-1.125c-0.083-.343-0.171-0.684-0.239-1.033-0.089-.464-0.152-0.936-0.215-1.409-0.037-.281-0.088-0.557-0.115-0.841C159.044,754.562,159,753.786,159,753s0.044-1.562.118-2.329c0.027-.284.078-0.561,0.115-0.841,0.063-.473.126-0.946,0.215-1.409,0.068-.349.156-0.69,0.239-1.033,0.091-.377.181-0.755,0.289-1.125s0.241-.758.371-1.133c0.108-.31.218-0.618,0.337-0.921,0.161-.406.334-0.807,0.516-1.2,0.114-.248.233-0.493,0.355-0.737,0.214-.425.435-0.846,0.673-1.256,0.109-.187.223-0.369,0.336-0.552,0.274-.444.553-0.884,0.854-1.308,0.083-.116.172-0.228,0.257-0.343,0.346-.47.7-0.935,1.079-1.378h0c0.417-.488.842-0.969,1.3-1.422h0a24.026,24.026,0,0,1,7.62-5.129c0.065-.028.134-0.046,0.2-0.073,0.655-.27,1.32-0.52,2-0.732,0.179-.056.366-0.089,0.547-0.141,0.577-.164,1.155-0.328,1.749-0.449,0.358-.073.727-0.11,1.09-0.167,0.43-.067.854-0.152,1.29-0.2a24.305,24.305,0,0,1,4.9,0c0.437,0.044.86,0.129,1.29,0.2,0.363,0.057.732,0.094,1.09,0.167,0.594,0.121,1.172.285,1.749,0.449,0.181,0.052.368,0.085,0.547,0.141,0.683,0.212,1.348.462,2,.732,0.065,0.027.134,0.045,0.2,0.073a24.041,24.041,0,0,1,7.621,5.129h0c0.453,0.453.878,0.934,1.3,1.422h0c0.379,0.443.733,0.908,1.079,1.378,0.085,0.115.174,0.227,0.257,0.343,0.3,0.424.58,0.864,0.854,1.308,0.113,0.183.228,0.365,0.336,0.552,0.238,0.41.459,0.831,0.673,1.256,0.122,0.244.241,0.489,0.355,0.737,0.182,0.4.355,0.8,0.516,1.2,0.119,0.3.229,0.611,0.337,0.921,0.13,0.375.258,0.75,0.371,1.133s0.2,0.748.289,1.125c0.083,0.343.171,0.684,0.239,1.033,0.089,0.463.152,0.936,0.215,1.409,0.037,0.28.088,0.557,0.115,0.841,0.074,0.767.118,1.543,0.118,2.329s-0.044,1.562-.118,2.329C206.855,755.613,206.8,755.889,206.767,756.17ZM176.8,774.1a20.5,20.5,0,0,1-4.2-6.791A27.958,27.958,0,0,0,167.931,769,21.959,21.959,0,0,0,176.8,774.1Zm-10.258-6.543a29.354,29.354,0,0,1,5.371-2.079A39.652,39.652,0,0,1,170.019,754h-8.977A21.891,21.891,0,0,0,166.541,767.556ZM161.042,752h8.977a39.652,39.652,0,0,1,1.893-11.477,29.426,29.426,0,0,1-5.371-2.078A21.885,21.885,0,0,0,161.042,752Zm6.889-15a28.048,28.048,0,0,0,4.666,1.692,20.5,20.5,0,0,1,4.2-6.791A21.938,21.938,0,0,0,167.931,737ZM182,731.1c-3.037.549-5.712,3.569-7.528,8.044a41.235,41.235,0,0,0,7.528.833V731.1Zm0,10.875a41.737,41.737,0,0,1-8.2-.968,38.669,38.669,0,0,0-1.771,11H182V741.973ZM182,754h-9.975a38.656,38.656,0,0,0,1.771,10.994,41.814,41.814,0,0,1,8.2-.967V754Zm0,12.025a41.323,41.323,0,0,0-7.528.833c1.816,4.475,4.491,7.5,7.528,8.044v-8.877ZM204.958,754h-8.977a39.652,39.652,0,0,1-1.893,11.477,29.354,29.354,0,0,1,5.371,2.079A21.891,21.891,0,0,0,204.958,754Zm-6.889,15a27.958,27.958,0,0,0-4.666-1.693,20.5,20.5,0,0,1-4.2,6.791A21.959,21.959,0,0,0,198.069,769ZM184,774.9c3.037-.549,5.712-3.569,7.528-8.044a41.323,41.323,0,0,0-7.528-.833V774.9Zm0-10.875a41.814,41.814,0,0,1,8.2.967A38.656,38.656,0,0,0,193.975,754H184v10.027ZM184,752h9.975a38.669,38.669,0,0,0-1.771-11,41.737,41.737,0,0,1-8.2.968V752Zm0-12.025a41.235,41.235,0,0,0,7.528-.833c-1.816-4.475-4.491-7.5-7.528-8.044v8.877Zm5.2-8.074a20.5,20.5,0,0,1,4.2,6.791A28.048,28.048,0,0,0,198.069,737,21.938,21.938,0,0,0,189.2,731.9Zm10.258,6.544a29.426,29.426,0,0,1-5.371,2.078A39.652,39.652,0,0,1,195.981,752h8.977A21.885,21.885,0,0,0,199.459,738.445Z"/>
    </g>
    <g id="Map">
      <path id="Icon-52" data-name="Icon" class="cls-1" d="M187,651a37.74,37.74,0,0,0-4,12h0a37.21,37.21,0,0,0-4-12c-2.666-4.5-11-12.672-11-21a15,15,0,0,1,30,0C198,638.35,189.646,646.5,187,651Zm-4-27a6,6,0,1,0,6,6A6,6,0,0,0,183,624Z"/>
    </g>
    <g id="Anchor">
      <path id="Icon-53" data-name="Icon" class="cls-1" d="M202.414,535.971l-2-.694c-0.866,1.817-2.592,5.108-4.418,6.723-3.479,3.077-8.595,4.5-10,5a7.055,7.055,0,0,0-3,2,7.055,7.055,0,0,0-3-2c-1.405-.5-6.521-1.923-10-5-1.943-1.719-3.777-5.343-4.578-7.059l-2.058.749a0.381,0.381,0,0,1-.558-0.413c0.067-.27,1.426-5.668,1.542-6.129a0.483,0.483,0,0,1,.724-0.263c0.281,0.2,4.814,3.47,5.134,3.71a0.378,0.378,0,0,1-.164.663l-1.507.549A28.129,28.129,0,0,0,174,540c1.752,1.269,4.26,2.156,5,2,1.187-.25,1-2,1-2h0.094l0.625-20H175.5a1.5,1.5,0,0,1,0-3h5.313l0.136-4.383a6,6,0,1,1,4.1,0L185.187,517H190.5a1.5,1.5,0,0,1,0,3h-5.219l0.625,20H186s-0.187,1.75,1,2c0.74,0.156,3.248-.731,5-2a27,27,0,0,0,5.217-5.835l-1.9-.659a0.377,0.377,0,0,1-.174-0.672c0.339-.244,5.154-3.559,5.453-3.761a0.52,0.52,0,0,1,.768.267c0.124,0.467,1.568,5.939,1.639,6.212A0.4,0.4,0,0,1,202.414,535.971ZM187,507a4,4,0,1,0-4,4A4,4,0,0,0,187,507Z"/>
    </g>
    <g id="Content">
      <path id="Icon-54" data-name="Icon" class="cls-1" d="M201.556,421.246a11.009,11.009,0,0,0,.185,2.594,1.863,1.863,0,0,0,.651.943,1.454,1.454,0,0,0,.86.361q1.6,0,3.023-2.458l0.737,0.546Q205.022,428,200.549,428a5.67,5.67,0,0,1-3.7-1.229,5.431,5.431,0,0,1-1.929-2.742,23.672,23.672,0,0,1-.245-4.568V406.922h-3v-0.869a31.818,31.818,0,0,0,5.271-4.642,28.244,28.244,0,0,0,3.8-5.437h0.811v8.491h5.456v2.457h-5.456v14.324ZM186.3,398.593a6.749,6.749,0,0,0-2.63-2.2,8.354,8.354,0,0,0-3.268-.447h-2.482v25.967a10.69,10.69,0,0,0,.283,3.228,2.543,2.543,0,0,0,1.106,1.129,4.43,4.43,0,0,0,2.248.484h1.106v0.919H165.211v-0.919h1.106a4.566,4.566,0,0,0,2.335-.521,2.368,2.368,0,0,0,1.007-1.192,10.321,10.321,0,0,0,.271-3.128V395.949h-2.409q-3.366,0-4.89,1.441a9.559,9.559,0,0,0-2.7,5.734h-0.934v-9.111h29.931v9.111h-0.884A14.49,14.49,0,0,0,186.3,398.593Z"/>
    </g>
    <g id="Registration">
      <path id="Icon-55" data-name="Icon" class="cls-1" d="M199,321H169a5,5,0,0,1-5-5V296a5,5,0,0,1,5-5h30a5,5,0,0,1,5,5v20A5,5,0,0,1,199,321Zm-15-23a5,5,0,0,0-2,9.578V312a2,2,0,0,0,4,0v-4.422A5,5,0,0,0,184,298Zm10.949-9c0.03-.33.051-0.662,0.051-1a11,11,0,0,0-22,0c0,0.338.021,0.67,0.051,1h-4c-0.021-.332-0.05-0.662-0.05-1a15,15,0,0,1,30,0c0,0.338-.029.668-0.05,1h-4Z"/>
    </g>
    <g id="Login">
      <path id="Icon-56" data-name="Icon" class="cls-1" d="M197.818,207H170.182A5.163,5.163,0,0,1,165,201.857V185h-2v-4h2V164.143A5.162,5.162,0,0,1,170.182,159h27.636A5.162,5.162,0,0,1,203,164.143v37.714A5.163,5.163,0,0,1,197.818,207ZM201,164a3,3,0,0,0-3-3H170a3,3,0,0,0-3,3v12h-2v5h19l-10-10h7l12,12-12,12h-7l10-10H165v5h2v12a3,3,0,0,0,3,3h28a3,3,0,0,0,3-3V164Z"/>
    </g>
    <g id="Search">
      <path id="Icon-57" data-name="Icon" class="cls-1" d="M205.828,91.966a4,4,0,0,1-5.657,0l-11.511-11.5a21.094,21.094,0,0,0,5.684-5.629l11.482,11.476A4,4,0,0,1,205.828,91.966ZM177,81a18,18,0,1,1,18-18A18,18,0,0,1,177,81Zm10-27.789V53h-0.211A13.993,13.993,0,0,0,167,72.789V73h0.211a13.979,13.979,0,0,0,19.578,0H187V72.789A13.977,13.977,0,0,0,187,53.211ZM169,63h-2a10,10,0,0,1,10-10v2A8,8,0,0,0,169,63Z"/>
    </g>
  </g>
  <g id="Column_1" data-name="Column 1">
    <g id="Spoiler">
      <path id="Background-3" data-name="Background" class="cls-2" d="M47,1315H91a0,0,0,0,1,0,0v26a4,4,0,0,1-4,4H51a4,4,0,0,1-4-4v-26A0,0,0,0,1,47,1315Z"/>
      <path id="Border-24" data-name="Border" class="cls-1" d="M88,1347H50a5,5,0,0,1-5-5v-38a5,5,0,0,1,5-5H88a5,5,0,0,1,5,5v38A5,5,0,0,1,88,1347Zm-37-2H87a4,4,0,0,0,4-4v-26H47v26A4,4,0,0,0,51,1345Zm36-44H51a4,4,0,0,0-4,4v8H91v-8A4,4,0,0,0,87,1301Z"/>
      <path id="Arrow-2" data-name="Arrow" class="cls-1" d="M65,1304l4,4,4-4h2l-6,6-6-6h2Z"/>
    </g>
    <g id="Structure">
      <path id="Border-25" data-name="Border" class="cls-1" d="M45,1203H68v30H50a5,5,0,0,1-5-5v-25Zm2,2H66v26H51a4,4,0,0,1-4-4v-22Zm-2-15a5,5,0,0,1,5-5H88a5,5,0,0,1,5,5v11H45v-11Zm2,1a4,4,0,0,1,4-4H87a4,4,0,0,1,4,4v8H47v-8Zm46,12v25a5,5,0,0,1-5,5H70v-30H93Zm-2,24a4,4,0,0,1-4,4H72v-26H91v22Z"/>
    </g>
    <g id="Flip_Cards" data-name="Flip Cards">
      <path id="Front-2" data-name="Front" class="cls-1" d="M51.425,1071.35l12.757,4.04A5.636,5.636,0,0,1,68,1080.43v29.15a5.639,5.639,0,0,1-3.818,5.05l-12.757,4.04c-3.417,1.08-6.425-.37-6.425-3.32v-40.68C45,1071.72,48.008,1070.27,51.425,1071.35Z"/>
      <path id="Back-2" data-name="Back" class="cls-1" d="M86.576,1118.63l-12.757-4.03A5.613,5.613,0,0,1,70,1109.57v-29.12a5.613,5.613,0,0,1,3.819-5.03l12.757-4.04c3.417-1.08,6.424.37,6.424,3.32v40.62C93,1118.27,89.992,1119.71,86.576,1118.63Zm3.727-42.22c0-2.29-2.268-3.48-4.891-2.72l-10.767,3.12a4.5,4.5,0,0,0-3.174,4.06v28.28a4.5,4.5,0,0,0,3.174,4.06l10.767,3.12c2.623,0.76,4.891-.44,4.891-2.72v-37.2Z"/>
    </g>
    <g id="Sticky_Block" data-name="Sticky Block">
      <path id="Borde" class="cls-1" d="M87.818,1005H85v-2h2a4,4,0,0,0,4-4v-2h2v2.857A5.161,5.161,0,0,1,87.818,1005ZM91,991h2v4H91v-4Zm0-6h2v4H91v-4Zm0-6h2v4H91v-4Zm0-6h2v4H91v-4Zm0-6h2v4H91v-4Zm0-4a4,4,0,0,0-4-4H85v-2h2.818A5.162,5.162,0,0,1,93,962.143V965H91v-2Zm-8-6h0v2H79v-2h4Zm0,48H79v-2h4v2Zm-6-46H73v-2h4v2Zm0,46H73v-2h4v2Zm-6-46H67v-2h4v2Zm-10,44h4v2H61v-2Zm0-46h4v2H61v-2Zm-6,46h4v2H55v-2Zm0-46h4v2H55v-2ZM45,999.857V997h2v2a4,4,0,0,0,4,4h2v2H50.182A5.161,5.161,0,0,1,45,999.857ZM47,963v2H45v-2.857A5.162,5.162,0,0,1,50.182,957H53v2H51A4,4,0,0,0,47,963Zm-2,4h2v4H45v-4h0Zm2,10H45v-4h2v4Zm0,6H45v-4h2v4Zm0,6H45v-4h2v4Zm-2,2h2v4H45v-4h0Zm26,14H67v-2h4v2Z"/>
      <path id="Pin" class="cls-1" d="M66.565,984.825l-9.437,9.437a1.112,1.112,0,0,1-1.573-1.572l9.437-9.438-5.5-5.5,0.786-.786a2.224,2.224,0,0,1,3.146,0l3.932,3.932,1.573,1.573,3.932,3.932a2.225,2.225,0,0,1,0,3.146l-0.786.786Zm12.583-7.864-6.291,7.864-7.864-7.864,7.864-6.291Zm0.786-.786-6.291-6.292a2.225,2.225,0,0,1,0-3.146l9.437,9.438S80.8,977.043,79.935,976.175Z"/>
    </g>
    <g id="Hidden_Tabs" data-name="Hidden Tabs">
      <path id="Icon-58" data-name="Icon" class="cls-1" d="M87.818,891H50.182A5.163,5.163,0,0,1,45,885.857V856.143a5.144,5.144,0,0,1,4-5v-3A5.162,5.162,0,0,1,54.182,843h8.636A5.162,5.162,0,0,1,68,848.143V851h2v-2.857A5.162,5.162,0,0,1,75.182,843h8.636A5.162,5.162,0,0,1,89,848.143v3a5.144,5.144,0,0,1,4,5v29.714A5.163,5.163,0,0,1,87.818,891ZM87,848a3,3,0,0,0-3-3H75a3,3,0,0,0-3,3v3H87v-3Zm4,9a4,4,0,0,0-4-4H66v-2h0v-3a3,3,0,0,0-3-3H54a3,3,0,0,0-3,3v5a4,4,0,0,0-4,4v28a4,4,0,0,0,4,4H87a4,4,0,0,0,4-4V857Z"/>
      <path id="Arrow-3" data-name="Arrow" class="cls-1" d="M77,869l-8,7-8-7v-3l8,7,8-7v3Z"/>
    </g>
    <g id="Tabs">
      <path id="Icon-59" data-name="Icon" class="cls-1" d="M87.818,777H50.182A5.162,5.162,0,0,1,45,771.857V742.143a5.144,5.144,0,0,1,4-5v-3A5.162,5.162,0,0,1,54.182,729h8.636A5.162,5.162,0,0,1,68,734.143V737h2v-2.857A5.162,5.162,0,0,1,75.182,729h8.636A5.162,5.162,0,0,1,89,734.143v3a5.144,5.144,0,0,1,4,5v29.714A5.162,5.162,0,0,1,87.818,777ZM87,734a3,3,0,0,0-3-3H75a3,3,0,0,0-3,3v3H87v-3Zm4,9a4,4,0,0,0-4-4H66v-2h0v-3a3,3,0,0,0-3-3H54a3,3,0,0,0-3,3v5a4,4,0,0,0-4,4v28a4,4,0,0,0,4,4H87a4,4,0,0,0,4-4V743Z"/>
    </g>
    <g id="Menu-2" data-name="Menu">
      <path id="Icon-60" data-name="Icon" class="cls-1" d="M90,652H56a3,3,0,0,1,0-6H90A3,3,0,0,1,90,652Zm0-10H56a3,3,0,0,1,0-6H90A3,3,0,0,1,90,642Zm0-10H56a3,3,0,0,1,0-6H90A3,3,0,0,1,90,632Zm0-10H56a3,3,0,0,1,0-6H90A3,3,0,0,1,90,622ZM48,662a3,3,0,1,1,3-3A3,3,0,0,1,48,662Zm0-10a3,3,0,1,1,3-3A3,3,0,0,1,48,652Zm0-10a3,3,0,1,1,3-3A3,3,0,0,1,48,642Zm0-10a3,3,0,1,1,3-3A3,3,0,0,1,48,632Zm0-10a3,3,0,1,1,3-3A3,3,0,0,1,48,622Zm8,34H90a3,3,0,0,1,0,6H56A3,3,0,0,1,56,656Z"/>
    </g>
    <g id="Spacer">
      <path id="Icon-61" data-name="Icon" class="cls-1" d="M91,549v-3h2v3H91Zm0-9h2v4H91v-4Zm0-4a4,4,0,0,0-4-4H85v-2h2.818A5.163,5.163,0,0,1,93,535.143V538H91v-2Zm-3.182-16H85v-2h2a4,4,0,0,0,4-4v-2h2v2.857A5.162,5.162,0,0,1,87.818,520ZM91,506h2v4H91v-4Zm0-5h2v3H91v-3ZM79,518h4v2H79v-2Zm-2,14H73v-2h4v2Zm-4-14h4v2H73v-2Zm-2,14H67v-2h4v2Zm-4-14h4v2H67v-2Zm-6,0h4v2H61v-2Zm4,14H61v-2h4v2ZM55,518h4v2H55v-2Zm4,14H55v-2h4v2ZM45,514.857V512h2v2a4,4,0,0,0,4,4h2v2H50.182A5.162,5.162,0,0,1,45,514.857ZM45,510h0v-4h2v4H45Zm0-6h0v-3h2v3H45Zm5.182,26H53v2H51a4,4,0,0,0-4,4v2H45v-2.857A5.163,5.163,0,0,1,50.182,530ZM45,540h2v4H45v-4h0Zm2,9H45v-3h2v3Zm36-19h0v2H79v-2h4Z"/>
    </g>
    <g id="Divider">
      <path id="Icon-62" data-name="Icon" class="cls-1" d="M91,435v-3h2v3H91Zm0-9h2v4H91v-4Zm0-4a4,4,0,0,0-4-4H85v-2h2.818A5.162,5.162,0,0,1,93,421.143V424H91v-2Zm-3.182-16H85v-2h2a4,4,0,0,0,4-4v-2h2v2.857A5.163,5.163,0,0,1,87.818,406ZM91,392h2v4H91v-4Zm0-5h2v3H91v-3ZM79,404h4v2H79v-2Zm-2,14H73v-2h4v2Zm-4-14h4v2H73v-2Zm-2,14H67v-2h4v2Zm-4-14h4v2H67v-2Zm-6,0h4v2H61v-2Zm4,14H61v-2h4v2ZM55,404h4v2H55v-2Zm4,14H55v-2h4v2ZM45,400.857V398h2v2a4,4,0,0,0,4,4h2v2H50.182A5.163,5.163,0,0,1,45,400.857ZM45,396h0v-4h2v4H45Zm0-6h0v-3h2v3H45Zm5.182,26H53v2H51a4,4,0,0,0-4,4v2H45v-2.857A5.162,5.162,0,0,1,50.182,416ZM45,426h2v4H45v-4h0Zm2,9H45v-3h2v3Zm36-19h0v2H79v-2h4Zm-38-6H93v2H45v-2h0Z"/>
    </g>
    <g id="Columns">
      <path id="Icon-63" data-name="Icon" class="cls-1" d="M88,321H84a5,5,0,0,1-5-5V278a5,5,0,0,1,5-5h4a5,5,0,0,1,5,5v38A5,5,0,0,1,88,321Zm3-43a3,3,0,0,0-3-3H84a3,3,0,0,0-3,3v38a3,3,0,0,0,3,3h4a3,3,0,0,0,3-3V278ZM71,321H67a5,5,0,0,1-5-5V278a5,5,0,0,1,5-5h4a5,5,0,0,1,5,5v38A5,5,0,0,1,71,321Zm3-43a3,3,0,0,0-3-3H67a3,3,0,0,0-3,3v38a3,3,0,0,0,3,3h4a3,3,0,0,0,3-3V278ZM54,321H50a5,5,0,0,1-5-5V278a5,5,0,0,1,5-5h4a5,5,0,0,1,5,5v38A5,5,0,0,1,54,321Zm3-43a3,3,0,0,0-3-3H50a3,3,0,0,0-3,3v38a3,3,0,0,0,3,3h4a3,3,0,0,0,3-3V278Z"/>
    </g>
    <g id="Area">
      <path id="Border-26" data-name="Border" class="cls-1" d="M87.818,207H85v-2h2a4,4,0,0,0,4-4v-2h2v2.857A5.162,5.162,0,0,1,87.818,207ZM91,193h2v4H91v-4Zm0-6h2v4H91v-4Zm0-6h2v4H91v-4Zm0-6h2v4H91v-4Zm0-6h2v4H91v-4Zm0-4a4,4,0,0,0-4-4H85v-2h2.818A5.162,5.162,0,0,1,93,164.143V167H91v-2Zm-8-6h0v2H79v-2h4Zm0,48H79v-2h4v2Zm-6-46H73v-2h4v2Zm0,46H73v-2h4v2Zm-6-46H67v-2h4v2ZM61,205h4v2H61v-2Zm0-46h4v2H61v-2Zm-6,46h4v2H55v-2Zm0-46h4v2H55v-2ZM45,201.857V199h2v2a4,4,0,0,0,4,4h2v2H50.182A5.162,5.162,0,0,1,45,201.857ZM47,165v2H45v-2.857A5.162,5.162,0,0,1,50.182,159H53v2H51A4,4,0,0,0,47,165Zm-2,4h2v4H45v-4h0Zm2,10H45v-4h2v4Zm0,6H45v-4h2v4Zm0,6H45v-4h2v4Zm-2,2h2v4H45v-4h0Zm26,14H67v-2h4v2Z"/>
    </g>
    <g id="Default">
      <path id="big" class="cls-1" d="M78,77v4H73.827a11.91,11.91,0,0,1-2.06,4.937L74.729,88.9,71.9,91.727l-2.964-2.964A11.929,11.929,0,0,1,64,90.82V95H60V90.82a11.932,11.932,0,0,1-4.934-2.055L52.1,91.729,49.273,88.9l2.962-2.962A11.906,11.906,0,0,1,50.173,81H46V77h4.173a11.908,11.908,0,0,1,2.06-4.937L49.271,69.1,52.1,66.273l2.964,2.964A11.924,11.924,0,0,1,60,67.18V63h4v4.18a11.931,11.931,0,0,1,4.935,2.055L71.9,66.271,74.727,69.1l-2.962,2.962A11.907,11.907,0,0,1,73.827,77H78ZM62,73a6,6,0,1,0,6,6A6,6,0,0,0,62,73Z"/>
      <path id="small" class="cls-6" d="M91,54.5v3H87.864a8.943,8.943,0,0,1-1.542,3.7l2.225,2.224-2.121,2.122L84.2,63.321a8.934,8.934,0,0,1-3.7,1.544V68h-3V64.865a8.934,8.934,0,0,1-3.7-1.543l-2.224,2.224-2.122-2.122L71.679,61.2a8.945,8.945,0,0,1-1.543-3.7H67v-3h3.136a8.944,8.944,0,0,1,1.542-3.7l-2.225-2.224,2.121-2.122L73.8,48.678a8.933,8.933,0,0,1,3.7-1.543V44h3v3.135a8.932,8.932,0,0,1,3.7,1.542l2.224-2.224,2.121,2.121L86.321,50.8a8.945,8.945,0,0,1,1.543,3.7H91ZM79,51a5,5,0,1,0,5,5A5,5,0,0,0,79,51Z"/>
    </g>
  </g>
  <g id="_pivots">
    <path id="Top" class="cls-7" d="M0,0H1V1H0V0H0Z"/>
    <path id="Bottom" class="cls-7" d="M1163,1391h1v1h-1v-1h0Z"/>
  </g>
</svg>
