<svg xmlns="http://www.w3.org/2000/svg" xmlns:xlink="http://www.w3.org/1999/xlink" preserveAspectRatio="xMidYMid" width="90" height="5130" viewBox="0 0 90 5130"><defs><style>
      .cls-1, .cls-2, .cls-3, .cls-4, .cls-5, .cls-6, .cls-7 {
        fill: #fff;
      }

      .cls-1, .cls-2, .cls-4, .cls-5 {
        fill-rule: evenodd;
      }

      .cls-2 {
        fill-opacity: 0.85;
      }

      .cls-4 {
        opacity: 0.55;
      }

      .cls-5, .cls-6 {
        opacity: 0.4;
      }

      .cls-7 {
        opacity: 0;
      }
    </style></defs><path d="M64 5109L26 5109C23.239 5109 21 5106.761 21 5104L21 5066C21 5063.239 23.239 5061 26 5061L64 5061C66.761 5061 69 5063.239 69 5066L69 5104C69 5106.761 66.761 5109 64 5109ZM67 5067C67 5064.791 65.209 5063 63 5063L27 5063C24.791 5063 23 5064.791 23 5067L23 5103C23 5105.209 24.791 5107 27 5107L63 5107C65.209 5107 67 5105.209 67 5103L67 5067Z" class="cls-1"/><path d="M62 5091L28 5091C27.448 5091 27 5090.552 27 5090L27 5082C27 5081.448 27.448 5081 28 5081L62 5081C62.552 5081 63 5081.448 63 5082L63 5090C63 5090.552 62.552 5091 62 5091ZM62 5079L28 5079C27.448 5079 27 5078.552 27 5078L27 5076C27 5075.448 27.448 5075 28 5075L62 5075C62.552 5075 63 5075.448 63 5076L63 5078C63 5078.552 62.552 5079 62 5079ZM62 5073L28 5073C27.448 5073 27 5072.552 27 5072L27 5070C27 5069.448 27.448 5069 28 5069L62 5069C62.552 5069 63 5069.448 63 5070L63 5072C63 5072.552 62.552 5073 62 5073Z" class="cls-2"/><path d="M57 5101L47 5101C46.448 5101 46 5100.552 46 5100L46 5098C46 5097.448 46.448 5097 47 5097L57 5097C57.552 5097 58 5097.448 58 5098L58 5100C58 5100.552 57.552 5101 57 5101ZM43 5101L33 5101C32.448 5101 32 5100.552 32 5100L32 5098C32 5097.448 32.448 5097 33 5097L43 5097C43.552 5097 44 5097.448 44 5098L44 5100C44 5100.552 43.552 5101 43 5101Z" class="cls-1"/><path d="M65 5005.9L65 5003.445C66.191 5002.752 67 5001.477 67 5000L67 4990C67 4987.791 65.209 4986 63 4986L27 4986C24.791 4986 23 4987.791 23 4990L23 5000C23 5002.209 24.791 5004 27 5004L39 5004 39 5006 26 5006C23.239 5006 21 5003.761 21 5001L21 4989C21 4986.239 23.239 4984 26 4984L64 4984C66.761 4984 69 4986.239 69 4989L69 5001C69 5003.419 67.282 5005.436 65 5005.9Z" class="cls-1"/><rect x="27" y="4989" width="2" height="12" class="cls-3"/><path d="M61 5016L43 5016 41 5016 41 4994 43 4994 43 4997 48 4997 48 4994 56 4994 56 4997 61 4997 61 4994 63 4994 63 5016 61 5016ZM61 4999L56 4999 48 4999 43 4999 43 5014 61 5014 61 4999ZM47 5006L45 5006 45 5004 47 5004 47 5006ZM47 5009L45 5009 45 5007 47 5007 47 5009ZM47 5012L45 5012 45 5010 47 5010 47 5012ZM50 5006L48 5006 48 5004 50 5004 50 5006ZM50 5009L48 5009 48 5007 50 5007 50 5009ZM50 5012L48 5012 48 5010 50 5010 50 5012ZM53 5003L51 5003 51 5001 53 5001 53 5003ZM53 5006L51 5006 51 5004 53 5004 53 5006ZM53 5009L51 5009 51 5007 53 5007 53 5009ZM53 5012L51 5012 51 5010 53 5010 53 5012ZM56 5003L54 5003 54 5001 56 5001 56 5003ZM56 5006L54 5006 54 5004 56 5004 56 5006ZM56 5009L54 5009 54 5007 56 5007 56 5009ZM56 5012L54 5012 54 5010 56 5010 56 5012ZM59 5003L57 5003 57 5001 59 5001 59 5003ZM59 5006L57 5006 57 5004 59 5004 59 5006ZM59 5009L57 5009 57 5007 59 5007 59 5009ZM57 4994L60 4994 60 4996 57 4996 57 4994ZM44 4994L47 4994 47 4996 44 4996 44 4994Z" class="cls-1"/><path d="M65 4915.9L65 4913.445C66.191 4912.752 67 4911.477 67 4910L67 4900C67 4897.791 65.209 4896 63 4896L27 4896C24.791 4896 23 4897.791 23 4900L23 4910C23 4912.209 24.791 4914 27 4914L37 4914 37 4916 26 4916C23.239 4916 21 4913.761 21 4911L21 4899C21 4896.238 23.239 4894 26 4894L64 4894C66.761 4894 69 4896.238 69 4899L69 4911C69 4913.419 67.282 4915.436 65 4915.9Z" class="cls-1"/><rect x="27" y="4899" width="2" height="12" class="cls-3"/><path d="M58.5 4915.5L58.5 4914.5 60.5 4914.5 60.5 4915.5 58.5 4915.5ZM55.956 4920.652L56.663 4919.943 58.078 4921.356 57.371 4922.065 55.956 4920.652ZM55.947 4909.34L57.36 4907.925 58.068 4908.632 56.654 4910.047 55.947 4909.34ZM50.5 4922.5L51.5 4922.5 51.5 4924.5 50.5 4924.5 50.5 4922.5ZM50.5 4905.5L51.5 4905.5 51.5 4907.5 50.5 4907.5 50.5 4905.5ZM43.932 4921.368L45.346 4919.953 46.053 4920.659 44.64 4922.075 43.932 4921.368ZM43.922 4908.644L44.629 4907.936 46.044 4909.349 45.337 4910.057 43.922 4908.644ZM41.5 4914.5L43.5 4914.5 43.5 4915.5 41.5 4915.5 41.5 4914.5Z" class="cls-4"/><path d="M51 4927C44.373 4927 39 4921.627 39 4915 39 4908.373 44.373 4903 51 4903 57.627 4903 63 4908.373 63 4915 63 4921.627 57.627 4927 51 4927ZM51 4905C45.477 4905 41 4909.477 41 4915 41 4920.523 45.477 4925 51 4925 56.523 4925 61 4920.523 61 4915 61 4909.477 56.523 4905 51 4905ZM52.926 4914.489C52.969 4914.653 53 4914.822 53 4915 53 4916.105 52.105 4917 51 4917 50.262 4917 49.624 4916.595 49.277 4916L43.5 4916C42.948 4916 42.5 4915.552 42.5 4915 42.5 4914.448 42.948 4914 43.5 4914L49.277 4914C49.624 4913.405 50.262 4913 51 4913 51.178 4913 51.348 4913.031 51.512 4913.074L54.412 4910.171C54.803 4909.78 55.436 4909.779 55.827 4910.17 56.217 4910.56 56.218 4911.193 55.828 4911.584L52.926 4914.489Z" class="cls-1"/><path d="M66.346 4838.39L64.529 4836.694C65.979 4836.093 67 4834.667 67 4833L67 4797C67 4794.791 65.209 4793 63 4793L27 4793C24.791 4793 23 4794.791 23 4797L23 4833C23 4835.209 24.791 4837 27 4837L51 4837 51 4839 26 4839C23.239 4839 21 4836.761 21 4834L21 4796C21 4793.239 23.239 4791 26 4791L64 4791C66.761 4791 69 4793.239 69 4796L69 4834C69 4835.908 67.918 4837.547 66.346 4838.39Z" class="cls-1"/><path d="M64.529 4836.694L52 4825 51 4825 51 4837 27 4837C24.791 4837 23 4835.209 23 4833L23 4797C23 4794.791 24.791 4793 27 4793L63 4793C65.209 4793 67 4794.791 67 4797L67 4833C67 4834.667 65.979 4836.093 64.529 4836.694Z" class="cls-5"/><path d="M55.574 4828.336L58.193 4824.167 65.002 4835.007 62.722 4835.007 55.574 4828.336ZM58.01 4806.994C55.249 4806.994 53.01 4804.754 53.01 4801.991 53.01 4799.227 55.249 4796.987 58.01 4796.987 60.772 4796.987 63.01 4799.227 63.01 4801.991 63.01 4804.754 60.772 4806.994 58.01 4806.994ZM51 4835.007L24.998 4835.007 38.829 4812.988 51 4832.364 51 4835.007Z" class="cls-1"/><path d="M53 4828L53 4849.283 57.617 4844.981 61.597 4852 66.453 4849.51 62.871 4843.17 69 4843.17 53 4828Z" class="cls-1"/><path d="M64 4749L62 4749 62 4747 63 4747C65.209 4747 67 4745.209 67 4743L67 4733C67 4730.791 65.209 4729 63 4729L27 4729C24.791 4729 23 4730.791 23 4733L23 4743C23 4745.209 24.791 4747 27 4747L56 4747 56 4749 26 4749C23.239 4749 21 4746.761 21 4744L21 4732C21 4729.239 23.239 4727 26 4727L64 4727C66.761 4727 69 4729.239 69 4732L69 4744C69 4746.761 66.761 4749 64 4749Z" class="cls-1"/><rect x="27" y="4732" width="2" height="12" class="cls-3"/><path d="M64 4740L60 4740 60 4756 64 4756C64.552 4756 65 4756.448 65 4757 65 4757.552 64.552 4758 64 4758L60 4758 58 4758 54 4758C53.448 4758 53 4757.552 53 4757 53 4756.448 53.448 4756 54 4756L58 4756 58 4740 54 4740C53.448 4740 53 4739.552 53 4739 53 4738.448 53.448 4738 54 4738L58 4738 60 4738 64 4738C64.552 4738 65 4738.448 65 4739 65 4739.552 64.552 4740 64 4740Z" class="cls-1"/><path d="M64 4723L26 4723C23.239 4723 21 4720.761 21 4718L21 4706C21 4703.239 23.239 4701 26 4701L64 4701C66.761 4701 69 4703.239 69 4706L69 4718C69 4720.761 66.761 4723 64 4723ZM67 4707C67 4704.791 65.209 4703 63 4703L27 4703C24.791 4703 23 4704.791 23 4707L23 4717C23 4719.209 24.791 4721 27 4721L63 4721C65.209 4721 67 4719.209 67 4717L67 4707Z" class="cls-1"/><rect x="23" y="4703" width="44" height="18" rx="4" ry="4" class="cls-6"/><path d="M57.378 4708.523C56.622 4708.168 55.865 4707.99 55.109 4707.99 54.011 4707.99 53.144 4708.356 52.508 4709.087 51.872 4709.818 51.554 4710.82 51.554 4712.092 51.554 4713.4 51.861 4714.41 52.474 4715.123 53.087 4715.836 53.96 4716.193 55.095 4716.193 55.792 4716.193 56.588 4716.068 57.481 4715.817L57.481 4716.836C56.788 4717.096 55.934 4717.225 54.917 4717.225 53.445 4717.225 52.31 4716.779 51.51 4715.886 50.71 4714.992 50.31 4713.723 50.31 4712.078 50.31 4711.048 50.503 4710.146 50.888 4709.371 51.273 4708.596 51.829 4707.999 52.556 4707.58 53.283 4707.16 54.138 4706.951 55.123 4706.951 56.171 4706.951 57.087 4707.142 57.871 4707.525L57.378 4708.523ZM48.683 4714.245C48.683 4715.138 48.381 4715.835 47.777 4716.337 47.173 4716.838 46.329 4717.089 45.245 4717.089L41.758 4717.089 41.758 4707.095 44.582 4707.095C45.908 4707.095 46.867 4707.293 47.459 4707.689 48.052 4708.086 48.348 4708.712 48.348 4709.569 48.348 4710.161 48.183 4710.65 47.853 4711.035 47.522 4711.421 47.04 4711.67 46.407 4711.784L46.407 4711.852C47.924 4712.112 48.683 4712.91 48.683 4714.245ZM46.605 4710.988C46.965 4710.73 47.145 4710.296 47.145 4709.685 47.145 4709.125 46.944 4708.72 46.543 4708.472 46.142 4708.224 45.504 4708.099 44.629 4708.099L42.92 4708.099 42.92 4711.374 44.834 4711.374C45.655 4711.374 46.245 4711.245 46.605 4710.988ZM44.91 4712.358L42.92 4712.358 42.92 4716.097 45.005 4716.097C45.812 4716.097 46.419 4715.941 46.827 4715.629 47.235 4715.317 47.439 4714.828 47.439 4714.163 47.439 4713.543 47.23 4713.087 46.813 4712.795 46.396 4712.504 45.762 4712.358 44.91 4712.358ZM37.937 4713.91L33.931 4713.91 32.701 4717.089 31.525 4717.089 35.476 4707.053 36.454 4707.053 40.384 4717.089 39.181 4717.089 37.937 4713.91ZM36.413 4709.767C36.262 4709.375 36.107 4708.895 35.948 4708.325 35.847 4708.763 35.704 4709.243 35.517 4709.767L34.341 4712.864 37.575 4712.864 36.413 4709.767Z" class="cls-1"/><path d="M64 4659L26 4659C23.239 4659 21 4656.762 21 4654L21 4616C21 4613.238 23.239 4611 26 4611L64 4611C66.761 4611 69 4613.238 69 4616L69 4654C69 4656.762 66.761 4659 64 4659ZM31 4615C31 4613.895 30.105 4613 29 4613L25 4613C23.895 4613 23 4613.895 23 4615L23 4619C23 4620.104 23.895 4621 25 4621L29 4621C30.105 4621 31 4620.104 31 4619L31 4615ZM41 4615C41 4613.895 40.105 4613 39 4613L35 4613C33.895 4613 33 4613.895 33 4615L33 4619C33 4620.104 33.895 4621 35 4621L39 4621C40.105 4621 41 4620.104 41 4619L41 4615ZM51 4615C51 4613.895 50.105 4613 49 4613L45 4613C43.895 4613 43 4613.895 43 4615L43 4619C43 4620.104 43.895 4621 45 4621L49 4621C50.105 4621 51 4620.104 51 4619L51 4615ZM67 4627C67 4624.791 65.209 4623 63 4623L27 4623C24.791 4623 23 4624.791 23 4627L23 4653C23 4655.209 24.791 4657 27 4657L63 4657C65.209 4657 67 4655.209 67 4653L67 4627Z" class="cls-1"/><path d="M29 4619L28 4620 25 4620 25 4614 28 4614 29 4615 29 4616 28 4617 29 4618 29 4619ZM28 4618L26 4617 28 4616 28 4615 26 4615 26 4617 26 4619 28 4619 28 4618Z" class="cls-4"/><path d="M37.833 4615L37.167 4619 38 4619 38 4620 37 4620 36 4620 35 4620 35 4619 36.167 4619 36.833 4615 36 4615 36 4614 37 4614 38 4614 39 4614 39 4615 37.833 4615Z" class="cls-4"/><path d="M45 4614L45 4619 46 4620 48 4620 49 4619 49 4614 48 4614 48 4618 47 4619 46 4618 46 4614 45 4614Z" class="cls-4"/><rect x="27" y="4626" width="2" height="12" class="cls-3"/><path d="M63 4623C65.209 4623 67 4624.791 67 4627L67 4653C67 4655.209 65.209 4657 63 4657L60 4657 60 4623 63 4623Z" class="cls-5"/><path d="M62 4628L63.5 4626 65 4628 64.25 4628 63.5 4627 62.75 4628 62 4628Z" class="cls-1"/><path d="M62 4652L63.5 4654 65 4652 64.25 4652 63.5 4653 62.75 4652 62 4652Z" class="cls-1"/><path d="M64 4569L26 4569C23.239 4569 21 4566.761 21 4564L21 4526C21 4523.239 23.239 4521 26 4521L64 4521C66.761 4521 69 4523.239 69 4526L69 4564C69 4566.761 66.761 4569 64 4569ZM67 4527C67 4524.791 65.209 4523 63 4523L27 4523C24.791 4523 23 4524.791 23 4527L23 4563C23 4565.209 24.791 4567 27 4567L63 4567C65.209 4567 67 4565.209 67 4563L67 4527Z" class="cls-1"/><rect x="27" y="4526" width="2" height="12" class="cls-3"/><path d="M63 4523C65.209 4523 67 4524.791 67 4527L67 4563C67 4565.209 65.209 4567 63 4567L60 4567 60 4523 63 4523Z" class="cls-5"/><path d="M62 4528L63.5 4526 65 4528 64.25 4528 63.5 4527 62.75 4528 62 4528Z" class="cls-1"/><path d="M62 4562L63.5 4564 65 4562 64.25 4562 63.5 4563 62.75 4562 62 4562Z" class="cls-1"/><path d="M51 4479L39 4479C36.239 4479 34 4476.761 34 4474L34 4462C34 4459.238 36.239 4457 39 4457L51 4457C53.761 4457 56 4459.238 56 4462L56 4474C56 4476.761 53.761 4479 51 4479ZM54 4463C54 4460.791 52.209 4459 50 4459L40 4459C37.791 4459 36 4460.791 36 4463L36 4473C36 4475.209 37.791 4477 40 4477L50 4477C52.209 4477 54 4475.209 54 4473L54 4463Z" class="cls-1"/><path d="M52.28 4433.719C51.633 4433.268 50.849 4433 50 4433L40 4433C37.791 4433 36 4434.791 36 4437L36 4447C36 4449.209 37.791 4451 40 4451L50 4451C52.209 4451 54 4449.209 54 4447L54 4442.4 56 4440.8 56 4448C56 4450.762 53.761 4453 51 4453L39 4453C36.239 4453 34 4450.762 34 4448L34 4436C34 4433.239 36.239 4431 39 4431L51 4431C52.125 4431 53.152 4431.385 53.988 4432.012L52.28 4433.719Z" class="cls-1"/><path d="M37 4440L45 4447 61 4434 58 4431 45 4442 41 4438 37 4440Z" class="cls-1"/><path d="M32 4376C25.925 4376 21 4371.075 21 4365 21 4358.925 25.925 4354 32 4354 38.075 4354 43 4358.925 43 4365 43 4371.075 38.075 4376 32 4376ZM32 4356C27.029 4356 23 4360.029 23 4365 23 4369.971 27.029 4374 32 4374 36.971 4374 41 4369.971 41 4365 41 4360.029 36.971 4356 32 4356Z" class="cls-1"/><path d="M59 4376C52.925 4376 48 4371.075 48 4365 48 4358.925 52.925 4354 59 4354 65.075 4354 70 4358.925 70 4365 70 4371.075 65.075 4376 59 4376ZM59 4356C54.029 4356 50 4360.029 50 4365 50 4369.971 54.029 4374 59 4374 63.971 4374 68 4369.971 68 4365 68 4360.029 63.971 4356 59 4356ZM59 4369C56.791 4369 55 4367.209 55 4365 55 4362.791 56.791 4361 59 4361 61.209 4361 63 4362.791 63 4365 63 4367.209 61.209 4369 59 4369Z" class="cls-1"/><path d="M52.28 4266.719C51.633 4266.268 50.849 4266 50 4266L40 4266C37.791 4266 36 4267.791 36 4270L36 4280C36 4282.209 37.791 4284 40 4284L50 4284C52.209 4284 54 4282.209 54 4280L54 4275.4 56 4273.8 56 4281C56 4283.761 53.761 4286 51 4286L39 4286C36.239 4286 34 4283.761 34 4281L34 4269C34 4266.239 36.239 4264 39 4264L51 4264C52.125 4264 53.152 4264.385 53.988 4265.012L52.28 4266.719Z" class="cls-1"/><path d="M37 4273L45 4280 61 4267 58 4264 45 4275 41 4271 37 4273Z" class="cls-1"/><path d="M64 4196L26 4196C23.239 4196 21 4193.761 21 4191L21 4179C21 4176.238 23.239 4174 26 4174L64 4174C66.761 4174 69 4176.238 69 4179L69 4191C69 4193.761 66.761 4196 64 4196ZM67 4180C67 4177.791 65.209 4176 63 4176L27 4176C24.791 4176 23 4177.791 23 4180L23 4190C23 4192.209 24.791 4194 27 4194L63 4194C65.209 4194 67 4192.209 67 4190L67 4180Z" class="cls-1"/><path d="M63 4176C65.209 4176 67 4177.791 67 4180L67 4190C67 4192.209 65.209 4194 63 4194L49 4194 49 4176 63 4176Z" class="cls-5"/><path d="M54.002 4182.996L58 4187 62 4183 64 4183 58 4189 52 4183 54.002 4182.996Z" class="cls-1"/><path d="M65 4105.899L65 4103.445C66.191 4102.752 67 4101.477 67 4100L67 4090C67 4087.791 65.209 4086 63 4086L27 4086C24.791 4086 23 4087.791 23 4090L23 4100C23 4102.209 24.791 4104 27 4104L31 4104 31 4106 26 4106C23.239 4106 21 4103.761 21 4101L21 4089C21 4086.239 23.239 4084 26 4084L64 4084C66.761 4084 69 4086.239 69 4089L69 4101C69 4103.419 67.282 4105.436 65 4105.899Z" class="cls-1"/><rect x="27" y="4089" width="2" height="12" class="cls-3"/><path d="M58.385 4113.833L38.769 4094 37.615 4095.167 57.231 4115 58.385 4113.833ZM48 4101L51.462 4104.5C51.462 4102.567 49.912 4101 48 4101ZM48 4099.833C50.549 4099.833 52.615 4101.923 52.615 4104.5 52.615 4104.86 52.574 4105.21 52.497 4105.547L57.132 4110.233C61.186 4107.827 63 4104.5 63 4104.5 63 4104.5 58.549 4096.333 48 4096.333 46.488 4096.333 45.102 4096.502 43.835 4096.789L46.964 4099.953C47.297 4099.875 47.644 4099.833 48 4099.833ZM48 4108C48.024 4108 48.047 4107.999 48.07 4107.998L44.54 4104.429C44.54 4104.453 44.538 4104.476 44.538 4104.5 44.538 4106.433 46.088 4108 48 4108ZM48 4109.167C45.451 4109.167 43.385 4107.077 43.385 4104.5 43.385 4104.118 43.431 4103.748 43.516 4103.394L38.913 4098.739C34.827 4101.148 33 4104.5 33 4104.5 33 4104.5 37.451 4112.667 48 4112.667 49.535 4112.667 50.941 4112.493 52.223 4112.197L49.094 4109.034C48.743 4109.12 48.377 4109.167 48 4109.167Z" class="cls-1"/><path d="M64 4016L62 4016 62 4014 63 4014C65.209 4014 67 4012.209 67 4010L67 4000C67 3997.791 65.209 3996 63 3996L27 3996C24.791 3996 23 3997.791 23 4000L23 4010C23 4012.209 24.791 4014 27 4014L56 4014 56 4016 26 4016C23.239 4016 21 4013.762 21 4011L21 3999C21 3996.239 23.239 3994 26 3994L64 3994C66.761 3994 69 3996.239 69 3999L69 4011C69 4013.762 66.761 4016 64 4016Z" class="cls-1"/><path d="M47.6 4005.863L47.854 4008 46 4007.085 44.146 4008 44.4 4005.863 43 4004.292 45.011 4003.886 46 4002 46.989 4003.886 49 4004.292 47.6 4005.863ZM39.854 4008L38 4007.085 36.146 4008 36.4 4005.863 35 4004.292 37.011 4003.886 38 4002 38.989 4003.886 41 4004.292 39.6 4005.863 39.854 4008ZM31.854 4008L30 4007.085 28.146 4008 28.4 4005.863 27 4004.292 29.011 4003.886 30 4002 30.989 4003.886 33 4004.292 31.6 4005.863 31.854 4008Z" class="cls-1"/><path d="M64 4007L60 4007 60 4023 64 4023C64.552 4023 65 4023.448 65 4024 65 4024.552 64.552 4025 64 4025L60 4025 58 4025 54 4025C53.448 4025 53 4024.552 53 4024 53 4023.448 53.448 4023 54 4023L58 4023 58 4007 54 4007C53.448 4007 53 4006.552 53 4006 53 4005.448 53.448 4005 54 4005L58 4005 60 4005 64 4005C64.552 4005 65 4005.448 65 4006 65 4006.552 64.552 4007 64 4007Z" class="cls-1"/><path d="M64 3926L62 3926 62 3924 63 3924C65.209 3924 67 3922.209 67 3920L67 3910C67 3907.791 65.209 3906 63 3906L27 3906C24.791 3906 23 3907.791 23 3910L23 3920C23 3922.209 24.791 3924 27 3924L56 3924 56 3926 26 3926C23.239 3926 21 3923.761 21 3921L21 3909C21 3906.239 23.239 3904 26 3904L64 3904C66.761 3904 69 3906.239 69 3909L69 3921C69 3923.761 66.761 3926 64 3926Z" class="cls-1"/><rect x="27" y="3909" width="2" height="12" class="cls-3"/><path d="M64 3917L60 3917 60 3933 64 3933C64.552 3933 65 3933.448 65 3934 65 3934.552 64.552 3935 64 3935L60 3935 58 3935 54 3935C53.448 3935 53 3934.552 53 3934 53 3933.448 53.448 3933 54 3933L58 3933 58 3917 54 3917C53.448 3917 53 3916.552 53 3916 53 3915.448 53.448 3915 54 3915L58 3915 60 3915 64 3915C64.552 3915 65 3915.448 65 3916 65 3916.552 64.552 3917 64 3917Z" class="cls-1"/><path d="M66.364 3835.406L52 3822 51 3822 51 3836 26 3836C23.239 3836 21 3833.761 21 3831L21 3819C21 3816.238 23.239 3814 26 3814L64 3814C66.761 3814 69 3816.238 69 3819L69 3831C69 3832.906 67.933 3834.563 66.364 3835.406Z" class="cls-1"/><path d="M53 3825L53 3846.283 57.617 3841.981 61.597 3849 66.453 3846.51 62.871 3840.17 69 3840.17 53 3825Z" class="cls-1"/><path d="M68.811 3732.896L65.975 3735.729 47.086 3716.821C45.915 3715.649 44.015 3715.648 42.843 3716.819L23.855 3735.788 20.993 3732.922 41.399 3712.534C43.352 3710.582 46.518 3710.584 48.47 3712.537L55 3719.073 55 3712C55 3711.448 55.448 3711 56 3711L62 3711C62.552 3711 63 3711.448 63 3712L63 3727.08 68.811 3732.896ZM47.121 3720.391L63 3736.267 63 3738 63 3751.182 63 3756C63 3757.657 61.657 3759 60 3759L55.184 3759 34.821 3759 30 3759C28.343 3759 27 3757.657 27 3756L27 3751.18 27 3738 27 3736.273 42.879 3720.391C44.05 3719.22 45.95 3719.22 47.121 3720.391ZM39 3759L51 3759 51 3741 39 3741 39 3759Z" class="cls-1"/><path d="M52.729 3669L43.78 3669C43.78 3656.419 33.581 3646.22 21 3646.22L21 3637.271C38.523 3637.271 52.729 3651.477 52.729 3669ZM21 3662.492C21 3658.897 23.914 3655.983 27.508 3655.983 31.103 3655.983 34.017 3658.897 34.017 3662.492 34.017 3666.086 31.103 3669 27.508 3669 23.914 3669 21 3666.086 21 3662.492ZM69 3669L60.051 3669C60.051 3647.433 42.567 3629.949 21 3629.949L21 3621 21 3621C47.51 3621 69 3642.49 69 3669L69 3669Z" class="cls-1"/><path d="M21 3532.012C23.994 3531.975 27.571 3531.986 29.601 3532.467 38.618 3534.602 45.076 3541.003 47.197 3550.118 47.901 3553.144 47.902 3557.39 47.141 3560.391 46.57 3562.638 45.702 3564.78 44.639 3566.577 41.269 3572.276 35.557 3576.44 28.533 3577.673 26.427 3578.042 23.526 3577.998 21 3578 21 3574.633 21 3571.367 21 3568 22.947 3568.022 25.625 3567.955 27.071 3567.712 33.146 3566.691 37.663 3561.195 37.752 3555.51 37.825 3550.927 36.245 3548.494 35.335 3547.393 31.584 3542.857 28.818 3541.659 21 3542 21 3538.633 21 3535.38 21 3532.012ZM51 3550C54.853 3550.059 57.618 3550.471 58.721 3547.28 58.976 3546.543 59.097 3545.285 58.721 3544.556 56.952 3541.116 54.963 3542.382 48.321 3542.115 46.735 3538.843 44.117 3535.879 41.35 3533.772 40.526 3533.204 39.701 3532.637 38.877 3532.069 38.877 3532.05 38.877 3532.031 38.877 3532.012 42.924 3532.012 46.972 3532.012 51.02 3532.012 53.797 3532.012 56.741 3531.881 58.89 3532.523 65.407 3534.469 71.177 3541.672 68.039 3551.082 67.718 3552.045 66.535 3554.07 65.748 3554.942 65.823 3555.018 65.898 3555.093 65.973 3555.169 66.348 3555.717 66.723 3556.266 67.097 3556.815 67.793 3557.994 68.302 3559.425 68.671 3560.901 69.551 3564.421 68.519 3568.377 67.21 3570.607 65.252 3573.941 62.714 3576.183 58.721 3577.389 56.684 3578.004 53.861 3577.962 51.244 3577.968 47.16 3577.978 43.085 3578.002 39 3578 39.037 3577.943 39.064 3577.758 39.102 3577.701 41.506 3576.57 45.367 3572.464 46.86 3570.323 47.384 3569.472 47.909 3568.62 48.434 3567.769 54.885 3567.533 56.886 3568.782 58.721 3565.328 59.105 3564.606 59.007 3563.336 58.721 3562.604 57.502 3559.479 55.185 3560.003 51 3560 51.265 3558.198 51.617 3557.195 51.617 3555.18 51.617 3553.165 51.15 3551.211 51 3550Z" class="cls-1"/><path d="M68.767 3468.17C68.704 3468.643 68.641 3469.115 68.552 3469.579 68.484 3469.928 68.396 3470.269 68.313 3470.612 68.222 3470.989 68.132 3471.367 68.024 3471.737 67.911 3472.12 67.783 3472.496 67.653 3472.87 67.545 3473.18 67.435 3473.488 67.316 3473.791 67.155 3474.197 66.982 3474.598 66.8 3474.993 66.686 3475.241 66.567 3475.486 66.445 3475.73 66.231 3476.155 66.01 3476.575 65.772 3476.986 65.663 3477.173 65.549 3477.355 65.436 3477.539 65.162 3477.982 64.883 3478.422 64.582 3478.846 64.499 3478.962 64.41 3479.074 64.325 3479.189 63.979 3479.659 63.625 3480.124 63.246 3480.567L63.246 3480.567C62.829 3481.055 62.404 3481.536 61.95 3481.989L61.95 3481.989C59.78 3484.154 57.197 3485.907 54.33 3487.118 54.265 3487.146 54.196 3487.165 54.131 3487.191 53.476 3487.461 52.811 3487.711 52.128 3487.923 51.949 3487.979 51.762 3488.013 51.581 3488.064 51.004 3488.228 50.426 3488.392 49.832 3488.513 49.474 3488.586 49.105 3488.622 48.742 3488.679 48.312 3488.747 47.889 3488.832 47.452 3488.876 46.646 3488.958 45.828 3489 45 3489 44.172 3489 43.354 3488.958 42.548 3488.876 42.111 3488.832 41.688 3488.747 41.258 3488.679 40.895 3488.622 40.526 3488.586 40.168 3488.513 39.574 3488.392 38.996 3488.228 38.419 3488.064 38.238 3488.013 38.051 3487.979 37.872 3487.923 37.189 3487.711 36.524 3487.461 35.869 3487.191 35.804 3487.165 35.735 3487.146 35.67 3487.118 32.803 3485.907 30.22 3484.154 28.05 3481.989L28.05 3481.989C27.596 3481.536 27.171 3481.055 26.754 3480.567L26.754 3480.567C26.375 3480.124 26.021 3479.659 25.675 3479.189 25.59 3479.074 25.501 3478.962 25.418 3478.846 25.117 3478.422 24.838 3477.982 24.564 3477.539 24.451 3477.355 24.337 3477.173 24.228 3476.986 23.99 3476.575 23.769 3476.155 23.555 3475.73 23.433 3475.486 23.314 3475.241 23.2 3474.993 23.018 3474.598 22.845 3474.197 22.684 3473.791 22.565 3473.488 22.455 3473.18 22.347 3472.87 22.217 3472.496 22.089 3472.12 21.976 3471.737 21.868 3471.367 21.778 3470.989 21.687 3470.612 21.604 3470.269 21.516 3469.928 21.448 3469.579 21.359 3469.115 21.296 3468.643 21.233 3468.17 21.196 3467.889 21.145 3467.613 21.118 3467.329 21.044 3466.562 21 3465.786 21 3465 21 3464.214 21.044 3463.438 21.118 3462.671 21.145 3462.387 21.196 3462.111 21.233 3461.83 21.296 3461.357 21.359 3460.884 21.448 3460.421 21.516 3460.072 21.604 3459.731 21.687 3459.388 21.778 3459.011 21.868 3458.633 21.976 3458.263 22.089 3457.88 22.217 3457.505 22.347 3457.13 22.455 3456.82 22.565 3456.512 22.684 3456.209 22.845 3455.803 23.018 3455.402 23.2 3455.007 23.314 3454.759 23.433 3454.513 23.555 3454.27 23.769 3453.845 23.99 3453.424 24.228 3453.014 24.337 3452.827 24.451 3452.645 24.564 3452.462 24.838 3452.018 25.117 3451.578 25.418 3451.154 25.501 3451.038 25.59 3450.926 25.675 3450.811 26.021 3450.341 26.375 3449.876 26.754 3449.433L26.754 3449.433C27.171 3448.945 27.596 3448.464 28.05 3448.011L28.05 3448.011C30.22 3445.845 32.803 3444.093 35.67 3442.882 35.735 3442.854 35.804 3442.836 35.869 3442.809 36.524 3442.539 37.189 3442.289 37.872 3442.077 38.051 3442.021 38.238 3441.988 38.419 3441.936 38.996 3441.772 39.574 3441.608 40.168 3441.487 40.526 3441.414 40.895 3441.378 41.258 3441.32 41.688 3441.253 42.111 3441.168 42.548 3441.124 43.354 3441.042 44.172 3441 45 3441 45.828 3441 46.646 3441.042 47.452 3441.124 47.889 3441.168 48.312 3441.253 48.742 3441.32 49.105 3441.378 49.474 3441.414 49.832 3441.487 50.426 3441.608 51.004 3441.772 51.581 3441.936 51.762 3441.988 51.949 3442.021 52.128 3442.077 52.811 3442.289 53.476 3442.539 54.131 3442.809 54.196 3442.836 54.265 3442.854 54.33 3442.882 57.197 3444.093 59.78 3445.845 61.95 3448.011L61.95 3448.011C62.404 3448.464 62.829 3448.945 63.246 3449.433L63.246 3449.433C63.625 3449.876 63.979 3450.341 64.325 3450.811 64.41 3450.926 64.499 3451.038 64.582 3451.154 64.883 3451.578 65.162 3452.018 65.436 3452.462 65.549 3452.645 65.663 3452.827 65.772 3453.014 66.01 3453.424 66.231 3453.845 66.445 3454.27 66.567 3454.513 66.686 3454.759 66.8 3455.007 66.982 3455.402 67.155 3455.803 67.316 3456.209 67.435 3456.512 67.545 3456.82 67.653 3457.13 67.783 3457.505 67.911 3457.88 68.024 3458.263 68.132 3458.633 68.222 3459.011 68.313 3459.388 68.396 3459.731 68.484 3460.072 68.552 3460.421 68.641 3460.884 68.704 3461.357 68.767 3461.83 68.804 3462.111 68.855 3462.387 68.882 3462.671 68.956 3463.438 69 3464.214 69 3465 69 3465.786 68.956 3466.562 68.882 3467.329 68.855 3467.613 68.804 3467.889 68.767 3468.17ZM38.799 3486.099C37.139 3484.432 35.719 3482.088 34.597 3479.308 32.89 3479.767 31.33 3480.341 29.931 3481 32.413 3483.34 35.436 3485.111 38.799 3486.099ZM28.541 3479.556C30.142 3478.737 31.943 3478.034 33.912 3477.477 32.798 3474.105 32.112 3470.197 32.019 3466L23.042 3466C23.275 3471.195 25.317 3475.911 28.541 3479.556ZM23.042 3464L32.019 3464C32.112 3459.803 32.798 3455.895 33.912 3452.523 31.943 3451.966 30.142 3451.263 28.541 3450.445 25.317 3454.089 23.275 3458.805 23.042 3464ZM29.931 3449C31.33 3449.659 32.89 3450.233 34.597 3450.692 35.719 3447.912 37.139 3445.568 38.799 3443.901 35.436 3444.888 32.413 3446.66 29.931 3449ZM44 3443.098C40.963 3443.647 38.288 3446.667 36.472 3451.142 38.802 3451.633 41.343 3451.915 44 3451.975L44 3443.098ZM44 3453.973C41.105 3453.908 38.337 3453.578 35.796 3453.005 34.757 3456.195 34.116 3459.952 34.025 3464L44 3464 44 3453.973ZM44 3466L34.025 3466C34.116 3470.048 34.757 3473.805 35.796 3476.994 38.337 3476.422 41.105 3476.092 44 3476.027L44 3466ZM44 3478.025C41.343 3478.085 38.802 3478.368 36.472 3478.858 38.288 3483.333 40.963 3486.353 44 3486.902L44 3478.025ZM66.958 3466L57.981 3466C57.888 3470.197 57.202 3474.105 56.088 3477.477 58.057 3478.034 59.858 3478.737 61.459 3479.556 64.683 3475.911 66.725 3471.195 66.958 3466ZM60.069 3481C58.67 3480.341 57.11 3479.767 55.403 3479.308 54.281 3482.088 52.861 3484.432 51.201 3486.099 54.564 3485.111 57.587 3483.34 60.069 3481ZM46 3486.902C49.037 3486.353 51.712 3483.333 53.528 3478.858 51.198 3478.368 48.657 3478.085 46 3478.025L46 3486.902ZM46 3476.027C48.895 3476.092 51.663 3476.422 54.204 3476.994 55.243 3473.805 55.884 3470.048 55.975 3466L46 3466 46 3476.027ZM46 3464L55.975 3464C55.884 3459.952 55.243 3456.195 54.204 3453.005 51.663 3453.578 48.895 3453.908 46 3453.973L46 3464ZM46 3451.975C48.657 3451.915 51.198 3451.633 53.528 3451.142 51.712 3446.667 49.037 3443.647 46 3443.098L46 3451.975ZM51.201 3443.901C52.861 3445.568 54.281 3447.912 55.403 3450.692 57.11 3450.233 58.67 3449.659 60.069 3449 57.587 3446.66 54.564 3444.888 51.201 3443.901ZM61.459 3450.445C59.858 3451.263 58.057 3451.966 56.088 3452.523 57.202 3455.895 57.888 3459.803 57.981 3464L66.958 3464C66.725 3458.805 64.683 3454.089 61.459 3450.445Z" class="cls-1"/><path d="M57 3387C50.373 3387 45 3381.627 45 3375 45 3368.373 50.373 3363 57 3363 63.627 3363 69 3368.373 69 3375 69 3381.627 63.627 3387 57 3387ZM57 3366C52.029 3366 48 3370.03 48 3375 48 3379.971 52.029 3384 57 3384 61.971 3384 66 3379.971 66 3375 66 3370.03 61.971 3366 57 3366ZM33 3387C26.373 3387 21 3381.627 21 3375 21 3368.373 26.373 3363 33 3363 39.627 3363 45 3368.373 45 3375 45 3381.627 39.627 3387 33 3387Z" class="cls-1"/><path d="M63.818 3309L61 3309 61 3307 63 3307C65.209 3307 67 3305.209 67 3303L67 3301 69 3301 69 3303.857C69 3306.698 66.68 3309 63.818 3309ZM67 3295L69 3295 69 3299 67 3299 67 3295ZM67 3289L69 3289 69 3293 67 3293 67 3289ZM67 3283L69 3283 69 3287 67 3287 67 3283ZM67 3277L69 3277 69 3281 67 3281 67 3277ZM67 3271L69 3271 69 3275 67 3275 67 3271ZM67 3267C67 3264.791 65.209 3263 63 3263L61 3263 61 3261 63.818 3261C66.68 3261 69 3263.302 69 3266.143L69 3269 67 3269 67 3267ZM59 3261L59 3261 59 3263 55 3263 55 3261 59 3261 59 3261ZM59 3309L55 3309 55 3307 59 3307 59 3309ZM53 3263L49 3263 49 3261 53 3261 53 3261 53 3261 53 3263ZM53 3309L49 3309 49 3307 53 3307 53 3309ZM47 3263L43 3263 43 3261 43 3261 43 3261 47 3261 47 3261 47 3261 47 3263ZM37 3307L41 3307 41 3309 37 3309 37 3307ZM37 3261L37 3261 37 3261 41 3261 41 3263 37 3263 37 3261ZM31 3307L35 3307 35 3309 31 3309 31 3307ZM31 3261L31 3261 31 3261 35 3261 35 3263 31 3263 31 3261ZM21 3303.857L21 3301 21 3301 21 3301 23 3301 23 3303C23 3305.209 24.791 3307 27 3307L29 3307 29 3309 26.182 3309C23.32 3309 21 3306.698 21 3303.857ZM23 3267L23 3269 21 3269 21 3266.143C21 3263.302 23.32 3261 26.182 3261L29 3261 29 3263 27 3263C24.791 3263 23 3264.791 23 3267ZM21 3271L23 3271 23 3275 21 3275 21 3271 21 3271 21 3271ZM23 3281L21 3281 21 3277 23 3277 23 3281ZM23 3287L21 3287 21 3287 21 3287 21 3283 23 3283 23 3287ZM23 3293L21 3293 21 3293 21 3293 21 3289 23 3289 23 3293ZM21 3295L23 3295 23 3299 21 3299 21 3299 21 3299 21 3295 21 3295 21 3295ZM47 3309L43 3309 43 3307 47 3307 47 3309Z" class="cls-1"/><path d="M56.25 3285.75L56.25 3284.25 59.25 3284.25 59.25 3285.75 56.25 3285.75ZM52.434 3293.477L53.495 3292.415 55.617 3294.534 54.556 3295.597 52.434 3293.477ZM52.42 3276.511L54.54 3274.388 55.601 3275.448 53.481 3277.571 52.42 3276.511ZM44.25 3296.25L45.75 3296.25 45.75 3299.25 44.25 3299.25 44.25 3296.25ZM44.25 3270.75L45.75 3270.75 45.75 3273.75 44.25 3273.75 44.25 3270.75ZM34.399 3294.552L36.519 3292.429 37.58 3293.489 35.46 3295.612 34.399 3294.552ZM34.383 3275.466L35.444 3274.403 37.566 3276.523 36.505 3277.585 34.383 3275.466ZM30.75 3284.25L33.75 3284.25 33.75 3285.75 30.75 3285.75 30.75 3284.25Z" class="cls-4"/><path d="M45 3303C35.059 3303 27 3294.941 27 3285 27 3275.059 35.059 3267 45 3267 54.941 3267 63 3275.059 63 3285 63 3294.941 54.941 3303 45 3303ZM45 3270C36.716 3270 30 3276.716 30 3285 30 3293.284 36.716 3300 45 3300 53.284 3300 60 3293.284 60 3285 60 3276.716 53.284 3270 45 3270ZM47.889 3284.234C47.954 3284.48 48 3284.733 48 3285 48 3286.657 46.657 3288 45 3288 43.696 3288 42.597 3287.163 42.184 3286L33 3286C32.448 3286 32 3285.552 32 3285 32 3284.448 32.448 3284 33 3284L42.184 3284C42.597 3282.837 43.696 3282 45 3282 45.267 3282 45.522 3282.046 45.768 3282.112L50.119 3277.756C50.704 3277.17 51.654 3277.169 52.24 3277.755 52.826 3278.34 52.827 3279.29 52.241 3279.876L47.889 3284.234Z" class="cls-1"/><path d="M67 3185C67 3182.791 65.209 3181 63 3181L27 3181C24.791 3181 23 3182.791 23 3185L23 3213C23 3215.209 24.791 3217 27 3217L47.211 3217C47.994 3217.766 48.871 3218.433 49.816 3219L26 3219C23.239 3219 21 3216.761 21 3214L21 3176C21 3173.239 23.239 3171 26 3171L28 3171 28 3177C28 3178.104 28.895 3179 30 3179 31.105 3179 32 3178.104 32 3177L32 3171 38 3171 38 3177C38 3178.104 38.895 3179 40 3179 41.105 3179 42 3178.104 42 3177L42 3171 48 3171 48 3177C48 3178.104 48.895 3179 50 3179 51.105 3179 52 3178.104 52 3177L52 3171 58 3171 58 3177C58 3178.104 58.895 3179 60 3179 61.105 3179 62 3178.104 62 3177L62 3171 64 3171C66.761 3171 69 3173.239 69 3176L69 3199.816C68.433 3198.871 67.766 3197.994 67 3197.211L67 3185ZM60 3178C59.448 3178 59 3177.552 59 3177L59 3170C59 3169.448 59.448 3169 60 3169 60.552 3169 61 3169.448 61 3170L61 3177C61 3177.552 60.552 3178 60 3178ZM50 3178C49.448 3178 49 3177.552 49 3177L49 3170C49 3169.448 49.448 3169 50 3169 50.552 3169 51 3169.448 51 3170L51 3177C51 3177.552 50.552 3178 50 3178ZM40 3178C39.448 3178 39 3177.552 39 3177L39 3170C39 3169.448 39.448 3169 40 3169 40.552 3169 41 3169.448 41 3170L41 3177C41 3177.552 40.552 3178 40 3178ZM30 3178C29.448 3178 29 3177.552 29 3177L29 3170C29 3169.448 29.448 3169 30 3169 30.552 3169 31 3169.448 31 3170L31 3177C31 3177.552 30.552 3178 30 3178Z" class="cls-1"/><path d="M64 3193L62 3193C61.448 3193 61 3192.552 61 3192L61 3191C61 3190.448 61.448 3190 62 3190L64 3190C64.552 3190 65 3190.448 65 3191L65 3192C65 3192.552 64.552 3193 64 3193ZM64 3188L62 3188C61.448 3188 61 3187.552 61 3187L61 3186C61 3185.448 61.448 3185 62 3185L64 3185C64.552 3185 65 3185.448 65 3186L65 3187C65 3187.552 64.552 3188 64 3188ZM58 3193L56 3193C55.448 3193 55 3192.552 55 3192L55 3191C55 3190.448 55.448 3190 56 3190L58 3190C58.552 3190 59 3190.448 59 3191L59 3192C59 3192.552 58.552 3193 58 3193ZM52 3193L50 3193C49.448 3193 49 3192.552 49 3192L49 3191C49 3190.448 49.448 3190 50 3190L52 3190C52.552 3190 53 3190.448 53 3191L53 3192C53 3192.552 52.552 3193 52 3193ZM46.347 3197.93C46.238 3197.97 46.123 3198 46 3198L44 3198C43.448 3198 43 3197.552 43 3197L43 3196C43 3195.448 43.448 3195 44 3195L46 3195C46.552 3195 47 3195.448 47 3196L47 3197C47 3197.096 46.971 3197.183 46.945 3197.272 46.739 3197.485 46.539 3197.704 46.347 3197.93ZM46 3193L44 3193C43.448 3193 43 3192.552 43 3192L43 3191C43 3190.448 43.448 3190 44 3190L46 3190C46.552 3190 47 3190.448 47 3191L47 3192C47 3192.552 46.552 3193 46 3193ZM40 3208L38 3208C37.448 3208 37 3207.552 37 3207L37 3206C37 3205.448 37.448 3205 38 3205L40 3205C40.552 3205 41 3205.448 41 3206L41 3207C41 3207.552 40.552 3208 40 3208ZM40 3203L38 3203C37.448 3203 37 3202.552 37 3202L37 3201C37 3200.448 37.448 3200 38 3200L40 3200C40.552 3200 41 3200.448 41 3201L41 3202C41 3202.552 40.552 3203 40 3203ZM40 3198L38 3198C37.448 3198 37 3197.552 37 3197L37 3196C37 3195.448 37.448 3195 38 3195L40 3195C40.552 3195 41 3195.448 41 3196L41 3197C41 3197.552 40.552 3198 40 3198ZM40 3193L38 3193C37.448 3193 37 3192.552 37 3192L37 3191C37 3190.448 37.448 3190 38 3190L40 3190C40.552 3190 41 3190.448 41 3191L41 3192C41 3192.552 40.552 3193 40 3193ZM34 3213L32 3213C31.448 3213 31 3212.552 31 3212L31 3211C31 3210.448 31.448 3210 32 3210L34 3210C34.552 3210 35 3210.448 35 3211L35 3212C35 3212.552 34.552 3213 34 3213ZM34 3208L32 3208C31.448 3208 31 3207.552 31 3207L31 3206C31 3205.448 31.448 3205 32 3205L34 3205C34.552 3205 35 3205.448 35 3206L35 3207C35 3207.552 34.552 3208 34 3208ZM34 3203L32 3203C31.448 3203 31 3202.552 31 3202L31 3201C31 3200.448 31.448 3200 32 3200L34 3200C34.552 3200 35 3200.448 35 3201L35 3202C35 3202.552 34.552 3203 34 3203ZM34 3198L32 3198C31.448 3198 31 3197.552 31 3197L31 3196C31 3195.448 31.448 3195 32 3195L34 3195C34.552 3195 35 3195.448 35 3196L35 3197C35 3197.552 34.552 3198 34 3198ZM34 3193L32 3193C31.448 3193 31 3192.552 31 3192L31 3191C31 3190.448 31.448 3190 32 3190L34 3190C34.552 3190 35 3190.448 35 3191L35 3192C35 3192.552 34.552 3193 34 3193ZM28 3213L26 3213C25.448 3213 25 3212.552 25 3212L25 3211C25 3210.448 25.448 3210 26 3210L28 3210C28.552 3210 29 3210.448 29 3211L29 3212C29 3212.552 28.552 3213 28 3213ZM28 3208L26 3208C25.448 3208 25 3207.552 25 3207L25 3206C25 3205.448 25.448 3205 26 3205L28 3205C28.552 3205 29 3205.448 29 3206L29 3207C29 3207.552 28.552 3208 28 3208ZM28 3203L26 3203C25.448 3203 25 3202.552 25 3202L25 3201C25 3200.448 25.448 3200 26 3200L28 3200C28.552 3200 29 3200.448 29 3201L29 3202C29 3202.552 28.552 3203 28 3203ZM28 3198L26 3198C25.448 3198 25 3197.552 25 3197L25 3196C25 3195.448 25.448 3195 26 3195L28 3195C28.552 3195 29 3195.448 29 3196L29 3197C29 3197.552 28.552 3198 28 3198ZM28 3193L26 3193C25.448 3193 25 3192.552 25 3192L25 3191C25 3190.448 25.448 3190 26 3190L28 3190C28.552 3190 29 3190.448 29 3191L29 3192C29 3192.552 28.552 3193 28 3193ZM44 3200L44.888 3200C44.358 3200.915 43.922 3201.889 43.608 3202.92 43.251 3202.767 43 3202.413 43 3202L43 3201C43 3200.448 43.448 3200 44 3200ZM43 3207L43 3206C43 3205.881 43.03 3205.772 43.067 3205.666 43.026 3206.106 43 3206.55 43 3207ZM64.736 3195.335C64.586 3195.236 64.428 3195.149 64.275 3195.055 64.455 3195.108 64.613 3195.2 64.736 3195.335ZM49.725 3195.055C49.572 3195.149 49.414 3195.236 49.264 3195.335 49.387 3195.2 49.545 3195.108 49.725 3195.055Z" class="cls-1"/><path d="M58 3188L56 3188C55.448 3188 55 3187.552 55 3187L55 3186C55 3185.448 55.448 3185 56 3185L58 3185C58.552 3185 59 3185.448 59 3186L59 3187C59 3187.552 58.552 3188 58 3188ZM52 3188L50 3188C49.448 3188 49 3187.552 49 3187L49 3186C49 3185.448 49.448 3185 50 3185L52 3185C52.552 3185 53 3185.448 53 3186L53 3187C53 3187.552 52.552 3188 52 3188ZM46 3188L44 3188C43.448 3188 43 3187.552 43 3187L43 3186C43 3185.448 43.448 3185 44 3185L46 3185C46.552 3185 47 3185.448 47 3186L47 3187C47 3187.552 46.552 3188 46 3188ZM40 3213L38 3213C37.448 3213 37 3212.552 37 3212L37 3211C37 3210.448 37.448 3210 38 3210L40 3210C40.552 3210 41 3210.448 41 3211L41 3212C41 3212.552 40.552 3213 40 3213ZM40 3188L38 3188C37.448 3188 37 3187.552 37 3187L37 3186C37 3185.448 37.448 3185 38 3185L40 3185C40.552 3185 41 3185.448 41 3186L41 3187C41 3187.552 40.552 3188 40 3188ZM34 3188L32 3188C31.448 3188 31 3187.552 31 3187L31 3186C31 3185.448 31.448 3185 32 3185L34 3185C34.552 3185 35 3185.448 35 3186L35 3187C35 3187.552 34.552 3188 34 3188ZM28 3188L26 3188C25.448 3188 25 3187.552 25 3187L25 3186C25 3185.448 25.448 3185 26 3185L28 3185C28.552 3185 29 3185.448 29 3186L29 3187C29 3187.552 28.552 3188 28 3188ZM43.389 3210.228C43.618 3211.196 43.947 3212.122 44.365 3213L44 3213C43.448 3213 43 3212.552 43 3212L43 3211C43 3210.682 43.158 3210.411 43.389 3210.228Z" class="cls-4"/><path d="M64.5 3207.5L64.5 3206.5 66.5 3206.5 66.5 3207.5 64.5 3207.5ZM61.956 3212.651L62.663 3211.943 64.078 3213.356 63.371 3214.065 61.956 3212.651ZM61.947 3201.34L63.36 3199.925 64.068 3200.632 62.654 3202.047 61.947 3201.34ZM56.5 3214.5L57.5 3214.5 57.5 3216.5 56.5 3216.5 56.5 3214.5ZM56.5 3197.5L57.5 3197.5 57.5 3199.5 56.5 3199.5 56.5 3197.5ZM49.932 3213.368L51.346 3211.953 52.053 3212.66 50.64 3214.075 49.932 3213.368ZM49.922 3200.644L50.629 3199.935 52.044 3201.349 51.337 3202.057 49.922 3200.644ZM47.5 3206.5L49.5 3206.5 49.5 3207.5 47.5 3207.5 47.5 3206.5Z" class="cls-4"/><path d="M57 3219C50.373 3219 45 3213.627 45 3207 45 3200.372 50.373 3195 57 3195 63.627 3195 69 3200.372 69 3207 69 3213.627 63.627 3219 57 3219ZM57 3197C51.477 3197 47 3201.477 47 3207 47 3212.523 51.477 3217 57 3217 62.523 3217 67 3212.523 67 3207 67 3201.477 62.523 3197 57 3197ZM58.926 3206.489C58.969 3206.653 59 3206.822 59 3207 59 3208.105 58.105 3209 57 3209 56.261 3209 55.624 3208.595 55.277 3208L49.5 3208C48.948 3208 48.5 3207.552 48.5 3207 48.5 3206.448 48.948 3206 49.5 3206L55.277 3206C55.624 3205.405 56.262 3205 57 3205 57.178 3205 57.348 3205.031 57.512 3205.074L60.412 3202.171C60.803 3201.78 61.436 3201.779 61.827 3202.17 62.217 3202.56 62.218 3203.193 61.828 3203.584L58.926 3206.489Z" class="cls-1"/><path d="M60 3106L60 3104 64 3104 64 3106 60 3106ZM54.912 3116.303L56.327 3114.886 59.156 3117.712 57.741 3119.129 54.912 3116.303ZM54.893 3093.681L57.72 3090.851 59.135 3092.264 56.308 3095.094 54.893 3093.681ZM44 3120L46 3120 46 3124 44 3124 44 3120ZM44 3086L46 3086 46 3090 44 3090 44 3086ZM30.865 3117.736L33.692 3114.906 35.107 3116.319 32.28 3119.149 30.865 3117.736ZM30.844 3092.288L32.259 3090.871 35.088 3093.697 33.673 3095.113 30.844 3092.288ZM26 3104L30 3104 30 3106 26 3106 26 3104Z" class="cls-4"/><path d="M45 3129C31.745 3129 21 3118.255 21 3105 21 3091.745 31.745 3081 45 3081 58.255 3081 69 3091.745 69 3105 69 3118.255 58.255 3129 45 3129ZM45 3085C33.954 3085 25 3093.954 25 3105 25 3116.046 33.954 3125 45 3125 56.046 3125 65 3116.046 65 3105 65 3093.954 56.046 3085 45 3085ZM48.852 3103.978C48.939 3104.306 49 3104.644 49 3105 49 3107.209 47.209 3109 45 3109 43.523 3109 42.248 3108.191 41.555 3107L30 3107C28.895 3107 28 3106.105 28 3105 28 3103.896 28.895 3103 30 3103L41.555 3103C42.248 3101.809 43.523 3101 45 3101 45.356 3101 45.696 3101.061 46.025 3101.149L51.825 3095.341C52.605 3094.56 53.872 3094.559 54.653 3095.34 55.435 3096.12 55.436 3097.386 54.655 3098.168L48.852 3103.978Z" class="cls-1"/><path d="M80 3091C77.349 3091.529 72.976 3091.716 73 3095 73.027 3098.798 78.167 3097.25 79 3097 80.789 3096.463 82.623 3094.564 83.967 3092.879 83.711 3093.974 83.392 3095.022 83 3096 80.831 3101.407 74.689 3108.805 69.037 3114.902 70.296 3111.849 71 3108.508 71 3105 71 3090.641 59.359 3079 45 3079 44.526 3079 44.064 3079.046 43.596 3079.071 47.58 3077.553 51.274 3076.268 53 3076 56.217 3075.501 59.54 3075.546 62.501 3075.705 61.493 3076.253 60.298 3077.073 60 3078 59.124 3080.726 61.459 3081.45 64 3080 66.298 3078.689 66.491 3077.14 66.141 3075.944 68.222 3076.088 69.931 3076.185 71 3076 78.138 3074.763 83 3067 83 3067 83 3067 83.016 3067.074 83.039 3067.181 82.809 3070.461 82.01 3075.563 80 3079 77.167 3083.844 71 3086 71 3086 71 3086 78.106 3088.676 84 3080 84.314 3079.537 84.514 3078.957 84.633 3078.3 84.778 3080.133 84.873 3082.067 84.866 3084.024 84.553 3086.456 83.504 3090.301 80 3091Z" class="cls-1"/><path d="M47.102 3038.908C33.898 3040.069 22.253 3030.306 21.092 3017.102 19.931 3003.898 29.694 2992.253 42.898 2991.092 56.102 2989.931 67.747 2999.694 68.908 3012.898 70.069 3026.102 60.306 3037.747 47.102 3038.908ZM52.939 2995.558C42.201 2991.174 29.943 2996.324 25.558 3007.061 21.174 3017.798 26.324 3030.057 37.061 3034.442 47.799 3038.826 60.057 3033.676 64.442 3022.939 68.826 3012.201 63.676 2999.943 52.939 2995.558Z" class="cls-1"/><path d="M47.102 3038.908C33.898 3040.069 22.253 3030.306 21.092 3017.102 19.931 3003.898 29.694 2992.253 42.898 2991.092 56.102 2989.931 67.747 2999.694 68.908 3012.898 70.069 3026.102 60.306 3037.747 47.102 3038.908ZM52.522 2993.943C46.78 2990.632 32.358 2990.877 25.074 3003.513 17.775 3016.174 24.806 3028.752 30.547 3032.062 36.289 3035.372 45.863 3029.522 51.931 3018.995 57.999 3008.469 58.264 2997.252 52.522 2993.943Z" class="cls-1"/><path d="M63.818 2949L61 2949 61 2947 63 2947C65.209 2947 67 2945.209 67 2943L67 2941 69 2941 69 2943.857C69 2946.698 66.68 2949 63.818 2949ZM67 2935L69 2935 69 2939 67 2939 67 2935ZM67 2929L69 2929 69 2933 67 2933 67 2929ZM67 2923L69 2923 69 2927 67 2927 67 2923ZM67 2917L69 2917 69 2921 67 2921 67 2917ZM67 2911L69 2911 69 2915 67 2915 67 2911ZM67 2907C67 2904.791 65.209 2903 63 2903L61 2903 61 2901 63.818 2901C66.68 2901 69 2903.302 69 2906.143L69 2909 67 2909 67 2907ZM59 2901L59 2901 59 2903 55 2903 55 2901 59 2901 59 2901ZM59 2949L55 2949 55 2947 59 2947 59 2949ZM53 2903L49 2903 49 2901 53 2901 53 2901 53 2901 53 2903ZM53 2949L49 2949 49 2947 53 2947 53 2949ZM47 2903L43 2903 43 2901 43 2901 43 2901 47 2901 47 2901 47 2901 47 2903ZM37 2947L41 2947 41 2949 37 2949 37 2947ZM37 2901L37 2901 37 2901 41 2901 41 2903 37 2903 37 2901ZM31 2947L35 2947 35 2949 31 2949 31 2947ZM31 2901L31 2901 31 2901 35 2901 35 2903 31 2903 31 2901ZM21 2943.857L21 2941 21 2941 21 2941 23 2941 23 2943C23 2945.209 24.791 2947 27 2947L29 2947 29 2949 26.182 2949C23.32 2949 21 2946.698 21 2943.857ZM23 2907L23 2909 21 2909 21 2906.143C21 2903.302 23.32 2901 26.182 2901L29 2901 29 2903 27 2903C24.791 2903 23 2904.791 23 2907ZM21 2911L23 2911 23 2915 21 2915 21 2911 21 2911 21 2911ZM23 2921L21 2921 21 2917 23 2917 23 2921ZM23 2927L21 2927 21 2927 21 2927 21 2923 23 2923 23 2927ZM23 2933L21 2933 21 2933 21 2933 21 2929 23 2929 23 2933ZM21 2935L23 2935 23 2939 21 2939 21 2939 21 2939 21 2935 21 2935 21 2935ZM47 2949L43 2949 43 2947 47 2947 47 2949Z" class="cls-1"/><path d="M51 2941L61 2931 61 2941 51 2941ZM34.182 2941C31.32 2941 29 2938.698 29 2935.857L29 2914.143C29 2911.303 31.32 2909 34.182 2909L55.818 2909C58.68 2909 61 2911.303 61 2914.143L61 2927 47 2941 34.182 2941ZM59 2914C59 2912.343 57.657 2911 56 2911L34 2911C32.343 2911 31 2912.343 31 2914L31 2936C31 2937.657 32.343 2939 34 2939L45 2939 59 2925 59 2914Z" class="cls-1"/><path d="M54 2859L64 2849 64 2859 54 2859ZM31.182 2859C28.32 2859 26 2856.698 26 2853.857L26 2816.143C26 2813.303 28.32 2811 31.182 2811L58.818 2811C61.68 2811 64 2813.303 64 2816.143L64 2845 50 2859 31.182 2859ZM62 2816C62 2814.343 60.657 2813 59 2813L31 2813C29.343 2813 28 2814.343 28 2816L28 2854C28 2855.657 29.343 2857 31 2857L48 2857 62 2843 62 2816Z" class="cls-1"/><path d="M63.818 2769L61 2769 61 2767 63 2767C65.209 2767 67 2765.209 67 2763L67 2761 69 2761 69 2763.857C69 2766.698 66.68 2769 63.818 2769ZM67 2755L69 2755 69 2759 67 2759 67 2755ZM67 2749L69 2749 69 2753 67 2753 67 2749ZM67 2743L69 2743 69 2747 67 2747 67 2743ZM67 2737L69 2737 69 2741 67 2741 67 2737ZM67 2731L69 2731 69 2735 67 2735 67 2731ZM67 2727C67 2724.791 65.209 2723 63 2723L61 2723 61 2721 63.818 2721C66.68 2721 69 2723.302 69 2726.143L69 2729 67 2729 67 2727ZM59 2721L59 2721 59 2723 55 2723 55 2721 59 2721 59 2721ZM59 2769L55 2769 55 2767 59 2767 59 2769ZM53 2723L49 2723 49 2721 53 2721 53 2721 53 2721 53 2723ZM53 2769L49 2769 49 2767 53 2767 53 2769ZM47 2723L43 2723 43 2721 43 2721 43 2721 47 2721 47 2721 47 2721 47 2723ZM37 2767L41 2767 41 2769 37 2769 37 2767ZM37 2721L37 2721 37 2721 41 2721 41 2723 37 2723 37 2721ZM31 2767L35 2767 35 2769 31 2769 31 2767ZM31 2721L31 2721 31 2721 35 2721 35 2723 31 2723 31 2721ZM21 2763.857L21 2761 21 2761 21 2761 23 2761 23 2763C23 2765.209 24.791 2767 27 2767L29 2767 29 2769 26.182 2769C23.32 2769 21 2766.698 21 2763.857ZM23 2727L23 2729 21 2729 21 2726.143C21 2723.302 23.32 2721 26.182 2721L29 2721 29 2723 27 2723C24.791 2723 23 2724.791 23 2727ZM21 2731L23 2731 23 2735 21 2735 21 2731 21 2731 21 2731ZM23 2741L21 2741 21 2737 23 2737 23 2741ZM23 2747L21 2747 21 2747 21 2747 21 2743 23 2743 23 2747ZM23 2753L21 2753 21 2753 21 2753 21 2749 23 2749 23 2753ZM21 2755L23 2755 23 2759 21 2759 21 2759 21 2759 21 2755 21 2755 21 2755ZM47 2769L43 2769 43 2767 47 2767 47 2769Z" class="cls-1"/><path d="M60 2763L45 2763 30 2763C30 2763 29.778 2748.284 32.25 2745 34.335 2742.232 35.991 2741.976 37.5 2742 39.039 2742.024 39.572 2743.468 41.25 2744.25 43.084 2745.105 45 2745 45 2745 45 2745 46.916 2745.105 48.75 2744.25 50.428 2743.468 50.961 2742.024 52.5 2742 54.009 2741.976 55.665 2742.232 57.75 2745 60.222 2748.284 60 2763 60 2763ZM45 2742.75C40.858 2742.75 37.5 2739.224 37.5 2734.875 37.5 2730.526 40.858 2727 45 2727 49.142 2727 52.5 2730.526 52.5 2734.875 52.5 2739.224 49.142 2742.75 45 2742.75Z" class="cls-1"/><path d="M65 2679L45 2679 25 2679C25 2679 24.704 2659.378 28 2655 30.78 2651.308 32.988 2650.968 35 2651 37.052 2651.033 37.762 2652.957 40 2654 42.445 2655.139 45 2655 45 2655 45 2655 47.555 2655.139 50 2654 52.238 2652.957 52.948 2651.033 55 2651 57.012 2650.968 59.22 2651.308 62 2655 65.296 2659.378 65 2679 65 2679ZM45 2652C39.477 2652 35 2647.299 35 2641.5 35 2635.701 39.477 2631 45 2631 50.523 2631 55 2635.701 55 2641.5 55 2647.299 50.523 2652 45 2652Z" class="cls-1"/><path d="M60 2589L30 2589C27.239 2589 25 2586.762 25 2584L25 2564C25 2561.238 27.239 2559 30 2559L60 2559C62.761 2559 65 2561.238 65 2564L65 2584C65 2586.762 62.761 2589 60 2589ZM45 2566C42.239 2566 40 2568.238 40 2571 40 2573.049 41.236 2574.806 43 2575.578L43 2580C43 2581.105 43.895 2582 45 2582 46.105 2582 47 2581.105 47 2580L47 2575.578C48.764 2574.806 50 2573.049 50 2571 50 2568.238 47.761 2566 45 2566ZM55.95 2557C55.979 2556.67 56 2556.338 56 2556 56 2549.925 51.075 2545 45 2545 38.925 2545 34 2549.925 34 2556 34 2556.338 34.021 2556.67 34.05 2557L30.05 2557C30.029 2556.668 30 2556.338 30 2556 30 2547.716 36.716 2541 45 2541 53.284 2541 60 2547.716 60 2556 60 2556.338 59.971 2556.668 59.95 2557L55.95 2557Z" class="cls-1"/><path d="M58.818 2499L31.182 2499C28.32 2499 26 2496.697 26 2493.857L26 2477 24 2477 24 2473 26 2473 26 2456.143C26 2453.302 28.32 2451 31.182 2451L58.818 2451C61.68 2451 64 2453.302 64 2456.143L64 2493.857C64 2496.697 61.68 2499 58.818 2499ZM62 2456C62 2454.343 60.657 2453 59 2453L31 2453C29.343 2453 28 2454.343 28 2456L28 2468 26 2468 26 2473 45 2473 35 2463 42 2463 54 2475 42 2487 35 2487 45 2477 26 2477 26 2482 28 2482 28 2494C28 2495.657 29.343 2497 31 2497L59 2497C60.657 2497 62 2495.657 62 2494L62 2456Z" class="cls-1"/><path d="M58 2383C51.925 2383 47 2378.075 47 2372 47 2365.925 51.925 2361 58 2361 64.075 2361 69 2365.925 69 2372 69 2378.075 64.075 2383 58 2383ZM64.613 2367.203C64.058 2367.521 63.444 2367.752 62.789 2367.877 62.265 2367.337 61.519 2367 60.693 2367 59.106 2367 57.82 2368.243 57.82 2369.777 57.82 2369.994 57.846 2370.206 57.895 2370.41 55.508 2370.294 53.391 2369.188 51.975 2367.508 51.727 2367.918 51.586 2368.395 51.586 2368.904 51.586 2369.868 52.093 2370.718 52.863 2371.216 52.393 2371.201 51.95 2371.076 51.562 2370.868 51.562 2370.88 51.562 2370.892 51.562 2370.903 51.562 2372.249 52.552 2373.371 53.866 2373.626 53.625 2373.69 53.372 2373.724 53.11 2373.724 52.924 2373.724 52.745 2373.706 52.569 2373.674 52.935 2374.777 53.995 2375.58 55.252 2375.603 54.269 2376.347 53.031 2376.791 51.685 2376.791 51.453 2376.791 51.225 2376.778 51 2376.752 52.271 2377.54 53.781 2378 55.403 2378 60.686 2378 63.575 2373.769 63.575 2370.099 63.575 2369.978 63.572 2369.859 63.567 2369.739 64.128 2369.348 64.615 2368.859 65 2368.302 64.485 2368.523 63.931 2368.672 63.35 2368.739 63.943 2368.396 64.399 2367.851 64.613 2367.203Z" class="cls-1"/><path d="M45 2409C38.925 2409 34 2404.075 34 2398 34 2391.925 38.925 2387 45 2387 51.075 2387 56 2391.925 56 2398 56 2404.075 51.075 2409 45 2409ZM44.357 2391C43.86 2391 43.327 2391.057 42.758 2391.17 42.184 2391.302 41.63 2391.583 41.097 2392.013 40.322 2392.749 39.934 2393.568 39.934 2394.471 39.934 2395.218 40.207 2395.873 40.755 2396.435 41.278 2397.038 42.039 2397.347 43.036 2397.358 43.225 2397.358 43.425 2397.347 43.638 2397.322 43.603 2397.418 43.565 2397.524 43.524 2397.638 43.477 2397.746 43.453 2397.882 43.453 2398.044 43.453 2398.314 43.515 2398.546 43.638 2398.738 43.744 2398.937 43.864 2399.123 44 2399.297 43.562 2399.309 43.013 2399.363 42.351 2399.459 41.683 2399.572 41.046 2399.799 40.439 2400.139 39.898 2400.455 39.525 2400.822 39.318 2401.24 39.106 2401.658 39 2402.037 39 2402.377 39 2403.075 39.326 2403.675 39.98 2404.177 40.627 2404.713 41.607 2404.988 42.92 2405 44.488 2404.976 45.688 2404.609 46.52 2403.897 47.322 2403.209 47.722 2402.42 47.722 2401.529 47.711 2400.901 47.565 2400.393 47.284 2400.004 46.986 2399.621 46.64 2399.272 46.245 2398.955L45.609 2398.444C45.517 2398.354 45.423 2398.249 45.326 2398.13 45.211 2398.004 45.154 2397.846 45.154 2397.654 45.154 2397.457 45.21 2397.284 45.321 2397.134 45.416 2396.991 45.519 2396.862 45.631 2396.748 45.826 2396.581 46.011 2396.417 46.184 2396.255 46.34 2396.094 46.488 2395.917 46.628 2395.726 46.913 2395.331 47.061 2394.805 47.072 2394.147 47.072 2393.788 47.03 2393.475 46.948 2393.205 46.848 2392.936 46.733 2392.703 46.604 2392.506 46.469 2392.296 46.33 2392.12 46.189 2391.976 46.042 2391.839 45.909 2391.734 45.792 2391.663L46.947 2391.663 48.105 2391 44.357 2391ZM51.981 2396.732L51.981 2394.758 50.827 2394.758 50.827 2396.732 48.856 2396.732 48.856 2397.859 50.827 2397.859 50.827 2399.785 51.981 2399.785 51.981 2397.859 54 2397.859 54 2396.732 51.981 2396.732ZM45.136 2396.336C44.807 2396.666 44.396 2396.84 43.903 2396.858 43.512 2396.858 43.165 2396.741 42.861 2396.507 42.558 2396.274 42.31 2395.989 42.118 2395.653 41.721 2394.934 41.523 2394.242 41.523 2393.577 41.51 2393.074 41.646 2392.619 41.93 2392.211 42.267 2391.822 42.689 2391.621 43.197 2391.609 43.581 2391.621 43.921 2391.732 44.216 2391.941 44.505 2392.163 44.739 2392.451 44.916 2392.804 45.294 2393.541 45.483 2394.272 45.483 2394.997 45.483 2395.165 45.469 2395.372 45.442 2395.618 45.397 2395.863 45.295 2396.103 45.136 2396.336ZM44.511 2399.817C45.209 2400.295 45.722 2400.699 46.05 2401.028 46.361 2401.375 46.516 2401.781 46.516 2402.248 46.516 2402.822 46.289 2403.291 45.835 2403.657 45.37 2404.027 44.696 2404.218 43.813 2404.231 42.828 2404.218 42.052 2404.003 41.485 2403.585 40.889 2403.166 40.59 2402.634 40.59 2401.988 40.59 2401.659 40.659 2401.378 40.796 2401.144 40.916 2400.923 41.062 2400.738 41.235 2400.588 41.414 2400.445 41.59 2400.334 41.763 2400.256 41.936 2400.184 42.07 2400.131 42.166 2400.095 42.571 2399.975 42.968 2399.889 43.356 2399.835 43.75 2399.799 43.995 2399.787 44.09 2399.799 44.251 2399.799 44.391 2399.805 44.511 2399.817Z" class="cls-1"/><path d="M32 2383C25.925 2383 21 2378.075 21 2372 21 2365.925 25.925 2361 32 2361 38.075 2361 43 2365.925 43 2372 43 2378.075 38.075 2383 32 2383ZM35 2365.099C34.749 2365.066 33.889 2365 32.889 2365 30.801 2365 29.372 2366.237 29.372 2368.52L29.372 2370.488 27 2370.488 27 2373.147 29.371 2373.147 29.371 2380 32.203 2380 32.203 2373.147 34.552 2373.147 34.904 2370.488 32.203 2370.488 32.203 2368.784C32.203 2368.012 32.416 2367.486 33.551 2367.486L35 2367.486 35 2365.099Z" class="cls-1"/><path d="M69 2279.616C67.234 2280.399 65.336 2280.929 63.344 2281.167 65.377 2279.948 66.939 2278.019 67.674 2275.72 65.771 2276.848 63.664 2277.667 61.421 2278.109 59.624 2276.195 57.065 2274.999 54.232 2274.999 48.794 2274.999 44.384 2279.408 44.384 2284.845 44.384 2285.617 44.471 2286.368 44.639 2287.089 36.455 2286.678 29.198 2282.759 24.341 2276.802 23.494 2278.256 23.008 2279.947 23.008 2281.752 23.008 2285.167 24.747 2288.181 27.389 2289.947 25.775 2289.896 24.256 2289.453 22.928 2288.715 22.928 2288.756 22.928 2288.797 22.928 2288.839 22.928 2293.609 26.322 2297.589 30.827 2298.493 30.001 2298.718 29.131 2298.838 28.233 2298.838 27.598 2298.838 26.981 2298.777 26.38 2298.662 27.633 2302.574 31.27 2305.42 35.579 2305.5 32.209 2308.14 27.963 2309.714 23.349 2309.714 22.554 2309.714 21.77 2309.667 21 2309.577 25.358 2312.37 30.534 2314 36.096 2314 54.21 2314 64.115 2298.997 64.115 2285.987 64.115 2285.56 64.105 2285.135 64.086 2284.713 66.01 2283.325 67.68 2281.591 69 2279.616Z" class="cls-1"/><path d="M61 2207C66.006 2206.909 69.146 2212.305 69 2215 68.833 2218.083 66 2223 61 2223 53.5 2223 45.821 2215.999 46 2207 46.25 2194.417 62 2187 62 2187 62 2187 49.042 2197.078 49 2207 48.964 2215.531 55.165 2207.105 61 2207ZM36 2223C28.5 2223 20.821 2215.999 21 2207 21.25 2194.417 37 2187 37 2187 37 2187 24.042 2197.078 24 2207 23.964 2215.531 30.165 2207.105 36 2207 41.006 2206.909 44.146 2212.305 44 2215 43.833 2218.083 41 2223 36 2223Z" class="cls-1"/><path d="M63.818 2139L61 2139 61 2137 63 2137C65.209 2137 67 2135.209 67 2133L67 2131 69 2131 69 2133.857C69 2136.697 66.68 2139 63.818 2139ZM67 2125L69 2125 69 2129 67 2129 67 2125ZM67 2119L69 2119 69 2123 67 2123 67 2119ZM67 2113L69 2113 69 2117 67 2117 67 2113ZM67 2107L69 2107 69 2111 67 2111 67 2107ZM67 2101L69 2101 69 2105 67 2105 67 2101ZM67 2097C67 2094.791 65.209 2093 63 2093L61 2093 61 2091 63.818 2091C66.68 2091 69 2093.302 69 2096.143L69 2099 67 2099 67 2097ZM59 2091L59 2091 59 2093 55 2093 55 2091 59 2091 59 2091ZM59 2139L55 2139 55 2137 59 2137 59 2139ZM53 2093L49 2093 49 2091 53 2091 53 2091 53 2091 53 2093ZM53 2139L49 2139 49 2137 53 2137 53 2139ZM47 2093L43 2093 43 2091 43 2091 43 2091 47 2091 47 2091 47 2091 47 2093ZM37 2137L41 2137 41 2139 37 2139 37 2137ZM37 2091L37 2091 37 2091 41 2091 41 2093 37 2093 37 2091ZM31 2137L35 2137 35 2139 31 2139 31 2137ZM31 2091L31 2091 31 2091 35 2091 35 2093 31 2093 31 2091ZM21 2133.857L21 2131 21 2131 21 2131 23 2131 23 2133C23 2135.209 24.791 2137 27 2137L29 2137 29 2139 26.182 2139C23.32 2139 21 2136.697 21 2133.857ZM23 2097L23 2099 21 2099 21 2096.143C21 2093.302 23.32 2091 26.182 2091L29 2091 29 2093 27 2093C24.791 2093 23 2094.791 23 2097ZM21 2101L23 2101 23 2105 21 2105 21 2101 21 2101 21 2101ZM23 2111L21 2111 21 2107 23 2107 23 2111ZM23 2117L21 2117 21 2117 21 2117 21 2113 23 2113 23 2117ZM23 2123L21 2123 21 2123 21 2123 21 2119 23 2119 23 2123ZM21 2125L23 2125 23 2129 21 2129 21 2129 21 2129 21 2125 21 2125 21 2125ZM47 2139L43 2139 43 2137 47 2137 47 2139Z" class="cls-1"/><path d="M60 2121L60 2118.722C60.595 2118.376 61 2117.738 61 2117L61 2105C61 2103.896 60.105 2103 59 2103L35 2103C34.262 2103 33.624 2103.405 33.277 2104L31 2104 31 2105 56 2105C57.657 2105 59 2106.343 59 2108L59 2122C59 2123.657 57.657 2125 56 2125L53 2125 53 2130 48 2125 30 2125C28.343 2125 27 2123.657 27 2122L27 2108C27 2106.343 28.343 2105 30 2105L31 2105 31 2104C31 2102.343 32.343 2101 34 2101L60 2101C61.657 2101 63 2102.343 63 2104L63 2118C63 2119.657 61.657 2121 60 2121Z" class="cls-1"/><path d="M66 2032L65 2032 65 2030C66.105 2030 67 2029.104 67 2028L67 2008C67 2006.896 66.105 2006 65 2006L31 2006C29.895 2006 29 2006.896 29 2008L27 2008 27 2007C27 2005.343 28.343 2004 30 2004L66 2004C67.657 2004 69 2005.343 69 2007L69 2029C69 2030.657 67.657 2032 66 2032ZM63 2013L63 2035C63 2036.657 61.657 2038 60 2038L57 2038 57 2046 50 2038 24 2038C22.343 2038 21 2036.657 21 2035L21 2013C21 2011.343 22.343 2010 24 2010L60 2010C61.657 2010 63 2011.343 63 2013Z" class="cls-1"/><path d="M67 1951L67 1913 29 1913 29 1911 69 1911 69 1913 69 1951 67 1951ZM65 1917L65 1955 63 1955 63 1917 25 1917 25 1915 65 1915 65 1917ZM61 1959L21 1959 21 1919 61 1919 61 1959ZM59 1921L23 1921 23 1957 59 1957 59 1921ZM35 1947L35 1931 47 1939 35 1947Z" class="cls-1"/><path d="M74 1853L71 1853 78 1845 71 1837 74 1837 81 1845 74 1853ZM25 1825L65 1825 65 1865 25 1865 25 1825ZM27 1863L63 1863 63 1827 27 1827 27 1863ZM40.063 1842.99L50.618 1860.175 55.554 1852.137 61.002 1861.006 28.998 1861.006 40.063 1842.99ZM55.008 1838.995C52.799 1838.995 51.008 1837.203 51.008 1834.992 51.008 1832.782 52.799 1830.99 55.008 1830.99 57.217 1830.99 59.008 1832.782 59.008 1834.992 59.008 1837.203 57.217 1838.995 55.008 1838.995ZM16 1853L9 1845 16 1837 19 1837 12 1845 19 1853 16 1853Z" class="cls-1"/><path d="M67 1771L67 1733 29 1733 29 1731 69 1731 69 1733 69 1771 67 1771ZM65 1737L65 1775 63 1775 63 1737 25 1737 25 1735 65 1735 65 1737ZM61 1779L21 1779 21 1739 61 1739 61 1779ZM59 1741L23 1741 23 1777 59 1777 59 1741ZM46.618 1774.174L51.554 1766.137 57.002 1775.006 24.998 1775.006 36.063 1756.99 46.618 1774.174ZM51.008 1752.995C48.799 1752.995 47.008 1751.203 47.008 1748.993 47.008 1746.782 48.799 1744.99 51.008 1744.99 53.217 1744.99 55.008 1746.782 55.008 1748.993 55.008 1751.203 53.217 1752.995 51.008 1752.995Z" class="cls-1"/><path d="M21 1689L21 1641 69 1641 69 1689 21 1689ZM67 1643L23 1643 23 1687 67 1687 67 1643ZM52.022 1683.991L58.193 1674.167 65.002 1685.007 24.998 1685.007 38.829 1662.988 52.022 1683.991ZM58.01 1656.994C55.249 1656.994 53.01 1654.754 53.01 1651.99 53.01 1649.227 55.249 1646.987 58.01 1646.987 60.772 1646.987 63.01 1649.227 63.01 1651.99 63.01 1654.754 60.772 1656.994 58.01 1656.994Z" class="cls-1"/><path d="M67 1565.391L67 1565C67 1562.791 65.209 1561 63 1561L27 1561C24.791 1561 23 1562.791 23 1565L23 1593C23 1595.209 24.791 1597 27 1597L63 1597C65.209 1597 67 1595.209 67 1593L67 1583.333 69 1582 69 1594C69 1596.762 66.761 1599 64 1599L26 1599C23.239 1599 21 1596.762 21 1594L21 1556C21 1553.239 23.239 1551 26 1551L28 1551 28 1557C28 1558.105 28.895 1559 30 1559 31.105 1559 32 1558.105 32 1557L32 1551 38 1551 38 1557C38 1558.105 38.895 1559 40 1559 41.105 1559 42 1558.105 42 1557L42 1551 48 1551 48 1557C48 1558.105 48.895 1559 50 1559 51.105 1559 52 1558.105 52 1557L52 1551 58 1551 58 1557C58 1558.105 58.895 1559 60 1559 61.105 1559 62 1558.105 62 1557L62 1551 64 1551C66.761 1551 69 1553.239 69 1556L69 1564 67 1565.391ZM60 1558C59.448 1558 59 1557.552 59 1557L59 1550C59 1549.448 59.448 1549 60 1549 60.552 1549 61 1549.448 61 1550L61 1557C61 1557.552 60.552 1558 60 1558ZM50 1558C49.448 1558 49 1557.552 49 1557L49 1550C49 1549.448 49.448 1549 50 1549 50.552 1549 51 1549.448 51 1550L51 1557C51 1557.552 50.552 1558 50 1558ZM40 1558C39.448 1558 39 1557.552 39 1557L39 1550C39 1549.448 39.448 1549 40 1549 40.552 1549 41 1549.448 41 1550L41 1557C41 1557.552 40.552 1558 40 1558ZM30 1558C29.448 1558 29 1557.552 29 1557L29 1550C29 1549.448 29.448 1549 30 1549 30.552 1549 31 1549.448 31 1550L31 1557C31 1557.552 30.552 1558 30 1558Z" class="cls-1"/><path d="M63.251 1568L62 1568C61.448 1568 61 1567.552 61 1567L61 1566C61 1565.448 61.448 1565 62 1565L64 1565C64.552 1565 65 1565.448 65 1566L65 1566.783 63.251 1568ZM56.062 1573L56 1573C55.448 1573 55 1572.553 55 1572L55 1571C55 1570.448 55.448 1570 56 1570L58 1570C58.539 1570 58.971 1570.428 58.992 1570.962L56.062 1573ZM52 1573L50 1573C49.448 1573 49 1572.553 49 1572L49 1571C49 1570.448 49.448 1570 50 1570L52 1570C52.552 1570 53 1570.448 53 1571L53 1572C53 1572.553 52.552 1573 52 1573ZM46 1578L44 1578C43.448 1578 43 1577.552 43 1577L43 1576C43 1575.448 43.448 1575 44 1575L46 1575C46.552 1575 47 1575.448 47 1576L47 1577C47 1577.552 46.552 1578 46 1578ZM46 1573L44 1573C43.448 1573 43 1572.553 43 1572L43 1571C43 1570.448 43.448 1570 44 1570L46 1570C46.552 1570 47 1570.448 47 1571L47 1572C47 1572.553 46.552 1573 46 1573ZM40 1588L38 1588C37.448 1588 37 1587.552 37 1587L37 1586C37 1585.448 37.448 1585 38 1585L40 1585C40.552 1585 41 1585.448 41 1586L41 1587C41 1587.552 40.552 1588 40 1588ZM40 1583L38 1583C37.448 1583 37 1582.553 37 1582L37 1581C37 1580.448 37.448 1580 38 1580L40 1580C40.552 1580 41 1580.448 41 1581L41 1582C41 1582.553 40.552 1583 40 1583ZM40 1578L38 1578C37.448 1578 37 1577.552 37 1577L37 1576C37 1575.448 37.448 1575 38 1575L40 1575C40.552 1575 41 1575.448 41 1576L41 1577C41 1577.552 40.552 1578 40 1578ZM40 1573L38 1573C37.448 1573 37 1572.553 37 1572L37 1571C37 1570.448 37.448 1570 38 1570L40 1570C40.552 1570 41 1570.448 41 1571L41 1572C41 1572.553 40.552 1573 40 1573ZM34 1593L32 1593C31.448 1593 31 1592.553 31 1592L31 1591C31 1590.448 31.448 1590 32 1590L34 1590C34.552 1590 35 1590.448 35 1591L35 1592C35 1592.553 34.552 1593 34 1593ZM34 1588L32 1588C31.448 1588 31 1587.552 31 1587L31 1586C31 1585.448 31.448 1585 32 1585L34 1585C34.552 1585 35 1585.448 35 1586L35 1587C35 1587.552 34.552 1588 34 1588ZM34 1583L32 1583C31.448 1583 31 1582.553 31 1582L31 1581C31 1580.448 31.448 1580 32 1580L34 1580C34.552 1580 35 1580.448 35 1581L35 1582C35 1582.553 34.552 1583 34 1583ZM34 1578L32 1578C31.448 1578 31 1577.552 31 1577L31 1576C31 1575.448 31.448 1575 32 1575L34 1575C34.552 1575 35 1575.448 35 1576L35 1577C35 1577.552 34.552 1578 34 1578ZM34 1573L32 1573C31.448 1573 31 1572.553 31 1572L31 1571C31 1570.448 31.448 1570 32 1570L34 1570C34.552 1570 35 1570.448 35 1571L35 1572C35 1572.553 34.552 1573 34 1573ZM28 1593L26 1593C25.448 1593 25 1592.553 25 1592L25 1591C25 1590.448 25.448 1590 26 1590L28 1590C28.552 1590 29 1590.448 29 1591L29 1592C29 1592.553 28.552 1593 28 1593ZM28 1588L26 1588C25.448 1588 25 1587.552 25 1587L25 1586C25 1585.448 25.448 1585 26 1585L28 1585C28.552 1585 29 1585.448 29 1586L29 1587C29 1587.552 28.552 1588 28 1588ZM28 1583L26 1583C25.448 1583 25 1582.553 25 1582L25 1581C25 1580.448 25.448 1580 26 1580L28 1580C28.552 1580 29 1580.448 29 1581L29 1582C29 1582.553 28.552 1583 28 1583ZM28 1578L26 1578C25.448 1578 25 1577.552 25 1577L25 1576C25 1575.448 25.448 1575 26 1575L28 1575C28.552 1575 29 1575.448 29 1576L29 1577C29 1577.552 28.552 1578 28 1578ZM28 1573L26 1573C25.448 1573 25 1572.553 25 1572L25 1571C25 1570.448 25.448 1570 26 1570L28 1570C28.552 1570 29 1570.448 29 1571L29 1572C29 1572.553 28.552 1573 28 1573ZM64.383 1585.078C64.745 1585.228 65 1585.584 65 1586L65 1587C65 1587.552 64.552 1588 64 1588L62 1588C61.552 1588 61.186 1587.7 61.059 1587.294L64.383 1585.078ZM50 1575L52 1575C52.288 1575 52.543 1575.126 52.726 1575.321L49.295 1577.708C49.113 1577.527 49 1577.277 49 1577L49 1576C49 1575.448 49.448 1575 50 1575ZM44 1580L46 1580C46 1580 46 1580 46 1580L44 1583C43.448 1583 43 1582.553 43 1582L43 1581C43 1580.448 43.448 1580 44 1580Z" class="cls-1"/><path d="M58 1568L56 1568C55.448 1568 55 1567.552 55 1567L55 1566C55 1565.448 55.448 1565 56 1565L58 1565C58.552 1565 59 1565.448 59 1566L59 1567C59 1567.552 58.552 1568 58 1568ZM52 1568L50 1568C49.448 1568 49 1567.552 49 1567L49 1566C49 1565.448 49.448 1565 50 1565L52 1565C52.552 1565 53 1565.448 53 1566L53 1567C53 1567.552 52.552 1568 52 1568ZM46 1568L44 1568C43.448 1568 43 1567.552 43 1567L43 1566C43 1565.448 43.448 1565 44 1565L46 1565C46.552 1565 47 1565.448 47 1566L47 1567C47 1567.552 46.552 1568 46 1568ZM40 1568L38 1568C37.448 1568 37 1567.552 37 1567L37 1566C37 1565.448 37.448 1565 38 1565L40 1565C40.552 1565 41 1565.448 41 1566L41 1567C41 1567.552 40.552 1568 40 1568ZM34 1568L32 1568C31.448 1568 31 1567.552 31 1567L31 1566C31 1565.448 31.448 1565 32 1565L34 1565C34.552 1565 35 1565.448 35 1566L35 1567C35 1567.552 34.552 1568 34 1568ZM28 1568L26 1568C25.448 1568 25 1567.552 25 1567L25 1566C25 1565.448 25.448 1565 26 1565L28 1565C28.552 1565 29 1565.448 29 1566L29 1567C29 1567.552 28.552 1568 28 1568ZM38 1590L40 1590C40.552 1590 41 1590.448 41 1591L41 1592C41 1592.553 40.552 1593 40 1593L38 1593C37.448 1593 37 1592.553 37 1592L37 1591C37 1590.448 37.448 1590 38 1590ZM52.962 1592.189C52.871 1592.648 52.485 1593 52 1593L50 1593C49.799 1593 49.623 1592.926 49.467 1592.824L52.962 1592.189ZM57 1590L58 1590C58.552 1590 59 1590.448 59 1591L59 1592C59 1592.553 58.552 1593 58 1593L56 1593C55.448 1593 55 1592.553 55 1592L55 1591.333 57 1590ZM62 1590L64 1590C64.552 1590 65 1590.448 65 1591L65 1592C65 1592.553 64.552 1593 64 1593L62 1593C61.448 1593 61 1592.553 61 1592L61 1591C61 1590.448 61.448 1590 62 1590Z" class="cls-4"/><path d="M80.823 1572.439L79.186 1573.588 72.296 1563.762 73.934 1562.614C75.29 1561.663 77.161 1561.992 78.112 1563.348L81.557 1568.261C82.508 1569.618 82.18 1571.488 80.823 1572.439ZM58.716 1587.94L51.827 1578.115 70.659 1564.911 77.548 1574.736 58.716 1587.94ZM54.382 1590.457C53.475 1590.821 43.022 1593.387 42.159 1592.156 41.344 1590.994 47.363 1581.934 47.985 1581.215 48.975 1580.067 50.189 1579.263 50.189 1579.263L57.078 1589.089C57.078 1589.089 55.896 1589.849 54.382 1590.457Z" class="cls-1"/><path d="M59 1509L31 1509C28.239 1509 26 1506.762 26 1504L26 1473 38 1461 42 1461 45 1461 45 1463 43 1463 43 1465 45 1465 45 1467 43 1467 43 1469 45 1469 45 1471 43 1471 43 1473 45 1473 45 1475 43 1475 43 1477 45 1477 45 1479 43 1479 43 1481 45 1481 45 1483 43 1483 43 1485 45 1485 45 1487 43 1487 43 1489 45 1489 45 1491 47 1491 47 1489 45 1489 45 1487 47 1487 47 1485 45 1485 45 1483 47 1483 47 1481 45 1481 45 1479 47 1479 47 1477 45 1477 45 1475 47 1475 47 1473 45 1473 45 1471 47 1471 47 1469 45 1469 45 1467 47 1467 47 1465 45 1465 45 1463 47 1463 47 1461 48 1461 59 1461C61.761 1461 64 1463.239 64 1466L64 1504C64 1506.762 61.761 1509 59 1509ZM62 1467C62 1464.791 60.209 1463 58 1463L48 1463 48 1492 42 1492 42 1463 38 1463 38 1468C38 1470.761 35.761 1473 33 1473L28 1473 28 1503C28 1505.209 29.791 1507 32 1507L58 1507C60.209 1507 62 1505.209 62 1503L62 1467ZM43 1493L47 1493 47 1501 43 1501 43 1493ZM44 1496L46 1496 46 1494 44 1494 44 1496Z" class="cls-1"/><path d="M63.818 1419L61 1419 61 1417 63 1417C65.209 1417 67 1415.209 67 1413L67 1411 69 1411 69 1413.857C69 1416.697 66.68 1419 63.818 1419ZM67 1405L69 1405 69 1409 67 1409 67 1405ZM67 1399L69 1399 69 1403 67 1403 67 1399ZM67 1393L69 1393 69 1397 67 1397 67 1393ZM67 1387L69 1387 69 1391 67 1391 67 1387ZM67 1381L69 1381 69 1385 67 1385 67 1381ZM67 1377C67 1374.791 65.209 1373 63 1373L61 1373 61 1371 63.818 1371C66.68 1371 69 1373.302 69 1376.143L69 1379 67 1379 67 1377ZM59 1371L59 1371 59 1373 55 1373 55 1371 59 1371 59 1371ZM59 1419L55 1419 55 1417 59 1417 59 1419ZM53 1373L49 1373 49 1371 53 1371 53 1371 53 1371 53 1373ZM53 1419L49 1419 49 1417 53 1417 53 1419ZM47 1373L43 1373 43 1371 43 1371 43 1371 47 1371 47 1371 47 1371 47 1373ZM37 1417L41 1417 41 1419 37 1419 37 1417ZM37 1371L37 1371 37 1371 41 1371 41 1373 37 1373 37 1371ZM31 1417L35 1417 35 1419 31 1419 31 1417ZM31 1371L31 1371 31 1371 35 1371 35 1373 31 1373 31 1371ZM21 1413.857L21 1411 21 1411 21 1411 23 1411 23 1413C23 1415.209 24.791 1417 27 1417L29 1417 29 1419 26.182 1419C23.32 1419 21 1416.697 21 1413.857ZM23 1377L23 1379 21 1379 21 1376.143C21 1373.302 23.32 1371 26.182 1371L29 1371 29 1373 27 1373C24.791 1373 23 1374.791 23 1377ZM21 1381L23 1381 23 1385 21 1385 21 1381 21 1381 21 1381ZM23 1391L21 1391 21 1387 23 1387 23 1391ZM23 1397L21 1397 21 1397 21 1397 21 1393 23 1393 23 1397ZM23 1403L21 1403 21 1403 21 1403 21 1399 23 1399 23 1403ZM21 1405L23 1405 23 1409 21 1409 21 1409 21 1409 21 1405 21 1405 21 1405ZM47 1419L43 1419 43 1417 47 1417 47 1419Z" class="cls-1"/><path d="M29 1411L29 1410 61 1410 61 1411 29 1411ZM29 1408L61 1408 61 1409 29 1409 29 1408ZM29 1406L61 1406 61 1407 29 1407 29 1406ZM33 1403L61 1403 61 1405 33 1405 33 1403ZM29 1398L61 1398 61 1399 29 1399 29 1398ZM29 1396L61 1396 61 1397 29 1397 29 1396ZM29 1394L61 1394 61 1395 29 1395 29 1394ZM33 1391L61 1391 61 1393 33 1393 33 1391ZM29 1386L61 1386 61 1387 29 1387 29 1386ZM29 1384L61 1384 61 1385 29 1385 29 1384ZM29 1382L61 1382 61 1383 29 1383 29 1382ZM33 1379L61 1379 61 1381 33 1381 33 1379ZM29 1379L31 1379 31 1381 29 1381 29 1379ZM31 1393L29 1393 29 1391 31 1391 31 1393ZM31 1405L29 1405 29 1403 31 1403 31 1405Z" class="cls-1"/><path d="M59 1329L31 1329C28.239 1329 26 1326.761 26 1324L26 1297 42 1281 59 1281C61.761 1281 64 1283.239 64 1286L64 1324C64 1326.761 61.761 1329 59 1329ZM62 1287C62 1284.791 60.209 1283 58 1283L42 1283 42 1292C42 1294.761 39.761 1297 37 1297L28 1297 28 1323C28 1325.209 29.791 1327 32 1327L58 1327C60.209 1327 62 1325.209 62 1323L62 1287Z" class="cls-1"/><path d="M54.887 1303.128L49.255 1308.81C47.311 1310.771 44.145 1310.785 42.184 1308.841 42.022 1308.68 41.893 1308.5 41.758 1308.324 41.657 1308.276 41.558 1308.22 41.474 1308.137 41.082 1307.748 41.079 1307.115 41.468 1306.723 41.856 1306.33 42.49 1306.327 42.882 1306.716 42.882 1306.716 42.882 1306.716 42.882 1306.716L43.011 1306.586C43.156 1306.886 43.342 1307.172 43.592 1307.42 44.769 1308.586 46.668 1308.579 47.835 1307.402L53.467 1301.72C54.633 1300.544 54.625 1298.644 53.448 1297.477 52.271 1296.311 50.372 1296.319 49.205 1297.496L46.249 1300.479 43.983 1299.923 47.785 1296.088C49.729 1294.127 52.895 1294.113 54.856 1296.057 56.817 1298.001 56.831 1301.167 54.887 1303.128ZM47.816 1303.159C47.978 1303.32 48.107 1303.5 48.242 1303.676 48.343 1303.724 48.442 1303.78 48.526 1303.863 48.918 1304.252 48.921 1304.885 48.532 1305.277 48.144 1305.669 47.51 1305.672 47.118 1305.284L46.989 1305.414C46.844 1305.113 46.658 1304.828 46.408 1304.579 45.231 1303.413 43.332 1303.422 42.165 1304.598L36.533 1310.28C35.367 1311.457 35.375 1313.356 36.552 1314.522 37.729 1315.689 39.628 1315.681 40.795 1314.504L43.751 1311.521 46.017 1312.077 42.215 1315.912C40.271 1317.873 37.105 1317.887 35.144 1315.943 33.183 1313.999 33.169 1310.833 35.113 1308.872L40.745 1303.19C42.689 1301.229 45.855 1301.215 47.816 1303.159Z" class="cls-1"/><path d="M63.818 1239L61 1239 61 1237 63 1237C65.209 1237 67 1235.209 67 1233L67 1231 69 1231 69 1233.857C69 1236.698 66.68 1239 63.818 1239ZM67 1225L69 1225 69 1229 67 1229 67 1225ZM67 1219L69 1219 69 1223 67 1223 67 1219ZM67 1213L69 1213 69 1217 67 1217 67 1213ZM67 1207L69 1207 69 1211 67 1211 67 1207ZM67 1201L69 1201 69 1205 67 1205 67 1201ZM67 1197C67 1194.791 65.209 1193 63 1193L61 1193 61 1191 63.818 1191C66.68 1191 69 1193.302 69 1196.143L69 1199 67 1199 67 1197ZM59 1191L59 1191 59 1193 55 1193 55 1191 59 1191 59 1191ZM59 1239L55 1239 55 1237 59 1237 59 1239ZM53 1193L49 1193 49 1191 53 1191 53 1191 53 1191 53 1193ZM53 1239L49 1239 49 1237 53 1237 53 1239ZM47 1193L43 1193 43 1191 43 1191 43 1191 47 1191 47 1191 47 1191 47 1193ZM37 1237L41 1237 41 1239 37 1239 37 1237ZM37 1191L37 1191 37 1191 41 1191 41 1193 37 1193 37 1191ZM31 1237L35 1237 35 1239 31 1239 31 1237ZM31 1191L31 1191 31 1191 35 1191 35 1193 31 1193 31 1191ZM21 1233.857L21 1231 21 1231 21 1231 23 1231 23 1233C23 1235.209 24.791 1237 27 1237L29 1237 29 1239 26.182 1239C23.32 1239 21 1236.698 21 1233.857ZM23 1197L23 1199 21 1199 21 1196.143C21 1193.302 23.32 1191 26.182 1191L29 1191 29 1193 27 1193C24.791 1193 23 1194.791 23 1197ZM21 1201L23 1201 23 1205 21 1205 21 1201 21 1201 21 1201ZM23 1211L21 1211 21 1207 23 1207 23 1211ZM23 1217L21 1217 21 1217 21 1217 21 1213 23 1213 23 1217ZM23 1223L21 1223 21 1223 21 1223 21 1219 23 1219 23 1223ZM21 1225L23 1225 23 1229 21 1229 21 1229 21 1229 21 1225 21 1225 21 1225ZM47 1239L43 1239 43 1237 47 1237 47 1239Z" class="cls-1"/><path d="M46 1231L46 1216 61 1216 61 1231 46 1231ZM46 1199L61 1199 61 1214 46 1214 46 1199ZM29 1216L44 1216 44 1231 29 1231 29 1216ZM29 1199L44 1199 44 1214 29 1214 29 1199Z" class="cls-1"/><path d="M76.823 1119.439L75.186 1120.588 68.296 1110.762 69.934 1109.614C71.29 1108.663 73.161 1108.992 74.112 1110.348L77.557 1115.261C78.508 1116.617 78.18 1118.488 76.823 1119.439ZM54.716 1134.94L47.827 1125.115 66.659 1111.91 73.548 1121.736 54.716 1134.94ZM38.159 1139.156C37.344 1137.994 43.363 1128.934 43.985 1128.215 44.975 1127.067 46.189 1126.263 46.189 1126.263L53.078 1136.089C53.078 1136.089 51.896 1136.849 50.382 1137.457 49.475 1137.821 39.022 1140.387 38.159 1139.156ZM62 1107C62 1104.791 60.209 1103 58 1103L42 1103 42 1112C42 1114.761 39.761 1117 37 1117L28 1117 28 1143C28 1145.209 29.791 1147 32 1147L58 1147C60.209 1147 62 1145.209 62 1143L62 1133 64 1131 64 1144C64 1146.761 61.761 1149 59 1149L31 1149C28.239 1149 26 1146.761 26 1144L26 1117 42 1101 59 1101C61.761 1101 64 1103.239 64 1106L64 1110 62 1112 62 1107Z" class="cls-1"/><path d="M67.828 1057.966C66.266 1059.529 63.733 1059.529 62.171 1057.967L50.66 1046.463C52.896 1044.967 54.827 1043.054 56.344 1040.834L67.826 1052.309C69.389 1053.871 69.389 1056.403 67.828 1057.966ZM39 1047C29.059 1047 21 1038.941 21 1029 21 1019.059 29.059 1011 39 1011 48.941 1011 57 1019.059 57 1029 57 1038.941 48.941 1047 39 1047ZM49 1019.211L49 1019 48.789 1019C46.264 1016.528 42.812 1015 39 1015 31.268 1015 25 1021.268 25 1029 25 1032.812 26.528 1036.264 29 1038.789L29 1039 29.211 1039C31.736 1041.472 35.188 1043 39 1043 42.812 1043 46.264 1041.472 48.789 1039L49 1039 49 1038.789C51.472 1036.264 53 1032.812 53 1029 53 1025.188 51.472 1021.736 49 1019.211ZM31 1029L29 1029C29 1023.477 33.477 1019 39 1019L39 1021C34.582 1021 31 1024.582 31 1029Z" class="cls-1"/><path d="M63.818 969L26.182 969C23.32 969 21 966.698 21 963.857L21 934.143C21 931.708 22.71 929.679 25 929.147L25 926.143C25 923.302 27.32 921 30.182 921L38.818 921C41.68 921 44 923.302 44 926.143L44 929 46 929 46 926.143C46 923.302 48.32 921 51.182 921L59.818 921C62.68 921 65 923.302 65 926.143L65 929.147C67.29 929.679 69 931.708 69 934.143L69 963.857C69 966.698 66.68 969 63.818 969ZM63 926C63 924.343 61.657 923 60 923L51 923C49.343 923 48 924.343 48 926L48 929 63 929 63 926ZM67 935C67 932.791 65.209 931 63 931L46 931 44 931 42 931 42 929 42 929 42 926C42 924.343 40.657 923 39 923L30 923C28.343 923 27 924.343 27 926L27 929 27 931C24.791 931 23 932.791 23 935L23 963C23 965.209 24.791 967 27 967L63 967C65.209 967 67 965.209 67 963L67 935Z" class="cls-1"/><path d="M49 867C45.952 872.188 45 879 45 879L45 879C45 879 44.06 872.162 41 867 38.334 862.503 30 854.328 30 846 30 837.716 36.716 831 45 831 53.284 831 60 837.716 60 846 60 854.35 51.646 862.496 49 867ZM45 840C41.686 840 39 842.686 39 846 39 849.314 41.686 852 45 852 48.314 852 51 849.314 51 846 51 842.686 48.314 840 45 840Z" class="cls-1"/><path d="M71.999 788.94C70.925 788.94 69.851 788.94 68.713 788.877 62.773 788.626 59.805 786.563 58.097 785.126 53.486 788.065 48.748 789.003 44.64 789.003 29.602 789.003 20 777.189 20 765.185 20 752.624 29.855 740.998 44.513 740.998 59.173 740.998 69.281 752.374 69.281 764.751 69.281 773.002 65.934 777.312 64.353 779.313 66.376 780.814 68.461 781.251 71.999 781.437L71.999 788.94ZM44.513 749.184C37.311 749.184 31.435 753.998 29.982 761.498 29.855 762.938 29.855 763.936 29.982 764.812 31.624 764.312 34.279 763.373 37.817 763.373 41.672 763.373 45.083 764.187 48.748 766.563 51.591 768.438 53.171 769.875 57.024 773.375 58.856 771.187 59.867 768.126 59.867 764.751 59.867 755.372 52.853 749.184 44.577 749.184L44.513 749.184ZM44.64 780.814C47.483 780.814 50.074 780.002 51.4 779.126 50.01 777.5 47.421 775.313 46.472 774.564 43.439 772.252 40.09 771.312 36.867 771.312 34.214 771.312 32.51 771.812 31.117 772.313 34.026 778.751 40.534 780.814 44.577 780.814L44.64 780.814Z" class="cls-1"/><path d="M63.556 685.246C63.556 686.587 63.618 687.451 63.741 687.84 63.864 688.229 64.08 688.544 64.392 688.783 64.703 689.023 64.99 689.144 65.252 689.144 66.317 689.144 67.324 688.324 68.275 686.686L69.012 687.232C67.685 690.41 65.53 691.998 62.549 691.998 61.091 691.998 59.858 691.589 58.85 690.769 57.843 689.95 57.2 689.036 56.921 688.026 56.757 687.464 56.676 685.941 56.676 683.459L56.676 670.922 53.678 670.922 53.678 670.053C55.742 668.58 57.499 667.033 58.949 665.411 60.399 663.789 61.664 661.977 62.745 659.974L63.556 659.974 63.556 668.464 69.012 668.464 69.012 670.922 63.556 670.922 63.556 685.246ZM48.296 662.593C47.657 661.675 46.78 660.943 45.666 660.396 45.044 660.099 43.954 659.95 42.398 659.95L39.916 659.95 39.916 685.916C39.916 687.638 40.01 688.713 40.199 689.144 40.387 689.574 40.755 689.95 41.305 690.273 41.853 690.596 42.603 690.757 43.553 690.757L44.659 690.757 44.659 691.676 27.211 691.676 27.211 690.757 28.317 690.757C29.284 690.757 30.062 690.584 30.652 690.236 31.078 690.004 31.414 689.607 31.659 689.044 31.839 688.647 31.93 687.605 31.93 685.916L31.93 659.95 29.521 659.95C27.277 659.95 25.647 660.43 24.631 661.39 23.206 662.73 22.305 664.641 21.928 667.124L20.994 667.124 20.994 658.013 50.925 658.013 50.925 667.124 50.041 667.124C49.516 665.022 48.935 663.512 48.296 662.593Z" class="cls-1"/><path d="M63.818 609L61 609 61 607 63 607C65.209 607 67 605.209 67 603L67 601 69 601 69 603.857C69 606.698 66.68 609 63.818 609ZM67 595L69 595 69 599 67 599 67 595ZM67 589L69 589 69 593 67 593 67 589ZM67 583L69 583 69 587 67 587 67 583ZM67 577L69 577 69 581 67 581 67 577ZM67 571L69 571 69 575 67 575 67 571ZM67 567C67 564.791 65.209 563 63 563L61 563 61 561 63.818 561C66.68 561 69 563.302 69 566.143L69 569 67 569 67 567ZM59 561L59 561 59 563 55 563 55 561 59 561 59 561ZM59 609L55 609 55 607 59 607 59 609ZM53 563L49 563 49 561 53 561 53 561 53 561 53 563ZM53 609L49 609 49 607 53 607 53 609ZM47 563L43 563 43 561 43 561 43 561 47 561 47 561 47 561 47 563ZM37 607L41 607 41 609 37 609 37 607ZM37 561L37 561 37 561 41 561 41 563 37 563 37 561ZM31 607L35 607 35 609 31 609 31 607ZM31 561L31 561 31 561 35 561 35 563 31 563 31 561ZM21 603.857L21 601 21 601 21 601 23 601 23 603C23 605.209 24.791 607 27 607L29 607 29 609 26.182 609C23.32 609 21 606.698 21 603.857ZM23 567L23 569 21 569 21 566.143C21 563.302 23.32 561 26.182 561L29 561 29 563 27 563C24.791 563 23 564.791 23 567ZM21 571L23 571 23 575 21 575 21 571 21 571 21 571ZM23 581L21 581 21 577 23 577 23 581ZM23 587L21 587 21 587 21 587 21 583 23 583 23 587ZM23 593L21 593 21 593 21 593 21 589 23 589 23 593ZM21 595L23 595 23 599 21 599 21 599 21 599 21 595 21 595 21 595ZM47 609L43 609 43 607 47 607 47 609Z" class="cls-1"/><path d="M67 519L67 516 69 516 69 519 67 519ZM67 510L69 510 69 514 67 514 67 510ZM67 506C67 503.791 65.209 502 63 502L61 502 61 500 63.818 500C66.68 500 69 502.302 69 505.143L69 508 67 508 67 506ZM63.818 490L61 490 61 488 63 488C65.209 488 67 486.209 67 484L67 482 69 482 69 484.857C69 487.698 66.68 490 63.818 490ZM67 476L69 476 69 480 67 480 67 476ZM67 471L69 471 69 474 67 474 67 471ZM55 488L59 488 59 490 55 490 55 488ZM53 502L49 502 49 500 53 500 53 500 53 500 53 502ZM49 488L53 488 53 490 49 490 49 488ZM47 502L43 502 43 500 43 500 43 500 47 500 47 500 47 500 47 502ZM43 488L47 488 47 490 43 490 43 488ZM37 488L41 488 41 490 37 490 37 488ZM41 502L37 502 37 500 37 500 37 500 41 500 41 502ZM31 488L35 488 35 490 31 490 31 488ZM35 502L31 502 31 500 31 500 31 500 35 500 35 502ZM21 484.857L21 482 21 482 21 482 23 482 23 484C23 486.209 24.791 488 27 488L29 488 29 490 26.182 490C23.32 490 21 487.698 21 484.857ZM21 480L21 480 21 476 21 476 21 476 23 476 23 480 21 480 21 480ZM21 474L21 474 21 471 21 471 23 471 23 474 21 474 21 474ZM26.182 500L29 500 29 502 27 502C24.791 502 23 503.791 23 506L23 508 21 508 21 505.143C21 502.302 23.32 500 26.182 500ZM21 510L23 510 23 514 21 514 21 510 21 510 21 510ZM23 519L21 519 21 519 21 516 23 516 23 519ZM59 500L59 500 59 502 55 502 55 500 59 500 59 500Z" class="cls-1"/><path d="M21 406L21 404 69 404 69 406 21 406ZM63.818 400L61 400 61 398 63 398C65.209 398 67 396.209 67 394L67 392 69 392 69 394.857C69 397.697 66.68 400 63.818 400ZM67 386L69 386 69 390 67 390 67 386ZM67 381L69 381 69 384 67 384 67 381ZM55 398L59 398 59 400 55 400 55 398ZM49 398L53 398 53 400 49 400 49 398ZM43 398L47 398 47 400 43 400 43 398ZM37 398L41 398 41 400 37 400 37 398ZM31 398L35 398 35 400 31 400 31 398ZM21 394.857L21 392 21 392 23 392 23 394C23 396.209 24.791 398 27 398L29 398 29 400 26.182 400C23.32 400 21 397.697 21 394.857ZM21 390L21 386 21 386 23 386 23 390 21 390 21 390ZM21 384L21 384 21 381 21 381 23 381 23 384 21 384 21 384ZM26.182 410L29 410 29 412 27 412C24.791 412 23 413.791 23 416L23 418 21 418 21 415.143C21 412.302 23.32 410 26.182 410ZM23 420L23 424 21 424 21 420 21 420 23 420ZM23 429L21 429 21 429 21 426 23 426 23 429ZM35 412L31 412 31 410 35 410 35 412ZM41 412L37 412 37 410 41 410 41 412ZM47 412L43 412 43 410 47 410 47 412ZM53 412L49 412 49 410 53 410 53 412ZM59 412L55 412 55 410 59 410 59 412ZM69 415.143L69 418 67 418 67 416C67 413.791 65.209 412 63 412L61 412 61 410 63.818 410C66.68 410 69 412.302 69 415.143ZM69 424L67 424 67 420 69 420 69 424ZM69 429L67 429 67 426 69 426 69 429Z" class="cls-1"/><path d="M66 328L32 328C30.343 328 29 326.657 29 325 29 323.343 30.343 322 32 322L66 322C67.657 322 69 323.343 69 325 69 326.657 67.657 328 66 328ZM66 318L32 318C30.343 318 29 316.657 29 315 29 313.343 30.343 312 32 312L66 312C67.657 312 69 313.343 69 315 69 316.657 67.657 318 66 318ZM66 308L32 308C30.343 308 29 306.657 29 305 29 303.343 30.343 302 32 302L66 302C67.657 302 69 303.343 69 305 69 306.657 67.657 308 66 308ZM66 298L32 298C30.343 298 29 296.657 29 295 29 293.343 30.343 292 32 292L66 292C67.657 292 69 293.343 69 295 69 296.657 67.657 298 66 298ZM24 338C22.343 338 21 336.657 21 335 21 333.343 22.343 332 24 332 25.657 332 27 333.343 27 335 27 336.657 25.657 338 24 338ZM24 328C22.343 328 21 326.657 21 325 21 323.343 22.343 322 24 322 25.657 322 27 323.343 27 325 27 326.657 25.657 328 24 328ZM24 318C22.343 318 21 316.657 21 315 21 313.343 22.343 312 24 312 25.657 312 27 313.343 27 315 27 316.657 25.657 318 24 318ZM24 308C22.343 308 21 306.657 21 305 21 303.343 22.343 302 24 302 25.657 302 27 303.343 27 305 27 306.657 25.657 308 24 308ZM24 298C22.343 298 21 296.657 21 295 21 293.343 22.343 292 24 292 25.657 292 27 293.343 27 295 27 296.657 25.657 298 24 298ZM32 332L66 332C67.657 332 69 333.343 69 335 69 336.657 67.657 338 66 338L32 338C30.343 338 29 336.657 29 335 29 333.343 30.343 332 32 332Z" class="cls-1"/><path d="M64 249L60 249C57.239 249 55 246.761 55 244L55 206C55 203.238 57.239 201 60 201L64 201C66.761 201 69 203.238 69 206L69 244C69 246.761 66.761 249 64 249ZM67 206C67 204.343 65.657 203 64 203L60 203C58.343 203 57 204.343 57 206L57 244C57 245.657 58.343 247 60 247L64 247C65.657 247 67 245.657 67 244L67 206ZM47 249L43 249C40.239 249 38 246.761 38 244L38 206C38 203.238 40.239 201 43 201L47 201C49.761 201 52 203.238 52 206L52 244C52 246.761 49.761 249 47 249ZM50 206C50 204.343 48.657 203 47 203L43 203C41.343 203 40 204.343 40 206L40 244C40 245.657 41.343 247 43 247L47 247C48.657 247 50 245.657 50 244L50 206ZM30 249L26 249C23.239 249 21 246.761 21 244L21 206C21 203.238 23.239 201 26 201L30 201C32.761 201 35 203.238 35 206L35 244C35 246.761 32.761 249 30 249ZM33 206C33 204.343 31.657 203 30 203L26 203C24.343 203 23 204.343 23 206L23 244C23 245.657 24.343 247 26 247L30 247C31.657 247 33 245.657 33 244L33 206Z" class="cls-1"/><path d="M64.414 145.971C64.326 145.94 63.486 145.648 62.418 145.277 61.552 147.094 59.826 150.385 58 152 54.521 155.077 49.405 156.495 48 157 46 157.719 45 159 45 159 45 159 44 157.719 42 157 40.595 156.495 35.479 155.077 32 152 30.057 150.281 28.223 146.657 27.422 144.941 26.331 145.338 25.452 145.658 25.364 145.69 25.054 145.803 24.723 145.614 24.806 145.277 24.873 145.007 26.232 139.609 26.349 139.148 26.425 138.846 26.82 138.707 27.072 138.885 27.353 139.084 31.886 142.355 32.206 142.595 32.44 142.771 32.384 143.133 32.042 143.258 31.94 143.295 31.336 143.515 30.535 143.807 31.546 145.286 33.83 148.429 36 150 37.752 151.269 40.26 152.156 41 152 42.187 151.75 42 150 42 150L42.094 150 42.719 130 37.5 130C36.672 130 36 129.328 36 128.5 36 127.671 36.672 127 37.5 127L42.813 127 42.949 122.617C40.65 121.777 39 119.59 39 117 39 113.686 41.686 111 45 111 48.314 111 51 113.686 51 117 51 119.59 49.35 121.777 47.051 122.617L47.188 127 52.5 127C53.328 127 54 127.671 54 128.5 54 129.328 53.328 130 52.5 130L47.281 130 47.906 150 48 150C48 150 47.813 151.75 49 152 49.74 152.156 52.248 151.269 54 150 56.008 148.545 58.113 145.747 59.217 144.165 58.22 143.818 57.441 143.548 57.321 143.506 56.957 143.379 56.898 143.012 57.147 142.834 57.486 142.59 62.301 139.275 62.6 139.073 62.868 138.892 63.287 139.033 63.368 139.34 63.492 139.807 64.936 145.279 65.007 145.552 65.095 145.893 64.744 146.085 64.414 145.971ZM49 117C49 114.791 47.209 113 45 113 42.791 113 41 114.791 41 117 41 119.209 42.791 121 45 121 47.209 121 49 119.209 49 117Z" class="cls-1"/><path d="M54 53L54 57 49.827 57C49.521 58.82 48.795 60.494 47.767 61.937L50.729 64.898 47.901 67.727 44.936 64.763C43.493 65.789 41.82 66.514 40 66.82L40 71 36 71 36 66.82C34.181 66.514 32.508 65.789 31.066 64.765L28.102 67.729 25.273 64.901 28.235 61.938C27.206 60.495 26.479 58.821 26.173 57L22 57 22 53 26.173 53C26.479 51.179 27.205 49.506 28.233 48.063L25.271 45.102 28.099 42.273 31.064 45.237C32.507 44.211 34.18 43.486 36 43.18L36 39 40 39 40 43.18C41.819 43.486 43.492 44.211 44.934 45.235L47.898 42.271 50.727 45.099 47.765 48.062C48.794 49.505 49.521 51.179 49.827 53L54 53ZM38 49C34.686 49 32 51.686 32 55 32 58.314 34.686 61 38 61 41.314 61 44 58.314 44 55 44 51.686 41.314 49 38 49Z" class="cls-1"/><path d="M67 30.5L67 33.5 63.864 33.5C63.634 34.864 63.091 36.118 62.322 37.199L64.547 39.424 62.426 41.545 60.201 39.321C59.12 40.091 57.865 40.635 56.5 40.865L56.5 44 53.5 44 53.5 40.865C52.135 40.636 50.882 40.092 49.8 39.322L47.576 41.547 45.455 39.425 47.679 37.201C46.909 36.119 46.366 34.865 46.136 33.5L43 33.5 43 30.5 46.136 30.5C46.366 29.136 46.909 27.882 47.678 26.801L45.453 24.576 47.574 22.455 49.799 24.678C50.88 23.909 52.135 23.364 53.5 23.135L53.5 20 56.5 20 56.5 23.135C57.865 23.364 59.119 23.908 60.2 24.677L62.424 22.453 64.545 24.574 62.321 26.799C63.091 27.881 63.634 29.135 63.864 30.5L67 30.5ZM55 27C52.239 27 50 29.238 50 32 50 34.761 52.239 37 55 37 57.761 37 60 34.761 60 32 60 29.238 57.761 27 55 27Z" class="cls-2"/><rect width="1" height="1" class="cls-7"/><rect x="89" y="5129" width="1" height="1" class="cls-7"/></svg>