<svg xmlns="http://www.w3.org/2000/svg" xmlns:xlink="http://www.w3.org/1999/xlink" preserveAspectRatio="xMidYMid" width="90" height="3801" viewBox="0 0 90 3801"><defs><style>
      .cls-1, .cls-2, .cls-3, .cls-4 {
        fill: #fff;
      }

      .cls-1, .cls-2, .cls-3 {
        fill-rule: evenodd;
      }

      .cls-2 {
        opacity: 0.55;
      }

      .cls-3 {
        fill-opacity: 0.85;
      }

      .cls-4 {
        opacity: 0;
      }
    </style></defs><g><path d="M68.81 3732.9L65.97 3735.73 47.09 3716.82C45.92 3715.65 44.02 3715.65 42.84 3716.82L23.86 3735.79 20.99 3732.92 41.4 3712.53C43.35 3710.58 46.52 3710.58 48.47 3712.54L55 3719.07 55 3712C55 3711.45 55.45 3711 56 3711L62 3711C62.55 3711 63 3711.45 63 3712L63 3727.08 68.81 3732.9ZM47.12 3720.39L63 3736.27 63 3738 63 3751.18 63 3756C63 3757.66 61.66 3759 60 3759L55.18 3759 34.82 3759 30 3759C28.34 3759 27 3757.66 27 3756L27 3751.18 27 3738 27 3736.27 42.88 3720.39C44.05 3719.22 45.95 3719.22 47.12 3720.39ZM39 3759L51 3759 51 3741 39 3741 39 3759Z" class="cls-1"/><path d="M52.73 3669L43.78 3669C43.78 3656.42 33.58 3646.22 21 3646.22L21 3637.27C38.52 3637.27 52.73 3651.48 52.73 3669ZM21 3662.49C21 3658.9 23.91 3655.98 27.51 3655.98 31.1 3655.98 34.02 3658.9 34.02 3662.49 34.02 3666.09 31.1 3669 27.51 3669 23.91 3669 21 3666.09 21 3662.49ZM69 3669L60.05 3669C60.05 3647.43 42.57 3629.95 21 3629.95L21 3621 21 3621C47.51 3621 69 3642.49 69 3669L69 3669Z" class="cls-1"/><path d="M21 3532.01C23.99 3531.98 27.57 3531.99 29.6 3532.47 38.62 3534.6 45.08 3541 47.2 3550.12 47.9 3553.14 47.9 3557.39 47.14 3560.39 46.57 3562.64 45.7 3564.78 44.64 3566.58 41.27 3572.28 35.56 3576.44 28.53 3577.67 26.43 3578.04 23.53 3578 21 3578 21 3574.63 21 3571.37 21 3568 22.95 3568.02 25.63 3567.96 27.07 3567.71 33.15 3566.69 37.66 3561.2 37.75 3555.51 37.83 3550.93 36.24 3548.49 35.34 3547.39 31.58 3542.86 28.82 3541.66 21 3542 21 3538.63 21 3535.38 21 3532.01ZM51 3550C54.85 3550.06 57.62 3550.47 58.72 3547.28 58.98 3546.54 59.1 3545.29 58.72 3544.56 56.95 3541.12 54.96 3542.38 48.32 3542.12 46.74 3538.84 44.12 3535.88 41.35 3533.77 40.53 3533.2 39.7 3532.64 38.88 3532.07 38.88 3532.05 38.88 3532.03 38.88 3532.01 42.92 3532.01 46.97 3532.01 51.02 3532.01 53.8 3532.01 56.74 3531.88 58.89 3532.52 65.41 3534.47 71.18 3541.67 68.04 3551.08 67.72 3552.05 66.54 3554.07 65.75 3554.94 65.82 3555.02 65.9 3555.09 65.97 3555.17 66.35 3555.72 66.72 3556.27 67.1 3556.82 67.79 3557.99 68.3 3559.43 68.67 3560.9 69.55 3564.42 68.52 3568.38 67.21 3570.61 65.25 3573.94 62.71 3576.18 58.72 3577.39 56.68 3578 53.86 3577.96 51.24 3577.97 47.16 3577.98 43.09 3578 39 3578 39.04 3577.94 39.06 3577.76 39.1 3577.7 41.51 3576.57 45.37 3572.46 46.86 3570.32 47.38 3569.47 47.91 3568.62 48.43 3567.77 54.89 3567.53 56.89 3568.78 58.72 3565.33 59.11 3564.61 59.01 3563.34 58.72 3562.6 57.5 3559.48 55.19 3560 51 3560 51.27 3558.2 51.62 3557.2 51.62 3555.18 51.62 3553.17 51.15 3551.21 51 3550Z" class="cls-1"/><path d="M68.77 3468.17C68.7 3468.64 68.64 3469.12 68.55 3469.58 68.48 3469.93 68.4 3470.27 68.31 3470.61 68.22 3470.99 68.13 3471.37 68.02 3471.74 67.91 3472.12 67.78 3472.5 67.65 3472.87 67.55 3473.18 67.44 3473.49 67.32 3473.79 67.16 3474.2 66.98 3474.6 66.8 3474.99 66.69 3475.24 66.57 3475.49 66.44 3475.73 66.23 3476.16 66.01 3476.58 65.77 3476.99 65.66 3477.17 65.55 3477.36 65.44 3477.54 65.16 3477.98 64.88 3478.42 64.58 3478.85 64.5 3478.96 64.41 3479.07 64.33 3479.19 63.98 3479.66 63.63 3480.12 63.25 3480.57L63.25 3480.57C62.83 3481.06 62.4 3481.54 61.95 3481.99L61.95 3481.99C59.78 3484.15 57.2 3485.91 54.33 3487.12 54.27 3487.15 54.2 3487.16 54.13 3487.19 53.48 3487.46 52.81 3487.71 52.13 3487.92 51.95 3487.98 51.76 3488.01 51.58 3488.06 51 3488.23 50.43 3488.39 49.83 3488.51 49.47 3488.59 49.11 3488.62 48.74 3488.68 48.31 3488.75 47.89 3488.83 47.45 3488.88 46.65 3488.96 45.83 3489 45 3489 44.17 3489 43.35 3488.96 42.55 3488.88 42.11 3488.83 41.69 3488.75 41.26 3488.68 40.9 3488.62 40.53 3488.59 40.17 3488.51 39.57 3488.39 39 3488.23 38.42 3488.06 38.24 3488.01 38.05 3487.98 37.87 3487.92 37.19 3487.71 36.52 3487.46 35.87 3487.19 35.8 3487.16 35.74 3487.15 35.67 3487.12 32.8 3485.91 30.22 3484.15 28.05 3481.99L28.05 3481.99C27.6 3481.54 27.17 3481.06 26.75 3480.57L26.75 3480.57C26.38 3480.12 26.02 3479.66 25.68 3479.19 25.59 3479.07 25.5 3478.96 25.42 3478.85 25.12 3478.42 24.84 3477.98 24.56 3477.54 24.45 3477.36 24.34 3477.17 24.23 3476.99 23.99 3476.58 23.77 3476.16 23.56 3475.73 23.43 3475.49 23.31 3475.24 23.2 3474.99 23.02 3474.6 22.85 3474.2 22.68 3473.79 22.57 3473.49 22.46 3473.18 22.35 3472.87 22.22 3472.5 22.09 3472.12 21.98 3471.74 21.87 3471.37 21.78 3470.99 21.69 3470.61 21.6 3470.27 21.52 3469.93 21.45 3469.58 21.36 3469.12 21.3 3468.64 21.23 3468.17 21.2 3467.89 21.15 3467.61 21.12 3467.33 21.04 3466.56 21 3465.79 21 3465 21 3464.21 21.04 3463.44 21.12 3462.67 21.15 3462.39 21.2 3462.11 21.23 3461.83 21.3 3461.36 21.36 3460.89 21.45 3460.42 21.52 3460.07 21.6 3459.73 21.69 3459.39 21.78 3459.01 21.87 3458.63 21.98 3458.26 22.09 3457.88 22.22 3457.51 22.35 3457.13 22.46 3456.82 22.57 3456.51 22.68 3456.21 22.85 3455.8 23.02 3455.4 23.2 3455.01 23.31 3454.76 23.43 3454.51 23.56 3454.27 23.77 3453.85 23.99 3453.42 24.23 3453.01 24.34 3452.83 24.45 3452.65 24.56 3452.46 24.84 3452.02 25.12 3451.58 25.42 3451.15 25.5 3451.04 25.59 3450.93 25.68 3450.81 26.02 3450.34 26.38 3449.88 26.75 3449.43L26.75 3449.43C27.17 3448.95 27.6 3448.46 28.05 3448.01L28.05 3448.01C30.22 3445.85 32.8 3444.09 35.67 3442.88 35.74 3442.85 35.8 3442.84 35.87 3442.81 36.52 3442.54 37.19 3442.29 37.87 3442.08 38.05 3442.02 38.24 3441.99 38.42 3441.94 39 3441.77 39.57 3441.61 40.17 3441.49 40.53 3441.41 40.9 3441.38 41.26 3441.32 41.69 3441.25 42.11 3441.17 42.55 3441.12 43.35 3441.04 44.17 3441 45 3441 45.83 3441 46.65 3441.04 47.45 3441.12 47.89 3441.17 48.31 3441.25 48.74 3441.32 49.11 3441.38 49.47 3441.41 49.83 3441.49 50.43 3441.61 51 3441.77 51.58 3441.94 51.76 3441.99 51.95 3442.02 52.13 3442.08 52.81 3442.29 53.48 3442.54 54.13 3442.81 54.2 3442.84 54.27 3442.85 54.33 3442.88 57.2 3444.09 59.78 3445.85 61.95 3448.01L61.95 3448.01C62.4 3448.46 62.83 3448.95 63.25 3449.43L63.25 3449.43C63.63 3449.88 63.98 3450.34 64.33 3450.81 64.41 3450.93 64.5 3451.04 64.58 3451.15 64.88 3451.58 65.16 3452.02 65.44 3452.46 65.55 3452.65 65.66 3452.83 65.77 3453.01 66.01 3453.42 66.23 3453.85 66.44 3454.27 66.57 3454.51 66.69 3454.76 66.8 3455.01 66.98 3455.4 67.16 3455.8 67.32 3456.21 67.44 3456.51 67.55 3456.82 67.65 3457.13 67.78 3457.51 67.91 3457.88 68.02 3458.26 68.13 3458.63 68.22 3459.01 68.31 3459.39 68.4 3459.73 68.48 3460.07 68.55 3460.42 68.64 3460.89 68.7 3461.36 68.77 3461.83 68.8 3462.11 68.86 3462.39 68.88 3462.67 68.96 3463.44 69 3464.21 69 3465 69 3465.79 68.96 3466.56 68.88 3467.33 68.86 3467.61 68.8 3467.89 68.77 3468.17ZM38.8 3486.1C37.14 3484.43 35.72 3482.09 34.6 3479.31 32.89 3479.77 31.33 3480.34 29.93 3481 32.41 3483.34 35.44 3485.11 38.8 3486.1ZM28.54 3479.56C30.14 3478.74 31.94 3478.03 33.91 3477.48 32.8 3474.11 32.11 3470.2 32.02 3466L23.04 3466C23.28 3471.2 25.32 3475.91 28.54 3479.56ZM23.04 3464L32.02 3464C32.11 3459.8 32.8 3455.9 33.91 3452.52 31.94 3451.97 30.14 3451.26 28.54 3450.44 25.32 3454.09 23.28 3458.81 23.04 3464ZM29.93 3449C31.33 3449.66 32.89 3450.23 34.6 3450.69 35.72 3447.91 37.14 3445.57 38.8 3443.9 35.44 3444.89 32.41 3446.66 29.93 3449ZM44 3443.1C40.96 3443.65 38.29 3446.67 36.47 3451.14 38.8 3451.63 41.34 3451.92 44 3451.98L44 3443.1ZM44 3453.97C41.11 3453.91 38.34 3453.58 35.8 3453.01 34.76 3456.2 34.12 3459.95 34.03 3464L44 3464 44 3453.97ZM44 3466L34.03 3466C34.12 3470.05 34.76 3473.81 35.8 3476.99 38.34 3476.42 41.11 3476.09 44 3476.03L44 3466ZM44 3478.03C41.34 3478.09 38.8 3478.37 36.47 3478.86 38.29 3483.33 40.96 3486.35 44 3486.9L44 3478.03ZM66.96 3466L57.98 3466C57.89 3470.2 57.2 3474.11 56.09 3477.48 58.06 3478.03 59.86 3478.74 61.46 3479.56 64.68 3475.91 66.72 3471.2 66.96 3466ZM60.07 3481C58.67 3480.34 57.11 3479.77 55.4 3479.31 54.28 3482.09 52.86 3484.43 51.2 3486.1 54.56 3485.11 57.59 3483.34 60.07 3481ZM46 3486.9C49.04 3486.35 51.71 3483.33 53.53 3478.86 51.2 3478.37 48.66 3478.09 46 3478.03L46 3486.9ZM46 3476.03C48.9 3476.09 51.66 3476.42 54.2 3476.99 55.24 3473.81 55.88 3470.05 55.98 3466L46 3466 46 3476.03ZM46 3464L55.98 3464C55.88 3459.95 55.24 3456.2 54.2 3453.01 51.66 3453.58 48.9 3453.91 46 3453.97L46 3464ZM46 3451.98C48.66 3451.92 51.2 3451.63 53.53 3451.14 51.71 3446.67 49.04 3443.65 46 3443.1L46 3451.98ZM51.2 3443.9C52.86 3445.57 54.28 3447.91 55.4 3450.69 57.11 3450.23 58.67 3449.66 60.07 3449 57.59 3446.66 54.56 3444.89 51.2 3443.9ZM61.46 3450.44C59.86 3451.26 58.06 3451.97 56.09 3452.52 57.2 3455.9 57.89 3459.8 57.98 3464L66.96 3464C66.72 3458.81 64.68 3454.09 61.46 3450.44Z" class="cls-1"/><path d="M57 3387C50.37 3387 45 3381.63 45 3375 45 3368.37 50.37 3363 57 3363 63.63 3363 69 3368.37 69 3375 69 3381.63 63.63 3387 57 3387ZM57 3366C52.03 3366 48 3370.03 48 3375 48 3379.97 52.03 3384 57 3384 61.97 3384 66 3379.97 66 3375 66 3370.03 61.97 3366 57 3366ZM33 3387C26.37 3387 21 3381.63 21 3375 21 3368.37 26.37 3363 33 3363 39.63 3363 45 3368.37 45 3375 45 3381.63 39.63 3387 33 3387Z" class="cls-1"/><g><path d="M63.82 3309L61 3309 61 3307 63 3307C65.21 3307 67 3305.21 67 3303L67 3301 69 3301 69 3303.86C69 3306.7 66.68 3309 63.82 3309ZM67 3295L69 3295 69 3299 67 3299 67 3295ZM67 3289L69 3289 69 3293 67 3293 67 3289ZM67 3283L69 3283 69 3287 67 3287 67 3283ZM67 3277L69 3277 69 3281 67 3281 67 3277ZM67 3271L69 3271 69 3275 67 3275 67 3271ZM67 3267C67 3264.79 65.21 3263 63 3263L61 3263 61 3261 63.82 3261C66.68 3261 69 3263.3 69 3266.14L69 3269 67 3269 67 3267ZM59 3261L59 3261 59 3263 55 3263 55 3261 59 3261 59 3261ZM59 3309L55 3309 55 3307 59 3307 59 3309ZM53 3263L49 3263 49 3261 53 3261 53 3261 53 3261 53 3263ZM53 3309L49 3309 49 3307 53 3307 53 3309ZM47 3263L43 3263 43 3261 43 3261 43 3261 47 3261 47 3261 47 3261 47 3263ZM37 3307L41 3307 41 3309 37 3309 37 3307ZM37 3261L37 3261 37 3261 41 3261 41 3263 37 3263 37 3261ZM31 3307L35 3307 35 3309 31 3309 31 3307ZM31 3261L31 3261 31 3261 35 3261 35 3263 31 3263 31 3261ZM21 3303.86L21 3301 21 3301 21 3301 23 3301 23 3303C23 3305.21 24.79 3307 27 3307L29 3307 29 3309 26.18 3309C23.32 3309 21 3306.7 21 3303.86ZM23 3267L23 3269 21 3269 21 3266.14C21 3263.3 23.32 3261 26.18 3261L29 3261 29 3263 27 3263C24.79 3263 23 3264.79 23 3267ZM21 3271L23 3271 23 3275 21 3275 21 3271 21 3271 21 3271ZM23 3281L21 3281 21 3277 23 3277 23 3281ZM23 3287L21 3287 21 3287 21 3287 21 3283 23 3283 23 3287ZM23 3293L21 3293 21 3293 21 3293 21 3289 23 3289 23 3293ZM21 3295L23 3295 23 3299 21 3299 21 3299 21 3299 21 3295 21 3295 21 3295ZM47 3309L43 3309 43 3307 47 3307 47 3309Z" class="cls-1"/><g><path d="M56.25 3285.75L56.25 3284.25 59.25 3284.25 59.25 3285.75 56.25 3285.75ZM52.43 3293.48L53.5 3292.42 55.62 3294.53 54.56 3295.6 52.43 3293.48ZM52.42 3276.51L54.54 3274.39 55.6 3275.45 53.48 3277.57 52.42 3276.51ZM44.25 3296.25L45.75 3296.25 45.75 3299.25 44.25 3299.25 44.25 3296.25ZM44.25 3270.75L45.75 3270.75 45.75 3273.75 44.25 3273.75 44.25 3270.75ZM34.4 3294.55L36.52 3292.43 37.58 3293.49 35.46 3295.61 34.4 3294.55ZM34.38 3275.47L35.44 3274.4 37.57 3276.52 36.51 3277.59 34.38 3275.47ZM30.75 3284.25L33.75 3284.25 33.75 3285.75 30.75 3285.75 30.75 3284.25Z" class="cls-2"/><path d="M45 3303C35.06 3303 27 3294.94 27 3285 27 3275.06 35.06 3267 45 3267 54.94 3267 63 3275.06 63 3285 63 3294.94 54.94 3303 45 3303ZM45 3270C36.72 3270 30 3276.72 30 3285 30 3293.28 36.72 3300 45 3300 53.28 3300 60 3293.28 60 3285 60 3276.72 53.28 3270 45 3270ZM47.89 3284.23C47.95 3284.48 48 3284.73 48 3285 48 3286.66 46.66 3288 45 3288 43.7 3288 42.6 3287.16 42.18 3286L33 3286C32.45 3286 32 3285.55 32 3285 32 3284.45 32.45 3284 33 3284L42.18 3284C42.6 3282.84 43.7 3282 45 3282 45.27 3282 45.52 3282.05 45.77 3282.11L50.12 3277.76C50.7 3277.17 51.65 3277.17 52.24 3277.76 52.83 3278.34 52.83 3279.29 52.24 3279.88L47.89 3284.23Z" class="cls-1"/></g></g><g><g><path d="M67 3185C67 3182.79 65.21 3181 63 3181L27 3181C24.79 3181 23 3182.79 23 3185L23 3213C23 3215.21 24.79 3217 27 3217L47.21 3217C47.99 3217.77 48.87 3218.43 49.82 3219L26 3219C23.24 3219 21 3216.76 21 3214L21 3176C21 3173.24 23.24 3171 26 3171L28 3171 28 3177C28 3178.1 28.9 3179 30 3179 31.11 3179 32 3178.1 32 3177L32 3171 38 3171 38 3177C38 3178.1 38.9 3179 40 3179 41.11 3179 42 3178.1 42 3177L42 3171 48 3171 48 3177C48 3178.1 48.9 3179 50 3179 51.11 3179 52 3178.1 52 3177L52 3171 58 3171 58 3177C58 3178.1 58.9 3179 60 3179 61.11 3179 62 3178.1 62 3177L62 3171 64 3171C66.76 3171 69 3173.24 69 3176L69 3199.82C68.43 3198.87 67.77 3197.99 67 3197.21L67 3185ZM60 3178C59.45 3178 59 3177.55 59 3177L59 3170C59 3169.45 59.45 3169 60 3169 60.55 3169 61 3169.45 61 3170L61 3177C61 3177.55 60.55 3178 60 3178ZM50 3178C49.45 3178 49 3177.55 49 3177L49 3170C49 3169.45 49.45 3169 50 3169 50.55 3169 51 3169.45 51 3170L51 3177C51 3177.55 50.55 3178 50 3178ZM40 3178C39.45 3178 39 3177.55 39 3177L39 3170C39 3169.45 39.45 3169 40 3169 40.55 3169 41 3169.45 41 3170L41 3177C41 3177.55 40.55 3178 40 3178ZM30 3178C29.45 3178 29 3177.55 29 3177L29 3170C29 3169.45 29.45 3169 30 3169 30.55 3169 31 3169.45 31 3170L31 3177C31 3177.55 30.55 3178 30 3178Z" class="cls-1"/><path d="M64 3193L62 3193C61.45 3193 61 3192.55 61 3192L61 3191C61 3190.45 61.45 3190 62 3190L64 3190C64.55 3190 65 3190.45 65 3191L65 3192C65 3192.55 64.55 3193 64 3193ZM64 3188L62 3188C61.45 3188 61 3187.55 61 3187L61 3186C61 3185.45 61.45 3185 62 3185L64 3185C64.55 3185 65 3185.45 65 3186L65 3187C65 3187.55 64.55 3188 64 3188ZM58 3193L56 3193C55.45 3193 55 3192.55 55 3192L55 3191C55 3190.45 55.45 3190 56 3190L58 3190C58.55 3190 59 3190.45 59 3191L59 3192C59 3192.55 58.55 3193 58 3193ZM52 3193L50 3193C49.45 3193 49 3192.55 49 3192L49 3191C49 3190.45 49.45 3190 50 3190L52 3190C52.55 3190 53 3190.45 53 3191L53 3192C53 3192.55 52.55 3193 52 3193ZM46.35 3197.93C46.24 3197.97 46.12 3198 46 3198L44 3198C43.45 3198 43 3197.55 43 3197L43 3196C43 3195.45 43.45 3195 44 3195L46 3195C46.55 3195 47 3195.45 47 3196L47 3197C47 3197.1 46.97 3197.18 46.95 3197.27 46.74 3197.49 46.54 3197.7 46.35 3197.93ZM46 3193L44 3193C43.45 3193 43 3192.55 43 3192L43 3191C43 3190.45 43.45 3190 44 3190L46 3190C46.55 3190 47 3190.45 47 3191L47 3192C47 3192.55 46.55 3193 46 3193ZM40 3208L38 3208C37.45 3208 37 3207.55 37 3207L37 3206C37 3205.45 37.45 3205 38 3205L40 3205C40.55 3205 41 3205.45 41 3206L41 3207C41 3207.55 40.55 3208 40 3208ZM40 3203L38 3203C37.45 3203 37 3202.55 37 3202L37 3201C37 3200.45 37.45 3200 38 3200L40 3200C40.55 3200 41 3200.45 41 3201L41 3202C41 3202.55 40.55 3203 40 3203ZM40 3198L38 3198C37.45 3198 37 3197.55 37 3197L37 3196C37 3195.45 37.45 3195 38 3195L40 3195C40.55 3195 41 3195.45 41 3196L41 3197C41 3197.55 40.55 3198 40 3198ZM40 3193L38 3193C37.45 3193 37 3192.55 37 3192L37 3191C37 3190.45 37.45 3190 38 3190L40 3190C40.55 3190 41 3190.45 41 3191L41 3192C41 3192.55 40.55 3193 40 3193ZM34 3213L32 3213C31.45 3213 31 3212.55 31 3212L31 3211C31 3210.45 31.45 3210 32 3210L34 3210C34.55 3210 35 3210.45 35 3211L35 3212C35 3212.55 34.55 3213 34 3213ZM34 3208L32 3208C31.45 3208 31 3207.55 31 3207L31 3206C31 3205.45 31.45 3205 32 3205L34 3205C34.55 3205 35 3205.45 35 3206L35 3207C35 3207.55 34.55 3208 34 3208ZM34 3203L32 3203C31.45 3203 31 3202.55 31 3202L31 3201C31 3200.45 31.45 3200 32 3200L34 3200C34.55 3200 35 3200.45 35 3201L35 3202C35 3202.55 34.55 3203 34 3203ZM34 3198L32 3198C31.45 3198 31 3197.55 31 3197L31 3196C31 3195.45 31.45 3195 32 3195L34 3195C34.55 3195 35 3195.45 35 3196L35 3197C35 3197.55 34.55 3198 34 3198ZM34 3193L32 3193C31.45 3193 31 3192.55 31 3192L31 3191C31 3190.45 31.45 3190 32 3190L34 3190C34.55 3190 35 3190.45 35 3191L35 3192C35 3192.55 34.55 3193 34 3193ZM28 3213L26 3213C25.45 3213 25 3212.55 25 3212L25 3211C25 3210.45 25.45 3210 26 3210L28 3210C28.55 3210 29 3210.45 29 3211L29 3212C29 3212.55 28.55 3213 28 3213ZM28 3208L26 3208C25.45 3208 25 3207.55 25 3207L25 3206C25 3205.45 25.45 3205 26 3205L28 3205C28.55 3205 29 3205.45 29 3206L29 3207C29 3207.55 28.55 3208 28 3208ZM28 3203L26 3203C25.45 3203 25 3202.55 25 3202L25 3201C25 3200.45 25.45 3200 26 3200L28 3200C28.55 3200 29 3200.45 29 3201L29 3202C29 3202.55 28.55 3203 28 3203ZM28 3198L26 3198C25.45 3198 25 3197.55 25 3197L25 3196C25 3195.45 25.45 3195 26 3195L28 3195C28.55 3195 29 3195.45 29 3196L29 3197C29 3197.55 28.55 3198 28 3198ZM28 3193L26 3193C25.45 3193 25 3192.55 25 3192L25 3191C25 3190.45 25.45 3190 26 3190L28 3190C28.55 3190 29 3190.45 29 3191L29 3192C29 3192.55 28.55 3193 28 3193ZM44 3200L44.89 3200C44.36 3200.92 43.92 3201.89 43.61 3202.92 43.25 3202.77 43 3202.41 43 3202L43 3201C43 3200.45 43.45 3200 44 3200ZM43 3207L43 3206C43 3205.88 43.03 3205.77 43.07 3205.67 43.03 3206.11 43 3206.55 43 3207ZM64.74 3195.34C64.59 3195.24 64.43 3195.15 64.28 3195.06 64.46 3195.11 64.61 3195.2 64.74 3195.34ZM49.73 3195.06C49.57 3195.15 49.41 3195.24 49.26 3195.34 49.39 3195.2 49.55 3195.11 49.73 3195.06Z" class="cls-1"/><path d="M58 3188L56 3188C55.45 3188 55 3187.55 55 3187L55 3186C55 3185.45 55.45 3185 56 3185L58 3185C58.55 3185 59 3185.45 59 3186L59 3187C59 3187.55 58.55 3188 58 3188ZM52 3188L50 3188C49.45 3188 49 3187.55 49 3187L49 3186C49 3185.45 49.45 3185 50 3185L52 3185C52.55 3185 53 3185.45 53 3186L53 3187C53 3187.55 52.55 3188 52 3188ZM46 3188L44 3188C43.45 3188 43 3187.55 43 3187L43 3186C43 3185.45 43.45 3185 44 3185L46 3185C46.55 3185 47 3185.45 47 3186L47 3187C47 3187.55 46.55 3188 46 3188ZM40 3213L38 3213C37.45 3213 37 3212.55 37 3212L37 3211C37 3210.45 37.45 3210 38 3210L40 3210C40.55 3210 41 3210.45 41 3211L41 3212C41 3212.55 40.55 3213 40 3213ZM40 3188L38 3188C37.45 3188 37 3187.55 37 3187L37 3186C37 3185.45 37.45 3185 38 3185L40 3185C40.55 3185 41 3185.45 41 3186L41 3187C41 3187.55 40.55 3188 40 3188ZM34 3188L32 3188C31.45 3188 31 3187.55 31 3187L31 3186C31 3185.45 31.45 3185 32 3185L34 3185C34.55 3185 35 3185.45 35 3186L35 3187C35 3187.55 34.55 3188 34 3188ZM28 3188L26 3188C25.45 3188 25 3187.55 25 3187L25 3186C25 3185.45 25.45 3185 26 3185L28 3185C28.55 3185 29 3185.45 29 3186L29 3187C29 3187.55 28.55 3188 28 3188ZM43.39 3210.23C43.62 3211.2 43.95 3212.12 44.37 3213L44 3213C43.45 3213 43 3212.55 43 3212L43 3211C43 3210.68 43.16 3210.41 43.39 3210.23Z" class="cls-2"/></g><g><path d="M64.5 3207.5L64.5 3206.5 66.5 3206.5 66.5 3207.5 64.5 3207.5ZM61.96 3212.65L62.66 3211.94 64.08 3213.36 63.37 3214.07 61.96 3212.65ZM61.95 3201.34L63.36 3199.93 64.07 3200.63 62.65 3202.05 61.95 3201.34ZM56.5 3214.5L57.5 3214.5 57.5 3216.5 56.5 3216.5 56.5 3214.5ZM56.5 3197.5L57.5 3197.5 57.5 3199.5 56.5 3199.5 56.5 3197.5ZM49.93 3213.37L51.35 3211.95 52.05 3212.66 50.64 3214.08 49.93 3213.37ZM49.92 3200.64L50.63 3199.94 52.04 3201.35 51.34 3202.06 49.92 3200.64ZM47.5 3206.5L49.5 3206.5 49.5 3207.5 47.5 3207.5 47.5 3206.5Z" class="cls-2"/><path d="M57 3219C50.37 3219 45 3213.63 45 3207 45 3200.37 50.37 3195 57 3195 63.63 3195 69 3200.37 69 3207 69 3213.63 63.63 3219 57 3219ZM57 3197C51.48 3197 47 3201.48 47 3207 47 3212.52 51.48 3217 57 3217 62.52 3217 67 3212.52 67 3207 67 3201.48 62.52 3197 57 3197ZM58.93 3206.49C58.97 3206.65 59 3206.82 59 3207 59 3208.11 58.11 3209 57 3209 56.26 3209 55.62 3208.6 55.28 3208L49.5 3208C48.95 3208 48.5 3207.55 48.5 3207 48.5 3206.45 48.95 3206 49.5 3206L55.28 3206C55.62 3205.41 56.26 3205 57 3205 57.18 3205 57.35 3205.03 57.51 3205.07L60.41 3202.17C60.8 3201.78 61.44 3201.78 61.83 3202.17 62.22 3202.56 62.22 3203.19 61.83 3203.58L58.93 3206.49Z" class="cls-1"/></g></g><g><g><path d="M60 3105.99L60 3103.99 64 3103.99 64 3105.99 60 3105.99ZM54.91 3116.3L56.33 3114.89 59.16 3117.71 57.74 3119.13 54.91 3116.3ZM54.89 3093.68L57.72 3090.85 59.14 3092.26 56.31 3095.09 54.89 3093.68ZM44 3120L46 3120 46 3124 44 3124 44 3120ZM44 3086L46 3086 46 3090 44 3090 44 3086ZM30.87 3117.74L33.69 3114.91 35.11 3116.32 32.28 3119.15 30.87 3117.74ZM30.84 3092.29L32.26 3090.87 35.09 3093.7 33.67 3095.11 30.84 3092.29ZM26 3104.01L30 3104.01 30 3106.01 26 3106.01 26 3104.01Z" class="cls-2"/><path d="M45 3129C31.75 3129 21 3118.26 21 3105 21 3091.75 31.75 3081 45 3081 58.26 3081 69 3091.75 69 3105 69 3118.26 58.26 3129 45 3129ZM45 3085C33.95 3085 25 3093.95 25 3105 25 3116.05 33.95 3125 45 3125 56.05 3125 65 3116.05 65 3105 65 3093.95 56.05 3085 45 3085ZM48.85 3103.98C48.94 3104.31 49 3104.64 49 3105 49 3107.21 47.21 3109 45 3109 43.52 3109 42.25 3108.19 41.56 3107L30 3107C28.9 3107 28 3106.11 28 3105 28 3103.9 28.9 3103 30 3103L41.56 3103C42.25 3101.81 43.52 3101 45 3101 45.36 3101 45.7 3101.06 46.03 3101.15L51.83 3095.34C52.61 3094.56 53.87 3094.56 54.65 3095.34 55.44 3096.12 55.44 3097.39 54.66 3098.17L48.85 3103.98Z" class="cls-1"/></g><path d="M80 3091C77.35 3091.53 72.98 3091.72 73 3095 73.03 3098.8 78.17 3097.25 79 3097 80.79 3096.46 82.62 3094.56 83.97 3092.88 83.71 3093.97 83.39 3095.02 83 3096 80.83 3101.41 74.69 3108.81 69.04 3114.9 70.3 3111.85 71 3108.51 71 3105 71 3090.64 59.36 3079 45 3079 44.53 3079 44.06 3079.05 43.6 3079.07 47.58 3077.55 51.27 3076.27 53 3076 56.22 3075.5 59.54 3075.55 62.5 3075.71 61.49 3076.25 60.3 3077.07 60 3078 59.12 3080.73 61.46 3081.45 64 3080 66.3 3078.69 66.49 3077.14 66.14 3075.94 68.22 3076.09 69.93 3076.19 71 3076 78.14 3074.76 83 3067 83 3067 83 3067 83.02 3067.07 83.04 3067.18 82.81 3070.46 82.01 3075.56 80 3079 77.17 3083.84 71 3086 71 3086 71 3086 78.11 3088.68 84 3080 84.31 3079.54 84.51 3078.96 84.63 3078.3 84.78 3080.13 84.87 3082.07 84.87 3084.02 84.55 3086.46 83.5 3090.3 80 3091Z" class="cls-1"/></g><g><path d="M47.1 3038.91C33.9 3040.07 22.25 3030.31 21.09 3017.1 19.93 3003.9 29.69 2992.25 42.9 2991.09 56.1 2989.93 67.75 2999.69 68.91 3012.9 70.07 3026.1 60.31 3037.75 47.1 3038.91ZM52.94 2995.56C42.2 2991.17 29.94 2996.32 25.56 3007.06 21.17 3017.8 26.32 3030.06 37.06 3034.44 47.8 3038.83 60.06 3033.68 64.44 3022.94 68.83 3012.2 63.68 2999.94 52.94 2995.56Z" class="cls-1"/><path d="M47.1 3038.91C33.9 3040.07 22.25 3030.31 21.09 3017.1 19.93 3003.9 29.69 2992.25 42.9 2991.09 56.1 2989.93 67.75 2999.69 68.91 3012.9 70.07 3026.1 60.31 3037.75 47.1 3038.91ZM52.52 2993.94C46.78 2990.63 32.36 2990.88 25.07 3003.51 17.77 3016.17 24.81 3028.75 30.55 3032.06 36.29 3035.37 45.86 3029.52 51.93 3019 58 3008.47 58.26 2997.25 52.52 2993.94Z" class="cls-1"/></g><g><path d="M63.82 2949L61 2949 61 2947 63 2947C65.21 2947 67 2945.21 67 2943L67 2941 69 2941 69 2943.86C69 2946.7 66.68 2949 63.82 2949ZM67 2935L69 2935 69 2939 67 2939 67 2935ZM67 2929L69 2929 69 2933 67 2933 67 2929ZM67 2923L69 2923 69 2927 67 2927 67 2923ZM67 2917L69 2917 69 2921 67 2921 67 2917ZM67 2911L69 2911 69 2915 67 2915 67 2911ZM67 2907C67 2904.79 65.21 2903 63 2903L61 2903 61 2901 63.82 2901C66.68 2901 69 2903.3 69 2906.14L69 2909 67 2909 67 2907ZM59 2901L59 2901 59 2903 55 2903 55 2901 59 2901 59 2901ZM59 2949L55 2949 55 2947 59 2947 59 2949ZM53 2903L49 2903 49 2901 53 2901 53 2901 53 2901 53 2903ZM53 2949L49 2949 49 2947 53 2947 53 2949ZM47 2903L43 2903 43 2901 43 2901 43 2901 47 2901 47 2901 47 2901 47 2903ZM37 2947L41 2947 41 2949 37 2949 37 2947ZM37 2901L37 2901 37 2901 41 2901 41 2903 37 2903 37 2901ZM31 2947L35 2947 35 2949 31 2949 31 2947ZM31 2901L31 2901 31 2901 35 2901 35 2903 31 2903 31 2901ZM21 2943.86L21 2941 21 2941 21 2941 23 2941 23 2943C23 2945.21 24.79 2947 27 2947L29 2947 29 2949 26.18 2949C23.32 2949 21 2946.7 21 2943.86ZM23 2907L23 2909 21 2909 21 2906.14C21 2903.3 23.32 2901 26.18 2901L29 2901 29 2903 27 2903C24.79 2903 23 2904.79 23 2907ZM21 2911L23 2911 23 2915 21 2915 21 2911 21 2911 21 2911ZM23 2921L21 2921 21 2917 23 2917 23 2921ZM23 2927L21 2927 21 2927 21 2927 21 2923 23 2923 23 2927ZM23 2933L21 2933 21 2933 21 2933 21 2929 23 2929 23 2933ZM21 2935L23 2935 23 2939 21 2939 21 2939 21 2939 21 2935 21 2935 21 2935ZM47 2949L43 2949 43 2947 47 2947 47 2949Z" class="cls-1"/><path d="M51 2941L61 2931 61 2941 51 2941ZM34.18 2941C31.32 2941 29 2938.7 29 2935.86L29 2914.14C29 2911.3 31.32 2909 34.18 2909L55.82 2909C58.68 2909 61 2911.3 61 2914.14L61 2927 47 2941 34.18 2941ZM59 2914C59 2912.34 57.66 2911 56 2911L34 2911C32.34 2911 31 2912.34 31 2914L31 2936C31 2937.66 32.34 2939 34 2939L45 2939 59 2925 59 2914Z" class="cls-1"/></g><path d="M54 2859L64 2849 64 2859 54 2859ZM31.18 2859C28.32 2859 26 2856.7 26 2853.86L26 2816.14C26 2813.3 28.32 2811 31.18 2811L58.82 2811C61.68 2811 64 2813.3 64 2816.14L64 2845 50 2859 31.18 2859ZM62 2816C62 2814.34 60.66 2813 59 2813L31 2813C29.34 2813 28 2814.34 28 2816L28 2854C28 2855.66 29.34 2857 31 2857L48 2857 62 2843 62 2816Z" class="cls-1"/><g><path d="M63.82 2769L61 2769 61 2767 63 2767C65.21 2767 67 2765.21 67 2763L67 2761 69 2761 69 2763.86C69 2766.7 66.68 2769 63.82 2769ZM67 2755L69 2755 69 2759 67 2759 67 2755ZM67 2749L69 2749 69 2753 67 2753 67 2749ZM67 2743L69 2743 69 2747 67 2747 67 2743ZM67 2737L69 2737 69 2741 67 2741 67 2737ZM67 2731L69 2731 69 2735 67 2735 67 2731ZM67 2727C67 2724.79 65.21 2723 63 2723L61 2723 61 2721 63.82 2721C66.68 2721 69 2723.3 69 2726.14L69 2729 67 2729 67 2727ZM59 2721L59 2721 59 2723 55 2723 55 2721 59 2721 59 2721ZM59 2769L55 2769 55 2767 59 2767 59 2769ZM53 2723L49 2723 49 2721 53 2721 53 2721 53 2721 53 2723ZM53 2769L49 2769 49 2767 53 2767 53 2769ZM47 2723L43 2723 43 2721 43 2721 43 2721 47 2721 47 2721 47 2721 47 2723ZM37 2767L41 2767 41 2769 37 2769 37 2767ZM37 2721L37 2721 37 2721 41 2721 41 2723 37 2723 37 2721ZM31 2767L35 2767 35 2769 31 2769 31 2767ZM31 2721L31 2721 31 2721 35 2721 35 2723 31 2723 31 2721ZM21 2763.86L21 2761 21 2761 21 2761 23 2761 23 2763C23 2765.21 24.79 2767 27 2767L29 2767 29 2769 26.18 2769C23.32 2769 21 2766.7 21 2763.86ZM23 2727L23 2729 21 2729 21 2726.14C21 2723.3 23.32 2721 26.18 2721L29 2721 29 2723 27 2723C24.79 2723 23 2724.79 23 2727ZM21 2731L23 2731 23 2735 21 2735 21 2731 21 2731 21 2731ZM23 2741L21 2741 21 2737 23 2737 23 2741ZM23 2747L21 2747 21 2747 21 2747 21 2743 23 2743 23 2747ZM23 2753L21 2753 21 2753 21 2753 21 2749 23 2749 23 2753ZM21 2755L23 2755 23 2759 21 2759 21 2759 21 2759 21 2755 21 2755 21 2755ZM47 2769L43 2769 43 2767 47 2767 47 2769Z" class="cls-1"/><path d="M60 2763L45 2763 30 2763C30 2763 29.78 2748.28 32.25 2745 34.34 2742.23 35.99 2741.98 37.5 2742 39.04 2742.02 39.57 2743.47 41.25 2744.25 43.08 2745.11 45 2745 45 2745 45 2745 46.92 2745.11 48.75 2744.25 50.43 2743.47 50.96 2742.02 52.5 2742 54.01 2741.98 55.67 2742.23 57.75 2745 60.22 2748.28 60 2763 60 2763ZM45 2742.75C40.86 2742.75 37.5 2739.22 37.5 2734.88 37.5 2730.53 40.86 2727 45 2727 49.14 2727 52.5 2730.53 52.5 2734.88 52.5 2739.22 49.14 2742.75 45 2742.75Z" class="cls-1"/></g><path d="M65 2679L45 2679 25 2679C25 2679 24.7 2659.38 28 2655 30.78 2651.31 32.99 2650.97 35 2651 37.05 2651.03 37.76 2652.96 40 2654 42.45 2655.14 45 2655 45 2655 45 2655 47.56 2655.14 50 2654 52.24 2652.96 52.95 2651.03 55 2651 57.01 2650.97 59.22 2651.31 62 2655 65.3 2659.38 65 2679 65 2679ZM45 2652C39.48 2652 35 2647.3 35 2641.5 35 2635.7 39.48 2631 45 2631 50.52 2631 55 2635.7 55 2641.5 55 2647.3 50.52 2652 45 2652Z" class="cls-1"/><path d="M60 2589L30 2589C27.24 2589 25 2586.76 25 2584L25 2564C25 2561.24 27.24 2559 30 2559L60 2559C62.76 2559 65 2561.24 65 2564L65 2584C65 2586.76 62.76 2589 60 2589ZM45 2566C42.24 2566 40 2568.24 40 2571 40 2573.05 41.24 2574.81 43 2575.58L43 2580C43 2581.11 43.9 2582 45 2582 46.11 2582 47 2581.11 47 2580L47 2575.58C48.76 2574.81 50 2573.05 50 2571 50 2568.24 47.76 2566 45 2566ZM55.95 2557C55.98 2556.67 56 2556.34 56 2556 56 2549.93 51.08 2545 45 2545 38.92 2545 34 2549.93 34 2556 34 2556.34 34.02 2556.67 34.05 2557L30.05 2557C30.03 2556.67 30 2556.34 30 2556 30 2547.72 36.72 2541 45 2541 53.28 2541 60 2547.72 60 2556 60 2556.34 59.97 2556.67 59.95 2557L55.95 2557Z" class="cls-1"/><path d="M58.82 2499L31.18 2499C28.32 2499 26 2496.7 26 2493.86L26 2477 24 2477 24 2473 26 2473 26 2456.14C26 2453.3 28.32 2451 31.18 2451L58.82 2451C61.68 2451 64 2453.3 64 2456.14L64 2493.86C64 2496.7 61.68 2499 58.82 2499ZM62 2456C62 2454.34 60.66 2453 59 2453L31 2453C29.34 2453 28 2454.34 28 2456L28 2468 26 2468 26 2473 45 2473 35 2463 42 2463 54 2475 42 2487 35 2487 45 2477 26 2477 26 2482 28 2482 28 2494C28 2495.66 29.34 2497 31 2497L59 2497C60.66 2497 62 2495.66 62 2494L62 2456Z" class="cls-1"/><g><path d="M58 2383C51.93 2383 47 2378.07 47 2372 47 2365.93 51.93 2361 58 2361 64.08 2361 69 2365.93 69 2372 69 2378.07 64.08 2383 58 2383ZM64.61 2367.2C64.06 2367.52 63.44 2367.75 62.79 2367.88 62.27 2367.34 61.52 2367 60.69 2367 59.11 2367 57.82 2368.24 57.82 2369.78 57.82 2369.99 57.85 2370.21 57.9 2370.41 55.51 2370.29 53.39 2369.19 51.98 2367.51 51.73 2367.92 51.59 2368.4 51.59 2368.9 51.59 2369.87 52.09 2370.72 52.86 2371.22 52.39 2371.2 51.95 2371.08 51.56 2370.87 51.56 2370.88 51.56 2370.89 51.56 2370.9 51.56 2372.25 52.55 2373.37 53.87 2373.63 53.63 2373.69 53.37 2373.72 53.11 2373.72 52.92 2373.72 52.75 2373.71 52.57 2373.67 52.94 2374.78 54 2375.58 55.25 2375.6 54.27 2376.35 53.03 2376.79 51.69 2376.79 51.45 2376.79 51.23 2376.78 51 2376.75 52.27 2377.54 53.78 2378 55.4 2378 60.69 2378 63.58 2373.77 63.58 2370.1 63.58 2369.98 63.57 2369.86 63.57 2369.74 64.13 2369.35 64.61 2368.86 65 2368.3 64.49 2368.52 63.93 2368.67 63.35 2368.74 63.94 2368.4 64.4 2367.85 64.61 2367.2Z" class="cls-1"/><path d="M45 2409C38.92 2409 34 2404.07 34 2398 34 2391.93 38.92 2387 45 2387 51.08 2387 56 2391.93 56 2398 56 2404.07 51.08 2409 45 2409ZM44.36 2391C43.86 2391 43.33 2391.06 42.76 2391.17 42.18 2391.3 41.63 2391.58 41.1 2392.01 40.32 2392.75 39.93 2393.57 39.93 2394.47 39.93 2395.22 40.21 2395.87 40.76 2396.44 41.28 2397.04 42.04 2397.35 43.04 2397.36 43.23 2397.36 43.43 2397.35 43.64 2397.32 43.6 2397.42 43.57 2397.52 43.52 2397.64 43.48 2397.75 43.45 2397.88 43.45 2398.04 43.45 2398.31 43.52 2398.55 43.64 2398.74 43.74 2398.94 43.86 2399.12 44 2399.3 43.56 2399.31 43.01 2399.36 42.35 2399.46 41.68 2399.57 41.05 2399.8 40.44 2400.14 39.9 2400.46 39.53 2400.82 39.32 2401.24 39.11 2401.66 39 2402.04 39 2402.38 39 2403.07 39.33 2403.68 39.98 2404.18 40.63 2404.71 41.61 2404.99 42.92 2405 44.49 2404.98 45.69 2404.61 46.52 2403.9 47.32 2403.21 47.72 2402.42 47.72 2401.53 47.71 2400.9 47.57 2400.39 47.28 2400 46.99 2399.62 46.64 2399.27 46.25 2398.96L45.61 2398.44C45.52 2398.35 45.42 2398.25 45.33 2398.13 45.21 2398 45.15 2397.85 45.15 2397.65 45.15 2397.46 45.21 2397.28 45.32 2397.13 45.42 2396.99 45.52 2396.86 45.63 2396.75 45.83 2396.58 46.01 2396.42 46.18 2396.26 46.34 2396.09 46.49 2395.92 46.63 2395.73 46.91 2395.33 47.06 2394.8 47.07 2394.15 47.07 2393.79 47.03 2393.48 46.95 2393.21 46.85 2392.94 46.73 2392.7 46.6 2392.51 46.47 2392.3 46.33 2392.12 46.19 2391.98 46.04 2391.84 45.91 2391.73 45.79 2391.66L46.95 2391.66 48.11 2391 44.36 2391ZM51.98 2396.73L51.98 2394.76 50.83 2394.76 50.83 2396.73 48.86 2396.73 48.86 2397.86 50.83 2397.86 50.83 2399.79 51.98 2399.79 51.98 2397.86 54 2397.86 54 2396.73 51.98 2396.73ZM45.14 2396.34C44.81 2396.67 44.4 2396.84 43.9 2396.86 43.51 2396.86 43.17 2396.74 42.86 2396.51 42.56 2396.27 42.31 2395.99 42.12 2395.65 41.72 2394.93 41.52 2394.24 41.52 2393.58 41.51 2393.07 41.65 2392.62 41.93 2392.21 42.27 2391.82 42.69 2391.62 43.2 2391.61 43.58 2391.62 43.92 2391.73 44.22 2391.94 44.51 2392.16 44.74 2392.45 44.92 2392.8 45.29 2393.54 45.48 2394.27 45.48 2395 45.48 2395.17 45.47 2395.37 45.44 2395.62 45.4 2395.86 45.3 2396.1 45.14 2396.34ZM44.51 2399.82C45.21 2400.3 45.72 2400.7 46.05 2401.03 46.36 2401.38 46.52 2401.78 46.52 2402.25 46.52 2402.82 46.29 2403.29 45.84 2403.66 45.37 2404.03 44.7 2404.22 43.81 2404.23 42.83 2404.22 42.05 2404 41.49 2403.59 40.89 2403.17 40.59 2402.63 40.59 2401.99 40.59 2401.66 40.66 2401.38 40.8 2401.15 40.92 2400.92 41.06 2400.74 41.24 2400.59 41.41 2400.45 41.59 2400.33 41.76 2400.26 41.94 2400.18 42.07 2400.13 42.17 2400.09 42.57 2399.98 42.97 2399.89 43.36 2399.84 43.75 2399.8 44 2399.79 44.09 2399.8 44.25 2399.8 44.39 2399.8 44.51 2399.82Z" class="cls-1"/><path d="M32 2383C25.93 2383 21 2378.07 21 2372 21 2365.93 25.93 2361 32 2361 38.08 2361 43 2365.93 43 2372 43 2378.07 38.08 2383 32 2383ZM35 2365.1C34.75 2365.07 33.89 2365 32.89 2365 30.8 2365 29.37 2366.24 29.37 2368.52L29.37 2370.49 27 2370.49 27 2373.15 29.37 2373.15 29.37 2380 32.2 2380 32.2 2373.15 34.55 2373.15 34.9 2370.49 32.2 2370.49 32.2 2368.78C32.2 2368.01 32.42 2367.49 33.55 2367.49L35 2367.49 35 2365.1Z" class="cls-1"/></g><path d="M69 2279.62C67.23 2280.4 65.34 2280.93 63.34 2281.17 65.38 2279.95 66.94 2278.02 67.67 2275.72 65.77 2276.85 63.66 2277.67 61.42 2278.11 59.62 2276.2 57.07 2275 54.23 2275 48.79 2275 44.38 2279.41 44.38 2284.84 44.38 2285.62 44.47 2286.37 44.64 2287.09 36.46 2286.68 29.2 2282.76 24.34 2276.8 23.49 2278.26 23.01 2279.95 23.01 2281.75 23.01 2285.17 24.75 2288.18 27.39 2289.95 25.78 2289.9 24.26 2289.45 22.93 2288.72 22.93 2288.76 22.93 2288.8 22.93 2288.84 22.93 2293.61 26.32 2297.59 30.83 2298.49 30 2298.72 29.13 2298.84 28.23 2298.84 27.6 2298.84 26.98 2298.78 26.38 2298.66 27.63 2302.57 31.27 2305.42 35.58 2305.5 32.21 2308.14 27.96 2309.71 23.35 2309.71 22.55 2309.71 21.77 2309.67 21 2309.58 25.36 2312.37 30.53 2314 36.1 2314 54.21 2314 64.11 2299 64.11 2285.99 64.11 2285.56 64.11 2285.14 64.09 2284.71 66.01 2283.32 67.68 2281.59 69 2279.62Z" class="cls-1"/><path d="M61 2207C66.01 2206.91 69.15 2212.3 69 2215 68.83 2218.08 66 2223 61 2223 53.5 2223 45.82 2216 46 2207 46.25 2194.42 62 2187 62 2187 62 2187 49.04 2197.08 49 2207 48.96 2215.53 55.17 2207.11 61 2207ZM36 2223C28.5 2223 20.82 2216 21 2207 21.25 2194.42 37 2187 37 2187 37 2187 24.04 2197.08 24 2207 23.96 2215.53 30.17 2207.11 36 2207 41.01 2206.91 44.15 2212.3 44 2215 43.83 2218.08 41 2223 36 2223Z" class="cls-1"/><g><path d="M63.82 2139L61 2139 61 2137 63 2137C65.21 2137 67 2135.21 67 2133L67 2131 69 2131 69 2133.86C69 2136.7 66.68 2139 63.82 2139ZM67 2125L69 2125 69 2129 67 2129 67 2125ZM67 2119L69 2119 69 2123 67 2123 67 2119ZM67 2113L69 2113 69 2117 67 2117 67 2113ZM67 2107L69 2107 69 2111 67 2111 67 2107ZM67 2101L69 2101 69 2105 67 2105 67 2101ZM67 2097C67 2094.79 65.21 2093 63 2093L61 2093 61 2091 63.82 2091C66.68 2091 69 2093.3 69 2096.14L69 2099 67 2099 67 2097ZM59 2091L59 2091 59 2093 55 2093 55 2091 59 2091 59 2091ZM59 2139L55 2139 55 2137 59 2137 59 2139ZM53 2093L49 2093 49 2091 53 2091 53 2091 53 2091 53 2093ZM53 2139L49 2139 49 2137 53 2137 53 2139ZM47 2093L43 2093 43 2091 43 2091 43 2091 47 2091 47 2091 47 2091 47 2093ZM37 2137L41 2137 41 2139 37 2139 37 2137ZM37 2091L37 2091 37 2091 41 2091 41 2093 37 2093 37 2091ZM31 2137L35 2137 35 2139 31 2139 31 2137ZM31 2091L31 2091 31 2091 35 2091 35 2093 31 2093 31 2091ZM21 2133.86L21 2131 21 2131 21 2131 23 2131 23 2133C23 2135.21 24.79 2137 27 2137L29 2137 29 2139 26.18 2139C23.32 2139 21 2136.7 21 2133.86ZM23 2097L23 2099 21 2099 21 2096.14C21 2093.3 23.32 2091 26.18 2091L29 2091 29 2093 27 2093C24.79 2093 23 2094.79 23 2097ZM21 2101L23 2101 23 2105 21 2105 21 2101 21 2101 21 2101ZM23 2111L21 2111 21 2107 23 2107 23 2111ZM23 2117L21 2117 21 2117 21 2117 21 2113 23 2113 23 2117ZM23 2123L21 2123 21 2123 21 2123 21 2119 23 2119 23 2123ZM21 2125L23 2125 23 2129 21 2129 21 2129 21 2129 21 2125 21 2125 21 2125ZM47 2139L43 2139 43 2137 47 2137 47 2139Z" class="cls-1"/><path d="M60 2121L60 2118.72C60.6 2118.38 61 2117.74 61 2117L61 2105C61 2103.9 60.11 2103 59 2103L35 2103C34.26 2103 33.62 2103.41 33.28 2104L31 2104 31 2105 56 2105C57.66 2105 59 2106.34 59 2108L59 2122C59 2123.66 57.66 2125 56 2125L53 2125 53 2130 48 2125 30 2125C28.34 2125 27 2123.66 27 2122L27 2108C27 2106.34 28.34 2105 30 2105L31 2105 31 2104C31 2102.34 32.34 2101 34 2101L60 2101C61.66 2101 63 2102.34 63 2104L63 2118C63 2119.66 61.66 2121 60 2121Z" class="cls-1"/></g><path d="M66 2032L65 2032 65 2030C66.11 2030 67 2029.1 67 2028L67 2008C67 2006.9 66.11 2006 65 2006L31 2006C29.9 2006 29 2006.9 29 2008L27 2008 27 2007C27 2005.34 28.34 2004 30 2004L66 2004C67.66 2004 69 2005.34 69 2007L69 2029C69 2030.66 67.66 2032 66 2032ZM63 2013L63 2035C63 2036.66 61.66 2038 60 2038L57 2038 57 2046 50 2038 24 2038C22.34 2038 21 2036.66 21 2035L21 2013C21 2011.34 22.34 2010 24 2010L60 2010C61.66 2010 63 2011.34 63 2013Z" class="cls-1"/><path d="M67 1951L67 1913 29 1913 29 1911 69 1911 69 1913 69 1951 67 1951ZM65 1917L65 1955 63 1955 63 1917 25 1917 25 1915 65 1915 65 1917ZM61 1959L21 1959 21 1919 61 1919 61 1959ZM59 1921L23 1921 23 1957 59 1957 59 1921ZM35 1947L35 1931 47 1939 35 1947Z" class="cls-1"/><path d="M74 1853L71 1853 78 1845 71 1837 74 1837 81 1845 74 1853ZM25 1825L65 1825 65 1865 25 1865 25 1825ZM27 1863L63 1863 63 1827 27 1827 27 1863ZM40.06 1842.99L50.62 1860.18 55.55 1852.14 61 1861.01 29 1861.01 40.06 1842.99ZM55.01 1839C52.8 1839 51.01 1837.2 51.01 1834.99 51.01 1832.78 52.8 1830.99 55.01 1830.99 57.22 1830.99 59.01 1832.78 59.01 1834.99 59.01 1837.2 57.22 1839 55.01 1839ZM16 1853L9 1845 16 1837 19 1837 12 1845 19 1853 16 1853Z" class="cls-1"/><path d="M67 1771L67 1733 29 1733 29 1731 69 1731 69 1733 69 1771 67 1771ZM65 1737L65 1775 63 1775 63 1737 25 1737 25 1735 65 1735 65 1737ZM61 1779L21 1779 21 1739 61 1739 61 1779ZM59 1741L23 1741 23 1777 59 1777 59 1741ZM46.62 1774.17L51.55 1766.14 57 1775.01 25 1775.01 36.06 1756.99 46.62 1774.17ZM51.01 1753C48.8 1753 47.01 1751.2 47.01 1748.99 47.01 1746.78 48.8 1744.99 51.01 1744.99 53.22 1744.99 55.01 1746.78 55.01 1748.99 55.01 1751.2 53.22 1753 51.01 1753Z" class="cls-1"/><path d="M21 1689L21 1641 69 1641 69 1689 21 1689ZM67 1643L23 1643 23 1687 67 1687 67 1643ZM52.02 1683.99L58.19 1674.17 65 1685.01 25 1685.01 38.83 1662.99 52.02 1683.99ZM58.01 1656.99C55.25 1656.99 53.01 1654.75 53.01 1651.99 53.01 1649.23 55.25 1646.99 58.01 1646.99 60.77 1646.99 63.01 1649.23 63.01 1651.99 63.01 1654.75 60.77 1656.99 58.01 1656.99Z" class="cls-1"/><g><path d="M67 1565.39L67 1565C67 1562.79 65.21 1561 63 1561L27 1561C24.79 1561 23 1562.79 23 1565L23 1593C23 1595.21 24.79 1597 27 1597L63 1597C65.21 1597 67 1595.21 67 1593L67 1583.33 69 1582 69 1594C69 1596.76 66.76 1599 64 1599L26 1599C23.24 1599 21 1596.76 21 1594L21 1556C21 1553.24 23.24 1551 26 1551L28 1551 28 1557C28 1558.11 28.9 1559 30 1559 31.11 1559 32 1558.11 32 1557L32 1551 38 1551 38 1557C38 1558.11 38.9 1559 40 1559 41.11 1559 42 1558.11 42 1557L42 1551 48 1551 48 1557C48 1558.11 48.9 1559 50 1559 51.11 1559 52 1558.11 52 1557L52 1551 58 1551 58 1557C58 1558.11 58.9 1559 60 1559 61.11 1559 62 1558.11 62 1557L62 1551 64 1551C66.76 1551 69 1553.24 69 1556L69 1564 67 1565.39ZM60 1558C59.45 1558 59 1557.55 59 1557L59 1550C59 1549.45 59.45 1549 60 1549 60.55 1549 61 1549.45 61 1550L61 1557C61 1557.55 60.55 1558 60 1558ZM50 1558C49.45 1558 49 1557.55 49 1557L49 1550C49 1549.45 49.45 1549 50 1549 50.55 1549 51 1549.45 51 1550L51 1557C51 1557.55 50.55 1558 50 1558ZM40 1558C39.45 1558 39 1557.55 39 1557L39 1550C39 1549.45 39.45 1549 40 1549 40.55 1549 41 1549.45 41 1550L41 1557C41 1557.55 40.55 1558 40 1558ZM30 1558C29.45 1558 29 1557.55 29 1557L29 1550C29 1549.45 29.45 1549 30 1549 30.55 1549 31 1549.45 31 1550L31 1557C31 1557.55 30.55 1558 30 1558Z" class="cls-1"/><path d="M63.25 1568L62 1568C61.45 1568 61 1567.55 61 1567L61 1566C61 1565.45 61.45 1565 62 1565L64 1565C64.55 1565 65 1565.45 65 1566L65 1566.78 63.25 1568ZM56.06 1573L56 1573C55.45 1573 55 1572.55 55 1572L55 1571C55 1570.45 55.45 1570 56 1570L58 1570C58.54 1570 58.97 1570.43 58.99 1570.96L56.06 1573ZM52 1573L50 1573C49.45 1573 49 1572.55 49 1572L49 1571C49 1570.45 49.45 1570 50 1570L52 1570C52.55 1570 53 1570.45 53 1571L53 1572C53 1572.55 52.55 1573 52 1573ZM46 1578L44 1578C43.45 1578 43 1577.55 43 1577L43 1576C43 1575.45 43.45 1575 44 1575L46 1575C46.55 1575 47 1575.45 47 1576L47 1577C47 1577.55 46.55 1578 46 1578ZM46 1573L44 1573C43.45 1573 43 1572.55 43 1572L43 1571C43 1570.45 43.45 1570 44 1570L46 1570C46.55 1570 47 1570.45 47 1571L47 1572C47 1572.55 46.55 1573 46 1573ZM40 1588L38 1588C37.45 1588 37 1587.55 37 1587L37 1586C37 1585.45 37.45 1585 38 1585L40 1585C40.55 1585 41 1585.45 41 1586L41 1587C41 1587.55 40.55 1588 40 1588ZM40 1583L38 1583C37.45 1583 37 1582.55 37 1582L37 1581C37 1580.45 37.45 1580 38 1580L40 1580C40.55 1580 41 1580.45 41 1581L41 1582C41 1582.55 40.55 1583 40 1583ZM40 1578L38 1578C37.45 1578 37 1577.55 37 1577L37 1576C37 1575.45 37.45 1575 38 1575L40 1575C40.55 1575 41 1575.45 41 1576L41 1577C41 1577.55 40.55 1578 40 1578ZM40 1573L38 1573C37.45 1573 37 1572.55 37 1572L37 1571C37 1570.45 37.45 1570 38 1570L40 1570C40.55 1570 41 1570.45 41 1571L41 1572C41 1572.55 40.55 1573 40 1573ZM34 1593L32 1593C31.45 1593 31 1592.55 31 1592L31 1591C31 1590.45 31.45 1590 32 1590L34 1590C34.55 1590 35 1590.45 35 1591L35 1592C35 1592.55 34.55 1593 34 1593ZM34 1588L32 1588C31.45 1588 31 1587.55 31 1587L31 1586C31 1585.45 31.45 1585 32 1585L34 1585C34.55 1585 35 1585.45 35 1586L35 1587C35 1587.55 34.55 1588 34 1588ZM34 1583L32 1583C31.45 1583 31 1582.55 31 1582L31 1581C31 1580.45 31.45 1580 32 1580L34 1580C34.55 1580 35 1580.45 35 1581L35 1582C35 1582.55 34.55 1583 34 1583ZM34 1578L32 1578C31.45 1578 31 1577.55 31 1577L31 1576C31 1575.45 31.45 1575 32 1575L34 1575C34.55 1575 35 1575.45 35 1576L35 1577C35 1577.55 34.55 1578 34 1578ZM34 1573L32 1573C31.45 1573 31 1572.55 31 1572L31 1571C31 1570.45 31.45 1570 32 1570L34 1570C34.55 1570 35 1570.45 35 1571L35 1572C35 1572.55 34.55 1573 34 1573ZM28 1593L26 1593C25.45 1593 25 1592.55 25 1592L25 1591C25 1590.45 25.45 1590 26 1590L28 1590C28.55 1590 29 1590.45 29 1591L29 1592C29 1592.55 28.55 1593 28 1593ZM28 1588L26 1588C25.45 1588 25 1587.55 25 1587L25 1586C25 1585.45 25.45 1585 26 1585L28 1585C28.55 1585 29 1585.45 29 1586L29 1587C29 1587.55 28.55 1588 28 1588ZM28 1583L26 1583C25.45 1583 25 1582.55 25 1582L25 1581C25 1580.45 25.45 1580 26 1580L28 1580C28.55 1580 29 1580.45 29 1581L29 1582C29 1582.55 28.55 1583 28 1583ZM28 1578L26 1578C25.45 1578 25 1577.55 25 1577L25 1576C25 1575.45 25.45 1575 26 1575L28 1575C28.55 1575 29 1575.45 29 1576L29 1577C29 1577.55 28.55 1578 28 1578ZM28 1573L26 1573C25.45 1573 25 1572.55 25 1572L25 1571C25 1570.45 25.45 1570 26 1570L28 1570C28.55 1570 29 1570.45 29 1571L29 1572C29 1572.55 28.55 1573 28 1573ZM64.38 1585.08C64.75 1585.23 65 1585.58 65 1586L65 1587C65 1587.55 64.55 1588 64 1588L62 1588C61.55 1588 61.19 1587.7 61.06 1587.29L64.38 1585.08ZM50 1575L52 1575C52.29 1575 52.54 1575.13 52.73 1575.32L49.3 1577.71C49.11 1577.53 49 1577.28 49 1577L49 1576C49 1575.45 49.45 1575 50 1575ZM44 1580L46 1580C46 1580 46 1580 46 1580L44 1583C43.45 1583 43 1582.55 43 1582L43 1581C43 1580.45 43.45 1580 44 1580Z" class="cls-1"/><path d="M58 1568L56 1568C55.45 1568 55 1567.55 55 1567L55 1566C55 1565.45 55.45 1565 56 1565L58 1565C58.55 1565 59 1565.45 59 1566L59 1567C59 1567.55 58.55 1568 58 1568ZM52 1568L50 1568C49.45 1568 49 1567.55 49 1567L49 1566C49 1565.45 49.45 1565 50 1565L52 1565C52.55 1565 53 1565.45 53 1566L53 1567C53 1567.55 52.55 1568 52 1568ZM46 1568L44 1568C43.45 1568 43 1567.55 43 1567L43 1566C43 1565.45 43.45 1565 44 1565L46 1565C46.55 1565 47 1565.45 47 1566L47 1567C47 1567.55 46.55 1568 46 1568ZM40 1568L38 1568C37.45 1568 37 1567.55 37 1567L37 1566C37 1565.45 37.45 1565 38 1565L40 1565C40.55 1565 41 1565.45 41 1566L41 1567C41 1567.55 40.55 1568 40 1568ZM34 1568L32 1568C31.45 1568 31 1567.55 31 1567L31 1566C31 1565.45 31.45 1565 32 1565L34 1565C34.55 1565 35 1565.45 35 1566L35 1567C35 1567.55 34.55 1568 34 1568ZM28 1568L26 1568C25.45 1568 25 1567.55 25 1567L25 1566C25 1565.45 25.45 1565 26 1565L28 1565C28.55 1565 29 1565.45 29 1566L29 1567C29 1567.55 28.55 1568 28 1568ZM38 1590L40 1590C40.55 1590 41 1590.45 41 1591L41 1592C41 1592.55 40.55 1593 40 1593L38 1593C37.45 1593 37 1592.55 37 1592L37 1591C37 1590.45 37.45 1590 38 1590ZM52.96 1592.19C52.87 1592.65 52.49 1593 52 1593L50 1593C49.8 1593 49.62 1592.93 49.47 1592.82L52.96 1592.19ZM57 1590L58 1590C58.55 1590 59 1590.45 59 1591L59 1592C59 1592.55 58.55 1593 58 1593L56 1593C55.45 1593 55 1592.55 55 1592L55 1591.33 57 1590ZM62 1590L64 1590C64.55 1590 65 1590.45 65 1591L65 1592C65 1592.55 64.55 1593 64 1593L62 1593C61.45 1593 61 1592.55 61 1592L61 1591C61 1590.45 61.45 1590 62 1590Z" class="cls-2"/><path d="M80.82 1572.44L79.19 1573.59 72.3 1563.76 73.93 1562.61C75.29 1561.66 77.16 1561.99 78.11 1563.35L81.56 1568.26C82.51 1569.62 82.18 1571.49 80.82 1572.44ZM58.72 1587.94L51.83 1578.12 70.66 1564.91 77.55 1574.74 58.72 1587.94ZM54.38 1590.46C53.48 1590.82 43.02 1593.39 42.16 1592.16 41.34 1590.99 47.36 1581.93 47.99 1581.22 48.98 1580.07 50.19 1579.26 50.19 1579.26L57.08 1589.09C57.08 1589.09 55.9 1589.85 54.38 1590.46Z" class="cls-1"/></g><path d="M59 1509L31 1509C28.24 1509 26 1506.76 26 1504L26 1473 38 1461 42 1461 45 1461 45 1463 43 1463 43 1465 45 1465 45 1467 43 1467 43 1469 45 1469 45 1471 43 1471 43 1473 45 1473 45 1475 43 1475 43 1477 45 1477 45 1479 43 1479 43 1481 45 1481 45 1483 43 1483 43 1485 45 1485 45 1487 43 1487 43 1489 45 1489 45 1491 47 1491 47 1489 45 1489 45 1487 47 1487 47 1485 45 1485 45 1483 47 1483 47 1481 45 1481 45 1479 47 1479 47 1477 45 1477 45 1475 47 1475 47 1473 45 1473 45 1471 47 1471 47 1469 45 1469 45 1467 47 1467 47 1465 45 1465 45 1463 47 1463 47 1461 48 1461 59 1461C61.76 1461 64 1463.24 64 1466L64 1504C64 1506.76 61.76 1509 59 1509ZM62 1467C62 1464.79 60.21 1463 58 1463L48 1463 48 1492 42 1492 42 1463 38 1463 38 1468C38 1470.76 35.76 1473 33 1473L28 1473 28 1503C28 1505.21 29.79 1507 32 1507L58 1507C60.21 1507 62 1505.21 62 1503L62 1467ZM43 1493L47 1493 47 1501 43 1501 43 1493ZM44 1496L46 1496 46 1494 44 1494 44 1496Z" class="cls-1"/><g><path d="M63.82 1419L61 1419 61 1417 63 1417C65.21 1417 67 1415.21 67 1413L67 1411 69 1411 69 1413.86C69 1416.7 66.68 1419 63.82 1419ZM67 1405L69 1405 69 1409 67 1409 67 1405ZM67 1399L69 1399 69 1403 67 1403 67 1399ZM67 1393L69 1393 69 1397 67 1397 67 1393ZM67 1387L69 1387 69 1391 67 1391 67 1387ZM67 1381L69 1381 69 1385 67 1385 67 1381ZM67 1377C67 1374.79 65.21 1373 63 1373L61 1373 61 1371 63.82 1371C66.68 1371 69 1373.3 69 1376.14L69 1379 67 1379 67 1377ZM59 1371L59 1371 59 1373 55 1373 55 1371 59 1371 59 1371ZM59 1419L55 1419 55 1417 59 1417 59 1419ZM53 1373L49 1373 49 1371 53 1371 53 1371 53 1371 53 1373ZM53 1419L49 1419 49 1417 53 1417 53 1419ZM47 1373L43 1373 43 1371 43 1371 43 1371 47 1371 47 1371 47 1371 47 1373ZM37 1417L41 1417 41 1419 37 1419 37 1417ZM37 1371L37 1371 37 1371 41 1371 41 1373 37 1373 37 1371ZM31 1417L35 1417 35 1419 31 1419 31 1417ZM31 1371L31 1371 31 1371 35 1371 35 1373 31 1373 31 1371ZM21 1413.86L21 1411 21 1411 21 1411 23 1411 23 1413C23 1415.21 24.79 1417 27 1417L29 1417 29 1419 26.18 1419C23.32 1419 21 1416.7 21 1413.86ZM23 1377L23 1379 21 1379 21 1376.14C21 1373.3 23.32 1371 26.18 1371L29 1371 29 1373 27 1373C24.79 1373 23 1374.79 23 1377ZM21 1381L23 1381 23 1385 21 1385 21 1381 21 1381 21 1381ZM23 1391L21 1391 21 1387 23 1387 23 1391ZM23 1397L21 1397 21 1397 21 1397 21 1393 23 1393 23 1397ZM23 1403L21 1403 21 1403 21 1403 21 1399 23 1399 23 1403ZM21 1405L23 1405 23 1409 21 1409 21 1409 21 1409 21 1405 21 1405 21 1405ZM47 1419L43 1419 43 1417 47 1417 47 1419Z" class="cls-1"/><path d="M29 1411L29 1410 61 1410 61 1411 29 1411ZM29 1408L61 1408 61 1409 29 1409 29 1408ZM29 1406L61 1406 61 1407 29 1407 29 1406ZM33 1403L61 1403 61 1405 33 1405 33 1403ZM29 1398L61 1398 61 1399 29 1399 29 1398ZM29 1396L61 1396 61 1397 29 1397 29 1396ZM29 1394L61 1394 61 1395 29 1395 29 1394ZM33 1391L61 1391 61 1393 33 1393 33 1391ZM29 1386L61 1386 61 1387 29 1387 29 1386ZM29 1384L61 1384 61 1385 29 1385 29 1384ZM29 1382L61 1382 61 1383 29 1383 29 1382ZM33 1379L61 1379 61 1381 33 1381 33 1379ZM29 1379L31 1379 31 1381 29 1381 29 1379ZM31 1393L29 1393 29 1391 31 1391 31 1393ZM31 1405L29 1405 29 1403 31 1403 31 1405Z" class="cls-1"/></g><g><path d="M59 1329L31 1329C28.24 1329 26 1326.76 26 1324L26 1297 42 1281 59 1281C61.76 1281 64 1283.24 64 1286L64 1324C64 1326.76 61.76 1329 59 1329ZM62 1287C62 1284.79 60.21 1283 58 1283L42 1283 42 1292C42 1294.76 39.76 1297 37 1297L28 1297 28 1323C28 1325.21 29.79 1327 32 1327L58 1327C60.21 1327 62 1325.21 62 1323L62 1287Z" class="cls-1"/><path d="M54.89 1303.13L49.26 1308.81C47.31 1310.77 44.15 1310.79 42.18 1308.84 42.02 1308.68 41.89 1308.5 41.76 1308.32 41.66 1308.28 41.56 1308.22 41.47 1308.14 41.08 1307.75 41.08 1307.12 41.47 1306.72 41.86 1306.33 42.49 1306.33 42.88 1306.72 42.88 1306.72 42.88 1306.72 42.88 1306.72L43.01 1306.59C43.16 1306.89 43.34 1307.17 43.59 1307.42 44.77 1308.59 46.67 1308.58 47.84 1307.4L53.47 1301.72C54.63 1300.54 54.63 1298.64 53.45 1297.48 52.27 1296.31 50.37 1296.32 49.21 1297.5L46.25 1300.48 43.98 1299.92 47.79 1296.09C49.73 1294.13 52.9 1294.11 54.86 1296.06 56.82 1298 56.83 1301.17 54.89 1303.13ZM47.82 1303.16C47.98 1303.32 48.11 1303.5 48.24 1303.68 48.34 1303.72 48.44 1303.78 48.53 1303.86 48.92 1304.25 48.92 1304.89 48.53 1305.28 48.14 1305.67 47.51 1305.67 47.12 1305.28L46.99 1305.41C46.84 1305.11 46.66 1304.83 46.41 1304.58 45.23 1303.41 43.33 1303.42 42.17 1304.6L36.53 1310.28C35.37 1311.46 35.38 1313.36 36.55 1314.52 37.73 1315.69 39.63 1315.68 40.8 1314.5L43.75 1311.52 46.02 1312.08 42.22 1315.91C40.27 1317.87 37.1 1317.89 35.14 1315.94 33.18 1314 33.17 1310.83 35.11 1308.87L40.74 1303.19C42.69 1301.23 45.86 1301.21 47.82 1303.16Z" class="cls-1"/></g><g><path d="M63.82 1239L61 1239 61 1237 63 1237C65.21 1237 67 1235.21 67 1233L67 1231 69 1231 69 1233.86C69 1236.7 66.68 1239 63.82 1239ZM67 1225L69 1225 69 1229 67 1229 67 1225ZM67 1219L69 1219 69 1223 67 1223 67 1219ZM67 1213L69 1213 69 1217 67 1217 67 1213ZM67 1207L69 1207 69 1211 67 1211 67 1207ZM67 1201L69 1201 69 1205 67 1205 67 1201ZM67 1197C67 1194.79 65.21 1193 63 1193L61 1193 61 1191 63.82 1191C66.68 1191 69 1193.3 69 1196.14L69 1199 67 1199 67 1197ZM59 1191L59 1191 59 1193 55 1193 55 1191 59 1191 59 1191ZM59 1239L55 1239 55 1237 59 1237 59 1239ZM53 1193L49 1193 49 1191 53 1191 53 1191 53 1191 53 1193ZM53 1239L49 1239 49 1237 53 1237 53 1239ZM47 1193L43 1193 43 1191 43 1191 43 1191 47 1191 47 1191 47 1191 47 1193ZM37 1237L41 1237 41 1239 37 1239 37 1237ZM37 1191L37 1191 37 1191 41 1191 41 1193 37 1193 37 1191ZM31 1237L35 1237 35 1239 31 1239 31 1237ZM31 1191L31 1191 31 1191 35 1191 35 1193 31 1193 31 1191ZM21 1233.86L21 1231 21 1231 21 1231 23 1231 23 1233C23 1235.21 24.79 1237 27 1237L29 1237 29 1239 26.18 1239C23.32 1239 21 1236.7 21 1233.86ZM23 1197L23 1199 21 1199 21 1196.14C21 1193.3 23.32 1191 26.18 1191L29 1191 29 1193 27 1193C24.79 1193 23 1194.79 23 1197ZM21 1201L23 1201 23 1205 21 1205 21 1201 21 1201 21 1201ZM23 1211L21 1211 21 1207 23 1207 23 1211ZM23 1217L21 1217 21 1217 21 1217 21 1213 23 1213 23 1217ZM23 1223L21 1223 21 1223 21 1223 21 1219 23 1219 23 1223ZM21 1225L23 1225 23 1229 21 1229 21 1229 21 1229 21 1225 21 1225 21 1225ZM47 1239L43 1239 43 1237 47 1237 47 1239Z" class="cls-1"/><path d="M46 1231L46 1216 61 1216 61 1231 46 1231ZM46 1199L61 1199 61 1214 46 1214 46 1199ZM29 1216L44 1216 44 1231 29 1231 29 1216ZM29 1199L44 1199 44 1214 29 1214 29 1199Z" class="cls-1"/></g><path d="M76.82 1119.44L75.19 1120.59 68.3 1110.76 69.93 1109.61C71.29 1108.66 73.16 1108.99 74.11 1110.35L77.56 1115.26C78.51 1116.62 78.18 1118.49 76.82 1119.44ZM54.72 1134.94L47.83 1125.12 66.66 1111.91 73.55 1121.74 54.72 1134.94ZM38.16 1139.16C37.34 1137.99 43.36 1128.93 43.99 1128.21 44.98 1127.07 46.19 1126.26 46.19 1126.26L53.08 1136.09C53.08 1136.09 51.9 1136.85 50.38 1137.46 49.48 1137.82 39.02 1140.39 38.16 1139.16ZM62 1107C62 1104.79 60.21 1103 58 1103L42 1103 42 1112C42 1114.76 39.76 1117 37 1117L28 1117 28 1143C28 1145.21 29.79 1147 32 1147L58 1147C60.21 1147 62 1145.21 62 1143L62 1133 64 1131 64 1144C64 1146.76 61.76 1149 59 1149L31 1149C28.24 1149 26 1146.76 26 1144L26 1117 42 1101 59 1101C61.76 1101 64 1103.24 64 1106L64 1110 62 1112 62 1107Z" class="cls-1"/><path d="M67.83 1057.97C66.27 1059.53 63.73 1059.53 62.17 1057.97L50.66 1046.46C52.9 1044.97 54.83 1043.05 56.34 1040.83L67.83 1052.31C69.39 1053.87 69.39 1056.4 67.83 1057.97ZM39 1047C29.06 1047 21 1038.94 21 1029 21 1019.06 29.06 1011 39 1011 48.94 1011 57 1019.06 57 1029 57 1038.94 48.94 1047 39 1047ZM49 1019.21L49 1019 48.79 1019C46.26 1016.53 42.81 1015 39 1015 31.27 1015 25 1021.27 25 1029 25 1032.81 26.53 1036.26 29 1038.79L29 1039 29.21 1039C31.74 1041.47 35.19 1043 39 1043 42.81 1043 46.26 1041.47 48.79 1039L49 1039 49 1038.79C51.47 1036.26 53 1032.81 53 1029 53 1025.19 51.47 1021.74 49 1019.21ZM31 1029L29 1029C29 1023.48 33.48 1019 39 1019L39 1021C34.58 1021 31 1024.58 31 1029Z" class="cls-1"/><path d="M63.82 969L26.18 969C23.32 969 21 966.7 21 963.86L21 934.14C21 931.71 22.71 929.68 25 929.15L25 926.14C25 923.3 27.32 921 30.18 921L38.82 921C41.68 921 44 923.3 44 926.14L44 929 46 929 46 926.14C46 923.3 48.32 921 51.18 921L59.82 921C62.68 921 65 923.3 65 926.14L65 929.15C67.29 929.68 69 931.71 69 934.14L69 963.86C69 966.7 66.68 969 63.82 969ZM63 926C63 924.34 61.66 923 60 923L51 923C49.34 923 48 924.34 48 926L48 929 63 929 63 926ZM67 935C67 932.79 65.21 931 63 931L46 931 44 931 42 931 42 929 42 929 42 926C42 924.34 40.66 923 39 923L30 923C28.34 923 27 924.34 27 926L27 929 27 931C24.79 931 23 932.79 23 935L23 963C23 965.21 24.79 967 27 967L63 967C65.21 967 67 965.21 67 963L67 935Z" class="cls-1"/><path d="M49 867C45.95 872.19 45 879 45 879L45 879C45 879 44.06 872.16 41 867 38.33 862.5 30 854.33 30 846 30 837.72 36.72 831 45 831 53.28 831 60 837.72 60 846 60 854.35 51.65 862.5 49 867ZM45 840C41.69 840 39 842.69 39 846 39 849.31 41.69 852 45 852 48.31 852 51 849.31 51 846 51 842.69 48.31 840 45 840Z" class="cls-1"/><path d="M72 788.94C70.93 788.94 69.85 788.94 68.71 788.88 62.77 788.63 59.81 786.56 58.1 785.13 53.49 788.07 48.75 789 44.64 789 29.6 789 20 777.19 20 765.19 20 752.62 29.86 741 44.51 741 59.17 741 69.28 752.37 69.28 764.75 69.28 773 65.93 777.31 64.35 779.31 66.38 780.81 68.46 781.25 72 781.44L72 788.94ZM44.51 749.18C37.31 749.18 31.44 754 29.98 761.5 29.86 762.94 29.86 763.94 29.98 764.81 31.62 764.31 34.28 763.37 37.82 763.37 41.67 763.37 45.08 764.19 48.75 766.56 51.59 768.44 53.17 769.88 57.02 773.38 58.86 771.19 59.87 768.13 59.87 764.75 59.87 755.37 52.85 749.18 44.58 749.18L44.51 749.18ZM44.64 780.81C47.48 780.81 50.07 780 51.4 779.13 50.01 777.5 47.42 775.31 46.47 774.56 43.44 772.25 40.09 771.31 36.87 771.31 34.21 771.31 32.51 771.81 31.12 772.31 34.03 778.75 40.53 780.81 44.58 780.81L44.64 780.81Z" class="cls-1"/><path d="M63.56 685.25C63.56 686.59 63.62 687.45 63.74 687.84 63.86 688.23 64.08 688.54 64.39 688.78 64.7 689.02 64.99 689.14 65.25 689.14 66.32 689.14 67.32 688.32 68.28 686.69L69.01 687.23C67.69 690.41 65.53 692 62.55 692 61.09 692 59.86 691.59 58.85 690.77 57.84 689.95 57.2 689.04 56.92 688.03 56.76 687.46 56.68 685.94 56.68 683.46L56.68 670.92 53.68 670.92 53.68 670.05C55.74 668.58 57.5 667.03 58.95 665.41 60.4 663.79 61.66 661.98 62.75 659.97L63.56 659.97 63.56 668.46 69.01 668.46 69.01 670.92 63.56 670.92 63.56 685.25ZM48.3 662.59C47.66 661.68 46.78 660.94 45.67 660.4 45.04 660.1 43.95 659.95 42.4 659.95L39.92 659.95 39.92 685.92C39.92 687.64 40.01 688.71 40.2 689.14 40.39 689.57 40.76 689.95 41.31 690.27 41.85 690.6 42.6 690.76 43.55 690.76L44.66 690.76 44.66 691.68 27.21 691.68 27.21 690.76 28.32 690.76C29.28 690.76 30.06 690.58 30.65 690.24 31.08 690 31.41 689.61 31.66 689.04 31.84 688.65 31.93 687.6 31.93 685.92L31.93 659.95 29.52 659.95C27.28 659.95 25.65 660.43 24.63 661.39 23.21 662.73 22.31 664.64 21.93 667.12L20.99 667.12 20.99 658.01 50.93 658.01 50.93 667.12 50.04 667.12C49.52 665.02 48.94 663.51 48.3 662.59Z" class="cls-1"/><path d="M63.82 609L61 609 61 607 63 607C65.21 607 67 605.21 67 603L67 601 69 601 69 603.86C69 606.7 66.68 609 63.82 609ZM67 595L69 595 69 599 67 599 67 595ZM67 589L69 589 69 593 67 593 67 589ZM67 583L69 583 69 587 67 587 67 583ZM67 577L69 577 69 581 67 581 67 577ZM67 571L69 571 69 575 67 575 67 571ZM67 567C67 564.79 65.21 563 63 563L61 563 61 561 63.82 561C66.68 561 69 563.3 69 566.14L69 569 67 569 67 567ZM59 561L59 561 59 563 55 563 55 561 59 561 59 561ZM59 609L55 609 55 607 59 607 59 609ZM53 563L49 563 49 561 53 561 53 561 53 561 53 563ZM53 609L49 609 49 607 53 607 53 609ZM47 563L43 563 43 561 43 561 43 561 47 561 47 561 47 561 47 563ZM37 607L41 607 41 609 37 609 37 607ZM37 561L37 561 37 561 41 561 41 563 37 563 37 561ZM31 607L35 607 35 609 31 609 31 607ZM31 561L31 561 31 561 35 561 35 563 31 563 31 561ZM21 603.86L21 601 21 601 21 601 23 601 23 603C23 605.21 24.79 607 27 607L29 607 29 609 26.18 609C23.32 609 21 606.7 21 603.86ZM23 567L23 569 21 569 21 566.14C21 563.3 23.32 561 26.18 561L29 561 29 563 27 563C24.79 563 23 564.79 23 567ZM21 571L23 571 23 575 21 575 21 571 21 571 21 571ZM23 581L21 581 21 577 23 577 23 581ZM23 587L21 587 21 587 21 587 21 583 23 583 23 587ZM23 593L21 593 21 593 21 593 21 589 23 589 23 593ZM21 595L23 595 23 599 21 599 21 599 21 599 21 595 21 595 21 595ZM47 609L43 609 43 607 47 607 47 609Z" class="cls-1"/><path d="M67 520L67 517 69 517 69 520 67 520ZM67 511L69 511 69 515 67 515 67 511ZM67 507C67 504.79 65.21 503 63 503L61 503 61 501 63.82 501C66.68 501 69 503.3 69 506.14L69 509 67 509 67 507ZM63.82 491L61 491 61 489 63 489C65.21 489 67 487.21 67 485L67 483 69 483 69 485.86C69 488.7 66.68 491 63.82 491ZM67 477L69 477 69 481 67 481 67 477ZM67 472L69 472 69 475 67 475 67 472ZM55 489L59 489 59 491 55 491 55 489ZM53 503L49 503 49 501 53 501 53 501 53 501 53 503ZM49 489L53 489 53 491 49 491 49 489ZM47 503L43 503 43 501 43 501 43 501 47 501 47 501 47 501 47 503ZM43 489L47 489 47 491 43 491 43 489ZM37 489L41 489 41 491 37 491 37 489ZM41 503L37 503 37 501 37 501 37 501 41 501 41 503ZM31 489L35 489 35 491 31 491 31 489ZM35 503L31 503 31 501 31 501 31 501 35 501 35 503ZM21 485.86L21 483 21 483 21 483 23 483 23 485C23 487.21 24.79 489 27 489L29 489 29 491 26.18 491C23.32 491 21 488.7 21 485.86ZM21 481L21 481 21 477 21 477 21 477 23 477 23 481 21 481 21 481ZM21 475L21 475 21 472 21 472 23 472 23 475 21 475 21 475ZM26.18 501L29 501 29 503 27 503C24.79 503 23 504.79 23 507L23 509 21 509 21 506.14C21 503.3 23.32 501 26.18 501ZM21 511L23 511 23 515 21 515 21 511 21 511 21 511ZM23 520L21 520 21 520 21 517 23 517 23 520ZM59 501L59 501 59 503 55 503 55 501 59 501 59 501Z" class="cls-1"/><path d="M21 406L21 404 69 404 69 406 21 406ZM63.82 400L61 400 61 398 63 398C65.21 398 67 396.21 67 394L67 392 69 392 69 394.86C69 397.7 66.68 400 63.82 400ZM67 386L69 386 69 390 67 390 67 386ZM67 381L69 381 69 384 67 384 67 381ZM55 398L59 398 59 400 55 400 55 398ZM49 398L53 398 53 400 49 400 49 398ZM43 398L47 398 47 400 43 400 43 398ZM37 398L41 398 41 400 37 400 37 398ZM31 398L35 398 35 400 31 400 31 398ZM21 394.86L21 392 21 392 21 392 23 392 23 394C23 396.21 24.79 398 27 398L29 398 29 400 26.18 400C23.32 400 21 397.7 21 394.86ZM21 390L21 390 21 386 21 386 21 386 23 386 23 390 21 390 21 390ZM21 384L21 384 21 381 21 381 23 381 23 384 21 384 21 384ZM26.18 410L29 410 29 412 27 412C24.79 412 23 413.79 23 416L23 418 21 418 21 415.14C21 412.3 23.32 410 26.18 410ZM21 420L23 420 23 424 21 424 21 420 21 420 21 420ZM23 429L21 429 21 429 21 426 23 426 23 429ZM35 412L31 412 31 410 31 410 31 410 35 410 35 412ZM41 412L37 412 37 410 37 410 37 410 41 410 41 412ZM47 410L47 410 47 412 43 412 43 410 43 410 43 410 47 410 47 410ZM53 410L53 410 53 412 49 412 49 410 53 410 53 410ZM59 410L59 410 59 412 55 412 55 410 59 410 59 410ZM69 415.14L69 418 67 418 67 416C67 413.79 65.21 412 63 412L61 412 61 410 63.82 410C66.68 410 69 412.3 69 415.14ZM69 424L67 424 67 420 69 420 69 424ZM69 429L67 429 67 426 69 426 69 429Z" class="cls-1"/><path d="M66 328L32 328C30.34 328 29 326.66 29 325 29 323.34 30.34 322 32 322L66 322C67.66 322 69 323.34 69 325 69 326.66 67.66 328 66 328ZM66 318L32 318C30.34 318 29 316.66 29 315 29 313.34 30.34 312 32 312L66 312C67.66 312 69 313.34 69 315 69 316.66 67.66 318 66 318ZM66 308L32 308C30.34 308 29 306.66 29 305 29 303.34 30.34 302 32 302L66 302C67.66 302 69 303.34 69 305 69 306.66 67.66 308 66 308ZM66 298L32 298C30.34 298 29 296.66 29 295 29 293.34 30.34 292 32 292L66 292C67.66 292 69 293.34 69 295 69 296.66 67.66 298 66 298ZM24 338C22.34 338 21 336.66 21 335 21 333.34 22.34 332 24 332 25.66 332 27 333.34 27 335 27 336.66 25.66 338 24 338ZM24 328C22.34 328 21 326.66 21 325 21 323.34 22.34 322 24 322 25.66 322 27 323.34 27 325 27 326.66 25.66 328 24 328ZM24 318C22.34 318 21 316.66 21 315 21 313.34 22.34 312 24 312 25.66 312 27 313.34 27 315 27 316.66 25.66 318 24 318ZM24 308C22.34 308 21 306.66 21 305 21 303.34 22.34 302 24 302 25.66 302 27 303.34 27 305 27 306.66 25.66 308 24 308ZM24 298C22.34 298 21 296.66 21 295 21 293.34 22.34 292 24 292 25.66 292 27 293.34 27 295 27 296.66 25.66 298 24 298ZM32 332L66 332C67.66 332 69 333.34 69 335 69 336.66 67.66 338 66 338L32 338C30.34 338 29 336.66 29 335 29 333.34 30.34 332 32 332Z" class="cls-1"/><path d="M64 249L60 249C57.24 249 55 246.76 55 244L55 206C55 203.24 57.24 201 60 201L64 201C66.76 201 69 203.24 69 206L69 244C69 246.76 66.76 249 64 249ZM67 206C67 204.34 65.66 203 64 203L60 203C58.34 203 57 204.34 57 206L57 244C57 245.66 58.34 247 60 247L64 247C65.66 247 67 245.66 67 244L67 206ZM47 249L43 249C40.24 249 38 246.76 38 244L38 206C38 203.24 40.24 201 43 201L47 201C49.76 201 52 203.24 52 206L52 244C52 246.76 49.76 249 47 249ZM50 206C50 204.34 48.66 203 47 203L43 203C41.34 203 40 204.34 40 206L40 244C40 245.66 41.34 247 43 247L47 247C48.66 247 50 245.66 50 244L50 206ZM30 249L26 249C23.24 249 21 246.76 21 244L21 206C21 203.24 23.24 201 26 201L30 201C32.76 201 35 203.24 35 206L35 244C35 246.76 32.76 249 30 249ZM33 206C33 204.34 31.66 203 30 203L26 203C24.34 203 23 204.34 23 206L23 244C23 245.66 24.34 247 26 247L30 247C31.66 247 33 245.66 33 244L33 206Z" class="cls-1"/><path d="M64.41 145.97C64.33 145.94 63.49 145.65 62.42 145.28 61.55 147.09 59.83 150.39 58 152 54.52 155.08 49.41 156.5 48 157 46 157.72 45 159 45 159 45 159 44 157.72 42 157 40.6 156.5 35.48 155.08 32 152 30.06 150.28 28.22 146.66 27.42 144.94 26.33 145.34 25.45 145.66 25.36 145.69 25.05 145.8 24.72 145.61 24.81 145.28 24.87 145.01 26.23 139.61 26.35 139.15 26.43 138.85 26.82 138.71 27.07 138.89 27.35 139.08 31.89 142.35 32.21 142.6 32.44 142.77 32.38 143.13 32.04 143.26 31.94 143.29 31.34 143.51 30.54 143.81 31.55 145.29 33.83 148.43 36 150 37.75 151.27 40.26 152.16 41 152 42.19 151.75 42 150 42 150L42.09 150 42.72 130 37.5 130C36.67 130 36 129.33 36 128.5 36 127.67 36.67 127 37.5 127L42.81 127 42.95 122.62C40.65 121.78 39 119.59 39 117 39 113.69 41.69 111 45 111 48.31 111 51 113.69 51 117 51 119.59 49.35 121.78 47.05 122.62L47.19 127 52.5 127C53.33 127 54 127.67 54 128.5 54 129.33 53.33 130 52.5 130L47.28 130 47.91 150 48 150C48 150 47.81 151.75 49 152 49.74 152.16 52.25 151.27 54 150 56.01 148.54 58.11 145.75 59.22 144.17 58.22 143.82 57.44 143.55 57.32 143.51 56.96 143.38 56.9 143.01 57.15 142.83 57.49 142.59 62.3 139.28 62.6 139.07 62.87 138.89 63.29 139.03 63.37 139.34 63.49 139.81 64.94 145.28 65.01 145.55 65.1 145.89 64.74 146.09 64.41 145.97ZM49 117C49 114.79 47.21 113 45 113 42.79 113 41 114.79 41 117 41 119.21 42.79 121 45 121 47.21 121 49 119.21 49 117Z" class="cls-1"/><g><path d="M54 53L54 57 49.83 57C49.52 58.82 48.8 60.49 47.77 61.94L50.73 64.9 47.9 67.73 44.94 64.76C43.49 65.79 41.82 66.51 40 66.82L40 71 36 71 36 66.82C34.18 66.51 32.51 65.79 31.07 64.76L28.1 67.73 25.27 64.9 28.24 61.94C27.21 60.5 26.48 58.82 26.17 57L22 57 22 53 26.17 53C26.48 51.18 27.21 49.51 28.23 48.06L25.27 45.1 28.1 42.27 31.06 45.24C32.51 44.21 34.18 43.49 36 43.18L36 39 40 39 40 43.18C41.82 43.49 43.49 44.21 44.93 45.24L47.9 42.27 50.73 45.1 47.77 48.06C48.79 49.51 49.52 51.18 49.83 53L54 53ZM38 49C34.69 49 32 51.69 32 55 32 58.31 34.69 61 38 61 41.31 61 44 58.31 44 55 44 51.69 41.31 49 38 49Z" class="cls-1"/><path d="M67 30.5L67 33.5 63.86 33.5C63.63 34.86 63.09 36.12 62.32 37.2L64.55 39.42 62.43 41.55 60.2 39.32C59.12 40.09 57.87 40.64 56.5 40.87L56.5 44 53.5 44 53.5 40.87C52.14 40.64 50.88 40.09 49.8 39.32L47.58 41.55 45.46 39.42 47.68 37.2C46.91 36.12 46.37 34.87 46.14 33.5L43 33.5 43 30.5 46.14 30.5C46.37 29.14 46.91 27.88 47.68 26.8L45.45 24.58 47.57 22.46 49.8 24.68C50.88 23.91 52.14 23.37 53.5 23.14L53.5 20 56.5 20 56.5 23.14C57.87 23.36 59.12 23.91 60.2 24.68L62.42 22.45 64.55 24.58 62.32 26.8C63.09 27.88 63.63 29.14 63.86 30.5L67 30.5ZM55 27C52.24 27 50 29.24 50 32 50 34.76 52.24 37 55 37 57.76 37 60 34.76 60 32 60 29.24 57.76 27 55 27Z" class="cls-3"/></g><g><rect width="1" height="1" class="cls-4"/><rect x="89" y="3800" width="1" height="1" class="cls-4"/></g></g></svg>