<svg
        xmlns="http://www.w3.org/2000/svg"
        xmlns:xlink="http://www.w3.org/1999/xlink"
        width="17px" height="16px">
    <path fill-rule="evenodd"  fill="rgb(0, 0, 0)"
          d="M7.209,1.86 C6.871,1.420 6.878,1.964 7.223,2.291 L11.459,6.327 L1.355,6.327 C0.888,6.327 0.512,6.704 0.512,7.171 L0.512,8.296 C0.512,8.764 0.888,9.140 1.355,9.140 L11.459,9.140 L7.223,13.176 C6.882,13.503 6.875,14.48 7.209,14.382 L7.989,15.162 C8.316,15.493 8.851,15.493 9.181,15.162 L16.15,8.328 C16.346,8.1 16.346,7.466 16.15,7.136 L9.181,0.305 C8.854,0.24 8.320,0.24 7.989,0.305 L7.209,1.86 Z"/>
</svg>
